<svg width="41" height="41" viewBox="0 0 41 41" fill="none" xmlns="http://www.w3.org/2000/svg">
<circle cx="20.5" cy="20.5" r="20.5" fill="#FABB14"/>
<path d="M17.327 14.034C14.1864 15.6088 13.824 15.8011 13.73 15.9488C13.5734 16.1814 13.56 16.3738 13.6137 17.367C13.909 22.4627 15.9804 26.1401 19.546 27.876C20.2752 28.2294 20.7405 28.3994 21 28.3994C21.255 28.3994 21.7203 28.2339 22.454 27.876C26.0062 26.1536 28.091 22.4627 28.3863 17.367C28.4399 16.3693 28.4265 16.1814 28.2655 15.9443C28.167 15.7877 27.8583 15.6267 24.6685 14.0295C21.7963 12.5934 21.1476 12.2847 20.9955 12.2847C20.8479 12.2847 20.1992 12.5934 17.327 14.034ZM21.255 17.0807C21.3087 17.1388 21.51 17.5101 21.7113 17.9083C21.9261 18.3378 22.114 18.6644 22.1766 18.7047C22.2571 18.7539 23.644 18.9954 23.8632 18.9954C23.8856 18.9954 23.9616 19.0491 24.0377 19.1118C24.1451 19.2012 24.1764 19.2639 24.1764 19.3891C24.1764 19.5368 24.1227 19.6039 23.5277 20.2034C22.7671 20.9729 22.8119 20.8208 23.0087 21.9482C23.125 22.5969 23.134 22.7042 23.0803 22.8295C23.0132 22.9861 22.8969 23.0666 22.7224 23.0666C22.6553 23.0666 22.275 22.8966 21.8768 22.6863C21.3892 22.4313 21.0984 22.3061 21 22.3061C20.9016 22.3061 20.6108 22.4313 20.1231 22.6863C19.7249 22.8966 19.3447 23.0666 19.2776 23.0666C19.1031 23.0666 18.9868 22.9861 18.9197 22.8295C18.8704 22.7042 18.8794 22.5969 18.9912 21.9705C19.1926 20.8297 19.2328 20.9729 18.4723 20.2034C17.8773 19.6039 17.8236 19.5368 17.8236 19.3891C17.8236 19.2639 17.8549 19.2012 17.9623 19.1118C18.0383 19.0491 18.1144 18.9954 18.1367 18.9954C18.356 18.9954 19.7428 18.7539 19.8234 18.7047C19.886 18.6644 20.0739 18.3378 20.2886 17.9083C20.7092 17.0628 20.7718 16.9822 21 16.9822C21.1118 16.9822 21.1924 17.0135 21.255 17.0807Z" fill="black"/>
<path d="M12.4102 25.1414C11.4976 26.0586 10.9741 26.6133 11.001 26.6402C11.0278 26.6625 11.5692 26.8773 12.2089 27.1144C12.8487 27.356 13.3855 27.5707 13.399 27.5931C13.4168 27.6199 13.6271 28.1702 13.8687 28.8189C14.1103 29.4676 14.3206 30 14.334 30C14.3474 30 14.9066 29.4497 15.5777 28.7786L16.8035 27.5528L16.3248 27.0875C15.4882 26.2778 14.7903 25.3562 14.2042 24.2959C14.0566 24.023 13.9179 23.7769 13.9 23.7456C13.8732 23.7053 13.4168 24.1348 12.4102 25.1414Z" fill="black"/>
<path d="M27.9837 23.9514C27.4066 25.0967 26.6013 26.1928 25.6752 27.0875L25.1965 27.5528L26.4224 28.7786C27.0934 29.4497 27.6527 30 27.6661 30C27.6795 30 27.8898 29.4676 28.1314 28.8189C28.3729 28.1702 28.5832 27.6199 28.6011 27.5931C28.6145 27.5707 29.1514 27.356 29.7911 27.1189C30.4309 26.8773 30.9722 26.6625 30.9991 26.6402C31.0259 26.6133 30.5159 26.072 29.5809 25.137L28.1224 23.6785L27.9837 23.9514Z" fill="black"/>
</svg>
