<?xml version="1.0" encoding="utf-8"?>
<!-- Generator: Adobe Illustrator 26.1.0, SVG Export Plug-In . SVG Version: 6.00 Build 0)  -->
<svg version="1.1" xmlns="http://www.w3.org/2000/svg" xmlns:xlink="http://www.w3.org/1999/xlink" x="0px" y="0px"
	 viewBox="0 0 1388.52 1080" style="enable-background:new 0 0 1388.52 1080;" xml:space="preserve">
<style type="text/css">
	.st0{fill:#FABB14;}
	.st1{fill:#010101;}
	.st2{opacity:0.2;fill:#004077;}
	.st3{fill:#F4F4F4;}
	.st4{fill:#FFFFFF;}
</style>
<g id="Layer_1">
</g>
<g id="Layer_2">
	<g>
		<g>
			<g>
				<polygon class="st0" points="621.15,792.68 581.8,736.29 513.98,747.71 614.27,533.13 701.83,570.25 				"/>
				<path class="st2" d="M614.27,533.13L556.43,656.9c4.85,0.34,9.86,0.48,13.05,2.84c6.05,4.46,6.41,17.61,12.92,21.43
					c6.48,3.8,18.13-2.28,25.01,0.84c6.83,3.1,9.92,15.88,17.11,18.26c7.1,2.36,17.22-6.03,24.63-4.41c2.07,0.45,4,1.74,5.89,3.35
					l46.77-128.97L614.27,533.13z"/>
			</g>
			<g>
				<polygon class="st0" points="761.31,793.59 801.39,737.71 869.05,750.01 771.55,534.15 683.52,570.13 				"/>
				<path class="st2" d="M771.55,534.15l-88.03,35.98l45.6,131c2.43-2.24,4.9-4.16,7.57-4.7c7.43-1.52,17.44,6.99,24.57,4.73
					c7.22-2.29,10.48-15.03,17.34-18.04c6.93-3.03,18.49,3.2,25.02-0.52c6.56-3.74,7.09-16.88,13.2-21.26
					c2.77-1.99,6.85-2.32,11.02-2.55L771.55,534.15z"/>
			</g>
		</g>
		<path class="st0" d="M899.09,491.63c-0.05,7.06-10.41,13.44-11.17,20.31c-0.77,7,7.93,15.5,6.46,22.26
			c-1.5,6.86-12.97,10.96-15.15,17.54c-2.21,6.66,4.53,16.79,1.66,23.12c-2.89,6.38-14.96,7.98-18.48,13.98
			c-3.54,6.03,0.93,17.35-3.2,22.95c-4.15,5.62-16.29,4.69-20.99,9.83c-4.7,5.15-2.67,17.16-7.88,21.79
			c-5.21,4.63-16.89,1.21-22.56,5.28c-5.66,4.06-6.15,16.23-12.22,19.69c-6.04,3.44-16.76-2.33-23.17,0.48
			c-6.36,2.79-9.38,14.58-16.06,16.71c-6.61,2.1-15.87-5.79-22.76-4.38c-6.78,1.39-12.19,12.29-19.2,12.97
			c-6.87,0.67-14.3-8.97-21.35-9.02c-7.06-0.05-14.6,9.5-21.47,8.74c-7-0.77-12.27-11.75-19.03-13.22
			c-6.86-1.5-16.23,6.27-22.81,4.08c-6.66-2.21-9.52-14.04-15.85-16.91c-6.38-2.89-17.16,2.74-23.16-0.78
			c-6.03-3.54-6.37-15.71-11.97-19.85c-5.62-4.15-17.35-0.88-22.49-5.58c-5.15-4.7-2.96-16.68-7.6-21.89
			c-4.63-5.21-16.78-4.43-20.86-10.11c-4.06-5.66,0.56-16.92-2.9-22.99c-3.44-6.04-15.49-7.8-18.3-14.22
			c-2.79-6.36,4.08-16.41,1.96-23.09c-2.1-6.61-13.51-10.85-14.92-17.73c-1.39-6.78,7.43-15.17,6.75-22.17
			c-0.67-6.87-10.95-13.39-10.91-20.45c0.05-7.06,10.41-13.44,11.17-20.31c0.77-7-7.93-15.5-6.46-22.26
			c1.5-6.86,12.97-10.96,15.15-17.54c2.21-6.66-4.53-16.79-1.66-23.12c2.89-6.38,14.96-7.98,18.48-13.98
			c3.54-6.03-0.93-17.35,3.2-22.95c4.15-5.62,16.29-4.69,20.99-9.83c4.7-5.15,2.67-17.16,7.88-21.79
			c5.21-4.63,16.89-1.21,22.56-5.28c5.66-4.06,6.15-16.23,12.22-19.69c6.04-3.44,16.76,2.33,23.17-0.48
			c6.36-2.79,9.38-14.58,16.06-16.71c6.61-2.1,15.87,5.79,22.76,4.38c6.78-1.39,12.19-12.29,19.2-12.97
			c6.87-0.67,14.3,8.97,21.35,9.02c7.06,0.05,14.6-9.5,21.47-8.74c7,0.77,12.27,11.75,19.03,13.22c6.86,1.5,16.23-6.27,22.81-4.08
			c6.66,2.21,9.52,14.04,15.84,16.91c6.38,2.89,17.17-2.74,23.16,0.78c6.03,3.54,6.37,15.71,11.97,19.85
			c5.62,4.15,17.35,0.88,22.49,5.58c5.15,4.7,2.96,16.68,7.6,21.89c4.63,5.21,16.78,4.43,20.86,10.11
			c4.06,5.66-0.56,16.92,2.9,22.99c3.44,6.04,15.49,7.8,18.3,14.22c2.79,6.36-4.08,16.41-1.96,23.09
			c2.1,6.61,13.51,10.85,14.92,17.73c1.39,6.78-7.43,15.17-6.75,22.17C888.85,478.05,899.13,484.57,899.09,491.63z"/>
		
			<ellipse transform="matrix(0.7071 -0.7071 0.7071 0.7071 -143.3527 634.5212)" class="st1" cx="694.26" cy="490.3" rx="173.68" ry="173.68"/>
		
			<ellipse transform="matrix(0.7071 -0.7071 0.7071 0.7071 -144.1104 634.8293)" class="st0" cx="694.25" cy="491.37" rx="71.5" ry="71.5"/>
		<g>
			<polygon class="st0" points="564.26,480.76 567.37,487.04 574.3,487.04 569.28,492.94 570.47,499.85 564.26,496.59 
				558.06,499.85 559.25,492.94 554.23,487.04 561.16,487.04 			"/>
			<polygon class="st0" points="824.29,478.46 827.39,484.75 834.33,484.75 829.31,490.65 830.49,497.55 824.29,494.29 
				818.09,497.55 819.27,490.65 814.25,484.75 821.19,484.75 			"/>
		</g>
		<g>
			<g>
				<path class="st3" d="M693.21,652.91c-89.66-0.58-162.14-74-161.56-163.67c0.58-89.66,74-162.14,163.66-161.56
					s162.14,74,161.56,163.66C856.29,581.02,782.87,653.5,693.21,652.91z M695.25,337.68c-84.16-0.55-153.07,67.48-153.61,151.64
					c-0.55,84.16,67.48,153.07,151.64,153.62c84.16,0.54,153.07-67.48,153.61-151.64C847.43,407.13,779.41,338.22,695.25,337.68z"/>
			</g>
		</g>
		<polygon class="st1" points="694.25,451.98 704.03,482.07 735.67,482.07 710.07,500.67 719.85,530.76 694.25,512.16 
			668.65,530.76 678.43,500.67 652.83,482.07 684.47,482.07 		"/>
		<g>
			<path class="st4" d="M567.78,441.71l-0.46,1.43c-2.9-0.56-5.29,0.47-6.21,3.37c-0.34,1.07-0.59,1.5-0.35,1.9
				c0.33,0.47,1.05,0.52,2.14,0.87l12.55,4.01c2.96,0.95,4.27,1.44,5.26-1.99l1.2,0.38c-0.66,1.95-1.35,3.9-2.02,5.85
				c-0.59,1.97-1.15,3.96-1.75,5.93l-1.2-0.38c1.18-3.36-0.16-3.76-3.12-4.7l-12.55-4.01c-1.2-0.38-1.87-0.56-2.13-0.46
				c-0.34,0.15-0.58,0.77-0.94,1.68c-1.31,3.18,0.33,5.06,3.05,6.52l-0.46,1.43l-6.26-2.22l6.85-21.43L567.78,441.71z"/>
			<path class="st4" d="M583.14,435.4c2.47,1.45,3.86,2.33,5.46-0.61l1.09,0.64c-1.07,1.76-2.17,3.51-3.24,5.27
				c-0.94,1.68-1.83,3.34-2.77,5.02l-1.09-0.64c1.78-2.84,0.33-3.61-2.14-5.06l-10.2-5.96c-2.47-1.45-3.86-2.34-5.46,0.61
				l-1.09-0.63c0.98-1.61,2.01-3.24,2.99-4.85c1.01-1.8,2.01-3.64,3.02-5.44l1.09,0.64c-1.78,2.84-0.33,3.61,2.14,5.06l4.19,2.45
				l5.22-8.93l-4.19-2.45c-2.47-1.45-3.87-2.3-5.48,0.64l-1.09-0.63c0.97-1.58,1.94-3.11,2.91-4.7c1.05-1.86,2.08-3.76,3.12-5.63
				l1.09,0.63c-1.78,2.84-0.33,3.61,2.14,5.06l10.2,5.96c2.47,1.45,3.86,2.33,5.46-0.61l1.09,0.64c-1.05,1.73-2.15,3.48-3.21,5.21
				c-0.96,1.71-1.87,3.4-2.82,5.11l-1.09-0.64c1.78-2.84,0.35-3.64-2.13-5.09l-4.5-2.63l-5.22,8.93L583.14,435.4z"/>
			<path class="st4" d="M597.62,420.34c2.33-2.41,1.07-3.47-1.05-5.39l-8.75-7.94c-2.12-1.93-3.29-3.08-5.47-0.53l-0.93-0.85
				c1.37-1.45,2.73-2.86,4.1-4.31c2.84-3.18,5.68-6.42,8.52-9.59l4.74,3.93l-1.01,1.11c-2.96-1.89-5.1-1.14-7.36,1.35
				c-0.28,0.31-1.79,1.97-1.64,2.38c0.06,0.2,1.2,1.23,1.41,1.42l4.79,4.35c1.9-2.1,2.74-3.8,0.42-6.08l0.94-1.04
				c1.17,1.11,2.31,2.24,3.48,3.35c1.08,0.94,2.22,1.87,3.3,2.82l-0.94,1.04c-2.83-1.67-3.85-1.37-6.01,1.01l3.03,2.75
				c2.43,2.21,3.91,3.7,6.69,0.64c2.66-2.92,2.81-4.86,0.47-8.16l0.94-1.05c0.96,0.92,1.87,1.84,2.83,2.76
				c0.72,0.61,1.44,1.17,2.17,1.78c-3.27,3.55-6.56,7.08-9.83,10.63c-1.31,1.5-2.58,3-3.89,4.5L597.62,420.34z"/>
			<path class="st4" d="M621.44,383.64l1.11-0.73c1.58-1.03,2-2.56,0.89-5.17l1.17-0.76c0.83,1.34,1.61,2.66,2.44,4
				c0.85,1.24,1.73,2.46,2.58,3.7l-1.17,0.76c-1.36-1.7-3-2.43-4.91-1.26l-1.2,0.78l2.83,4.33c1.7,2.61,2.43,3.8,5.33,1.78
				l0.69,1.05c-1.75,1.1-3.51,2.16-5.26,3.26c-1.65,1.12-3.25,2.25-4.9,3.36l-0.69-1.05c2.87-1.75,1.91-3.08,0.35-5.48l-6.45-9.9
				c-1.57-2.4-2.4-3.82-5.16-1.89l-0.69-1.05c1.69-1.06,3.37-2.07,5.05-3.13c3.61-2.4,7.17-4.8,10.79-7.21l3.55,4.86l-1.17,0.76
				c-2.93-2.89-5.33-1.78-8.29,0.15c-2.05,1.34-1.81,1.26-0.51,3.25L621.44,383.64z"/>
			<path class="st4" d="M634.17,376.51c-2.74-6.97,1.21-13.29,7.75-15.86c6.58-2.58,13.71-0.57,16.44,6.36
				c2.72,6.93-1.24,13.3-7.82,15.88C644,385.46,636.86,383.38,634.17,376.51z M639.72,374.1c1.64,4.17,4.99,9.35,10.23,7.29
				c5.34-2.1,4.61-7.48,2.85-11.98c-1.71-4.36-4.99-9.35-10.39-7.23C637.2,364.23,638.09,369.94,639.72,374.1z"/>
			<path class="st4" d="M661.53,354.28c1.81-0.21,3.65-0.4,5.45-0.61c2.14-0.33,4.28-0.69,6.42-1.02l0.17,1.25
				c-3.37,0.36-3.1,2.05-2.71,4.89l1.15,8.34c0.61,4.4,2.01,6.88,6.96,6.2c4.33-0.6,6.31-3.13,5.73-7.32l-0.99-7.2
				c-0.17-1.25-0.48-3.71-1.28-4.69c-0.72-0.89-1.81-1.09-2.86-1.05l-0.17-1.25c1.32-0.15,2.65-0.26,3.97-0.41
				c1.38-0.23,2.79-0.49,4.17-0.71l0.17,1.25c-1.01,0.32-2.05,0.71-2.43,1.78c-0.46,1.3-0.01,3.49,0.17,4.85l0.89,6.47
				c0.86,6.27-1.96,9.83-8.3,10.7c-6.06,0.84-10.33-0.73-11.32-7.93l-1.15-8.31c-0.4-2.87-0.51-4.45-3.87-3.98L661.53,354.28z"/>
			<path class="st4" d="M698.36,356.52l-0.92,10.76c-0.23,2.65-0.46,5.36,2.87,5.79l-0.11,1.25c-1.39-0.15-2.81-0.35-4.2-0.5
				c-1.33-0.08-2.66-0.12-3.98-0.2l0.11-1.25c2.91-0.03,3.25-1.44,3.46-3.91l1.2-14c-0.98-1.66-1.38-2.33-3.28-2.67l0.11-1.26
				c1.11,0.13,2.18,0.29,3.3,0.42c1.33,0.08,2.62,0.12,3.95,0.21l12.39,17.03l0.8-9.26c0.23-2.65,0.45-5.19-2.85-5.61l0.11-1.26
				c1.32,0.15,2.64,0.33,3.96,0.48c1.4,0.08,2.8,0.13,4.19,0.23l-0.11,1.25c-0.99,0.09-2.12,0.13-2.68,1.03
				c-0.61,0.97-0.79,3.09-0.89,4.24l-1.44,16.75l-1.71-0.15L698.36,356.52z"/>
			<path class="st4" d="M719.18,374.92c3.17,1.12,3.6-0.47,4.47-3.2l3.58-11.26c0.87-2.73,1.43-4.28-1.8-5.19l0.38-1.2l10.1,3.21
				c3.27,1.04,6.1,2.63,7.94,5.61c1.9,3.14,2.07,6.53,0.98,9.96c-0.98,3.07-2.82,5.52-5.79,6.89c-3.05,1.38-6.44,0.85-9.51-0.2
				c-1.75-0.6-3.5-1.22-5.26-1.82c-1.81-0.54-3.66-1.05-5.47-1.59L719.18,374.92z M729.37,371.37c-0.32,1-1.06,3.33-1,4.3
				c0.06,1.3,0.98,2.11,2.18,2.49c5.16,1.64,7.3-3.33,8.58-7.36c0.71-2.23,1.27-5.03,0.87-7.36c-0.48-2.65-2.58-4.01-4.98-4.77
				c-0.27-0.09-1.12-0.28-1.43-0.12c-0.18,0.09-0.32,0.56-0.39,0.76L729.37,371.37z"/>
			<path class="st4" d="M744.05,383.2c2.88,1.72,3.62,0.25,5.01-2.25l5.74-10.32c1.39-2.5,2.25-3.9-0.73-5.44l0.61-1.09
				c1.72,1,3.4,2.01,5.12,3.01c3.74,2.04,7.53,4.07,11.27,6.1l-2.74,5.51l-1.31-0.73c1.16-3.31-0.05-5.23-2.98-6.86
				c-0.37-0.2-2.32-1.29-2.69-1.06c-0.18,0.1-0.92,1.45-1.06,1.69l-3.14,5.65c2.47,1.38,4.32,1.8,6.02-0.97l1.22,0.69
				c-0.81,1.39-1.65,2.76-2.47,4.14c-0.67,1.27-1.32,2.58-1.98,3.85l-1.22-0.68c0.98-3.13,0.46-4.06-2.35-5.62l-1.99,3.57
				c-1.6,2.87-2.71,4.65,0.9,6.66c3.45,1.92,5.37,1.63,8.05-1.4l1.22,0.68c-0.68,1.14-1.37,2.24-2.04,3.38
				c-0.43,0.84-0.81,1.67-1.24,2.51c-4.2-2.37-8.38-4.78-12.57-7.15c-1.76-0.94-3.5-1.83-5.26-2.77L744.05,383.2z"/>
			<path class="st4" d="M781.53,403.63c-0.09,1.25-0.25,2.63-0.19,3.86c0.07,1.06,0.31,1.59,0.92,2.38l-0.81,0.96
				c-0.86-0.77-1.7-1.57-2.56-2.34c-0.9-0.72-1.83-1.41-2.74-2.12l0.73-8.57c0.15-1.97,0.13-4.28-0.66-4.86
				c-0.13-0.11-0.32-0.22-0.45-0.33l-2.97,3.53c-1.85,2.19-2.93,3.43-0.3,5.51l-0.81,0.96c-1.5-1.31-3.01-2.67-4.51-3.98
				c-1.55-1.26-3.09-2.47-4.63-3.72l0.81-0.96c2.5,2.24,3.5,0.94,5.35-1.25l7.61-9.04c1.85-2.19,2.96-3.4,0.32-5.48l0.81-0.97
				c1.5,1.31,2.95,2.62,4.45,3.94c1.47,1.19,2.95,2.35,4.42,3.55c1.24,1.13,3.12,2.86,3.87,4.36c1.15,2.16,0.85,4.37-0.73,6.24
				c-2,2.38-5.27,2.19-7.76,0.69L781.53,403.63z M777.86,392.21c2.57,2.16,4.71,2.28,6.94-0.37c2.05-2.43,2.12-4.57-0.4-6.69
				c-0.29-0.25-1.18-1.04-1.53-0.79c-0.33,0.23-1.86,2.04-2.18,2.42l-3.85,4.57L777.86,392.21z"/>
			<path class="st4" d="M802.82,418.43l0.76,1.09c1.07,1.55,2.61,1.93,5.19,0.74l0.8,1.16c-1.31,0.87-2.62,1.68-3.93,2.55
				c-1.22,0.88-2.41,1.8-3.63,2.67l-0.8-1.15c1.66-1.41,2.34-3.07,1.13-4.95l-0.82-1.18l-4.26,2.94c-2.56,1.77-3.73,2.54-1.63,5.38
				l-1.04,0.72c-1.15-1.72-2.26-3.46-3.41-5.17c-1.16-1.62-2.33-3.19-3.5-4.81l1.04-0.72c1.82,2.82,3.14,1.83,5.49,0.2l9.72-6.73
				c2.36-1.63,3.75-2.51,1.75-5.21l1.04-0.72c1.11,1.66,2.16,3.31,3.27,4.97c2.5,3.55,5,7.05,7.5,10.58l-4.77,3.68l-0.8-1.15
				c2.81-3.01,1.63-5.38-0.38-8.29c-1.39-2.01-1.31-1.77-3.27-0.42L802.82,418.43z"/>
			<path class="st4" d="M815.89,430.3c2.59-1.3,4.11-1.95,2.53-4.95l1.13-0.57c0.83,1.74,1.62,3.45,2.45,5.19
				c0.96,1.83,1.96,3.67,2.9,5.47l-1.12,0.56c-1.49-3.05-2.91-2.22-5.48-0.93l-10.63,5.33c-2.56,1.29-3.89,1.92-2.34,4.85
				l-1.12,0.56c-0.88-1.83-1.74-3.7-2.64-5.56c-0.89-1.7-1.82-3.39-2.71-5.09l1.13-0.56c1.43,3.08,2.85,2.25,5.41,0.96L815.89,430.3
				z"/>
			<path class="st4" d="M827.79,463.86l-0.45-1.43c2.69-1.22,4.04-3.44,3.12-6.34c-0.34-1.07-0.39-1.56-0.81-1.76
				c-0.54-0.2-1.15,0.18-2.25,0.53l-12.56,3.98c-2.96,0.94-4.32,1.3-3.14,4.66l-1.2,0.37c-0.59-1.98-1.15-3.96-1.74-5.94
				c-0.66-1.96-1.35-3.9-2-5.85l1.2-0.38c0.98,3.43,2.3,2.98,5.27,2.04l12.56-3.98c1.2-0.38,1.86-0.63,2-0.86
				c0.19-0.32,0.03-0.96-0.2-1.92c-0.77-3.35-3.19-3.94-6.26-3.55l-0.45-1.43l6.4-1.81l6.8,21.46L827.79,463.86z"/>
		</g>
		<g>
			<path class="st4" d="M563.88,532.65c-1.37-0.88-2.18-2.4-2.57-3.95c-1-3.95,0.85-7.37,4.86-8.38c4.09-1.04,7.78,1.13,8.81,5.19
				c0.36,1.44,0.31,2.72-0.3,4.09l1.21,0.01l0.22,0.86l-4.14,1.24l-0.22-0.88c1.81-0.9,2.87-2.55,2.35-4.61
				c-0.78-3.09-4.3-3.15-6.83-2.51c-2.73,0.69-5.5,2.39-4.74,5.57c0.54,2.3,2.6,3.07,4.79,2.9l0.2,0.8l-4.49,1.14l-0.2-0.8
				L563.88,532.65z"/>
			<path class="st4" d="M570.32,535.3c4.08-1.63,7.81,0.67,9.34,4.51c1.54,3.86,0.38,8.06-3.69,9.67c-4.07,1.62-7.82-0.69-9.35-4.55
				C565.09,541.1,566.3,536.91,570.32,535.3z M571.75,538.56c-2.44,0.97-5.48,2.96-4.26,6.03c1.25,3.13,4.41,2.69,7.05,1.64
				c2.56-1.02,5.48-2.96,4.22-6.13C577.54,537.05,574.2,537.59,571.75,538.56z"/>
			<path class="st4" d="M581.62,552.52l-0.02-0.04l-5.46,3.15c-0.57,0.33-1.71,0.99-2.05,1.54c-0.37,0.59-0.14,1.27,0.11,1.84
				l-0.64,0.37c-0.41-0.76-0.8-1.51-1.21-2.26c-0.41-0.67-0.82-1.3-1.23-1.97l0.64-0.37c0.5,0.61,0.96,1.25,1.81,1
				c0.57-0.16,1.34-0.6,1.78-0.86l7.08-4.09c0.44-0.68,0.14-1.44-0.17-2.11l0.64-0.37c0.35,0.65,0.7,1.33,1.05,1.98
				c0.45,0.74,0.91,1.44,1.35,2.18l-6.3,8.29l10.16-1.6c0.37,0.69,0.73,1.38,1.1,2.07c0.43,0.7,0.87,1.39,1.37,2.21l-0.64,0.37
				c-0.94-1.76-1.77-1.18-3.24-0.36l-5.59,3.23c-0.44,0.26-1.21,0.7-1.64,1.11c-0.64,0.61-0.33,1.33-0.04,2.06l-0.64,0.36
				c-0.6-1.08-1.17-2.15-1.77-3.22c-0.55-0.91-1.13-1.84-1.71-2.8l0.64-0.37c0.5,0.61,0.96,1.25,1.81,1
				c0.57-0.16,1.34-0.61,1.78-0.86l5.62-3.25l-0.02-0.04l-10.94,1.6l-0.49-0.85L581.62,552.52z"/>
			<path class="st4" d="M590.77,567.68c1.34-1.02,2.17-1.6,0.93-3.13l0.59-0.45c0.72,0.95,1.36,1.86,2,2.77
				c0.66,0.84,1.36,1.68,2.02,2.52c1.45,1.97,2.78,4.74,0.34,6.59c-2.24,1.71-4.66-0.08-6.04-1.89l-1.12-1.47l-2.31,1.76
				c-1.46,1.11-2.13,1.59-0.81,3.22l-0.59,0.45c-0.74-1.01-1.47-2.04-2.21-3.05c-0.69-0.87-1.38-1.72-2.12-2.65l0.59-0.45
				c1.15,1.61,1.89,0.99,3.23-0.03L590.77,567.68z M590.5,572.39c1.23,1.62,2.36,2.19,4.13,0.84c1.34-1.02,1.66-2.3,0.62-3.68
				c-0.27-0.36-0.53-0.63-0.66-0.66c-0.13-0.03-0.32,0.09-0.78,0.44l-3.57,2.72L590.5,572.39z"/>
			<path class="st4" d="M590.83,583.26c1.31,1.48,1.99,0.79,3.21-0.37l5.06-4.77c1.23-1.16,1.96-1.79,0.56-3.18l0.54-0.51
				c0.73,0.81,1.44,1.62,2.17,2.42c0.88,0.9,1.78,1.8,2.66,2.7l-0.54,0.51c-1.31-1.48-2-0.8-3.23,0.36l-4.35,4.11
				c-1.51,1.42-2.47,2.27-0.75,4.1c1.59,1.69,2.77,1.97,4.85,0.8l0.61,0.64l-2.96,2.59c-2.54-2.72-5.08-5.48-5.91-6.39
				c-0.82-0.84-1.64-1.65-2.46-2.49L590.83,583.26z"/>
			<path class="st4" d="M600.73,593.6c1.45,1.34,2.06,0.58,3.16-0.7l4.54-5.26c1.1-1.28,1.76-1.98,0.23-3.22l0.48-0.57
				c0.87,0.78,1.72,1.56,2.59,2.34c1.91,1.62,3.86,3.24,5.77,4.87l-2.24,2.85l-0.67-0.58c1.06-1.77,0.59-3.02-0.9-4.31
				c-0.19-0.16-1.18-1.02-1.42-0.93c-0.11,0.04-0.7,0.72-0.81,0.85l-2.48,2.88c1.26,1.09,2.27,1.55,3.58,0.16l0.62,0.53
				c-0.63,0.7-1.28,1.39-1.92,2.1c-0.54,0.65-1.07,1.33-1.6,1.99l-0.62-0.54c0.94-1.69,0.75-2.29-0.68-3.52l-1.57,1.82
				c-1.26,1.46-2.11,2.36-0.28,3.94c1.76,1.52,2.9,1.58,4.81,0.16l0.62,0.53c-0.53,0.58-1.05,1.13-1.58,1.71
				c-0.35,0.43-0.67,0.87-1.01,1.3c-2.14-1.87-4.26-3.75-6.39-5.62c-0.9-0.75-1.8-1.47-2.7-2.22L600.73,593.6z"/>
			<path class="st4" d="M627.83,603.14l-0.73-0.5c0.81-1.54,0.63-3.06-0.84-4.07c-0.54-0.37-0.74-0.59-1.01-0.52
				c-0.32,0.1-0.47,0.5-0.85,1.06l-4.39,6.39c-1.04,1.51-1.54,2.16,0.23,3.3l-0.42,0.61c-0.99-0.7-1.96-1.42-2.95-2.13
				c-1.01-0.67-2.03-1.32-3.05-1.99l0.42-0.61c1.69,1.24,2.14,0.55,3.18-0.96l4.39-6.39c0.42-0.61,0.64-0.96,0.62-1.12
				c-0.02-0.22-0.34-0.46-0.79-0.82c-1.57-1.28-2.9-0.67-4.19,0.61l-0.73-0.5l2.32-3.15l10.91,7.5L627.83,603.14z"/>
			<path class="st4" d="M624.67,611.64c1.71,0.99,2.13,0.11,2.93-1.37l3.28-6.12c0.8-1.49,1.29-2.32-0.48-3.19l0.35-0.64
				c1.02,0.57,2.02,1.15,3.04,1.72c2.22,1.17,4.47,2.32,6.69,3.48l-1.56,3.27l-0.78-0.42c0.65-1.96-0.08-3.07-1.82-4
				c-0.22-0.12-1.38-0.74-1.59-0.6c-0.1,0.06-0.53,0.86-0.61,1l-1.79,3.35c1.47,0.79,2.55,1.02,3.53-0.63l0.72,0.4
				c-0.46,0.82-0.95,1.64-1.41,2.46c-0.38,0.75-0.75,1.53-1.13,2.28l-0.72-0.39c0.55-1.85,0.23-2.39-1.43-3.29l-1.13,2.12
				c-0.91,1.7-1.55,2.76,0.59,3.91c2.05,1.1,3.17,0.91,4.72-0.9l0.73,0.39c-0.39,0.68-0.78,1.33-1.17,2.01
				c-0.24,0.5-0.46,0.99-0.7,1.49c-2.49-1.36-4.97-2.73-7.46-4.09c-1.04-0.54-2.08-1.04-3.12-1.58L624.67,611.64z"/>
			<path class="st4" d="M637.47,618.41c1.81,0.78,2.13-0.13,2.75-1.7l2.56-6.47c0.62-1.57,1.01-2.45-0.85-3.12l0.27-0.69l5.8,2.29
				c1.88,0.74,3.47,1.79,4.43,3.61c0.99,1.92,0.95,3.91,0.17,5.89c-0.7,1.76-1.88,3.13-3.68,3.81c-1.84,0.69-3.81,0.24-5.57-0.5
				c-1.01-0.42-2.01-0.86-3.01-1.28c-1.04-0.39-2.11-0.77-3.15-1.16L637.47,618.41z M643.59,616.74c-0.23,0.57-0.76,1.91-0.76,2.49
				c-0.02,0.77,0.49,1.28,1.18,1.55c2.96,1.17,4.42-1.66,5.33-3.97c0.51-1.28,0.95-2.9,0.81-4.28c-0.17-1.57-1.35-2.46-2.73-3
				c-0.15-0.06-0.65-0.21-0.83-0.13c-0.11,0.05-0.21,0.31-0.26,0.43L643.59,616.74z"/>
			<path class="st4" d="M664.49,623.98c-0.6,0.33-1.3,0.61-1.76,1.06l3.97,0.9c0.73,0.14,1.48,0.27,2.21,0.41l-1.58,3.52l-0.7-0.16
				c0.07-0.24,0.13-0.48,0.2-0.71c0.14-0.43-0.22-0.52-0.56-0.59l-6.68-1.51c1.04-1.24,2-2.12,3.32-3.13l1.23-0.95
				c1.65-1.25,2.95-2.41,3.42-4.52c0.28-1.22,0.21-2.97-1.28-3.3c-1.02-0.23-1.86,0.59-2.08,1.57c-0.14,0.64,0.06,1.51,0.78,1.67
				c0.4,0.09,0.68-0.1,0.86-0.06c0.12,0.03,0.14,0.22,0.11,0.34c-0.19,0.86-1.35,1.32-2.15,1.14c-1.33-0.3-1.95-1.56-1.66-2.84
				c0.52-2.29,3-2.93,5.01-2.47c2.29,0.52,4.01,2.34,3.44,4.82c-0.47,2.07-2.01,2.85-3.78,3.68L664.49,623.98z"/>
			<path class="st4" d="M681.11,626.77c-0.35,2.67-2.83,3.83-5.3,3.51c-2.12-0.28-4.36-1.7-4.03-4.17c0.21-1.59,1.78-2.46,3.2-2.81
				c-1.24-0.95-2.03-2.24-1.83-3.89c0.34-2.38,2.63-3.43,4.81-3.14c1.81,0.24,3.95,1.52,3.67,3.64c-0.19,1.43-1.34,2.14-2.58,2.58
				C680.48,623.52,681.36,624.92,681.11,626.77z M675.69,623.81c-1.01,0.61-1.64,1.57-1.79,2.73c-0.21,1.57,0.75,2.76,2.28,2.96
				c1.28,0.17,2.56-0.53,2.74-1.92c0.25-1.88-1.42-2.72-2.77-3.5L675.69,623.81z M678.36,621.99c0.72-0.46,1.09-1.31,1.19-2.1
				c0.2-1.47-0.5-2.64-1.97-2.83c-1.02-0.14-2.11,0.45-2.26,1.59c-0.2,1.53,1.43,2.33,2.5,3.01L678.36,621.99z"/>
			<path class="st4" d="M682.73,627.26l0.12-1.85l4.76,0.32l-0.12,1.84L682.73,627.26z"/>
			<path class="st4" d="M689.02,630.65c1.97,0.03,1.92-0.93,1.89-2.62l-0.11-6.94c-0.03-1.68,0-2.65-1.97-2.56l-0.01-0.74l6.22-0.1
				c2.01-0.03,3.89,0.33,5.47,1.64c1.64,1.39,2.37,3.25,2.41,5.37c0.03,1.89-0.54,3.61-1.94,4.92c-1.44,1.34-3.43,1.68-5.34,1.67
				c-1.09,0-2.18-0.03-3.27-0.03c-1.11,0.04-2.24,0.1-3.35,0.13L689.02,630.65z M694.03,626.77c0.01,0.62,0.03,2.05,0.25,2.59
				c0.28,0.71,0.94,0.99,1.68,0.98c3.18-0.05,3.44-3.22,3.4-5.7c-0.02-1.38-0.23-3.04-0.89-4.26c-0.76-1.38-2.19-1.75-3.66-1.73
				c-0.16,0-0.68,0.05-0.82,0.2c-0.08,0.08-0.08,0.37-0.08,0.49L694.03,626.77z"/>
			<path class="st4" d="M708.24,627.02c-0.12,0.53-0.34,1.23-0.26,1.78c0.13,1,1.08,0.94,1.84,0.9l0.1,0.73
				c-0.86,0.09-1.72,0.16-2.58,0.25c-0.77,0.12-1.54,0.26-2.31,0.39l-0.1-0.73c1.67-0.24,2-2.27,2.37-3.61l2.77-10.23l0.98-0.13
				l5.57,9.93c0.3,0.52,0.84,1.49,1.3,1.84c0.41,0.28,0.95,0.31,1.45,0.31l0.1,0.73c-1.23,0.14-2.45,0.26-3.68,0.4
				c-1.06,0.16-2.13,0.34-3.19,0.5l-0.1-0.73c0.6-0.16,1.69-0.26,1.57-1.14c-0.04-0.33-0.4-1.01-0.56-1.3l-0.58-1.11l-4.5,0.59
				L708.24,627.02z M712.37,624.84l-2.41-4.45l-1.3,4.94L712.37,624.84z"/>
			<path class="st4" d="M726.13,624.14c0.4,1.72,0.56,2.59,2.55,2.07l0.17,0.72c-1.27,0.27-2.52,0.52-3.78,0.79
				c-1.06,0.27-2.13,0.56-3.18,0.82l-0.17-0.72c1.99-0.44,1.72-1.24,1.36-2.97l-0.41-1.76l-4.9-5.36c-0.75-0.78-0.9-0.97-2-0.97
				l-0.17-0.71c1.01-0.21,2.04-0.41,3.04-0.62c1.14-0.28,2.27-0.59,3.4-0.88l0.17,0.72c-0.53,0.17-1.48,0.45-1.3,1.21
				c0.09,0.4,0.82,1.18,1.11,1.49l2.84,3.16l1.17-3.67c0.15-0.54,0.43-1.58,0.31-2.1c-0.2-0.86-0.99-0.82-1.69-0.66l-0.17-0.71
				c0.69-0.14,1.36-0.25,2.04-0.39c0.78-0.2,1.57-0.43,2.34-0.64l0.17,0.72c-0.88,0.29-1.11,0.95-1.35,1.79l-2.05,6.51
				L726.13,624.14z"/>
			<path class="st4" d="M750.22,618.06c-0.68,1.48-2.07,2.49-3.56,3.09c-3.77,1.54-7.41,0.18-8.97-3.65
				c-1.59-3.9,0.04-7.86,3.93-9.44c1.37-0.56,2.65-0.68,4.09-0.27l-0.16-1.2l0.82-0.33l1.8,3.93l-0.84,0.34
				c-1.15-1.67-2.93-2.49-4.89-1.69c-2.95,1.2-2.53,4.7-1.54,7.12c1.06,2.61,3.13,5.12,6.18,3.92c2.21-0.85,2.68-3,2.21-5.14
				l0.76-0.31l1.75,4.29l-0.76,0.31L750.22,618.06z"/>
			<path class="st4" d="M757.41,612.18c0.83,1.47,1.27,2.33,2.95,1.3l0.36,0.64c-1.07,0.58-2.14,1.14-3.2,1.72
				c-0.97,0.57-1.92,1.16-2.89,1.73l-0.36-0.64c1.75-0.92,1.23-1.74,0.41-3.2l-3.42-6.04c-0.83-1.47-1.27-2.33-2.95-1.3l-0.36-0.65
				c0.98-0.53,1.98-1.05,2.95-1.58c1.04-0.61,2.1-1.26,3.14-1.86l0.36,0.64c-1.75,0.92-1.23,1.74-0.41,3.2l1.41,2.48l5.29-2.99
				l-1.41-2.48c-0.83-1.47-1.29-2.32-2.97-1.29l-0.36-0.65c0.96-0.52,1.91-1.01,2.87-1.53c1.08-0.63,2.17-1.3,3.25-1.92l0.36,0.64
				c-1.75,0.92-1.24,1.74-0.41,3.2l3.42,6.04c0.83,1.47,1.27,2.33,2.95,1.3l0.36,0.64c-1.05,0.57-2.12,1.13-3.17,1.7
				c-0.99,0.58-1.95,1.18-2.94,1.76l-0.36-0.64c1.75-0.92,1.25-1.75,0.42-3.21l-1.51-2.66l-5.29,2.99L757.41,612.18z"/>
			<path class="st4" d="M770.88,603.58c0.16,0.52,0.3,1.23,0.63,1.68c0.6,0.81,1.4,0.29,2.04-0.11l0.44,0.59
				c-0.71,0.5-1.42,0.98-2.13,1.48c-0.61,0.48-1.22,0.98-1.83,1.46l-0.44-0.59c1.34-1.02,0.64-2.96,0.31-4.3l-2.57-10.28l0.79-0.59
				l9.7,5.96c0.51,0.31,1.45,0.89,2.03,0.97c0.49,0.04,0.98-0.19,1.42-0.44l0.44,0.59c-1,0.72-2.02,1.42-3.02,2.14
				c-0.85,0.65-1.7,1.34-2.54,1.99l-0.44-0.59c0.45-0.43,1.34-1.05,0.82-1.76c-0.2-0.26-0.84-0.68-1.12-0.86l-1.05-0.68l-3.65,2.71
				L770.88,603.58z M773.43,599.67l-4.27-2.72l1.27,4.95L773.43,599.67z"/>
			<path class="st4" d="M782.17,598.61c1.49-1.29,0.81-1.97-0.33-3.21l-4.7-5.11c-1.14-1.24-1.76-1.98-3.17-0.6l-0.5-0.56
				c0.82-0.72,1.63-1.42,2.45-2.14c0.91-0.86,1.82-1.76,2.73-2.61l0.5,0.54c-1.49,1.29-0.82,1.99,0.32,3.23l4.05,4.4
				c1.41,1.53,2.24,2.49,4.08,0.8c1.71-1.57,2-2.74,0.86-4.84l0.65-0.6l2.55,2.99c-2.75,2.5-5.53,5.01-6.45,5.82
				c-0.85,0.81-1.67,1.62-2.52,2.43L782.17,598.61z"/>
			<path class="st4" d="M792.61,588.83c1.35-1.44,0.6-2.05-0.67-3.16l-5.22-4.59c-1.27-1.11-1.97-1.78-3.22-0.26l-0.56-0.49
				c0.74-0.8,1.47-1.58,2.21-2.38c0.81-0.95,1.62-1.94,2.44-2.9l0.56,0.49c-1.35,1.44-0.61,2.07,0.65,3.18l4.5,3.95
				c1.56,1.37,2.49,2.25,4.15,0.36c1.53-1.75,1.71-2.94,0.34-4.91l0.58-0.66l2.86,2.72c-2.48,2.78-4.98,5.56-5.81,6.47
				c-0.76,0.89-1.49,1.78-2.25,2.68L792.61,588.83z"/>
			<path class="st4" d="M802.03,577.96c1.19-1.57,0.38-2.1-1-3.08l-5.67-4.02c-1.38-0.97-2.14-1.57-3.23,0.08l-0.6-0.43
				c0.69-0.95,1.4-1.86,2.09-2.81c1.43-2.06,2.86-4.15,4.3-6.2l3.05,1.96l-0.51,0.72c-1.86-0.89-3.06-0.3-4.2,1.31
				c-0.14,0.2-0.9,1.27-0.79,1.51c0.05,0.11,0.79,0.63,0.92,0.73l3.1,2.2c0.96-1.36,1.33-2.41-0.18-3.58l0.48-0.68
				c0.76,0.56,1.51,1.14,2.27,1.71c0.7,0.47,1.43,0.94,2.13,1.41l-0.48,0.67c-1.77-0.78-2.35-0.53-3.44,1.01l1.96,1.39
				c1.58,1.12,2.55,1.88,3.95-0.1c1.34-1.9,1.3-3.04-0.3-4.8l0.47-0.68c0.63,0.47,1.22,0.94,1.85,1.41c0.46,0.3,0.93,0.58,1.39,0.88
				c-1.66,2.31-3.33,4.6-4.99,6.91c-0.66,0.97-1.29,1.93-1.95,2.9L802.03,577.96z"/>
			<path class="st4" d="M803.43,558.83l5.57,3.04c1.37,0.75,2.78,1.51,3.79-0.18l0.65,0.35c-0.41,0.71-0.85,1.43-1.26,2.15
				c-0.36,0.69-0.69,1.4-1.05,2.1l-0.65-0.35c0.67-1.57-0.01-2.09-1.29-2.78l-7.25-3.95c-1.13,0.13-1.58,0.19-2.21,1.13l-0.65-0.35
				c0.33-0.57,0.67-1.11,1.01-1.68c0.35-0.7,0.68-1.38,1.04-2.08l12.09-2.65l-4.8-2.61c-1.37-0.75-2.69-1.46-3.69,0.21l-0.65-0.36
				c0.39-0.68,0.8-1.34,1.19-2.02c0.37-0.73,0.73-1.47,1.11-2.19l0.65,0.35c-0.19,0.55-0.43,1.17-0.08,1.69
				c0.38,0.56,1.48,1.16,2.07,1.48l8.68,4.73l-0.48,0.88L803.43,558.83z"/>
			<path class="st4" d="M811.08,534.32l0.31-0.81l4.06,1.36l-0.32,0.85c-1.96-0.22-3.77,0.41-4.53,2.39
				c-1.18,3.07,1.79,5.09,4.27,6.04c2.32,0.89,5.73,1.31,6.84-1.59c0.65-1.69,0.31-2.77-1.38-3.41c-1.27-0.49-1.62-0.31-2.26,0.94
				l-0.69-0.27l2.19-5.72l0.69,0.26c-0.44,1.31,0.13,1.44,1.19,1.84l2,0.76c-0.33,1.37-0.41,1.76-0.45,3.13
				c-0.02,1.25-0.07,2.13-0.52,3.32c-1.48,3.86-4.93,5.56-8.83,4.06c-3.8-1.46-5.75-5.22-4.26-9.12c0.52-1.36,1.34-2.59,2.64-3.33
				L811.08,534.32z"/>
			<path class="st4" d="M825,533.52c0.54-1.9-0.41-2.1-2.04-2.51l-6.74-1.7c-1.63-0.41-2.56-0.69-2.98,1.24l-0.72-0.18
				c0.31-1.13,0.63-2.24,0.93-3.37c0.59-2.44,1.17-4.9,1.76-7.34l3.55,0.72l-0.21,0.86c-2.06-0.16-2.96,0.82-3.45,2.74
				c-0.06,0.24-0.38,1.52-0.19,1.69c0.08,0.08,0.96,0.31,1.12,0.35l3.69,0.93c0.41-1.62,0.37-2.73-1.47-3.27l0.2-0.8
				c0.91,0.25,1.82,0.52,2.73,0.77c0.82,0.19,1.67,0.36,2.49,0.55l-0.2,0.8c-1.93-0.08-2.38,0.36-2.84,2.19l2.33,0.59
				c1.87,0.47,3.06,0.83,3.65-1.52c0.57-2.25,0.11-3.3-2.02-4.37l0.2-0.8c0.75,0.21,1.48,0.44,2.23,0.65
				c0.54,0.12,1.07,0.21,1.62,0.32c-0.71,2.75-1.44,5.49-2.16,8.24c-0.27,1.14-0.51,2.27-0.77,3.41L825,533.52z"/>
		</g>
	</g>
</g>
</svg>
