<svg width="326" height="20" viewBox="0 0 326 20" fill="none" xmlns="http://www.w3.org/2000/svg">
<path d="M7.36 15.32C5.37333 15.32 3.76 14.6467 2.52 13.3C1.26667 11.9667 0.64 10.16 0.64 7.88C0.64 5.61333 1.26 3.80667 2.5 2.46C3.74 1.11333 5.36 0.439999 7.36 0.439999C8.93333 0.439999 10.2867 0.859999 11.42 1.7C12.5533 2.55333 13.28 3.81333 13.6 5.48H11.44C11.1733 4.44 10.68 3.66 9.96 3.14C9.25333 2.60667 8.38667 2.34 7.36 2.34C5.98667 2.34 4.89333 2.84 4.08 3.84C3.26667 4.82667 2.86 6.17333 2.86 7.88C2.86 9.58667 3.26667 10.94 4.08 11.94C4.89333 12.9267 5.98667 13.42 7.36 13.42C8.38667 13.42 9.30667 13.1067 10.12 12.48C10.9067 11.8533 11.38 10.94 11.54 9.74H13.68C13.5067 11.5133 12.82 12.8867 11.62 13.86C10.4333 14.8333 9.01333 15.32 7.36 15.32ZM23.6983 13.76C22.7516 14.7467 21.5183 15.24 19.9983 15.24C18.4783 15.24 17.2449 14.7467 16.2983 13.76C15.3516 12.7733 14.8783 11.4667 14.8783 9.84C14.8783 8.2 15.3516 6.88667 16.2983 5.9C17.2316 4.92667 18.4649 4.44 19.9983 4.44C21.5316 4.44 22.7649 4.92667 23.6983 5.9C24.6316 6.87333 25.0983 8.18667 25.0983 9.84C25.0983 11.48 24.6316 12.7867 23.6983 13.76ZM17.7783 12.54C18.3249 13.1933 19.0649 13.52 19.9983 13.52C20.9316 13.52 21.6649 13.1933 22.1983 12.54C22.7449 11.8867 23.0183 10.9867 23.0183 9.84C23.0183 8.69333 22.7449 7.79333 22.1983 7.14C21.6649 6.48667 20.9316 6.16 19.9983 6.16C19.0649 6.16 18.3249 6.48667 17.7783 7.14C17.2316 7.79333 16.9583 8.69333 16.9583 9.84C16.9583 10.9867 17.2316 11.8867 17.7783 12.54ZM32.2222 4.44C33.6622 4.44 34.8089 4.92667 35.6622 5.9C36.5155 6.87333 36.9422 8.18667 36.9422 9.84C36.9422 11.48 36.5155 12.7867 35.6622 13.76C34.7955 14.7467 33.6489 15.24 32.2222 15.24C30.7555 15.24 29.6355 14.68 28.8622 13.56V18.92H26.8622V4.68H28.7822V6.24C29.5555 5.04 30.7022 4.44 32.2222 4.44ZM29.6422 12.54C30.1755 13.1933 30.9089 13.52 31.8422 13.52C32.7755 13.52 33.5155 13.1867 34.0622 12.52C34.5955 11.8667 34.8622 10.9467 34.8622 9.76C34.8622 8.61333 34.5955 7.72667 34.0622 7.1C33.5289 6.47333 32.7889 6.16 31.8422 6.16C30.9222 6.16 30.1889 6.48 29.6422 7.12C29.0955 7.78667 28.8222 8.69333 28.8222 9.84C28.8222 10.9867 29.0955 11.8867 29.6422 12.54ZM43.5717 8.22L44.7717 4.68H46.8917L42.6917 16.3C42.3451 17.2867 41.8851 17.98 41.3117 18.38C40.7384 18.78 39.9251 18.98 38.8717 18.98C38.5117 18.98 38.1651 18.96 37.8317 18.92V17.3H38.8317C39.7251 17.3 40.3251 16.8867 40.6317 16.06C40.6584 15.98 40.6984 15.8533 40.7517 15.68C40.8184 15.5067 40.8717 15.3733 40.9117 15.28L37.0917 4.68H39.2717L40.4717 8.22C41.1117 10.1933 41.6251 11.84 42.0117 13.16C42.5317 11.4667 43.0517 9.82 43.5717 8.22ZM53.135 4.52C53.4283 4.52 53.6217 4.52667 53.715 4.54V6.44H53.215C52.1883 6.44 51.395 6.69333 50.835 7.2C50.275 7.70667 49.995 8.44 49.995 9.4V15H47.995V4.68H49.915V6.52C50.5683 5.18667 51.6417 4.52 53.135 4.52ZM57.183 3.22H55.143V1.08H57.183V3.22ZM57.163 15H55.163V4.68H57.163V15ZM67.0613 6.14V4.68H68.9813V14.62C68.9813 16.0333 68.5546 17.14 67.7013 17.94C66.8479 18.7533 65.6346 19.16 64.0613 19.16C62.7146 19.16 61.6413 18.8533 60.8413 18.24C60.0546 17.6267 59.6079 16.7867 59.5013 15.72H61.5013C61.6613 16.9333 62.5213 17.54 64.0813 17.54C66.0146 17.54 66.9813 16.58 66.9813 14.66V13.52C66.1946 14.5867 65.0879 15.12 63.6613 15.12C62.2213 15.12 61.0746 14.6333 60.2213 13.66C59.3546 12.6733 58.9213 11.38 58.9213 9.78C58.9213 8.18 59.3546 6.88667 60.2213 5.9C61.0746 4.92667 62.2146 4.44 63.6413 4.44C65.1479 4.44 66.2879 5.00667 67.0613 6.14ZM64.0213 13.4C64.9546 13.4 65.6879 13.08 66.2213 12.44C66.7679 11.7867 67.0413 10.9 67.0413 9.78C67.0413 8.66 66.7679 7.78 66.2213 7.14C65.6879 6.48667 64.9546 6.16 64.0213 6.16C63.1013 6.16 62.3679 6.48667 61.8213 7.14C61.2746 7.79333 61.0013 8.67333 61.0013 9.78C61.0013 10.9 61.2746 11.7867 61.8213 12.44C62.3679 13.08 63.1013 13.4 64.0213 13.4ZM76.3972 4.44C77.5305 4.44 78.4172 4.76 79.0572 5.4C79.6972 6.02667 80.0172 6.92 80.0172 8.08V15H78.0172V8.36C78.0172 6.92 77.2905 6.2 75.8372 6.2C75.1705 6.2 74.5705 6.45333 74.0372 6.96C73.5039 7.48 73.2372 8.22 73.2372 9.18V15H71.2372V0.76H73.2372V6.1C74.0239 4.99333 75.0772 4.44 76.3972 4.44ZM86.8013 4.68V6.32H84.7213V12.52C84.7213 12.8267 84.8079 13.0533 84.9813 13.2C85.1679 13.3333 85.4746 13.4 85.9013 13.4H86.8013V15C86.3613 15.04 85.9546 15.06 85.5813 15.06C84.6079 15.06 83.8879 14.8733 83.4212 14.5C82.9546 14.1267 82.7213 13.5267 82.7213 12.7V6.32H81.0613V4.68H82.7213V1.72H84.7213V4.68H86.8013ZM104.868 13.16C103.428 14.6 101.635 15.32 99.4881 15.32C97.3281 15.32 95.5415 14.6 94.1281 13.16C92.6881 11.7467 91.9681 9.98667 91.9681 7.88C91.9681 5.78667 92.6881 4.02 94.1281 2.58C95.5548 1.14 97.3415 0.419999 99.4881 0.419999C101.635 0.419999 103.428 1.14 104.868 2.58C106.295 4.03333 107.008 5.8 107.008 7.88C107.008 9.97333 106.295 11.7333 104.868 13.16ZM99.4881 13.84C101.208 13.84 102.628 13.2667 103.748 12.12C104.855 10.9733 105.408 9.56 105.408 7.88C105.408 6.18667 104.855 4.76667 103.748 3.62C102.628 2.48667 101.208 1.92 99.4881 1.92C97.7815 1.92 96.3681 2.48667 95.2481 3.62C94.1281 4.75333 93.5681 6.17333 93.5681 7.88C93.5681 9.56 94.1281 10.9733 95.2481 12.12C96.3681 13.2667 97.7815 13.84 99.4881 13.84ZM99.5481 12.26C98.3615 12.26 97.4081 11.86 96.6881 11.06C95.9681 10.26 95.6081 9.2 95.6081 7.88C95.6081 6.54667 95.9615 5.48667 96.6681 4.7C97.3881 3.9 98.3481 3.5 99.5481 3.5C100.588 3.5 101.435 3.78667 102.088 4.36C102.755 4.92 103.148 5.68667 103.268 6.66H101.568C101.475 6.11333 101.248 5.69333 100.888 5.4C100.528 5.09333 100.081 4.94 99.5481 4.94C98.8415 4.94 98.2881 5.2 97.8881 5.72C97.5015 6.22667 97.3081 6.94667 97.3081 7.88C97.3081 8.8 97.5015 9.52 97.8881 10.04C98.2881 10.5467 98.8415 10.8 99.5481 10.8C100.095 10.8 100.555 10.6467 100.928 10.34C101.301 10.0333 101.528 9.6 101.608 9.04H103.268C103.161 10.0133 102.768 10.7933 102.088 11.38C101.421 11.9667 100.575 12.26 99.5481 12.26Z" fill="black"/>
<path d="M114.959 13.14H122.399V15H112.559L112.619 14.1C112.673 13.1267 112.893 12.1933 113.279 11.3C113.719 10.2733 114.626 9.40667 115.999 8.7L117.619 7.8C118.473 7.34667 119.086 6.88667 119.459 6.42C119.833 5.94 120.019 5.36 120.019 4.68C120.019 3.94667 119.786 3.36667 119.319 2.94C118.866 2.51333 118.233 2.3 117.419 2.3C115.593 2.3 114.679 3.25333 114.679 5.16H112.579C112.566 3.66667 112.986 2.50667 113.839 1.68C114.693 0.853333 115.906 0.439999 117.479 0.439999C118.919 0.439999 120.066 0.826666 120.919 1.6C121.786 2.38667 122.219 3.38667 122.219 4.6C122.219 5.6 121.939 6.48 121.379 7.24C120.819 8 119.939 8.7 118.739 9.34L117.319 10.14C116.506 10.5933 115.919 11.04 115.559 11.48C115.213 11.92 115.013 12.4733 114.959 13.14ZM129.054 15.32C127.294 15.32 125.954 14.68 125.034 13.4C124.114 12.12 123.654 10.28 123.654 7.88C123.654 5.48 124.114 3.64 125.034 2.36C125.954 1.08 127.294 0.439999 129.054 0.439999C130.828 0.439999 132.168 1.08 133.074 2.36C133.994 3.62667 134.454 5.46667 134.454 7.88C134.454 10.2933 133.994 12.14 133.074 13.42C132.168 14.6867 130.828 15.32 129.054 15.32ZM129.054 13.46C131.174 13.46 132.234 11.6 132.234 7.88C132.234 4.16 131.174 2.3 129.054 2.3C126.948 2.3 125.894 4.16 125.894 7.88C125.894 11.6 126.948 13.46 129.054 13.46ZM138.143 13.14H145.583V15H135.743L135.803 14.1C135.856 13.1267 136.076 12.1933 136.463 11.3C136.903 10.2733 137.809 9.40667 139.183 8.7L140.803 7.8C141.656 7.34667 142.269 6.88667 142.643 6.42C143.016 5.94 143.203 5.36 143.203 4.68C143.203 3.94667 142.969 3.36667 142.503 2.94C142.049 2.51333 141.416 2.3 140.603 2.3C138.776 2.3 137.863 3.25333 137.863 5.16H135.763C135.749 3.66667 136.169 2.50667 137.023 1.68C137.876 0.853333 139.089 0.439999 140.663 0.439999C142.103 0.439999 143.249 0.826666 144.103 1.6C144.969 2.38667 145.403 3.38667 145.403 4.6C145.403 5.6 145.123 6.48 144.563 7.24C144.003 8 143.123 8.7 141.923 9.34L140.503 10.14C139.689 10.5933 139.103 11.04 138.743 11.48C138.396 11.92 138.196 12.4733 138.143 13.14ZM151.825 5.68C153.345 5.68 154.538 6.13333 155.405 7.04C156.258 7.93333 156.685 9.07333 156.685 10.46C156.685 11.9 156.218 13.0667 155.285 13.96C154.338 14.8667 153.098 15.32 151.565 15.32C150.165 15.32 148.998 14.9267 148.065 14.14C147.158 13.3667 146.652 12.32 146.545 11H148.625C148.718 11.76 149.032 12.3667 149.565 12.82C150.112 13.2733 150.778 13.5 151.565 13.5C152.445 13.5 153.158 13.22 153.705 12.66C154.265 12.0867 154.545 11.3533 154.545 10.46C154.545 9.55333 154.265 8.82 153.705 8.26C153.158 7.68667 152.445 7.4 151.565 7.4C150.285 7.4 149.372 7.93333 148.825 9H146.865L148.125 0.76H155.865V2.62H149.805L149.165 6.7C149.925 6.02 150.812 5.68 151.825 5.68ZM157.774 15V12.62H160.194V15.2C160.194 16.9333 159.474 17.84 158.034 17.92L157.774 17.94V16.7L157.994 16.68C158.54 16.6133 158.814 16.16 158.814 15.32V15H157.774ZM178.958 15H176.698L175.298 11.3H168.898L167.518 15H165.298L170.858 0.76H173.318L178.958 15ZM169.878 8.66L169.578 9.44H174.598L174.298 8.66C173.591 6.9 172.851 4.95333 172.078 2.82C171.158 5.27333 170.425 7.22 169.878 8.66ZM182.046 15H180.046V0.76H182.046V15ZM186.284 15H184.284V0.76H186.284V15ZM203.445 11.04L203.585 13.26C203.652 13.9933 203.812 14.5733 204.065 15H201.865C201.599 14.6133 201.459 14.0067 201.445 13.18L201.385 11.66C201.345 10.74 201.139 10.0933 200.765 9.72C200.392 9.33333 199.792 9.14 198.965 9.14H194.825V15H192.685V0.76H198.905C200.425 0.76 201.619 1.11333 202.485 1.82C203.365 2.51333 203.805 3.47333 203.805 4.7C203.805 5.56667 203.592 6.3 203.165 6.9C202.752 7.48667 202.165 7.9 201.405 8.14C202.099 8.34 202.605 8.68 202.925 9.16C203.245 9.62667 203.419 10.2533 203.445 11.04ZM194.825 7.36H198.945C199.772 7.36 200.419 7.14667 200.885 6.72C201.365 6.29333 201.605 5.68667 201.605 4.9C201.605 4.14 201.359 3.56667 200.865 3.18C200.385 2.79333 199.692 2.6 198.785 2.6H194.825V7.36ZM207.749 3.22H205.709V1.08H207.749V3.22ZM207.729 15H205.729V4.68H207.729V15ZM217.628 6.14V4.68H219.548V14.62C219.548 16.0333 219.121 17.14 218.268 17.94C217.414 18.7533 216.201 19.16 214.628 19.16C213.281 19.16 212.208 18.8533 211.408 18.24C210.621 17.6267 210.174 16.7867 210.068 15.72H212.068C212.228 16.9333 213.088 17.54 214.648 17.54C216.581 17.54 217.548 16.58 217.548 14.66V13.52C216.761 14.5867 215.654 15.12 214.228 15.12C212.788 15.12 211.641 14.6333 210.788 13.66C209.921 12.6733 209.488 11.38 209.488 9.78C209.488 8.18 209.921 6.88667 210.788 5.9C211.641 4.92667 212.781 4.44 214.208 4.44C215.714 4.44 216.854 5.00667 217.628 6.14ZM214.588 13.4C215.521 13.4 216.254 13.08 216.788 12.44C217.334 11.7867 217.608 10.9 217.608 9.78C217.608 8.66 217.334 7.78 216.788 7.14C216.254 6.48667 215.521 6.16 214.588 6.16C213.668 6.16 212.934 6.48667 212.388 7.14C211.841 7.79333 211.568 8.67333 211.568 9.78C211.568 10.9 211.841 11.7867 212.388 12.44C212.934 13.08 213.668 13.4 214.588 13.4ZM226.964 4.44C228.097 4.44 228.984 4.76 229.624 5.4C230.264 6.02667 230.584 6.92 230.584 8.08V15H228.584V8.36C228.584 6.92 227.857 6.2 226.404 6.2C225.737 6.2 225.137 6.45333 224.604 6.96C224.07 7.48 223.804 8.22 223.804 9.18V15H221.804V0.76H223.804V6.1C224.59 4.99333 225.644 4.44 226.964 4.44ZM237.368 4.68V6.32H235.288V12.52C235.288 12.8267 235.374 13.0533 235.548 13.2C235.734 13.3333 236.041 13.4 236.468 13.4H237.368V15C236.928 15.04 236.521 15.06 236.148 15.06C235.174 15.06 234.454 14.8733 233.988 14.5C233.521 14.1267 233.288 13.5267 233.288 12.7V6.32H231.628V4.68H233.288V1.72H235.288V4.68H237.368ZM253.895 11.04L254.035 13.26C254.101 13.9933 254.261 14.5733 254.515 15H252.315C252.048 14.6133 251.908 14.0067 251.895 13.18L251.835 11.66C251.795 10.74 251.588 10.0933 251.215 9.72C250.841 9.33333 250.241 9.14 249.415 9.14H245.275V15H243.135V0.76H249.355C250.875 0.76 252.068 1.11333 252.935 1.82C253.815 2.51333 254.255 3.47333 254.255 4.7C254.255 5.56667 254.041 6.3 253.615 6.9C253.201 7.48667 252.615 7.9 251.855 8.14C252.548 8.34 253.055 8.68 253.375 9.16C253.695 9.62667 253.868 10.2533 253.895 11.04ZM245.275 7.36H249.395C250.221 7.36 250.868 7.14667 251.335 6.72C251.815 6.29333 252.055 5.68667 252.055 4.9C252.055 4.14 251.808 3.56667 251.315 3.18C250.835 2.79333 250.141 2.6 249.235 2.6H245.275V7.36ZM265.362 9.92V10.5H257.582C257.675 11.5133 257.975 12.28 258.482 12.8C258.989 13.3067 259.675 13.56 260.542 13.56C261.849 13.56 262.702 12.9867 263.102 11.84H265.122C264.842 12.8933 264.295 13.7267 263.482 14.34C262.682 14.94 261.689 15.24 260.502 15.24C259.022 15.24 257.829 14.7467 256.922 13.76C256.015 12.7733 255.562 11.4667 255.562 9.84C255.562 8.21333 256.015 6.90667 256.922 5.92C257.829 4.93333 259.009 4.44 260.462 4.44C261.982 4.44 263.182 4.95333 264.062 5.98C264.929 7.00667 265.362 8.32 265.362 9.92ZM260.462 6.12C259.675 6.12 259.029 6.36 258.522 6.84C258.029 7.32 257.722 8.01333 257.602 8.92H263.302C263.209 8.08 262.909 7.40667 262.402 6.9C261.909 6.38 261.262 6.12 260.462 6.12ZM270.897 15.26C268.03 15.26 266.524 14.08 266.377 11.72H268.377C268.457 12.44 268.69 12.9467 269.077 13.24C269.464 13.5333 270.077 13.68 270.917 13.68C272.437 13.68 273.197 13.2 273.197 12.24C273.197 11.8267 273.037 11.5067 272.717 11.28C272.397 11.0533 271.824 10.8667 270.997 10.72L269.937 10.52C267.75 10.12 266.657 9.09333 266.657 7.44C266.657 6.52 267.01 5.79333 267.717 5.26C268.424 4.71333 269.397 4.44 270.637 4.44C273.477 4.44 274.93 5.59333 274.997 7.9H273.057C273.017 7.20667 272.804 6.72 272.417 6.44C272.03 6.14667 271.437 6 270.637 6C269.997 6 269.504 6.12 269.157 6.36C268.81 6.6 268.637 6.94 268.637 7.38C268.637 7.78 268.79 8.09333 269.097 8.32C269.404 8.53333 269.89 8.70667 270.557 8.84L271.637 9.02C272.904 9.26 273.817 9.62 274.377 10.1C274.937 10.58 275.217 11.2467 275.217 12.1C275.217 13.1 274.837 13.88 274.077 14.44C273.317 14.9867 272.257 15.26 270.897 15.26ZM286.026 9.92V10.5H278.246C278.339 11.5133 278.639 12.28 279.146 12.8C279.653 13.3067 280.339 13.56 281.206 13.56C282.513 13.56 283.366 12.9867 283.766 11.84H285.786C285.506 12.8933 284.959 13.7267 284.146 14.34C283.346 14.94 282.353 15.24 281.166 15.24C279.686 15.24 278.493 14.7467 277.586 13.76C276.679 12.7733 276.226 11.4667 276.226 9.84C276.226 8.21333 276.679 6.90667 277.586 5.92C278.493 4.93333 279.673 4.44 281.126 4.44C282.646 4.44 283.846 4.95333 284.726 5.98C285.593 7.00667 286.026 8.32 286.026 9.92ZM281.126 6.12C280.339 6.12 279.693 6.36 279.186 6.84C278.693 7.32 278.386 8.01333 278.266 8.92H283.966C283.873 8.08 283.573 7.40667 283.066 6.9C282.573 6.38 281.926 6.12 281.126 6.12ZM292.94 4.52C293.233 4.52 293.426 4.52667 293.52 4.54V6.44H293.02C291.993 6.44 291.2 6.69333 290.64 7.2C290.08 7.70667 289.8 8.44 289.8 9.4V15H287.8V4.68H289.72V6.52C290.373 5.18667 291.446 4.52 292.94 4.52ZM300.782 8.46L302.162 4.68H304.282L300.322 15H298.102L294.162 4.68H296.322L297.722 8.46C298.669 11.2733 299.175 12.8067 299.242 13.06C299.282 12.9267 299.369 12.66 299.502 12.26C299.635 11.86 299.822 11.3133 300.062 10.62C300.302 9.91333 300.542 9.19333 300.782 8.46ZM314.229 9.92V10.5H306.449C306.542 11.5133 306.842 12.28 307.349 12.8C307.856 13.3067 308.542 13.56 309.409 13.56C310.716 13.56 311.569 12.9867 311.969 11.84H313.989C313.709 12.8933 313.162 13.7267 312.349 14.34C311.549 14.94 310.556 15.24 309.369 15.24C307.889 15.24 306.696 14.7467 305.789 13.76C304.882 12.7733 304.429 11.4667 304.429 9.84C304.429 8.21333 304.882 6.90667 305.789 5.92C306.696 4.93333 307.876 4.44 309.329 4.44C310.849 4.44 312.049 4.95333 312.929 5.98C313.796 7.00667 314.229 8.32 314.229 9.92ZM309.329 6.12C308.542 6.12 307.896 6.36 307.389 6.84C306.896 7.32 306.589 8.01333 306.469 8.92H312.169C312.076 8.08 311.776 7.40667 311.269 6.9C310.776 6.38 310.129 6.12 309.329 6.12ZM323.583 6.08V0.76H325.583V15H323.663V13.48C322.889 14.6533 321.749 15.24 320.243 15.24C318.803 15.24 317.656 14.7533 316.803 13.78C315.949 12.8067 315.523 11.4933 315.523 9.84C315.523 8.18667 315.949 6.87333 316.803 5.9C317.656 4.92667 318.803 4.44 320.243 4.44C321.696 4.44 322.809 4.98667 323.583 6.08ZM317.603 9.92C317.603 11.0667 317.876 11.9533 318.423 12.58C318.969 13.2067 319.703 13.52 320.623 13.52C321.569 13.52 322.309 13.1933 322.843 12.54C323.376 11.9133 323.643 11.0133 323.643 9.84C323.643 8.68 323.376 7.77333 322.843 7.12C322.309 6.48 321.569 6.16 320.623 6.16C319.703 6.16 318.969 6.49333 318.423 7.16C317.876 7.82667 317.603 8.74667 317.603 9.92Z" fill="#FA6C14"/>
</svg>
