<svg width="316" height="70" viewBox="0 0 316 70" fill="none" xmlns="http://www.w3.org/2000/svg">
<rect x="0.0804443" width="315" height="70" rx="35" fill="url(#paint0_linear_6_192)"/>
<g clip-path="url(#clip0_6_192)">
<path d="M35.5804 7.5C20.3919 7.5 8.08044 19.8114 8.08044 35C8.08044 50.1869 20.3919 62.5 35.5804 62.5C50.769 62.5 63.0804 50.1869 63.0804 35C63.0804 19.8114 50.769 7.5 35.5804 7.5Z" fill="white"/>
<path d="M28.5548 23.2559C31.7247 23.2559 34.4142 24.8906 34.4142 28.0605V45.6328C34.4142 45.7617 34.2326 45.791 34.1915 45.6738V45.668C33.588 43.6641 31.9533 41.707 29.3693 41.5371C27.3654 41.4082 25.4494 42.293 23.9142 43.7109C23.8204 43.7988 23.6622 43.8809 23.5275 43.8809H23.2638C23.047 43.8809 22.8185 43.7227 22.8185 43.5234V26.543C22.8126 24.6621 25.3849 23.2559 28.5548 23.2559ZM41.4454 23.25C38.2755 23.25 35.5861 24.8848 35.5861 28.0547V45.627C35.5861 45.7559 35.7677 45.7852 35.8087 45.668V45.6621C36.4122 43.6582 38.1173 41.6836 40.631 41.5312C42.5587 41.4141 44.3751 42.1758 46.0861 43.7051C46.1798 43.7871 46.338 43.875 46.4728 43.875H46.7365C46.9533 43.875 47.1818 43.7168 47.1818 43.5176V26.5312C47.1876 24.6562 44.6154 23.25 41.4454 23.25Z" fill="url(#paint1_linear_6_192)"/>
</g>
<path d="M88.3504 35.25C89.0584 35.502 89.6044 35.904 89.9884 36.456C90.3844 37.008 90.5824 37.632 90.5824 38.328C90.5824 39.492 90.1984 40.398 89.4304 41.046C88.6744 41.682 87.5704 42 86.1184 42H80.1244V29.184H85.9204C87.2644 29.184 88.2904 29.49 88.9984 30.102C89.7064 30.714 90.0604 31.512 90.0604 32.496C90.0604 33.756 89.4904 34.674 88.3504 35.25ZM85.7404 31.182H82.5544V34.53H85.7404C86.3524 34.53 86.8204 34.38 87.1444 34.08C87.4804 33.768 87.6484 33.342 87.6484 32.802C87.6484 32.298 87.4804 31.902 87.1444 31.614C86.8084 31.326 86.3404 31.182 85.7404 31.182ZM82.5544 39.984H85.9924C86.6764 39.984 87.1984 39.834 87.5584 39.534C87.9184 39.222 88.0984 38.784 88.0984 38.22C88.0984 37.032 87.3964 36.438 85.9924 36.438H82.5544V39.984ZM97.6609 42.27C95.9929 42.27 94.6789 41.826 93.7189 40.938C92.7709 40.038 92.2969 38.784 92.2969 37.176V29.184H94.7269V37.194C94.7269 38.166 94.9789 38.904 95.4829 39.408C95.9869 39.912 96.7129 40.164 97.6609 40.164C98.6089 40.164 99.3349 39.912 99.8389 39.408C100.343 38.904 100.595 38.166 100.595 37.194V29.184H103.025V37.176C103.025 38.808 102.551 40.068 101.603 40.956C100.655 41.832 99.3409 42.27 97.6609 42.27ZM112.342 31.488L113.746 29.184H116.428L111.622 36.942V42H109.192V36.942L104.35 29.184H107.104L108.526 31.506C109.678 33.426 110.32 34.506 110.452 34.746C110.776 34.17 111.406 33.084 112.342 31.488ZM133.05 40.452C131.874 41.676 130.326 42.288 128.406 42.288C126.486 42.288 124.938 41.676 123.762 40.452C122.586 39.216 121.998 37.596 121.998 35.592C121.998 33.588 122.586 31.968 123.762 30.732C124.938 29.508 126.486 28.896 128.406 28.896C130.326 28.896 131.874 29.508 133.05 30.732C134.214 31.944 134.796 33.564 134.796 35.592C134.796 37.62 134.214 39.24 133.05 40.452ZM124.536 35.592C124.536 36.996 124.89 38.106 125.598 38.922C126.306 39.738 127.242 40.146 128.406 40.146C129.582 40.146 130.524 39.738 131.232 38.922C131.928 38.118 132.276 37.008 132.276 35.592C132.276 34.176 131.928 33.066 131.232 32.262C130.524 31.446 129.582 31.038 128.406 31.038C127.242 31.038 126.306 31.446 125.598 32.262C124.89 33.078 124.536 34.188 124.536 35.592ZM145.373 32.532V29.184H147.713V42H145.013L141.449 36.294C140.477 34.77 139.715 33.486 139.163 32.442C139.211 33.786 139.235 35.856 139.235 38.652V42H136.895V29.184H139.595L143.177 34.89C144.245 36.618 145.001 37.902 145.445 38.742C145.397 36.954 145.373 34.884 145.373 32.532ZM166.533 42H163.959L162.951 39.174H157.335L156.345 42H153.843L158.721 29.184H161.565L166.533 42ZM158.559 35.718L158.073 37.104H162.213L161.709 35.718C161.289 34.65 160.761 33.186 160.125 31.326C159.621 32.814 159.099 34.278 158.559 35.718ZM168.011 29.184H173.645C175.073 29.184 176.183 29.562 176.975 30.318C177.779 31.062 178.181 32.076 178.181 33.36C178.181 34.632 177.779 35.646 176.975 36.402C176.183 37.146 175.073 37.518 173.645 37.518H170.441V42H168.011V29.184ZM170.441 35.43H173.537C174.245 35.43 174.785 35.256 175.157 34.908C175.541 34.548 175.733 34.032 175.733 33.36C175.733 32.688 175.541 32.172 175.157 31.812C174.785 31.452 174.245 31.272 173.537 31.272H170.441V35.43ZM180.223 29.184H185.857C187.285 29.184 188.395 29.562 189.187 30.318C189.991 31.062 190.393 32.076 190.393 33.36C190.393 34.632 189.991 35.646 189.187 36.402C188.395 37.146 187.285 37.518 185.857 37.518H182.653V42H180.223V29.184ZM182.653 35.43H185.749C186.457 35.43 186.997 35.256 187.369 34.908C187.753 34.548 187.945 34.032 187.945 33.36C187.945 32.688 187.753 32.172 187.369 31.812C186.997 31.452 186.457 31.272 185.749 31.272H182.653V35.43ZM194.865 29.184V39.822H200.967V42H192.435V29.184H194.865ZM212.286 29.184V31.362H205.266V34.386H211.62V36.474H205.266V39.822H212.25V42H202.836V29.184H212.286ZM226.978 35.25C227.686 35.502 228.232 35.904 228.616 36.456C229.012 37.008 229.21 37.632 229.21 38.328C229.21 39.492 228.826 40.398 228.058 41.046C227.302 41.682 226.198 42 224.746 42H218.752V29.184H224.548C225.892 29.184 226.918 29.49 227.626 30.102C228.334 30.714 228.688 31.512 228.688 32.496C228.688 33.756 228.118 34.674 226.978 35.25ZM224.368 31.182H221.182V34.53H224.368C224.98 34.53 225.448 34.38 225.772 34.08C226.108 33.768 226.276 33.342 226.276 32.802C226.276 32.298 226.108 31.902 225.772 31.614C225.436 31.326 224.968 31.182 224.368 31.182ZM221.182 39.984H224.62C225.304 39.984 225.826 39.834 226.186 39.534C226.546 39.222 226.726 38.784 226.726 38.22C226.726 37.032 226.024 36.438 224.62 36.438H221.182V39.984ZM241.616 40.452C240.44 41.676 238.892 42.288 236.972 42.288C235.052 42.288 233.504 41.676 232.328 40.452C231.152 39.216 230.564 37.596 230.564 35.592C230.564 33.588 231.152 31.968 232.328 30.732C233.504 29.508 235.052 28.896 236.972 28.896C238.892 28.896 240.44 29.508 241.616 30.732C242.78 31.944 243.362 33.564 243.362 35.592C243.362 37.62 242.78 39.24 241.616 40.452ZM233.102 35.592C233.102 36.996 233.456 38.106 234.164 38.922C234.872 39.738 235.808 40.146 236.972 40.146C238.148 40.146 239.09 39.738 239.798 38.922C240.494 38.118 240.842 37.008 240.842 35.592C240.842 34.176 240.494 33.066 239.798 32.262C239.09 31.446 238.148 31.038 236.972 31.038C235.808 31.038 234.872 31.446 234.164 32.262C233.456 33.078 233.102 34.188 233.102 35.592ZM255.973 40.452C254.797 41.676 253.249 42.288 251.329 42.288C249.409 42.288 247.861 41.676 246.685 40.452C245.509 39.216 244.921 37.596 244.921 35.592C244.921 33.588 245.509 31.968 246.685 30.732C247.861 29.508 249.409 28.896 251.329 28.896C253.249 28.896 254.797 29.508 255.973 30.732C257.137 31.944 257.719 33.564 257.719 35.592C257.719 37.62 257.137 39.24 255.973 40.452ZM247.459 35.592C247.459 36.996 247.813 38.106 248.521 38.922C249.229 39.738 250.165 40.146 251.329 40.146C252.505 40.146 253.447 39.738 254.155 38.922C254.851 38.118 255.199 37.008 255.199 35.592C255.199 34.176 254.851 33.066 254.155 32.262C253.447 31.446 252.505 31.038 251.329 31.038C250.165 31.038 249.229 31.446 248.521 32.262C247.813 33.078 247.459 34.188 247.459 35.592ZM268.241 29.184H271.265L265.991 34.404L271.265 42H268.367L264.263 36.024L262.247 37.986V42H259.817V29.184H262.247V35.232L268.241 29.184ZM277.048 42.288C275.308 42.288 273.958 41.898 272.998 41.118C272.05 40.338 271.57 39.222 271.558 37.77H273.952C273.964 38.682 274.234 39.336 274.762 39.732C275.302 40.128 276.088 40.326 277.12 40.326C277.96 40.326 278.602 40.17 279.046 39.858C279.49 39.534 279.712 39.072 279.712 38.472C279.712 37.968 279.52 37.584 279.136 37.32C278.764 37.056 278.08 36.822 277.084 36.618L276.004 36.402C273.256 35.886 271.882 34.59 271.882 32.514C271.882 31.41 272.302 30.534 273.142 29.886C273.982 29.226 275.146 28.896 276.634 28.896C278.326 28.896 279.604 29.256 280.468 29.976C281.344 30.696 281.806 31.704 281.854 33H279.496C279.448 32.268 279.202 31.728 278.758 31.38C278.326 31.032 277.63 30.858 276.67 30.858C275.926 30.858 275.356 30.996 274.96 31.272C274.564 31.548 274.366 31.938 274.366 32.442C274.366 32.958 274.546 33.354 274.906 33.63C275.278 33.906 275.932 34.14 276.868 34.332L277.984 34.548C279.484 34.848 280.564 35.298 281.224 35.898C281.896 36.486 282.232 37.302 282.232 38.346C282.232 39.594 281.776 40.566 280.864 41.262C279.952 41.946 278.68 42.288 277.048 42.288Z" fill="white"/>
<defs>
<linearGradient id="paint0_linear_6_192" x1="215.5" y1="0.5" x2="215.5" y2="70.5" gradientUnits="userSpaceOnUse">
<stop stop-color="#FFA501"/>
<stop offset="0.26707" stop-color="#FC870F"/>
<stop offset="1" stop-color="#F9691D"/>
</linearGradient>
<linearGradient id="paint1_linear_6_192" x1="39.4799" y1="23.4107" x2="39.4799" y2="45.9082" gradientUnits="userSpaceOnUse">
<stop stop-color="#FFA501"/>
<stop offset="0.26707" stop-color="#FC870F"/>
<stop offset="1" stop-color="#F9691D"/>
</linearGradient>
<clipPath id="clip0_6_192">
<rect width="55" height="55" fill="white" transform="translate(8.08044 7.5)"/>
</clipPath>
</defs>
</svg>
