<svg width="268" height="70" viewBox="0 0 268 70" fill="none" xmlns="http://www.w3.org/2000/svg">
<rect x="0.0804443" width="267" height="70" rx="35" fill="#231F20"/>
<g clip-path="url(#clip0_1_1576)">
<path d="M35.5804 7.5C20.3919 7.5 8.08044 19.8114 8.08044 35C8.08044 50.1869 20.3919 62.5 35.5804 62.5C50.769 62.5 63.0804 50.1869 63.0804 35C63.0804 19.8114 50.769 7.5 35.5804 7.5Z" fill="white"/>
<path d="M23.2565 42.5871C26.3703 45.2907 29.7811 47.8037 34.3679 47.805L34.6397 47.8012C37.5578 47.7339 40.8582 46.7485 43.4208 45.1395L43.4361 45.1294C43.7713 44.9275 44.1078 44.7002 44.4228 44.4462C44.5216 44.3773 44.6031 44.2864 44.6608 44.1806C44.7186 44.0748 44.751 43.9571 44.7555 43.8367C44.7478 43.4138 44.3897 43.1293 44.0037 43.1293C43.8774 43.1289 43.7527 43.1576 43.6392 43.2132C43.5084 43.2652 43.3726 43.3249 43.2469 43.3795L43.0589 43.4582L42.8176 43.556V43.5573C40.1827 44.6253 37.4143 45.2526 34.853 45.3097C34.759 45.3122 34.6651 45.3123 34.5711 45.3123C30.5431 45.3135 27.2554 43.4443 23.941 41.603C23.8334 41.5442 23.7131 41.5124 23.5905 41.5103C23.4394 41.5103 23.2883 41.5661 23.1765 41.6703C23.0648 41.7744 22.9987 41.9268 23 42.0817C23 42.2849 23.1067 42.469 23.2565 42.5871Z" fill="#F8981D"/>
<g clip-path="url(#clip1_1_1576)">
<path d="M47.5555 41.6373C47.5576 41.4211 47.4981 41.2088 47.3841 41.0252L47.3739 41.0087L47.3612 40.9922C47.252 40.8728 47.1479 40.8296 47.0349 40.7788C46.6996 40.6493 46.2095 40.5807 45.6215 40.5795C45.164 40.5787 44.7077 40.6264 44.2602 40.7217L44.2589 40.6912L43.7878 40.8474L43.7802 40.8525L43.5135 40.9388V40.9503C43.2084 41.0773 42.9191 41.2392 42.6513 41.4328C42.4862 41.5573 42.3491 41.7198 42.3414 41.9687C42.3376 42.1046 42.4075 42.262 42.5218 42.3547C42.5832 42.4039 42.6543 42.4398 42.7303 42.4602C42.8064 42.4805 42.8859 42.4848 42.9637 42.4728L42.984 42.4716L43.003 42.4678C43.2329 42.4182 43.5707 42.3865 43.9643 42.3306C44.3021 42.2938 44.6602 42.2646 44.9701 42.2646C45.1898 42.2646 45.3879 42.2798 45.5237 42.309C45.5745 42.3187 45.624 42.3345 45.671 42.356C45.6812 42.3598 45.6888 42.3624 45.6914 42.3662C45.7021 42.4106 45.7064 42.4564 45.7041 42.502C45.7091 42.7611 45.5974 43.2449 45.4475 43.7148C45.3002 44.1859 45.1199 44.6583 45.0018 44.9719C44.9718 45.0479 44.9567 45.129 44.9574 45.2107C44.9563 45.2816 44.9697 45.3519 44.9968 45.4174C45.0239 45.4829 45.064 45.5422 45.1148 45.5916C45.2124 45.6826 45.3408 45.7334 45.4742 45.7339H45.4793C45.644 45.7281 45.8021 45.6678 45.9288 45.5624C47.1276 44.483 47.5441 42.7611 47.5619 41.7935L47.5555 41.6373ZM36.594 30.0776C35.8892 30.131 35.0752 30.1843 34.2625 30.2922C33.0155 30.4573 31.7698 30.6732 30.7399 31.1621C28.7348 31.9748 27.3785 33.7095 27.3785 36.2581C27.3785 39.4582 29.4383 41.0849 32.0415 41.0849C32.7902 41.0874 33.5363 40.9965 34.2625 40.8144C35.2936 40.488 36.1584 39.8925 37.1908 38.8067C37.7864 39.6194 37.949 40.0004 38.9788 40.8677C39.2493 40.9744 39.5211 40.9744 39.7369 40.8157C40.5436 40.1424 41.3382 39.4548 42.1205 38.7534C42.3935 38.5375 42.3376 38.2112 42.1738 37.9419C41.5795 37.1826 40.9827 36.5311 40.9827 35.0657V30.1856C40.9827 28.1246 41.1452 26.2261 39.629 24.8178C38.3832 23.68 36.4315 23.2444 34.914 23.2444H34.2638C31.5005 23.4057 28.5735 24.5994 27.922 28.0166C27.8128 28.4509 28.1405 28.6122 28.3563 28.6655L31.3901 29.0452C31.7164 28.9906 31.8802 28.7189 31.9323 28.4497C32.2041 27.256 33.1793 26.6591 34.2638 26.5512H34.4822C35.1324 26.5512 35.8359 26.8229 36.2156 27.3652C36.6486 28.0166 36.5965 28.8827 36.5965 29.6433L36.594 30.0776ZM35.9984 36.5286C35.6187 37.2854 34.9686 37.773 34.2638 37.9394C34.1546 37.9394 33.9933 37.9915 33.8295 37.9915C32.6383 37.9915 31.9336 37.0683 31.9336 35.7146C31.9336 33.9774 32.9647 33.1647 34.2651 32.785C34.9698 32.6237 35.7826 32.5666 36.5965 32.5666V33.218C36.594 34.4688 36.6473 35.4441 35.9984 36.5286Z" fill="#231F20"/>
</g>
<g clip-path="url(#clip2_1_1576)">
<path d="M48.8344 40.6689C48.8363 40.4671 48.7808 40.269 48.6743 40.0976L48.6649 40.0822L48.653 40.0667C48.5511 39.9553 48.4539 39.915 48.3484 39.8676C48.0354 39.7467 47.5779 39.6827 47.029 39.6815C46.602 39.6808 46.176 39.7253 45.7583 39.8143L45.7571 39.7858L45.3174 39.9316L45.3103 39.9364L45.0613 40.017V40.0276C44.7766 40.1462 44.5065 40.2974 44.2565 40.4781C44.1024 40.5942 43.9743 40.746 43.9672 40.9783C43.9637 41.1051 44.0289 41.2521 44.1356 41.3387C44.1929 41.3846 44.2592 41.4181 44.3302 41.4371C44.4012 41.456 44.4754 41.4601 44.5481 41.4489L44.567 41.4477L44.5848 41.4441C44.7994 41.3979 45.1147 41.3683 45.4821 41.3161C45.7974 41.2818 46.1317 41.2545 46.4209 41.2545C46.626 41.2545 46.8109 41.2687 46.9378 41.296C46.9852 41.3051 47.0314 41.3198 47.0753 41.3398C47.0848 41.3434 47.0919 41.3458 47.0942 41.3493C47.1043 41.3908 47.1083 41.4335 47.1061 41.4762C47.1108 41.718 47.0065 42.1696 46.8666 42.6082C46.7291 43.048 46.5608 43.4889 46.4506 43.7817C46.4225 43.8526 46.4085 43.9283 46.4091 44.0046C46.4081 44.0707 46.4206 44.1364 46.4459 44.1975C46.4712 44.2587 46.5087 44.314 46.5561 44.3602C46.6472 44.4451 46.767 44.4925 46.8915 44.4929H46.8963C47.05 44.4875 47.1976 44.4312 47.3159 44.3329C48.4349 43.3253 48.8237 41.718 48.8403 40.8147L48.8344 40.6689ZM38.6022 29.8785C37.9444 29.9283 37.1845 29.9781 36.4259 30.0788C35.2619 30.2329 34.099 30.4344 33.1377 30.8908C31.266 31.6494 30 33.2686 30 35.6477C30 38.6348 31.9227 40.1533 34.3527 40.1533C35.0516 40.1556 35.748 40.0708 36.4259 39.9008C37.3884 39.5962 38.1957 39.0402 39.1594 38.0267C39.7153 38.7854 39.867 39.141 40.8284 39.9506C41.0809 40.0502 41.3345 40.0502 41.536 39.902C42.289 39.2735 43.0308 38.6317 43.761 37.9769C44.0158 37.7754 43.9637 37.4708 43.8108 37.2195C43.256 36.5106 42.6989 35.9025 42.6989 34.5346V29.9792C42.6989 28.0554 42.8506 26.2833 41.4353 24.9687C40.2724 23.9066 38.4505 23.5 37.034 23.5H36.4271C33.8477 23.6505 31.1154 24.7648 30.5073 27.9546C30.4054 28.36 30.7112 28.5106 30.9127 28.5603L33.7446 28.9148C34.0492 28.8638 34.2021 28.6101 34.2507 28.3588C34.5044 27.2446 35.4148 26.6875 36.4271 26.5867H36.631C37.2379 26.5867 37.8946 26.8404 38.249 27.3465C38.6532 27.9546 38.6046 28.763 38.6046 29.4731L38.6022 29.8785ZM38.0463 35.9002C37.6919 36.6067 37.085 37.0618 36.4271 37.2171C36.3251 37.2171 36.1746 37.2657 36.0217 37.2657C34.9098 37.2657 34.2519 36.404 34.2519 35.1403C34.2519 33.5188 35.2144 32.7601 36.4283 32.4057C37.0862 32.2552 37.8448 32.2018 38.6046 32.2018V32.8099C38.6022 33.9775 38.652 34.8879 38.0463 35.9002Z" fill="#F8981D"/>
</g>
</g>
<path d="M88.3504 35.25C89.0584 35.502 89.6044 35.904 89.9884 36.456C90.3844 37.008 90.5824 37.632 90.5824 38.328C90.5824 39.492 90.1984 40.398 89.4304 41.046C88.6744 41.682 87.5704 42 86.1184 42H80.1244V29.184H85.9204C87.2644 29.184 88.2904 29.49 88.9984 30.102C89.7064 30.714 90.0604 31.512 90.0604 32.496C90.0604 33.756 89.4904 34.674 88.3504 35.25ZM85.7404 31.182H82.5544V34.53H85.7404C86.3524 34.53 86.8204 34.38 87.1444 34.08C87.4804 33.768 87.6484 33.342 87.6484 32.802C87.6484 32.298 87.4804 31.902 87.1444 31.614C86.8084 31.326 86.3404 31.182 85.7404 31.182ZM82.5544 39.984H85.9924C86.6764 39.984 87.1984 39.834 87.5584 39.534C87.9184 39.222 88.0984 38.784 88.0984 38.22C88.0984 37.032 87.3964 36.438 85.9924 36.438H82.5544V39.984ZM97.6609 42.27C95.9929 42.27 94.6789 41.826 93.7189 40.938C92.7709 40.038 92.2969 38.784 92.2969 37.176V29.184H94.7269V37.194C94.7269 38.166 94.9789 38.904 95.4829 39.408C95.9869 39.912 96.7129 40.164 97.6609 40.164C98.6089 40.164 99.3349 39.912 99.8389 39.408C100.343 38.904 100.595 38.166 100.595 37.194V29.184H103.025V37.176C103.025 38.808 102.551 40.068 101.603 40.956C100.655 41.832 99.3409 42.27 97.6609 42.27ZM112.342 31.488L113.746 29.184H116.428L111.622 36.942V42H109.192V36.942L104.35 29.184H107.104L108.526 31.506C109.678 33.426 110.32 34.506 110.452 34.746C110.776 34.17 111.406 33.084 112.342 31.488ZM133.05 40.452C131.874 41.676 130.326 42.288 128.406 42.288C126.486 42.288 124.938 41.676 123.762 40.452C122.586 39.216 121.998 37.596 121.998 35.592C121.998 33.588 122.586 31.968 123.762 30.732C124.938 29.508 126.486 28.896 128.406 28.896C130.326 28.896 131.874 29.508 133.05 30.732C134.214 31.944 134.796 33.564 134.796 35.592C134.796 37.62 134.214 39.24 133.05 40.452ZM124.536 35.592C124.536 36.996 124.89 38.106 125.598 38.922C126.306 39.738 127.242 40.146 128.406 40.146C129.582 40.146 130.524 39.738 131.232 38.922C131.928 38.118 132.276 37.008 132.276 35.592C132.276 34.176 131.928 33.066 131.232 32.262C130.524 31.446 129.582 31.038 128.406 31.038C127.242 31.038 126.306 31.446 125.598 32.262C124.89 33.078 124.536 34.188 124.536 35.592ZM145.373 32.532V29.184H147.713V42H145.013L141.449 36.294C140.477 34.77 139.715 33.486 139.163 32.442C139.211 33.786 139.235 35.856 139.235 38.652V42H136.895V29.184H139.595L143.177 34.89C144.245 36.618 145.001 37.902 145.445 38.742C145.397 36.954 145.373 34.884 145.373 32.532ZM166.533 42H163.959L162.951 39.174H157.335L156.345 42H153.843L158.721 29.184H161.565L166.533 42ZM158.559 35.718L158.073 37.104H162.213L161.709 35.718C161.289 34.65 160.761 33.186 160.125 31.326C159.621 32.814 159.099 34.278 158.559 35.718ZM175.985 35.286L178.127 29.184H181.655V42H179.333V38.094C179.333 35.694 179.357 33.576 179.405 31.74C179.141 32.64 178.817 33.624 178.433 34.692L175.841 42H173.843L171.233 34.692C170.777 33.36 170.459 32.388 170.279 31.776C170.327 33.6 170.351 35.706 170.351 38.094V42H168.011V29.184H171.539L173.753 35.412C173.897 35.832 174.263 36.99 174.851 38.886C175.235 37.554 175.613 36.354 175.985 35.286ZM195.826 42H193.252L192.244 39.174H186.628L185.638 42H183.136L188.014 29.184H190.858L195.826 42ZM187.852 35.718L187.366 37.104H191.506L191.002 35.718C190.582 34.65 190.054 33.186 189.418 31.326C188.914 32.814 188.392 34.278 187.852 35.718ZM203.496 39.822H207.096V42H196.71V40.02L201.534 34.098C202.614 32.79 203.394 31.866 203.874 31.326C201.666 31.35 200.43 31.362 200.166 31.362H196.962V29.184H206.988V31.146L202.128 37.086C201.048 38.394 200.268 39.318 199.788 39.858C201.996 39.834 203.232 39.822 203.496 39.822ZM219.078 40.452C217.902 41.676 216.354 42.288 214.434 42.288C212.514 42.288 210.966 41.676 209.79 40.452C208.614 39.216 208.026 37.596 208.026 35.592C208.026 33.588 208.614 31.968 209.79 30.732C210.966 29.508 212.514 28.896 214.434 28.896C216.354 28.896 217.902 29.508 219.078 30.732C220.242 31.944 220.824 33.564 220.824 35.592C220.824 37.62 220.242 39.24 219.078 40.452ZM210.564 35.592C210.564 36.996 210.918 38.106 211.626 38.922C212.334 39.738 213.27 40.146 214.434 40.146C215.61 40.146 216.552 39.738 217.26 38.922C217.956 38.118 218.304 37.008 218.304 35.592C218.304 34.176 217.956 33.066 217.26 32.262C216.552 31.446 215.61 31.038 214.434 31.038C213.27 31.038 212.334 31.446 211.626 32.262C210.918 33.078 210.564 34.188 210.564 35.592ZM231.401 32.532V29.184H233.741V42H231.041L227.477 36.294C226.505 34.77 225.743 33.486 225.191 32.442C225.239 33.786 225.263 35.856 225.263 38.652V42H222.923V29.184H225.623L229.205 34.89C230.273 36.618 231.029 37.902 231.473 38.742C231.425 36.954 231.401 34.884 231.401 32.532Z" fill="white"/>
<defs>
<clipPath id="clip0_1_1576">
<rect width="55" height="55" fill="white" transform="translate(8.08044 7.5)"/>
</clipPath>
<clipPath id="clip1_1_1576">
<rect width="16.0693" height="19.2831" fill="white" transform="translate(26.5031 22.5)"/>
</clipPath>
<clipPath id="clip2_1_1576">
<rect width="5.35643" height="7.499" fill="white" transform="translate(44 37.5)"/>
</clipPath>
</defs>
</svg>
