<svg width="604" height="238" viewBox="0 0 604 238" fill="none" xmlns="http://www.w3.org/2000/svg">
<path d="M14.43 20.886H14.742C15.054 19.17 15.522 17.22 15.99 15.348L19.11 1.23H29.484L19.89 34.692V51.306L19.968 57H9.204L9.282 51.306V34.692L0 1.23H10.608L13.338 15.348C13.728 17.22 14.196 19.17 14.43 20.886ZM43.4917 57.936C39.0457 57.936 35.6137 56.766 33.5857 54.582C30.8557 51.696 29.4517 47.718 29.4517 36.486V21.744C29.4517 10.512 30.8557 6.534 33.5857 3.648C35.6137 1.542 39.0457 0.293995 43.4917 0.293995C48.0157 0.293995 51.3697 1.542 53.3977 3.648C56.1277 6.612 57.6097 10.512 57.6097 21.744V36.486C57.6097 47.718 56.2057 51.696 53.3977 54.582C51.3697 56.766 48.0157 57.936 43.4917 57.936ZM40.2157 19.56V38.67C40.2157 45.222 40.3717 48.42 43.4917 48.42C46.4557 48.42 46.7677 45.222 46.7677 38.67V19.56C46.7677 13.008 46.4557 9.81 43.4917 9.81C40.3717 9.81 40.2157 13.008 40.2157 19.56ZM78.5168 1.23H89.2808L89.2028 6.924V43.116C89.2028 52.632 84.0548 57.936 75.5528 57.936C66.9728 57.936 61.9808 52.632 61.9808 43.116V6.924L61.9028 1.23H72.6668L72.5888 6.924V43.428C72.5888 46.626 73.2908 48.42 75.5528 48.42C77.8148 48.42 78.5168 46.626 78.5168 43.428V1.23ZM104.586 10.356V24.864H105.444C109.422 24.864 110.436 22.056 110.436 17.766V17.532C110.436 13.476 109.422 10.356 105.522 10.356H104.586ZM105.366 34.536H104.586V51.306L104.664 57H93.9004L93.9784 51.306V6.924L93.9004 1.23H105.834C117.768 1.23 121.122 8.094 121.122 16.44V16.596C121.122 26.424 117.69 28.608 113.634 29.856V30.246C116.832 31.104 120.888 33.21 121.044 42.414C121.122 48.576 121.2 51.696 122.292 55.83V57H111.762C110.436 52.71 110.358 49.122 110.202 40.698C110.124 37.032 108.564 34.536 105.366 34.536ZM146.452 57H133.738L133.816 51.306V6.924L133.738 1.23H146.14C155.578 1.23 160.492 6.768 160.492 15.504V15.66C160.492 21.822 159.01 26.346 152.848 28.296V28.608C158.776 29.934 161.038 34.458 161.038 40.62V40.776C161.038 52.788 155.968 57 146.452 57ZM144.346 47.796H145.048C149.104 47.796 150.352 45.846 150.352 40.62V40.386C150.352 36.096 148.948 33.366 145.204 33.366H144.346V47.796ZM144.346 10.044V23.85H145.36C149.182 23.85 150.274 20.652 150.274 16.596V16.362C150.274 12.462 149.182 10.044 145.126 10.044H144.346ZM180.739 1.23H191.503L191.425 6.924V43.116C191.425 52.632 186.277 57.936 177.775 57.936C169.195 57.936 164.203 52.632 164.203 43.116V6.924L164.125 1.23H174.889L174.811 6.924V43.428C174.811 46.626 175.513 48.42 177.775 48.42C180.037 48.42 180.739 46.626 180.739 43.428V1.23ZM194.563 40.464H205.093C205.093 45.846 206.185 48.108 208.603 48.108C210.241 48.108 211.489 47.016 211.489 43.584C211.489 40.542 210.553 37.344 206.965 34.614L203.377 31.884C197.605 27.516 194.953 22.914 194.953 15.738C194.953 5.676 200.491 0.215997 208.915 0.215997C217.027 0.215997 221.941 4.896 221.707 17.298H211.489C211.489 11.916 210.475 10.122 208.525 10.122C206.497 10.122 205.327 11.916 205.327 14.802C205.327 18.156 206.887 20.574 209.851 22.758L213.829 25.722C218.431 29.154 222.019 33.054 222.019 41.79C222.019 52.71 216.481 58.014 208.135 58.014C199.867 58.014 194.329 52.866 194.563 40.464ZM225.221 1.23H235.985L235.907 6.924V51.306L235.985 57H225.221L225.299 51.306V6.924L225.221 1.23ZM241.293 57L241.371 51.306V6.924L241.293 1.23H248.235L255.879 19.95C257.205 22.992 257.283 23.538 258.141 25.722H258.453C258.375 23.85 258.297 21.12 258.297 19.17V6.924L258.141 1.23H268.359L268.203 6.924V51.306L268.359 57H261.651L253.305 37.11C252.525 35.394 251.667 32.898 251.355 32.196H251.043C251.199 33.99 251.277 36.72 251.277 38.748V51.306L251.355 57H241.293ZM293.246 33.756H284.276V47.406H295.664V57H273.59L273.668 51.306V6.924L273.59 1.23H295.43V10.668H284.276V23.148H293.246V33.756ZM297.471 40.464H308.001C308.001 45.846 309.093 48.108 311.511 48.108C313.149 48.108 314.397 47.016 314.397 43.584C314.397 40.542 313.461 37.344 309.873 34.614L306.285 31.884C300.513 27.516 297.861 22.914 297.861 15.738C297.861 5.676 303.399 0.215997 311.823 0.215997C319.935 0.215997 324.849 4.896 324.615 17.298H314.397C314.397 11.916 313.383 10.122 311.433 10.122C309.405 10.122 308.235 11.916 308.235 14.802C308.235 18.156 309.795 20.574 312.759 22.758L316.737 25.722C321.339 29.154 324.927 33.054 324.927 41.79C324.927 52.71 319.389 58.014 311.043 58.014C302.775 58.014 297.237 52.866 297.471 40.464ZM326.569 40.464H337.099C337.099 45.846 338.191 48.108 340.609 48.108C342.247 48.108 343.495 47.016 343.495 43.584C343.495 40.542 342.559 37.344 338.971 34.614L335.383 31.884C329.611 27.516 326.959 22.914 326.959 15.738C326.959 5.676 332.497 0.215997 340.921 0.215997C349.033 0.215997 353.947 4.896 353.713 17.298H343.495C343.495 11.916 342.481 10.122 340.531 10.122C338.503 10.122 337.333 11.916 337.333 14.802C337.333 18.156 338.893 20.574 341.857 22.758L345.835 25.722C350.437 29.154 354.025 33.054 354.025 41.79C354.025 52.71 348.487 58.014 340.141 58.014C331.873 58.014 326.335 52.866 326.569 40.464ZM16.848 87.23H27.612L27.534 92.924V129.116C27.534 138.632 22.698 143.936 14.664 143.936C6.084 143.936 1.092 138.632 1.092 129.116V125.45L1.014 119.756H11.388L11.31 125.45V129.428C11.31 132.626 12.012 134.42 14.274 134.42C16.302 134.42 16.848 132.626 16.848 129.428V87.23ZM45.9292 143.936C41.4832 143.936 38.0512 142.766 36.0232 140.582C33.2932 137.696 31.8892 133.718 31.8892 122.486V107.744C31.8892 96.512 33.2932 92.534 36.0232 89.648C38.0512 87.542 41.4832 86.294 45.9292 86.294C50.4532 86.294 53.8072 87.542 55.8352 89.648C58.5652 92.612 60.0472 96.512 60.0472 107.744V122.486C60.0472 133.718 58.6432 137.696 55.8352 140.582C53.8072 142.766 50.4532 143.936 45.9292 143.936ZM42.6532 105.56V124.67C42.6532 131.222 42.8092 134.42 45.9292 134.42C48.8932 134.42 49.2052 131.222 49.2052 124.67V105.56C49.2052 99.008 48.8932 95.81 45.9292 95.81C42.8092 95.81 42.6532 99.008 42.6532 105.56ZM80.9543 87.23H91.7183L91.6403 92.924V129.116C91.6403 138.632 86.4923 143.936 77.9903 143.936C69.4103 143.936 64.4183 138.632 64.4183 129.116V92.924L64.3403 87.23H75.1043L75.0263 92.924V129.428C75.0263 132.626 75.7283 134.42 77.9903 134.42C80.2523 134.42 80.9543 132.626 80.9543 129.428V87.23ZM107.024 96.356V110.864H107.882C111.86 110.864 112.874 108.056 112.874 103.766V103.532C112.874 99.476 111.86 96.356 107.96 96.356H107.024ZM107.804 120.536H107.024V137.306L107.102 143H96.3379L96.4159 137.306V92.924L96.3379 87.23H108.272C120.206 87.23 123.56 94.094 123.56 102.44V102.596C123.56 112.424 120.128 114.608 116.072 115.856V116.246C119.27 117.104 123.326 119.21 123.482 128.414C123.56 134.576 123.638 137.696 124.73 141.83V143H114.2C112.874 138.71 112.796 135.122 112.64 126.698C112.562 123.032 111.002 120.536 107.804 120.536ZM128.102 143L128.18 137.306V92.924L128.102 87.23H135.044L142.688 105.95C144.014 108.992 144.092 109.538 144.95 111.722H145.262C145.184 109.85 145.106 107.12 145.106 105.17V92.924L144.95 87.23H155.168L155.012 92.924V137.306L155.168 143H148.46L140.114 123.11C139.334 121.394 138.476 118.898 138.164 118.196H137.852C138.008 119.99 138.086 122.72 138.086 124.748V137.306L138.164 143H128.102ZM180.054 119.756H171.084V133.406H182.472V143H160.398L160.476 137.306V92.924L160.398 87.23H182.238V96.668H171.084V109.148H180.054V119.756ZM197.852 106.886H198.164C198.476 105.17 198.944 103.22 199.412 101.348L202.532 87.23H212.906L203.312 120.692V137.306L203.39 143H192.626L192.704 137.306V120.692L183.422 87.23H194.03L196.76 101.348C197.15 103.22 197.618 105.17 197.852 106.886ZM220.614 126.464H231.144C231.144 131.846 232.236 134.108 234.654 134.108C236.292 134.108 237.54 133.016 237.54 129.584C237.54 126.542 236.604 123.344 233.016 120.614L229.428 117.884C223.656 113.516 221.004 108.914 221.004 101.738C221.004 91.676 226.542 86.216 234.966 86.216C243.078 86.216 247.992 90.896 247.758 103.298H237.54C237.54 97.916 236.526 96.122 234.576 96.122C232.548 96.122 231.378 97.916 231.378 100.802C231.378 104.156 232.938 106.574 235.902 108.758L239.88 111.722C244.482 115.154 248.07 119.054 248.07 127.79C248.07 138.71 242.532 144.014 234.186 144.014C225.918 144.014 220.38 138.866 220.614 126.464ZM274.454 96.668H267.044V137.306L267.122 143H256.358L256.436 137.306V96.668H248.87V87.23H274.454V96.668ZM282.478 135.044L281.074 143H270.934L282.946 87.23H291.292L303.46 143H292.696L291.292 135.044H282.478ZM285.91 115.388L284.116 125.762H289.732L288.016 115.388C287.626 113.126 287.314 110.162 287.08 108.602H286.846C286.612 110.162 286.3 113.126 285.91 115.388ZM316.116 96.356V110.864H316.974C320.952 110.864 321.966 108.056 321.966 103.766V103.532C321.966 99.476 320.952 96.356 317.052 96.356H316.116ZM316.896 120.536H316.116V137.306L316.194 143H305.43L305.508 137.306V92.924L305.43 87.23H317.364C329.298 87.23 332.652 94.094 332.652 102.44V102.596C332.652 112.424 329.22 114.608 325.164 115.856V116.246C328.362 117.104 332.418 119.21 332.574 128.414C332.652 134.576 332.73 137.696 333.822 141.83V143H323.292C321.966 138.71 321.888 135.122 321.732 126.698C321.654 123.032 320.094 120.536 316.896 120.536ZM359.614 96.668H352.204V137.306L352.282 143H341.518L341.596 137.306V96.668H334.03V87.23H359.614V96.668ZM361.151 126.464H371.681C371.681 131.846 372.773 134.108 375.191 134.108C376.829 134.108 378.077 133.016 378.077 129.584C378.077 126.542 377.141 123.344 373.553 120.614L369.965 117.884C364.193 113.516 361.541 108.914 361.541 101.738C361.541 91.676 367.079 86.216 375.503 86.216C383.615 86.216 388.529 90.896 388.295 103.298H378.077C378.077 97.916 377.063 96.122 375.113 96.122C373.085 96.122 371.915 97.916 371.915 100.802C371.915 104.156 373.475 106.574 376.439 108.758L380.417 111.722C385.019 115.154 388.607 119.054 388.607 127.79C388.607 138.71 383.069 144.014 374.723 144.014C366.455 144.014 360.917 138.866 361.151 126.464ZM399.883 143L399.961 137.306V92.924L399.883 87.23H406.825L414.469 105.95C415.795 108.992 415.873 109.538 416.731 111.722H417.043C416.965 109.85 416.887 107.12 416.887 105.17V92.924L416.731 87.23H426.949L426.793 92.924V137.306L426.949 143H420.241L411.895 123.11C411.115 121.394 410.257 118.898 409.945 118.196H409.633C409.789 119.99 409.867 122.72 409.867 124.748V137.306L409.945 143H399.883ZM445.451 143.936C441.005 143.936 437.573 142.766 435.545 140.582C432.815 137.696 431.411 133.718 431.411 122.486V107.744C431.411 96.512 432.815 92.534 435.545 89.648C437.573 87.542 441.005 86.294 445.451 86.294C449.975 86.294 453.329 87.542 455.357 89.648C458.087 92.612 459.569 96.512 459.569 107.744V122.486C459.569 133.718 458.165 137.696 455.357 140.582C453.329 142.766 449.975 143.936 445.451 143.936ZM442.175 105.56V124.67C442.175 131.222 442.331 134.42 445.451 134.42C448.415 134.42 448.727 131.222 448.727 124.67V105.56C448.727 99.008 448.415 95.81 445.451 95.81C442.331 95.81 442.175 99.008 442.175 105.56ZM477.998 87.23H485.096L488.528 109.616C488.84 111.644 488.996 113.36 489.23 115.388H489.542C489.698 113.594 489.932 111.41 490.166 109.616L493.13 87.23H502.724L493.13 143H485.252L482.756 125.762L481.742 117.962H481.352L480.338 125.762L477.842 143H469.964L460.76 87.23H470.51L473.474 109.616L474.098 115.388H474.41L475.112 109.616L477.998 87.23Z" fill="white"/>
<path opacity="0.6" d="M4.554 180.288C3.294 180.288 2.304 179.934 1.584 179.226C0.864 178.518 0.504 177.546 0.504 176.31V175.482H2.358V176.31C2.358 177.042 2.55 177.606 2.934 178.002C3.318 178.398 3.852 178.596 4.536 178.596C5.232 178.596 5.772 178.404 6.156 178.02C6.54 177.624 6.732 177.054 6.732 176.31V167.184H8.64V176.31C8.64 177.534 8.274 178.506 7.542 179.226C6.822 179.934 5.826 180.288 4.554 180.288ZM18.0941 178.884C17.2421 179.772 16.1321 180.216 14.7641 180.216C13.3961 180.216 12.2861 179.772 11.4341 178.884C10.5821 177.996 10.1561 176.82 10.1561 175.356C10.1561 173.88 10.5821 172.698 11.4341 171.81C12.2741 170.934 13.3841 170.496 14.7641 170.496C16.1441 170.496 17.2541 170.934 18.0941 171.81C18.9341 172.686 19.3541 173.868 19.3541 175.356C19.3541 176.832 18.9341 178.008 18.0941 178.884ZM12.7661 177.786C13.2581 178.374 13.9241 178.668 14.7641 178.668C15.6041 178.668 16.2641 178.374 16.7441 177.786C17.2361 177.198 17.4821 176.388 17.4821 175.356C17.4821 174.324 17.2361 173.514 16.7441 172.926C16.2641 172.338 15.6041 172.044 14.7641 172.044C13.9241 172.044 13.2581 172.338 12.7661 172.926C12.2741 173.514 12.0281 174.324 12.0281 175.356C12.0281 176.388 12.2741 177.198 12.7661 177.786ZM22.7596 169.398H20.9236V167.472H22.7596V169.398ZM22.7416 180H20.9416V170.712H22.7416V180ZM29.4 170.496C30.42 170.496 31.218 170.784 31.794 171.36C32.37 171.924 32.658 172.728 32.658 173.772V180H30.858V174.024C30.858 172.728 30.204 172.08 28.896 172.08C28.296 172.08 27.756 172.308 27.276 172.764C26.796 173.232 26.556 173.898 26.556 174.762V180H24.756V170.712H26.484V172.098C27.192 171.03 28.164 170.496 29.4 170.496ZM42.7364 170.712V172.188H40.8644V177.768C40.8644 178.044 40.9424 178.248 41.0984 178.38C41.2664 178.5 41.5424 178.56 41.9264 178.56H42.7364V180C42.3404 180.036 41.9744 180.054 41.6384 180.054C40.7624 180.054 40.1144 179.886 39.6944 179.55C39.2744 179.214 39.0644 178.674 39.0644 177.93V172.188H37.5704V170.712H39.0644V168.048H40.8644V170.712H42.7364ZM48.8239 170.496C49.8439 170.496 50.6419 170.784 51.2179 171.36C51.7939 171.924 52.0819 172.728 52.0819 173.772V180H50.2819V174.024C50.2819 172.728 49.6279 172.08 48.3199 172.08C47.7199 172.08 47.1799 172.308 46.6999 172.764C46.2199 173.232 45.9799 173.898 45.9799 174.762V180H44.1799V167.184H45.9799V171.99C46.6879 170.994 47.6359 170.496 48.8239 170.496ZM61.6175 178.884C60.7655 179.772 59.6555 180.216 58.2875 180.216C56.9195 180.216 55.8095 179.772 54.9575 178.884C54.1055 177.996 53.6795 176.82 53.6795 175.356C53.6795 173.88 54.1055 172.698 54.9575 171.81C55.7975 170.934 56.9075 170.496 58.2875 170.496C59.6675 170.496 60.7775 170.934 61.6175 171.81C62.4575 172.686 62.8775 173.868 62.8775 175.356C62.8775 176.832 62.4575 178.008 61.6175 178.884ZM56.2895 177.786C56.7815 178.374 57.4475 178.668 58.2875 178.668C59.1275 178.668 59.7875 178.374 60.2675 177.786C60.7595 177.198 61.0055 176.388 61.0055 175.356C61.0055 174.324 60.7595 173.514 60.2675 172.926C59.7875 172.338 59.1275 172.044 58.2875 172.044C57.4475 172.044 56.7815 172.338 56.2895 172.926C55.7975 173.514 55.5515 174.324 55.5515 175.356C55.5515 176.388 55.7975 177.198 56.2895 177.786ZM70.3209 175.95V170.712H72.1209V180H70.3929V178.614C69.6849 179.682 68.7129 180.216 67.4769 180.216C66.4569 180.216 65.6589 179.928 65.0829 179.352C64.5069 178.776 64.2189 177.972 64.2189 176.94V170.712H66.0189V176.688C66.0189 177.984 66.6729 178.632 67.9809 178.632C68.6409 178.632 69.1929 178.398 69.6369 177.93C70.0929 177.45 70.3209 176.79 70.3209 175.95ZM77.5886 180.234C75.0086 180.234 73.6526 179.172 73.5206 177.048H75.3206C75.3926 177.696 75.6026 178.152 75.9506 178.416C76.2986 178.68 76.8506 178.812 77.6066 178.812C78.9746 178.812 79.6586 178.38 79.6586 177.516C79.6586 177.144 79.5146 176.856 79.2266 176.652C78.9386 176.448 78.4226 176.28 77.6786 176.148L76.7246 175.968C74.7566 175.608 73.7726 174.684 73.7726 173.196C73.7726 172.368 74.0906 171.714 74.7266 171.234C75.3626 170.742 76.2386 170.496 77.3546 170.496C79.9106 170.496 81.2186 171.534 81.2786 173.61H79.5326C79.4966 172.986 79.3046 172.548 78.9566 172.296C78.6086 172.032 78.0746 171.9 77.3546 171.9C76.7786 171.9 76.3346 172.008 76.0226 172.224C75.7106 172.44 75.5546 172.746 75.5546 173.142C75.5546 173.502 75.6926 173.784 75.9686 173.988C76.2446 174.18 76.6826 174.336 77.2826 174.456L78.2546 174.618C79.3946 174.834 80.2166 175.158 80.7206 175.59C81.2246 176.022 81.4766 176.622 81.4766 177.39C81.4766 178.29 81.1346 178.992 80.4506 179.496C79.7666 179.988 78.8126 180.234 77.5886 180.234ZM91.0547 178.614H91.5587V180C91.2947 180.036 91.0007 180.054 90.6767 180.054C90.1007 180.054 89.6687 179.952 89.3807 179.748C89.1047 179.532 88.9367 179.196 88.8767 178.74C88.2527 179.724 87.2447 180.216 85.8527 180.216C84.8327 180.216 84.0227 179.976 83.4227 179.496C82.8347 179.004 82.5407 178.326 82.5407 177.462C82.5407 175.782 83.7047 174.822 86.0327 174.582L87.4007 174.438C87.8807 174.378 88.2287 174.258 88.4447 174.078C88.6727 173.886 88.7867 173.616 88.7867 173.268C88.7867 172.8 88.6367 172.464 88.3367 172.26C88.0487 172.044 87.5627 171.936 86.8787 171.936C86.1347 171.936 85.6007 172.062 85.2767 172.314C84.9527 172.554 84.7667 172.986 84.7187 173.61H82.9367C83.0687 171.534 84.3827 170.496 86.8787 170.496C89.3267 170.496 90.5507 171.408 90.5507 173.232V178.146C90.5507 178.458 90.7187 178.614 91.0547 178.614ZM86.1227 178.812C86.8907 178.812 87.5267 178.596 88.0307 178.164C88.5347 177.732 88.7867 177.12 88.7867 176.328V175.356C88.5587 175.548 88.1747 175.674 87.6347 175.734L86.3387 175.878C85.6427 175.962 85.1447 176.13 84.8447 176.382C84.5447 176.622 84.3947 176.964 84.3947 177.408C84.3947 177.852 84.5387 178.2 84.8267 178.452C85.1267 178.692 85.5587 178.812 86.1227 178.812ZM97.3922 170.496C98.4122 170.496 99.2102 170.784 99.7862 171.36C100.362 171.924 100.65 172.728 100.65 173.772V180H98.8502V174.024C98.8502 172.728 98.1962 172.08 96.8882 172.08C96.2882 172.08 95.7482 172.308 95.2682 172.764C94.7882 173.232 94.5482 173.898 94.5482 174.762V180H92.7482V170.712H94.4762V172.098C95.1842 171.03 96.1562 170.496 97.3922 170.496ZM109.502 171.972V167.184H111.302V180H109.574V178.632C108.878 179.688 107.852 180.216 106.496 180.216C105.2 180.216 104.168 179.778 103.4 178.902C102.632 178.026 102.248 176.844 102.248 175.356C102.248 173.868 102.632 172.686 103.4 171.81C104.168 170.934 105.2 170.496 106.496 170.496C107.804 170.496 108.806 170.988 109.502 171.972ZM104.12 175.428C104.12 176.46 104.366 177.258 104.858 177.822C105.35 178.386 106.01 178.668 106.838 178.668C107.69 178.668 108.356 178.374 108.836 177.786C109.316 177.222 109.556 176.412 109.556 175.356C109.556 174.312 109.316 173.496 108.836 172.908C108.356 172.332 107.69 172.044 106.838 172.044C106.01 172.044 105.35 172.344 104.858 172.944C104.366 173.544 104.12 174.372 104.12 175.428ZM116.77 180.234C114.19 180.234 112.834 179.172 112.702 177.048H114.502C114.574 177.696 114.784 178.152 115.132 178.416C115.48 178.68 116.032 178.812 116.788 178.812C118.156 178.812 118.84 178.38 118.84 177.516C118.84 177.144 118.696 176.856 118.408 176.652C118.12 176.448 117.604 176.28 116.86 176.148L115.906 175.968C113.938 175.608 112.954 174.684 112.954 173.196C112.954 172.368 113.272 171.714 113.908 171.234C114.544 170.742 115.42 170.496 116.536 170.496C119.092 170.496 120.4 171.534 120.46 173.61H118.714C118.678 172.986 118.486 172.548 118.138 172.296C117.79 172.032 117.256 171.9 116.536 171.9C115.96 171.9 115.516 172.008 115.204 172.224C114.892 172.44 114.736 172.746 114.736 173.142C114.736 173.502 114.874 173.784 115.15 173.988C115.426 174.18 115.864 174.336 116.464 174.456L117.436 174.618C118.576 174.834 119.398 175.158 119.902 175.59C120.406 176.022 120.658 176.622 120.658 177.39C120.658 178.29 120.316 178.992 119.632 179.496C118.948 179.988 117.994 180.234 116.77 180.234ZM133.143 178.884C132.291 179.772 131.181 180.216 129.813 180.216C128.445 180.216 127.335 179.772 126.483 178.884C125.631 177.996 125.205 176.82 125.205 175.356C125.205 173.88 125.631 172.698 126.483 171.81C127.323 170.934 128.433 170.496 129.813 170.496C131.193 170.496 132.303 170.934 133.143 171.81C133.983 172.686 134.403 173.868 134.403 175.356C134.403 176.832 133.983 178.008 133.143 178.884ZM127.815 177.786C128.307 178.374 128.973 178.668 129.813 178.668C130.653 178.668 131.313 178.374 131.793 177.786C132.285 177.198 132.531 176.388 132.531 175.356C132.531 174.324 132.285 173.514 131.793 172.926C131.313 172.338 130.653 172.044 129.813 172.044C128.973 172.044 128.307 172.338 127.815 172.926C127.323 173.514 127.077 174.324 127.077 175.356C127.077 176.388 127.323 177.198 127.815 177.786ZM140.193 168.642H139.383C138.579 168.642 138.177 169.05 138.177 169.866V170.712H140.121V172.188H138.177V180H136.377V172.188H134.883V170.712H136.377V169.866C136.377 168.042 137.307 167.13 139.167 167.13C139.347 167.13 139.689 167.148 140.193 167.184V168.642ZM153.264 178.614H153.768V180C153.504 180.036 153.21 180.054 152.886 180.054C152.31 180.054 151.878 179.952 151.59 179.748C151.314 179.532 151.146 179.196 151.086 178.74C150.462 179.724 149.454 180.216 148.062 180.216C147.042 180.216 146.232 179.976 145.632 179.496C145.044 179.004 144.75 178.326 144.75 177.462C144.75 175.782 145.914 174.822 148.242 174.582L149.61 174.438C150.09 174.378 150.438 174.258 150.654 174.078C150.882 173.886 150.996 173.616 150.996 173.268C150.996 172.8 150.846 172.464 150.546 172.26C150.258 172.044 149.772 171.936 149.088 171.936C148.344 171.936 147.81 172.062 147.486 172.314C147.162 172.554 146.976 172.986 146.928 173.61H145.146C145.278 171.534 146.592 170.496 149.088 170.496C151.536 170.496 152.76 171.408 152.76 173.232V178.146C152.76 178.458 152.928 178.614 153.264 178.614ZM148.332 178.812C149.1 178.812 149.736 178.596 150.24 178.164C150.744 177.732 150.996 177.12 150.996 176.328V175.356C150.768 175.548 150.384 175.674 149.844 175.734L148.548 175.878C147.852 175.962 147.354 176.13 147.054 176.382C146.754 176.622 146.604 176.964 146.604 177.408C146.604 177.852 146.748 178.2 147.036 178.452C147.336 178.692 147.768 178.812 148.332 178.812ZM158.43 180.234C155.85 180.234 154.494 179.172 154.362 177.048H156.162C156.234 177.696 156.444 178.152 156.792 178.416C157.14 178.68 157.692 178.812 158.448 178.812C159.816 178.812 160.5 178.38 160.5 177.516C160.5 177.144 160.356 176.856 160.068 176.652C159.78 176.448 159.264 176.28 158.52 176.148L157.566 175.968C155.598 175.608 154.614 174.684 154.614 173.196C154.614 172.368 154.932 171.714 155.568 171.234C156.204 170.742 157.08 170.496 158.196 170.496C160.752 170.496 162.06 171.534 162.12 173.61H160.374C160.338 172.986 160.146 172.548 159.798 172.296C159.45 172.032 158.916 171.9 158.196 171.9C157.62 171.9 157.176 172.008 156.864 172.224C156.552 172.44 156.396 172.746 156.396 173.142C156.396 173.502 156.534 173.784 156.81 173.988C157.086 174.18 157.524 174.336 158.124 174.456L159.096 174.618C160.236 174.834 161.058 175.158 161.562 175.59C162.066 176.022 162.318 176.622 162.318 177.39C162.318 178.29 161.976 178.992 161.292 179.496C160.608 179.988 159.654 180.234 158.43 180.234ZM168.482 170.496C169.778 170.496 170.81 170.934 171.578 171.81C172.346 172.686 172.73 173.868 172.73 175.356C172.73 176.832 172.346 178.008 171.578 178.884C170.798 179.772 169.766 180.216 168.482 180.216C167.162 180.216 166.154 179.712 165.458 178.704V183.528H163.658V170.712H165.386V172.116C166.082 171.036 167.114 170.496 168.482 170.496ZM166.16 177.786C166.64 178.374 167.3 178.668 168.14 178.668C168.98 178.668 169.646 178.368 170.138 177.768C170.618 177.18 170.858 176.352 170.858 175.284C170.858 174.252 170.618 173.454 170.138 172.89C169.658 172.326 168.992 172.044 168.14 172.044C167.312 172.044 166.652 172.332 166.16 172.908C165.668 173.508 165.422 174.324 165.422 175.356C165.422 176.388 165.668 177.198 166.16 177.786ZM176.129 169.398H174.293V167.472H176.129V169.398ZM176.111 180H174.311V170.712H176.111V180ZM182.751 170.568C183.015 170.568 183.189 170.574 183.273 170.586V172.296H182.823C181.899 172.296 181.185 172.524 180.681 172.98C180.177 173.436 179.925 174.096 179.925 174.96V180H178.125V170.712H179.853V172.368C180.441 171.168 181.407 170.568 182.751 170.568ZM186.394 169.398H184.558V167.472H186.394V169.398ZM186.376 180H184.576V170.712H186.376V180ZM193.035 170.496C194.055 170.496 194.853 170.784 195.429 171.36C196.005 171.924 196.293 172.728 196.293 173.772V180H194.493V174.024C194.493 172.728 193.839 172.08 192.531 172.08C191.931 172.08 191.391 172.308 190.911 172.764C190.431 173.232 190.191 173.898 190.191 174.762V180H188.391V170.712H190.119V172.098C190.827 171.03 191.799 170.496 193.035 170.496ZM205.216 172.026V170.712H206.944V179.658C206.944 180.93 206.56 181.926 205.792 182.646C205.024 183.378 203.932 183.744 202.516 183.744C201.304 183.744 200.338 183.468 199.618 182.916C198.91 182.364 198.508 181.608 198.412 180.648H200.212C200.356 181.74 201.13 182.286 202.534 182.286C204.274 182.286 205.144 181.422 205.144 179.694V178.668C204.436 179.628 203.44 180.108 202.156 180.108C200.86 180.108 199.828 179.67 199.06 178.794C198.28 177.906 197.89 176.742 197.89 175.302C197.89 173.862 198.28 172.698 199.06 171.81C199.828 170.934 200.854 170.496 202.138 170.496C203.494 170.496 204.52 171.006 205.216 172.026ZM202.48 178.56C203.32 178.56 203.98 178.272 204.46 177.696C204.952 177.108 205.198 176.31 205.198 175.302C205.198 174.294 204.952 173.502 204.46 172.926C203.98 172.338 203.32 172.044 202.48 172.044C201.652 172.044 200.992 172.338 200.5 172.926C200.008 173.514 199.762 174.306 199.762 175.302C199.762 176.31 200.008 177.108 200.5 177.696C200.992 178.272 201.652 178.56 202.48 178.56ZM221.001 175.428V175.95H213.999C214.083 176.862 214.353 177.552 214.809 178.02C215.265 178.476 215.883 178.704 216.663 178.704C217.839 178.704 218.607 178.188 218.967 177.156H220.785C220.533 178.104 220.041 178.854 219.309 179.406C218.589 179.946 217.695 180.216 216.627 180.216C215.295 180.216 214.221 179.772 213.405 178.884C212.589 177.996 212.181 176.82 212.181 175.356C212.181 173.892 212.589 172.716 213.405 171.828C214.221 170.94 215.283 170.496 216.591 170.496C217.959 170.496 219.039 170.958 219.831 171.882C220.611 172.806 221.001 173.988 221.001 175.428ZM216.591 172.008C215.883 172.008 215.301 172.224 214.845 172.656C214.401 173.088 214.125 173.712 214.017 174.528H219.147C219.063 173.772 218.793 173.166 218.337 172.71C217.893 172.242 217.311 172.008 216.591 172.008ZM227.242 170.496C228.262 170.496 229.06 170.784 229.636 171.36C230.212 171.924 230.5 172.728 230.5 173.772V180H228.7V174.024C228.7 172.728 228.046 172.08 226.738 172.08C226.138 172.08 225.598 172.308 225.118 172.764C224.638 173.232 224.398 173.898 224.398 174.762V180H222.598V170.712H224.326V172.098C225.034 171.03 226.006 170.496 227.242 170.496ZM236.606 170.712V172.188H234.734V177.768C234.734 178.044 234.812 178.248 234.968 178.38C235.136 178.5 235.412 178.56 235.796 178.56H236.606V180C236.21 180.036 235.844 180.054 235.508 180.054C234.632 180.054 233.984 179.886 233.563 179.55C233.144 179.214 232.934 178.674 232.934 177.93V172.188H231.44V170.712H232.934V168.048H234.734V170.712H236.606ZM242.675 170.568C242.939 170.568 243.113 170.574 243.197 170.586V172.296H242.747C241.823 172.296 241.109 172.524 240.605 172.98C240.101 173.436 239.849 174.096 239.849 174.96V180H238.049V170.712H239.777V172.368C240.365 171.168 241.331 170.568 242.675 170.568ZM252.396 175.428V175.95H245.394C245.478 176.862 245.748 177.552 246.204 178.02C246.66 178.476 247.278 178.704 248.058 178.704C249.234 178.704 250.002 178.188 250.362 177.156H252.18C251.928 178.104 251.436 178.854 250.704 179.406C249.984 179.946 249.09 180.216 248.022 180.216C246.69 180.216 245.616 179.772 244.8 178.884C243.984 177.996 243.576 176.82 243.576 175.356C243.576 173.892 243.984 172.716 244.8 171.828C245.616 170.94 246.678 170.496 247.986 170.496C249.354 170.496 250.434 170.958 251.226 171.882C252.006 172.806 252.396 173.988 252.396 175.428ZM247.986 172.008C247.278 172.008 246.696 172.224 246.24 172.656C245.796 173.088 245.52 173.712 245.412 174.528H250.542C250.458 173.772 250.188 173.166 249.732 172.71C249.288 172.242 248.706 172.008 247.986 172.008ZM258.816 170.496C260.112 170.496 261.144 170.934 261.912 171.81C262.68 172.686 263.064 173.868 263.064 175.356C263.064 176.832 262.68 178.008 261.912 178.884C261.132 179.772 260.1 180.216 258.816 180.216C257.496 180.216 256.488 179.712 255.792 178.704V183.528H253.992V170.712H255.72V172.116C256.416 171.036 257.448 170.496 258.816 170.496ZM256.494 177.786C256.974 178.374 257.634 178.668 258.474 178.668C259.314 178.668 259.98 178.368 260.472 177.768C260.952 177.18 261.192 176.352 261.192 175.284C261.192 174.252 260.952 173.454 260.472 172.89C259.992 172.326 259.326 172.044 258.474 172.044C257.646 172.044 256.986 172.332 256.494 172.908C256.002 173.508 255.756 174.324 255.756 175.356C255.756 176.388 256.002 177.198 256.494 177.786ZM269.271 170.568C269.535 170.568 269.709 170.574 269.793 170.586V172.296H269.343C268.419 172.296 267.705 172.524 267.201 172.98C266.697 173.436 266.445 174.096 266.445 174.96V180H264.645V170.712H266.373V172.368C266.961 171.168 267.927 170.568 269.271 170.568ZM278.992 175.428V175.95H271.99C272.074 176.862 272.344 177.552 272.8 178.02C273.256 178.476 273.874 178.704 274.654 178.704C275.83 178.704 276.598 178.188 276.958 177.156H278.776C278.524 178.104 278.032 178.854 277.3 179.406C276.58 179.946 275.686 180.216 274.618 180.216C273.286 180.216 272.212 179.772 271.396 178.884C270.58 177.996 270.172 176.82 270.172 175.356C270.172 173.892 270.58 172.716 271.396 171.828C272.212 170.94 273.274 170.496 274.582 170.496C275.95 170.496 277.03 170.958 277.822 171.882C278.602 172.806 278.992 173.988 278.992 175.428ZM274.582 172.008C273.874 172.008 273.292 172.224 272.836 172.656C272.392 173.088 272.116 173.712 272.008 174.528H277.138C277.054 173.772 276.784 173.166 276.328 172.71C275.884 172.242 275.302 172.008 274.582 172.008ZM285.232 170.496C286.252 170.496 287.05 170.784 287.626 171.36C288.202 171.924 288.49 172.728 288.49 173.772V180H286.69V174.024C286.69 172.728 286.036 172.08 284.728 172.08C284.128 172.08 283.588 172.308 283.108 172.764C282.628 173.232 282.388 173.898 282.388 174.762V180H280.588V170.712H282.316V172.098C283.024 171.03 283.996 170.496 285.232 170.496ZM298.908 175.428V175.95H291.906C291.99 176.862 292.26 177.552 292.716 178.02C293.172 178.476 293.79 178.704 294.57 178.704C295.746 178.704 296.514 178.188 296.874 177.156H298.692C298.44 178.104 297.948 178.854 297.216 179.406C296.496 179.946 295.602 180.216 294.534 180.216C293.202 180.216 292.128 179.772 291.312 178.884C290.496 177.996 290.088 176.82 290.088 175.356C290.088 173.892 290.496 172.716 291.312 171.828C292.128 170.94 293.19 170.496 294.498 170.496C295.866 170.496 296.946 170.958 297.738 171.882C298.518 172.806 298.908 173.988 298.908 175.428ZM294.498 172.008C293.79 172.008 293.208 172.224 292.752 172.656C292.308 173.088 292.032 173.712 291.924 174.528H297.054C296.97 173.772 296.7 173.166 296.244 172.71C295.8 172.242 295.218 172.008 294.498 172.008ZM306.36 175.95V170.712H308.16V180H306.432V178.614C305.724 179.682 304.752 180.216 303.516 180.216C302.496 180.216 301.698 179.928 301.122 179.352C300.546 178.776 300.258 177.972 300.258 176.94V170.712H302.058V176.688C302.058 177.984 302.712 178.632 304.02 178.632C304.68 178.632 305.232 178.398 305.676 177.93C306.132 177.45 306.36 176.79 306.36 175.95ZM314.816 170.568C315.08 170.568 315.254 170.574 315.338 170.586V172.296H314.888C313.964 172.296 313.25 172.524 312.746 172.98C312.242 173.436 311.99 174.096 311.99 174.96V180H310.19V170.712H311.918V172.368C312.506 171.168 313.472 170.568 314.816 170.568ZM319.78 180.234C317.2 180.234 315.844 179.172 315.712 177.048H317.512C317.584 177.696 317.794 178.152 318.142 178.416C318.49 178.68 319.042 178.812 319.798 178.812C321.166 178.812 321.85 178.38 321.85 177.516C321.85 177.144 321.706 176.856 321.418 176.652C321.13 176.448 320.614 176.28 319.87 176.148L318.916 175.968C316.948 175.608 315.964 174.684 315.964 173.196C315.964 172.368 316.282 171.714 316.918 171.234C317.554 170.742 318.43 170.496 319.546 170.496C322.102 170.496 323.41 171.534 323.47 173.61H321.724C321.688 172.986 321.496 172.548 321.148 172.296C320.8 172.032 320.266 171.9 319.546 171.9C318.97 171.9 318.526 172.008 318.214 172.224C317.902 172.44 317.746 172.746 317.746 173.142C317.746 173.502 317.884 173.784 318.16 173.988C318.436 174.18 318.874 174.336 319.474 174.456L320.446 174.618C321.586 174.834 322.408 175.158 322.912 175.59C323.416 176.022 323.668 176.622 323.668 177.39C323.668 178.29 323.326 178.992 322.642 179.496C321.958 179.988 321.004 180.234 319.78 180.234ZM338.817 174.582L340.023 170.712H341.949L338.871 180H336.981L335.703 175.914C335.379 174.882 335.085 173.886 334.821 172.926C334.425 174.33 334.137 175.326 333.957 175.914L332.697 180H330.789L327.711 170.712H329.655L330.843 174.582C331.167 175.626 331.491 176.73 331.815 177.894C332.031 177.03 332.343 175.926 332.751 174.582L333.939 170.712H335.739L336.909 174.582C337.401 176.25 337.719 177.348 337.863 177.876C338.007 177.348 338.325 176.25 338.817 174.582ZM347.511 170.496C348.531 170.496 349.329 170.784 349.905 171.36C350.481 171.924 350.769 172.728 350.769 173.772V180H348.969V174.024C348.969 172.728 348.315 172.08 347.007 172.08C346.407 172.08 345.867 172.308 345.387 172.764C344.907 173.232 344.667 173.898 344.667 174.762V180H342.867V167.184H344.667V171.99C345.375 170.994 346.323 170.496 347.511 170.496ZM360.305 178.884C359.453 179.772 358.343 180.216 356.975 180.216C355.607 180.216 354.497 179.772 353.645 178.884C352.793 177.996 352.367 176.82 352.367 175.356C352.367 173.88 352.793 172.698 353.645 171.81C354.485 170.934 355.595 170.496 356.975 170.496C358.355 170.496 359.465 170.934 360.305 171.81C361.145 172.686 361.565 173.868 361.565 175.356C361.565 176.832 361.145 178.008 360.305 178.884ZM354.977 177.786C355.469 178.374 356.135 178.668 356.975 178.668C357.815 178.668 358.475 178.374 358.955 177.786C359.447 177.198 359.693 176.388 359.693 175.356C359.693 174.324 359.447 173.514 358.955 172.926C358.475 172.338 357.815 172.044 356.975 172.044C356.135 172.044 355.469 172.338 354.977 172.926C354.485 173.514 354.239 174.324 354.239 175.356C354.239 176.388 354.485 177.198 354.977 177.786ZM362.25 169.236V167.184H364.338V169.416C364.338 170.916 363.72 171.708 362.484 171.792L362.25 171.81V170.73L362.448 170.712C362.916 170.664 363.15 170.268 363.15 169.524V169.236H362.25ZM371.128 174.114L372.37 170.712H374.278L370.714 180H368.716L365.17 170.712H367.114L368.374 174.114C369.226 176.646 369.682 178.026 369.742 178.254C369.778 178.134 369.856 177.894 369.976 177.534C370.096 177.174 370.264 176.682 370.48 176.058C370.696 175.422 370.912 174.774 371.128 174.114ZM383.23 175.428V175.95H376.228C376.312 176.862 376.582 177.552 377.038 178.02C377.494 178.476 378.112 178.704 378.892 178.704C380.068 178.704 380.836 178.188 381.196 177.156H383.014C382.762 178.104 382.27 178.854 381.538 179.406C380.818 179.946 379.924 180.216 378.856 180.216C377.524 180.216 376.45 179.772 375.634 178.884C374.818 177.996 374.41 176.82 374.41 175.356C374.41 173.892 374.818 172.716 375.634 171.828C376.45 170.94 377.512 170.496 378.82 170.496C380.188 170.496 381.268 170.958 382.06 171.882C382.84 172.806 383.23 173.988 383.23 175.428ZM378.82 172.008C378.112 172.008 377.53 172.224 377.074 172.656C376.63 173.088 376.354 173.712 376.246 174.528H381.376C381.292 173.772 381.022 173.166 380.566 172.71C380.122 172.242 379.54 172.008 378.82 172.008ZM392.875 170.712V172.188H391.003V177.768C391.003 178.044 391.081 178.248 391.237 178.38C391.405 178.5 391.681 178.56 392.065 178.56H392.875V180C392.479 180.036 392.113 180.054 391.777 180.054C390.901 180.054 390.253 179.886 389.833 179.55C389.413 179.214 389.203 178.674 389.203 177.93V172.188H387.709V170.712H389.203V168.048H391.003V170.712H392.875ZM400.421 175.95V170.712H402.221V180H400.493V178.614C399.785 179.682 398.813 180.216 397.577 180.216C396.557 180.216 395.759 179.928 395.183 179.352C394.607 178.776 394.319 177.972 394.319 176.94V170.712H396.119V176.688C396.119 177.984 396.773 178.632 398.081 178.632C398.741 178.632 399.293 178.398 399.737 177.93C400.193 177.45 400.421 176.79 400.421 175.95ZM408.876 170.568C409.14 170.568 409.314 170.574 409.398 170.586V172.296H408.948C408.024 172.296 407.31 172.524 406.806 172.98C406.302 173.436 406.05 174.096 406.05 174.96V180H404.25V170.712H405.978V172.368C406.566 171.168 407.532 170.568 408.876 170.568ZM415.345 170.496C416.365 170.496 417.163 170.784 417.739 171.36C418.315 171.924 418.603 172.728 418.603 173.772V180H416.803V174.024C416.803 172.728 416.149 172.08 414.841 172.08C414.241 172.08 413.701 172.308 413.221 172.764C412.741 173.232 412.501 173.898 412.501 174.762V180H410.701V170.712H412.429V172.098C413.137 171.03 414.109 170.496 415.345 170.496ZM429.021 175.428V175.95H422.019C422.103 176.862 422.373 177.552 422.829 178.02C423.285 178.476 423.903 178.704 424.683 178.704C425.859 178.704 426.627 178.188 426.987 177.156H428.805C428.553 178.104 428.061 178.854 427.329 179.406C426.609 179.946 425.715 180.216 424.647 180.216C423.315 180.216 422.241 179.772 421.425 178.884C420.609 177.996 420.201 176.82 420.201 175.356C420.201 173.892 420.609 172.716 421.425 171.828C422.241 170.94 423.303 170.496 424.611 170.496C425.979 170.496 427.059 170.958 427.851 171.882C428.631 172.806 429.021 173.988 429.021 175.428ZM424.611 172.008C423.903 172.008 423.321 172.224 422.865 172.656C422.421 173.088 422.145 173.712 422.037 174.528H427.167C427.083 173.772 426.813 173.166 426.357 172.71C425.913 172.242 425.331 172.008 424.611 172.008ZM437.439 171.972V167.184H439.239V180H437.511V178.632C436.815 179.688 435.789 180.216 434.433 180.216C433.137 180.216 432.105 179.778 431.337 178.902C430.569 178.026 430.185 176.844 430.185 175.356C430.185 173.868 430.569 172.686 431.337 171.81C432.105 170.934 433.137 170.496 434.433 170.496C435.741 170.496 436.743 170.988 437.439 171.972ZM432.057 175.428C432.057 176.46 432.303 177.258 432.795 177.822C433.287 178.386 433.947 178.668 434.775 178.668C435.627 178.668 436.293 178.374 436.773 177.786C437.253 177.222 437.493 176.412 437.493 175.356C437.493 174.312 437.253 173.496 436.773 172.908C436.293 172.332 435.627 172.044 434.775 172.044C433.947 172.044 433.287 172.344 432.795 172.944C432.303 173.544 432.057 174.372 432.057 175.428ZM7.11 202.95V197.712H8.91V207H7.182V205.614C6.474 206.682 5.502 207.216 4.266 207.216C3.246 207.216 2.448 206.928 1.872 206.352C1.296 205.776 1.008 204.972 1.008 203.94V197.712H2.808V203.688C2.808 204.984 3.462 205.632 4.77 205.632C5.43 205.632 5.982 205.398 6.426 204.93C6.882 204.45 7.11 203.79 7.11 202.95ZM15.5836 197.496C16.6036 197.496 17.4016 197.784 17.9776 198.36C18.5536 198.924 18.8416 199.728 18.8416 200.772V207H17.0416V201.024C17.0416 199.728 16.3876 199.08 15.0796 199.08C14.4796 199.08 13.9396 199.308 13.4596 199.764C12.9796 200.232 12.7396 200.898 12.7396 201.762V207H10.9396V197.712H12.6676V199.098C13.3756 198.03 14.3476 197.496 15.5836 197.496ZM24.8673 207.216C23.5473 207.216 22.4793 206.772 21.6633 205.884C20.8473 204.996 20.4393 203.82 20.4393 202.356C20.4393 200.88 20.8473 199.698 21.6633 198.81C22.4673 197.934 23.5353 197.496 24.8673 197.496C26.0073 197.496 26.9433 197.808 27.6753 198.432C28.4193 199.056 28.8633 199.896 29.0073 200.952H27.1713C27.0513 200.34 26.7813 199.872 26.3613 199.548C25.9533 199.224 25.4553 199.062 24.8673 199.062C24.0873 199.062 23.4633 199.35 22.9953 199.926C22.5393 200.49 22.3113 201.3 22.3113 202.356C22.3113 203.412 22.5393 204.228 22.9953 204.804C23.4633 205.368 24.0873 205.65 24.8673 205.65C25.4673 205.65 25.9773 205.482 26.3973 205.146C26.8173 204.81 27.0813 204.324 27.1893 203.688H29.0253C28.8813 204.768 28.4313 205.626 27.6753 206.262C26.9193 206.898 25.9833 207.216 24.8673 207.216ZM38.8394 202.428V202.95H31.8374C31.9214 203.862 32.1914 204.552 32.6474 205.02C33.1034 205.476 33.7214 205.704 34.5014 205.704C35.6774 205.704 36.4454 205.188 36.8054 204.156H38.6234C38.3714 205.104 37.8794 205.854 37.1474 206.406C36.4274 206.946 35.5334 207.216 34.4654 207.216C33.1334 207.216 32.0594 206.772 31.2434 205.884C30.4274 204.996 30.0194 203.82 30.0194 202.356C30.0194 200.892 30.4274 199.716 31.2434 198.828C32.0594 197.94 33.1214 197.496 34.4294 197.496C35.7974 197.496 36.8774 197.958 37.6694 198.882C38.4494 199.806 38.8394 200.988 38.8394 202.428ZM34.4294 199.008C33.7214 199.008 33.1394 199.224 32.6834 199.656C32.2394 200.088 31.9634 200.712 31.8554 201.528H36.9854C36.9014 200.772 36.6314 200.166 36.1754 199.71C35.7314 199.242 35.1494 199.008 34.4294 199.008ZM45.0617 197.568C45.3257 197.568 45.4997 197.574 45.5837 197.586V199.296H45.1337C44.2097 199.296 43.4957 199.524 42.9917 199.98C42.4877 200.436 42.2357 201.096 42.2357 201.96V207H40.4357V197.712H42.1637V199.368C42.7517 198.168 43.7177 197.568 45.0617 197.568ZM51.3848 197.712V199.188H49.5128V204.768C49.5128 205.044 49.5908 205.248 49.7468 205.38C49.9148 205.5 50.1908 205.56 50.5748 205.56H51.3848V207C50.9888 207.036 50.6228 207.054 50.2868 207.054C49.4108 207.054 48.7628 206.886 48.3428 206.55C47.9228 206.214 47.7128 205.674 47.7128 204.93V199.188H46.2188V197.712H47.7128V195.048H49.5128V197.712H51.3848ZM60.75 205.614H61.254V207C60.99 207.036 60.696 207.054 60.372 207.054C59.796 207.054 59.364 206.952 59.076 206.748C58.8 206.532 58.632 206.196 58.572 205.74C57.948 206.724 56.94 207.216 55.548 207.216C54.528 207.216 53.718 206.976 53.118 206.496C52.53 206.004 52.236 205.326 52.236 204.462C52.236 202.782 53.4 201.822 55.728 201.582L57.096 201.438C57.576 201.378 57.924 201.258 58.14 201.078C58.368 200.886 58.482 200.616 58.482 200.268C58.482 199.8 58.332 199.464 58.032 199.26C57.744 199.044 57.258 198.936 56.574 198.936C55.83 198.936 55.296 199.062 54.972 199.314C54.648 199.554 54.462 199.986 54.414 200.61H52.632C52.764 198.534 54.078 197.496 56.574 197.496C59.022 197.496 60.246 198.408 60.246 200.232V205.146C60.246 205.458 60.414 205.614 60.75 205.614ZM55.818 205.812C56.586 205.812 57.222 205.596 57.726 205.164C58.23 204.732 58.482 204.12 58.482 203.328V202.356C58.254 202.548 57.87 202.674 57.33 202.734L56.034 202.878C55.338 202.962 54.84 203.13 54.54 203.382C54.24 203.622 54.09 203.964 54.09 204.408C54.09 204.852 54.234 205.2 54.522 205.452C54.822 205.692 55.254 205.812 55.818 205.812ZM64.1912 196.398H62.3552V194.472H64.1912V196.398ZM64.1732 207H62.3732V197.712H64.1732V207ZM70.8317 197.496C71.8517 197.496 72.6497 197.784 73.2257 198.36C73.8017 198.924 74.0897 199.728 74.0897 200.772V207H72.2897V201.024C72.2897 199.728 71.6357 199.08 70.3277 199.08C69.7277 199.08 69.1877 199.308 68.7077 199.764C68.2277 200.232 67.9877 200.898 67.9877 201.762V207H66.1877V197.712H67.9157V199.098C68.6237 198.03 69.5957 197.496 70.8317 197.496ZM80.1953 197.712V199.188H78.3233V204.768C78.3233 205.044 78.4013 205.248 78.5573 205.38C78.7253 205.5 79.0013 205.56 79.3853 205.56H80.1953V207C79.7993 207.036 79.4333 207.054 79.0973 207.054C78.2213 207.054 77.5733 206.886 77.1533 206.55C76.7333 206.214 76.5233 205.674 76.5233 204.93V199.188H75.0293V197.712H76.5233V195.048H78.3233V197.712H80.1953ZM86.5349 200.898L87.6149 197.712H89.5229L85.7429 208.17C85.4309 209.058 85.0169 209.682 84.5009 210.042C83.9849 210.402 83.2529 210.582 82.3049 210.582C81.9809 210.582 81.6689 210.564 81.3689 210.528V209.07H82.2689C83.0729 209.07 83.6129 208.698 83.8889 207.954C83.9129 207.882 83.9489 207.768 83.9969 207.612C84.0569 207.456 84.1049 207.336 84.1409 207.252L80.7029 197.712H82.6649L83.7449 200.898C84.3209 202.674 84.7829 204.156 85.1309 205.344C85.5989 203.82 86.0669 202.338 86.5349 200.898ZM96.0604 196.398H94.2244V194.472H96.0604V196.398ZM96.0424 207H94.2424V197.712H96.0424V207ZM102.701 197.496C103.721 197.496 104.519 197.784 105.095 198.36C105.671 198.924 105.959 199.728 105.959 200.772V207H104.159V201.024C104.159 199.728 103.505 199.08 102.197 199.08C101.597 199.08 101.057 199.308 100.577 199.764C100.097 200.232 99.8568 200.898 99.8568 201.762V207H98.0568V197.712H99.7848V199.098C100.493 198.03 101.465 197.496 102.701 197.496ZM112.064 197.712V199.188H110.192V204.768C110.192 205.044 110.27 205.248 110.426 205.38C110.594 205.5 110.87 205.56 111.254 205.56H112.064V207C111.668 207.036 111.302 207.054 110.966 207.054C110.09 207.054 109.442 206.886 109.022 206.55C108.602 206.214 108.392 205.674 108.392 204.93V199.188H106.898V197.712H108.392V195.048H110.192V197.712H112.064ZM120.838 205.884C119.986 206.772 118.876 207.216 117.508 207.216C116.14 207.216 115.03 206.772 114.178 205.884C113.326 204.996 112.9 203.82 112.9 202.356C112.9 200.88 113.326 199.698 114.178 198.81C115.018 197.934 116.128 197.496 117.508 197.496C118.888 197.496 119.998 197.934 120.838 198.81C121.678 199.686 122.098 200.868 122.098 202.356C122.098 203.832 121.678 205.008 120.838 205.884ZM115.51 204.786C116.002 205.374 116.668 205.668 117.508 205.668C118.348 205.668 119.008 205.374 119.488 204.786C119.98 204.198 120.226 203.388 120.226 202.356C120.226 201.324 119.98 200.514 119.488 199.926C119.008 199.338 118.348 199.044 117.508 199.044C116.668 199.044 116.002 199.338 115.51 199.926C115.018 200.514 114.772 201.324 114.772 202.356C114.772 203.388 115.018 204.198 115.51 204.786ZM133.426 202.95V197.712H135.226V207H133.498V205.614C132.79 206.682 131.818 207.216 130.582 207.216C129.562 207.216 128.764 206.928 128.188 206.352C127.612 205.776 127.324 204.972 127.324 203.94V197.712H129.124V203.688C129.124 204.984 129.778 205.632 131.086 205.632C131.746 205.632 132.298 205.398 132.742 204.93C133.198 204.45 133.426 203.79 133.426 202.95ZM141.9 197.496C142.92 197.496 143.718 197.784 144.294 198.36C144.87 198.924 145.158 199.728 145.158 200.772V207H143.358V201.024C143.358 199.728 142.704 199.08 141.396 199.08C140.796 199.08 140.256 199.308 139.776 199.764C139.296 200.232 139.056 200.898 139.056 201.762V207H137.256V197.712H138.984V199.098C139.692 198.03 140.664 197.496 141.9 197.496ZM150.626 207.234C148.046 207.234 146.69 206.172 146.558 204.048H148.358C148.43 204.696 148.64 205.152 148.988 205.416C149.336 205.68 149.888 205.812 150.644 205.812C152.012 205.812 152.696 205.38 152.696 204.516C152.696 204.144 152.552 203.856 152.264 203.652C151.976 203.448 151.46 203.28 150.716 203.148L149.762 202.968C147.794 202.608 146.81 201.684 146.81 200.196C146.81 199.368 147.128 198.714 147.764 198.234C148.4 197.742 149.276 197.496 150.392 197.496C152.948 197.496 154.256 198.534 154.316 200.61H152.57C152.534 199.986 152.342 199.548 151.994 199.296C151.646 199.032 151.112 198.9 150.392 198.9C149.816 198.9 149.372 199.008 149.06 199.224C148.748 199.44 148.592 199.746 148.592 200.142C148.592 200.502 148.73 200.784 149.006 200.988C149.282 201.18 149.72 201.336 150.32 201.456L151.292 201.618C152.432 201.834 153.254 202.158 153.758 202.59C154.262 203.022 154.514 203.622 154.514 204.39C154.514 205.29 154.172 205.992 153.488 206.496C152.804 206.988 151.85 207.234 150.626 207.234ZM160.106 197.712V199.188H158.234V204.768C158.234 205.044 158.312 205.248 158.468 205.38C158.636 205.5 158.912 205.56 159.296 205.56H160.106V207C159.71 207.036 159.344 207.054 159.008 207.054C158.132 207.054 157.484 206.886 157.063 206.55C156.644 206.214 156.434 205.674 156.434 204.93V199.188H154.94V197.712H156.434V195.048H158.234V197.712H160.106ZM168.879 205.884C168.027 206.772 166.917 207.216 165.549 207.216C164.181 207.216 163.071 206.772 162.219 205.884C161.367 204.996 160.941 203.82 160.941 202.356C160.941 200.88 161.367 199.698 162.219 198.81C163.059 197.934 164.169 197.496 165.549 197.496C166.929 197.496 168.039 197.934 168.879 198.81C169.719 199.686 170.139 200.868 170.139 202.356C170.139 203.832 169.719 205.008 168.879 205.884ZM163.551 204.786C164.043 205.374 164.709 205.668 165.549 205.668C166.389 205.668 167.049 205.374 167.529 204.786C168.021 204.198 168.267 203.388 168.267 202.356C168.267 201.324 168.021 200.514 167.529 199.926C167.049 199.338 166.389 199.044 165.549 199.044C164.709 199.044 164.043 199.338 163.551 199.926C163.059 200.514 162.813 201.324 162.813 202.356C162.813 203.388 163.059 204.198 163.551 204.786ZM176.551 197.496C177.847 197.496 178.879 197.934 179.647 198.81C180.415 199.686 180.799 200.868 180.799 202.356C180.799 203.832 180.415 205.008 179.647 205.884C178.867 206.772 177.835 207.216 176.551 207.216C175.231 207.216 174.223 206.712 173.527 205.704V210.528H171.727V197.712H173.455V199.116C174.151 198.036 175.183 197.496 176.551 197.496ZM174.229 204.786C174.709 205.374 175.369 205.668 176.209 205.668C177.049 205.668 177.715 205.368 178.207 204.768C178.687 204.18 178.927 203.352 178.927 202.284C178.927 201.252 178.687 200.454 178.207 199.89C177.727 199.326 177.061 199.044 176.209 199.044C175.381 199.044 174.721 199.332 174.229 199.908C173.737 200.508 173.491 201.324 173.491 202.356C173.491 203.388 173.737 204.198 174.229 204.786ZM187.203 197.496C188.499 197.496 189.531 197.934 190.299 198.81C191.067 199.686 191.451 200.868 191.451 202.356C191.451 203.832 191.067 205.008 190.299 205.884C189.519 206.772 188.487 207.216 187.203 207.216C185.883 207.216 184.875 206.712 184.179 205.704V210.528H182.379V197.712H184.107V199.116C184.803 198.036 185.835 197.496 187.203 197.496ZM184.881 204.786C185.361 205.374 186.021 205.668 186.861 205.668C187.701 205.668 188.367 205.368 188.859 204.768C189.339 204.18 189.579 203.352 189.579 202.284C189.579 201.252 189.339 200.454 188.859 199.89C188.379 199.326 187.713 199.044 186.861 199.044C186.033 199.044 185.373 199.332 184.881 199.908C184.389 200.508 184.143 201.324 184.143 202.356C184.143 203.388 184.389 204.198 184.881 204.786ZM200.883 205.614H201.387V207C201.123 207.036 200.829 207.054 200.505 207.054C199.929 207.054 199.497 206.952 199.209 206.748C198.933 206.532 198.765 206.196 198.705 205.74C198.081 206.724 197.073 207.216 195.681 207.216C194.661 207.216 193.851 206.976 193.251 206.496C192.663 206.004 192.369 205.326 192.369 204.462C192.369 202.782 193.533 201.822 195.861 201.582L197.229 201.438C197.709 201.378 198.057 201.258 198.273 201.078C198.501 200.886 198.615 200.616 198.615 200.268C198.615 199.8 198.465 199.464 198.165 199.26C197.877 199.044 197.391 198.936 196.707 198.936C195.963 198.936 195.429 199.062 195.105 199.314C194.781 199.554 194.595 199.986 194.547 200.61H192.765C192.897 198.534 194.211 197.496 196.707 197.496C199.155 197.496 200.379 198.408 200.379 200.232V205.146C200.379 205.458 200.547 205.614 200.883 205.614ZM195.951 205.812C196.719 205.812 197.355 205.596 197.859 205.164C198.363 204.732 198.615 204.12 198.615 203.328V202.356C198.387 202.548 198.003 202.674 197.463 202.734L196.167 202.878C195.471 202.962 194.973 203.13 194.673 203.382C194.373 203.622 194.223 203.964 194.223 204.408C194.223 204.852 194.367 205.2 194.655 205.452C194.955 205.692 195.387 205.812 195.951 205.812ZM207.33 197.496C208.626 197.496 209.658 197.934 210.426 198.81C211.194 199.686 211.578 200.868 211.578 202.356C211.578 203.832 211.194 205.008 210.426 205.884C209.646 206.772 208.614 207.216 207.33 207.216C205.962 207.216 204.93 206.676 204.234 205.596V207H202.506V194.184H204.306V199.008C205.002 198 206.01 197.496 207.33 197.496ZM205.008 204.786C205.488 205.374 206.148 205.668 206.988 205.668C207.828 205.668 208.494 205.368 208.986 204.768C209.466 204.18 209.706 203.352 209.706 202.284C209.706 201.252 209.466 200.454 208.986 199.89C208.506 199.326 207.84 199.044 206.988 199.044C206.16 199.044 205.5 199.332 205.008 199.908C204.516 200.508 204.27 201.324 204.27 202.356C204.27 203.388 204.516 204.198 205.008 204.786ZM214.958 207H213.158V194.184H214.958V207ZM225.361 202.428V202.95H218.359C218.443 203.862 218.713 204.552 219.169 205.02C219.625 205.476 220.243 205.704 221.023 205.704C222.199 205.704 222.967 205.188 223.327 204.156H225.145C224.893 205.104 224.401 205.854 223.669 206.406C222.949 206.946 222.055 207.216 220.987 207.216C219.655 207.216 218.581 206.772 217.765 205.884C216.949 204.996 216.541 203.82 216.541 202.356C216.541 200.892 216.949 199.716 217.765 198.828C218.581 197.94 219.643 197.496 220.951 197.496C222.319 197.496 223.399 197.958 224.191 198.882C224.971 199.806 225.361 200.988 225.361 202.428ZM220.951 199.008C220.243 199.008 219.661 199.224 219.205 199.656C218.761 200.088 218.485 200.712 218.377 201.528H223.507C223.423 200.772 223.153 200.166 222.697 199.71C222.253 199.242 221.671 199.008 220.951 199.008ZM240.748 197.496C241.756 197.496 242.542 197.796 243.106 198.396C243.67 198.984 243.952 199.776 243.952 200.772V207H242.134V201.006C242.134 199.722 241.54 199.08 240.352 199.08C239.716 199.08 239.194 199.326 238.786 199.818C238.378 200.298 238.174 200.994 238.174 201.906V207H236.374V201.006C236.374 199.722 235.774 199.08 234.574 199.08C233.938 199.08 233.416 199.326 233.008 199.818C232.6 200.31 232.396 201.006 232.396 201.906V207H230.596V197.712H232.324V199.098C232.96 198.03 233.854 197.496 235.006 197.496C236.41 197.496 237.364 198.078 237.868 199.242C238.528 198.078 239.488 197.496 240.748 197.496ZM253.465 205.884C252.613 206.772 251.503 207.216 250.135 207.216C248.767 207.216 247.657 206.772 246.805 205.884C245.953 204.996 245.527 203.82 245.527 202.356C245.527 200.88 245.953 199.698 246.805 198.81C247.645 197.934 248.755 197.496 250.135 197.496C251.515 197.496 252.625 197.934 253.465 198.81C254.305 199.686 254.725 200.868 254.725 202.356C254.725 203.832 254.305 205.008 253.465 205.884ZM248.137 204.786C248.629 205.374 249.295 205.668 250.135 205.668C250.975 205.668 251.635 205.374 252.115 204.786C252.607 204.198 252.853 203.388 252.853 202.356C252.853 201.324 252.607 200.514 252.115 199.926C251.635 199.338 250.975 199.044 250.135 199.044C249.295 199.044 248.629 199.338 248.137 199.926C247.645 200.514 247.399 201.324 247.399 202.356C247.399 203.388 247.645 204.198 248.137 204.786ZM266.465 197.496C267.473 197.496 268.259 197.796 268.823 198.396C269.387 198.984 269.669 199.776 269.669 200.772V207H267.851V201.006C267.851 199.722 267.257 199.08 266.069 199.08C265.433 199.08 264.911 199.326 264.503 199.818C264.095 200.298 263.891 200.994 263.891 201.906V207H262.091V201.006C262.091 199.722 261.491 199.08 260.291 199.08C259.655 199.08 259.133 199.326 258.725 199.818C258.317 200.31 258.113 201.006 258.113 201.906V207H256.313V197.712H258.041V199.098C258.677 198.03 259.571 197.496 260.723 197.496C262.127 197.496 263.081 198.078 263.585 199.242C264.245 198.078 265.205 197.496 266.465 197.496ZM280.064 202.428V202.95H273.062C273.146 203.862 273.416 204.552 273.872 205.02C274.328 205.476 274.946 205.704 275.726 205.704C276.902 205.704 277.67 205.188 278.03 204.156H279.848C279.596 205.104 279.104 205.854 278.372 206.406C277.652 206.946 276.758 207.216 275.69 207.216C274.358 207.216 273.284 206.772 272.468 205.884C271.652 204.996 271.244 203.82 271.244 202.356C271.244 200.892 271.652 199.716 272.468 198.828C273.284 197.94 274.346 197.496 275.654 197.496C277.022 197.496 278.102 197.958 278.894 198.882C279.674 199.806 280.064 200.988 280.064 202.428ZM275.654 199.008C274.946 199.008 274.364 199.224 273.908 199.656C273.464 200.088 273.188 200.712 273.08 201.528H278.21C278.126 200.772 277.856 200.166 277.4 199.71C276.956 199.242 276.374 199.008 275.654 199.008ZM286.304 197.496C287.324 197.496 288.122 197.784 288.698 198.36C289.274 198.924 289.562 199.728 289.562 200.772V207H287.762V201.024C287.762 199.728 287.108 199.08 285.8 199.08C285.2 199.08 284.66 199.308 284.18 199.764C283.7 200.232 283.46 200.898 283.46 201.762V207H281.66V197.712H283.388V199.098C284.096 198.03 285.068 197.496 286.304 197.496ZM295.668 197.712V199.188H293.796V204.768C293.796 205.044 293.874 205.248 294.03 205.38C294.198 205.5 294.474 205.56 294.858 205.56H295.668V207C295.272 207.036 294.906 207.054 294.57 207.054C293.694 207.054 293.046 206.886 292.626 206.55C292.206 206.214 291.996 205.674 291.996 204.93V199.188H290.502V197.712H291.996V195.048H293.796V197.712H295.668ZM303.214 202.95V197.712H305.014V207H303.286V205.614C302.578 206.682 301.606 207.216 300.37 207.216C299.35 207.216 298.552 206.928 297.976 206.352C297.4 205.776 297.112 204.972 297.112 203.94V197.712H298.912V203.688C298.912 204.984 299.566 205.632 300.874 205.632C301.534 205.632 302.086 205.398 302.53 204.93C302.986 204.45 303.214 203.79 303.214 202.95ZM317.195 197.496C318.203 197.496 318.989 197.796 319.553 198.396C320.117 198.984 320.399 199.776 320.399 200.772V207H318.581V201.006C318.581 199.722 317.987 199.08 316.799 199.08C316.163 199.08 315.641 199.326 315.233 199.818C314.825 200.298 314.621 200.994 314.621 201.906V207H312.821V201.006C312.821 199.722 312.221 199.08 311.021 199.08C310.385 199.08 309.863 199.326 309.455 199.818C309.047 200.31 308.843 201.006 308.843 201.906V207H307.043V197.712H308.771V199.098C309.407 198.03 310.301 197.496 311.453 197.496C312.857 197.496 313.811 198.078 314.315 199.242C314.975 198.078 315.935 197.496 317.195 197.496ZM324.332 207H322.154V204.858H324.332V207ZM336.775 196.866L338.431 194.184H340.573L335.713 201.888V207H333.805V201.888L328.927 194.184H331.105L332.797 196.884C332.989 197.196 333.307 197.706 333.751 198.414C333.871 198.606 334.003 198.828 334.147 199.08C334.303 199.332 334.429 199.548 334.525 199.728C334.633 199.896 334.723 200.04 334.795 200.16C335.407 199.092 336.067 197.994 336.775 196.866ZM346.612 205.884C345.76 206.772 344.65 207.216 343.282 207.216C341.914 207.216 340.804 206.772 339.952 205.884C339.1 204.996 338.674 203.82 338.674 202.356C338.674 200.88 339.1 199.698 339.952 198.81C340.792 197.934 341.902 197.496 343.282 197.496C344.662 197.496 345.772 197.934 346.612 198.81C347.452 199.686 347.872 200.868 347.872 202.356C347.872 203.832 347.452 205.008 346.612 205.884ZM341.284 204.786C341.776 205.374 342.442 205.668 343.282 205.668C344.122 205.668 344.782 205.374 345.262 204.786C345.754 204.198 346 203.388 346 202.356C346 201.324 345.754 200.514 345.262 199.926C344.782 199.338 344.122 199.044 343.282 199.044C342.442 199.044 341.776 199.338 341.284 199.926C340.792 200.514 340.546 201.324 340.546 202.356C340.546 203.388 340.792 204.198 341.284 204.786ZM355.315 202.95V197.712H357.115V207H355.387V205.614C354.679 206.682 353.707 207.216 352.471 207.216C351.451 207.216 350.653 206.928 350.077 206.352C349.501 205.776 349.213 204.972 349.213 203.94V197.712H351.013V203.688C351.013 204.984 351.667 205.632 352.975 205.632C353.635 205.632 354.187 205.398 354.631 204.93C355.087 204.45 355.315 203.79 355.315 202.95ZM363.771 197.568C364.035 197.568 364.209 197.574 364.293 197.586V199.296H363.843C362.919 199.296 362.205 199.524 361.701 199.98C361.197 200.436 360.945 201.096 360.945 201.96V207H359.145V197.712H360.873V199.368C361.461 198.168 362.427 197.568 363.771 197.568ZM376.197 198.972V194.184H377.997V207H376.269V205.632C375.573 206.688 374.547 207.216 373.191 207.216C371.895 207.216 370.863 206.778 370.095 205.902C369.327 205.026 368.943 203.844 368.943 202.356C368.943 200.868 369.327 199.686 370.095 198.81C370.863 197.934 371.895 197.496 373.191 197.496C374.499 197.496 375.501 197.988 376.197 198.972ZM370.815 202.428C370.815 203.46 371.061 204.258 371.553 204.822C372.045 205.386 372.705 205.668 373.533 205.668C374.385 205.668 375.051 205.374 375.531 204.786C376.011 204.222 376.251 203.412 376.251 202.356C376.251 201.312 376.011 200.496 375.531 199.908C375.051 199.332 374.385 199.044 373.533 199.044C372.705 199.044 372.045 199.344 371.553 199.944C371.061 200.544 370.815 201.372 370.815 202.428ZM384.654 197.568C384.918 197.568 385.092 197.574 385.176 197.586V199.296H384.726C383.802 199.296 383.088 199.524 382.584 199.98C382.08 200.436 381.828 201.096 381.828 201.96V207H380.028V197.712H381.756V199.368C382.344 198.168 383.31 197.568 384.654 197.568ZM394.375 202.428V202.95H387.373C387.457 203.862 387.727 204.552 388.183 205.02C388.639 205.476 389.257 205.704 390.037 205.704C391.213 205.704 391.981 205.188 392.341 204.156H394.159C393.907 205.104 393.415 205.854 392.683 206.406C391.963 206.946 391.069 207.216 390.001 207.216C388.669 207.216 387.595 206.772 386.779 205.884C385.963 204.996 385.555 203.82 385.555 202.356C385.555 200.892 385.963 199.716 386.779 198.828C387.595 197.94 388.657 197.496 389.965 197.496C391.333 197.496 392.413 197.958 393.205 198.882C393.985 199.806 394.375 200.988 394.375 202.428ZM389.965 199.008C389.257 199.008 388.675 199.224 388.219 199.656C387.775 200.088 387.499 200.712 387.391 201.528H392.521C392.437 200.772 392.167 200.166 391.711 199.71C391.267 199.242 390.685 199.008 389.965 199.008ZM403.875 205.614H404.379V207C404.115 207.036 403.821 207.054 403.497 207.054C402.921 207.054 402.489 206.952 402.201 206.748C401.925 206.532 401.757 206.196 401.697 205.74C401.073 206.724 400.065 207.216 398.673 207.216C397.653 207.216 396.843 206.976 396.243 206.496C395.655 206.004 395.361 205.326 395.361 204.462C395.361 202.782 396.525 201.822 398.853 201.582L400.221 201.438C400.701 201.378 401.049 201.258 401.265 201.078C401.493 200.886 401.607 200.616 401.607 200.268C401.607 199.8 401.457 199.464 401.157 199.26C400.869 199.044 400.383 198.936 399.699 198.936C398.955 198.936 398.421 199.062 398.097 199.314C397.773 199.554 397.587 199.986 397.539 200.61H395.757C395.889 198.534 397.203 197.496 399.699 197.496C402.147 197.496 403.371 198.408 403.371 200.232V205.146C403.371 205.458 403.539 205.614 403.875 205.614ZM398.943 205.812C399.711 205.812 400.347 205.596 400.851 205.164C401.355 204.732 401.607 204.12 401.607 203.328V202.356C401.379 202.548 400.995 202.674 400.455 202.734L399.159 202.878C398.463 202.962 397.965 203.13 397.665 203.382C397.365 203.622 397.215 203.964 397.215 204.408C397.215 204.852 397.359 205.2 397.647 205.452C397.947 205.692 398.379 205.812 398.943 205.812ZM415.721 197.496C416.729 197.496 417.515 197.796 418.079 198.396C418.643 198.984 418.925 199.776 418.925 200.772V207H417.107V201.006C417.107 199.722 416.513 199.08 415.325 199.08C414.689 199.08 414.167 199.326 413.759 199.818C413.351 200.298 413.147 200.994 413.147 201.906V207H411.347V201.006C411.347 199.722 410.747 199.08 409.547 199.08C408.911 199.08 408.389 199.326 407.981 199.818C407.573 200.31 407.369 201.006 407.369 201.906V207H405.569V197.712H407.297V199.098C407.933 198.03 408.827 197.496 409.979 197.496C411.383 197.496 412.337 198.078 412.841 199.242C413.501 198.078 414.461 197.496 415.721 197.496ZM5.832 224.496C7.128 224.496 8.16 224.934 8.928 225.81C9.696 226.686 10.08 227.868 10.08 229.356C10.08 230.832 9.696 232.008 8.928 232.884C8.148 233.772 7.116 234.216 5.832 234.216C4.464 234.216 3.432 233.676 2.736 232.596V234H1.008V221.184H2.808V226.008C3.504 225 4.512 224.496 5.832 224.496ZM3.51 231.786C3.99 232.374 4.65 232.668 5.49 232.668C6.33 232.668 6.996 232.368 7.488 231.768C7.968 231.18 8.208 230.352 8.208 229.284C8.208 228.252 7.968 227.454 7.488 226.89C7.008 226.326 6.342 226.044 5.49 226.044C4.662 226.044 4.002 226.332 3.51 226.908C3.018 227.508 2.772 228.324 2.772 229.356C2.772 230.388 3.018 231.198 3.51 231.786ZM17.5163 229.95V224.712H19.3163V234H17.5883V232.614C16.8803 233.682 15.9083 234.216 14.6723 234.216C13.6523 234.216 12.8543 233.928 12.2783 233.352C11.7023 232.776 11.4143 231.972 11.4143 230.94V224.712H13.2143V230.688C13.2143 231.984 13.8683 232.632 15.1763 232.632C15.8363 232.632 16.3883 232.398 16.8323 231.93C17.2883 231.45 17.5163 230.79 17.5163 229.95ZM24.7839 234.234C22.2039 234.234 20.8479 233.172 20.7159 231.048H22.5159C22.5879 231.696 22.7979 232.152 23.1459 232.416C23.4939 232.68 24.0459 232.812 24.8019 232.812C26.1699 232.812 26.8539 232.38 26.8539 231.516C26.8539 231.144 26.7099 230.856 26.4219 230.652C26.1339 230.448 25.6179 230.28 24.8739 230.148L23.9199 229.968C21.9519 229.608 20.9679 228.684 20.9679 227.196C20.9679 226.368 21.2859 225.714 21.9219 225.234C22.5579 224.742 23.4339 224.496 24.5499 224.496C27.1059 224.496 28.4139 225.534 28.4739 227.61H26.7279C26.6919 226.986 26.4999 226.548 26.1519 226.296C25.8039 226.032 25.2699 225.9 24.5499 225.9C23.9739 225.9 23.5299 226.008 23.2179 226.224C22.9059 226.44 22.7499 226.746 22.7499 227.142C22.7499 227.502 22.8879 227.784 23.1639 227.988C23.4399 228.18 23.8779 228.336 24.4779 228.456L25.4499 228.618C26.5899 228.834 27.4119 229.158 27.9159 229.59C28.4199 230.022 28.6719 230.622 28.6719 231.39C28.6719 232.29 28.3299 232.992 27.6459 233.496C26.9619 233.988 26.0079 234.234 24.7839 234.234ZM31.8299 223.398H29.9939V221.472H31.8299V223.398ZM31.8119 234H30.0119V224.712H31.8119V234ZM38.4704 224.496C39.4904 224.496 40.2884 224.784 40.8644 225.36C41.4404 225.924 41.7284 226.728 41.7284 227.772V234H39.9284V228.024C39.9284 226.728 39.2744 226.08 37.9664 226.08C37.3664 226.08 36.8264 226.308 36.3464 226.764C35.8664 227.232 35.6264 227.898 35.6264 228.762V234H33.8264V224.712H35.5544V226.098C36.2624 225.03 37.2344 224.496 38.4704 224.496ZM52.146 229.428V229.95H45.144C45.228 230.862 45.498 231.552 45.954 232.02C46.41 232.476 47.028 232.704 47.808 232.704C48.984 232.704 49.752 232.188 50.112 231.156H51.93C51.678 232.104 51.186 232.854 50.454 233.406C49.734 233.946 48.84 234.216 47.772 234.216C46.44 234.216 45.366 233.772 44.55 232.884C43.734 231.996 43.326 230.82 43.326 229.356C43.326 227.892 43.734 226.716 44.55 225.828C45.366 224.94 46.428 224.496 47.736 224.496C49.104 224.496 50.184 224.958 50.976 225.882C51.756 226.806 52.146 227.988 52.146 229.428ZM47.736 226.008C47.028 226.008 46.446 226.224 45.99 226.656C45.546 227.088 45.27 227.712 45.162 228.528H50.292C50.208 227.772 49.938 227.166 49.482 226.71C49.038 226.242 48.456 226.008 47.736 226.008ZM57.1276 234.234C54.5476 234.234 53.1916 233.172 53.0596 231.048H54.8596C54.9316 231.696 55.1416 232.152 55.4896 232.416C55.8376 232.68 56.3896 232.812 57.1456 232.812C58.5136 232.812 59.1976 232.38 59.1976 231.516C59.1976 231.144 59.0536 230.856 58.7656 230.652C58.4776 230.448 57.9616 230.28 57.2176 230.148L56.2636 229.968C54.2956 229.608 53.3116 228.684 53.3116 227.196C53.3116 226.368 53.6296 225.714 54.2656 225.234C54.9016 224.742 55.7776 224.496 56.8936 224.496C59.4496 224.496 60.7576 225.534 60.8176 227.61H59.0716C59.0356 226.986 58.8436 226.548 58.4956 226.296C58.1476 226.032 57.6136 225.9 56.8936 225.9C56.3176 225.9 55.8736 226.008 55.5616 226.224C55.2496 226.44 55.0936 226.746 55.0936 227.142C55.0936 227.502 55.2316 227.784 55.5076 227.988C55.7836 228.18 56.2216 228.336 56.8216 228.456L57.7936 228.618C58.9336 228.834 59.7556 229.158 60.2596 229.59C60.7636 230.022 61.0156 230.622 61.0156 231.39C61.0156 232.29 60.6736 232.992 59.9896 233.496C59.3056 233.988 58.3516 234.234 57.1276 234.234ZM66.0046 234.234C63.4246 234.234 62.0686 233.172 61.9366 231.048H63.7366C63.8086 231.696 64.0186 232.152 64.3666 232.416C64.7146 232.68 65.2666 232.812 66.0226 232.812C67.3906 232.812 68.0746 232.38 68.0746 231.516C68.0746 231.144 67.9306 230.856 67.6426 230.652C67.3546 230.448 66.8386 230.28 66.0946 230.148L65.1406 229.968C63.1726 229.608 62.1886 228.684 62.1886 227.196C62.1886 226.368 62.5066 225.714 63.1426 225.234C63.7786 224.742 64.6546 224.496 65.7706 224.496C68.3266 224.496 69.6346 225.534 69.6946 227.61H67.9486C67.9126 226.986 67.7206 226.548 67.3726 226.296C67.0246 226.032 66.4906 225.9 65.7706 225.9C65.1946 225.9 64.7506 226.008 64.4386 226.224C64.1266 226.44 63.9706 226.746 63.9706 227.142C63.9706 227.502 64.1086 227.784 64.3846 227.988C64.6606 228.18 65.0986 228.336 65.6986 228.456L66.6706 228.618C67.8106 228.834 68.6326 229.158 69.1366 229.59C69.6406 230.022 69.8926 230.622 69.8926 231.39C69.8926 232.29 69.5506 232.992 68.8666 233.496C68.1826 233.988 67.2286 234.234 66.0046 234.234ZM76.6893 223.398H74.8533V221.472H76.6893V223.398ZM76.6713 234H74.8713V224.712H76.6713V234ZM82.1237 234.234C79.5437 234.234 78.1877 233.172 78.0557 231.048H79.8557C79.9277 231.696 80.1377 232.152 80.4857 232.416C80.8337 232.68 81.3857 232.812 82.1417 232.812C83.5097 232.812 84.1937 232.38 84.1937 231.516C84.1937 231.144 84.0497 230.856 83.7617 230.652C83.4737 230.448 82.9577 230.28 82.2137 230.148L81.2597 229.968C79.2917 229.608 78.3077 228.684 78.3077 227.196C78.3077 226.368 78.6257 225.714 79.2617 225.234C79.8977 224.742 80.7737 224.496 81.8897 224.496C84.4457 224.496 85.7537 225.534 85.8137 227.61H84.0677C84.0317 226.986 83.8397 226.548 83.4917 226.296C83.1437 226.032 82.6097 225.9 81.8897 225.9C81.3137 225.9 80.8697 226.008 80.5577 226.224C80.2457 226.44 80.0897 226.746 80.0897 227.142C80.0897 227.502 80.2277 227.784 80.5037 227.988C80.7797 228.18 81.2177 228.336 81.8177 228.456L82.7897 228.618C83.9297 228.834 84.7517 229.158 85.2557 229.59C85.7597 230.022 86.0117 230.622 86.0117 231.39C86.0117 232.29 85.6697 232.992 84.9857 233.496C84.3017 233.988 83.3477 234.234 82.1237 234.234ZM98.4964 232.884C97.6444 233.772 96.5344 234.216 95.1664 234.216C93.7984 234.216 92.6884 233.772 91.8364 232.884C90.9844 231.996 90.5584 230.82 90.5584 229.356C90.5584 227.88 90.9844 226.698 91.8364 225.81C92.6764 224.934 93.7864 224.496 95.1664 224.496C96.5464 224.496 97.6564 224.934 98.4964 225.81C99.3364 226.686 99.7564 227.868 99.7564 229.356C99.7564 230.832 99.3364 232.008 98.4964 232.884ZM93.1684 231.786C93.6604 232.374 94.3264 232.668 95.1664 232.668C96.0064 232.668 96.6664 232.374 97.1464 231.786C97.6384 231.198 97.8844 230.388 97.8844 229.356C97.8844 228.324 97.6384 227.514 97.1464 226.926C96.6664 226.338 96.0064 226.044 95.1664 226.044C94.3264 226.044 93.6604 226.338 93.1684 226.926C92.6764 227.514 92.4304 228.324 92.4304 229.356C92.4304 230.388 92.6764 231.198 93.1684 231.786ZM105.988 224.496C107.008 224.496 107.806 224.784 108.382 225.36C108.958 225.924 109.246 226.728 109.246 227.772V234H107.446V228.024C107.446 226.728 106.792 226.08 105.484 226.08C104.884 226.08 104.344 226.308 103.864 226.764C103.384 227.232 103.144 227.898 103.144 228.762V234H101.344V224.712H103.072V226.098C103.78 225.03 104.752 224.496 105.988 224.496ZM119.664 229.428V229.95H112.662C112.746 230.862 113.016 231.552 113.472 232.02C113.928 232.476 114.546 232.704 115.326 232.704C116.502 232.704 117.27 232.188 117.63 231.156H119.448C119.196 232.104 118.704 232.854 117.972 233.406C117.252 233.946 116.358 234.216 115.29 234.216C113.958 234.216 112.884 233.772 112.068 232.884C111.252 231.996 110.844 230.82 110.844 229.356C110.844 227.892 111.252 226.716 112.068 225.828C112.884 224.94 113.946 224.496 115.254 224.496C116.622 224.496 117.702 224.958 118.494 225.882C119.274 226.806 119.664 227.988 119.664 229.428ZM115.254 226.008C114.546 226.008 113.964 226.224 113.508 226.656C113.064 227.088 112.788 227.712 112.68 228.528H117.81C117.726 227.772 117.456 227.166 117 226.71C116.556 226.242 115.974 226.008 115.254 226.008ZM128.337 234.234C125.757 234.234 124.401 233.172 124.269 231.048H126.069C126.141 231.696 126.351 232.152 126.699 232.416C127.047 232.68 127.599 232.812 128.355 232.812C129.723 232.812 130.407 232.38 130.407 231.516C130.407 231.144 130.263 230.856 129.975 230.652C129.687 230.448 129.171 230.28 128.427 230.148L127.473 229.968C125.505 229.608 124.521 228.684 124.521 227.196C124.521 226.368 124.839 225.714 125.475 225.234C126.111 224.742 126.987 224.496 128.103 224.496C130.659 224.496 131.967 225.534 132.027 227.61H130.281C130.245 226.986 130.053 226.548 129.705 226.296C129.357 226.032 128.823 225.9 128.103 225.9C127.527 225.9 127.083 226.008 126.771 226.224C126.459 226.44 126.303 226.746 126.303 227.142C126.303 227.502 126.441 227.784 126.717 227.988C126.993 228.18 127.431 228.336 128.031 228.456L129.003 228.618C130.143 228.834 130.965 229.158 131.469 229.59C131.973 230.022 132.225 230.622 132.225 231.39C132.225 232.29 131.883 232.992 131.199 233.496C130.515 233.988 129.561 234.234 128.337 234.234ZM137.816 224.712V226.188H135.944V231.768C135.944 232.044 136.022 232.248 136.178 232.38C136.346 232.5 136.622 232.56 137.006 232.56H137.816V234C137.42 234.036 137.054 234.054 136.718 234.054C135.842 234.054 135.194 233.886 134.774 233.55C134.354 233.214 134.144 232.674 134.144 231.93V226.188H132.65V224.712H134.144V222.048H135.944V224.712H137.816ZM147.472 229.428V229.95H140.47C140.554 230.862 140.824 231.552 141.28 232.02C141.736 232.476 142.354 232.704 143.134 232.704C144.31 232.704 145.078 232.188 145.438 231.156H147.256C147.004 232.104 146.512 232.854 145.78 233.406C145.06 233.946 144.166 234.216 143.098 234.216C141.766 234.216 140.692 233.772 139.876 232.884C139.06 231.996 138.652 230.82 138.652 229.356C138.652 227.892 139.06 226.716 139.876 225.828C140.692 224.94 141.754 224.496 143.062 224.496C144.43 224.496 145.51 224.958 146.302 225.882C147.082 226.806 147.472 227.988 147.472 229.428ZM143.062 226.008C142.354 226.008 141.772 226.224 141.316 226.656C140.872 227.088 140.596 227.712 140.488 228.528H145.618C145.534 227.772 145.264 227.166 144.808 226.71C144.364 226.242 143.782 226.008 143.062 226.008ZM153.893 224.496C155.189 224.496 156.221 224.934 156.989 225.81C157.757 226.686 158.141 227.868 158.141 229.356C158.141 230.832 157.757 232.008 156.989 232.884C156.209 233.772 155.177 234.216 153.893 234.216C152.573 234.216 151.565 233.712 150.869 232.704V237.528H149.069V224.712H150.797V226.116C151.493 225.036 152.525 224.496 153.893 224.496ZM151.571 231.786C152.051 232.374 152.711 232.668 153.551 232.668C154.391 232.668 155.057 232.368 155.549 231.768C156.029 231.18 156.269 230.352 156.269 229.284C156.269 228.252 156.029 227.454 155.549 226.89C155.069 226.326 154.403 226.044 153.551 226.044C152.723 226.044 152.063 226.332 151.571 226.908C151.079 227.508 150.833 228.324 150.833 229.356C150.833 230.388 151.079 231.198 151.571 231.786ZM171.352 232.614H171.856V234C171.592 234.036 171.298 234.054 170.974 234.054C170.398 234.054 169.966 233.952 169.678 233.748C169.402 233.532 169.234 233.196 169.174 232.74C168.55 233.724 167.542 234.216 166.15 234.216C165.13 234.216 164.32 233.976 163.72 233.496C163.132 233.004 162.838 232.326 162.838 231.462C162.838 229.782 164.002 228.822 166.33 228.582L167.698 228.438C168.178 228.378 168.526 228.258 168.742 228.078C168.97 227.886 169.084 227.616 169.084 227.268C169.084 226.8 168.934 226.464 168.634 226.26C168.346 226.044 167.86 225.936 167.176 225.936C166.432 225.936 165.898 226.062 165.574 226.314C165.25 226.554 165.064 226.986 165.016 227.61H163.234C163.366 225.534 164.68 224.496 167.176 224.496C169.624 224.496 170.848 225.408 170.848 227.232V232.146C170.848 232.458 171.016 232.614 171.352 232.614ZM166.42 232.812C167.188 232.812 167.824 232.596 168.328 232.164C168.832 231.732 169.084 231.12 169.084 230.328V229.356C168.856 229.548 168.472 229.674 167.932 229.734L166.636 229.878C165.94 229.962 165.442 230.13 165.142 230.382C164.842 230.622 164.692 230.964 164.692 231.408C164.692 231.852 164.836 232.2 165.124 232.452C165.424 232.692 165.856 232.812 166.42 232.812ZM182.758 228.582L183.964 224.712H185.89L182.812 234H180.922L179.644 229.914C179.32 228.882 179.026 227.886 178.762 226.926C178.366 228.33 178.078 229.326 177.898 229.914L176.638 234H174.73L171.652 224.712H173.596L174.784 228.582C175.108 229.626 175.432 230.73 175.756 231.894C175.972 231.03 176.284 229.926 176.692 228.582L177.88 224.712H179.68L180.85 228.582C181.342 230.25 181.66 231.348 181.804 231.876C181.948 231.348 182.266 230.25 182.758 228.582ZM194.502 232.614H195.006V234C194.742 234.036 194.448 234.054 194.124 234.054C193.548 234.054 193.116 233.952 192.828 233.748C192.552 233.532 192.384 233.196 192.324 232.74C191.7 233.724 190.692 234.216 189.3 234.216C188.28 234.216 187.47 233.976 186.87 233.496C186.282 233.004 185.988 232.326 185.988 231.462C185.988 229.782 187.152 228.822 189.48 228.582L190.848 228.438C191.328 228.378 191.676 228.258 191.892 228.078C192.12 227.886 192.234 227.616 192.234 227.268C192.234 226.8 192.084 226.464 191.784 226.26C191.496 226.044 191.01 225.936 190.326 225.936C189.582 225.936 189.048 226.062 188.724 226.314C188.4 226.554 188.214 226.986 188.166 227.61H186.384C186.516 225.534 187.83 224.496 190.326 224.496C192.774 224.496 193.998 225.408 193.998 227.232V232.146C193.998 232.458 194.166 232.614 194.502 232.614ZM189.57 232.812C190.338 232.812 190.974 232.596 191.478 232.164C191.982 231.732 192.234 231.12 192.234 230.328V229.356C192.006 229.548 191.622 229.674 191.082 229.734L189.786 229.878C189.09 229.962 188.592 230.13 188.292 230.382C187.992 230.622 187.842 230.964 187.842 231.408C187.842 231.852 187.986 232.2 188.274 232.452C188.574 232.692 189.006 232.812 189.57 232.812ZM200.634 227.898L201.714 224.712H203.622L199.842 235.17C199.53 236.058 199.116 236.682 198.6 237.042C198.084 237.402 197.352 237.582 196.404 237.582C196.08 237.582 195.768 237.564 195.468 237.528V236.07H196.368C197.172 236.07 197.712 235.698 197.988 234.954C198.012 234.882 198.048 234.768 198.096 234.612C198.156 234.456 198.204 234.336 198.24 234.252L194.802 224.712H196.764L197.844 227.898C198.42 229.674 198.882 231.156 199.23 232.344C199.698 230.82 200.166 229.338 200.634 227.898ZM205.047 234H202.869V231.858H205.047V234Z" fill="white"/>
</svg>
