<svg width="426" height="295" viewBox="0 0 426 295" fill="none" xmlns="http://www.w3.org/2000/svg">
<g filter="url(#filter0_di_6_2492)">
<path d="M21 28C21 21.3726 26.3726 16 33 16H393C399.627 16 405 21.3726 405 28V257C405 263.627 399.627 269 393 269H33C26.3726 269 21 263.627 21 257V28Z" fill="white" fill-opacity="0.15" shape-rendering="crispEdges"/>
<path d="M33 17H393C399.075 17 404 21.9249 404 28V257C404 263.075 399.075 268 393 268H33C26.9249 268 22 263.075 22 257V28C22 21.9249 26.9249 17 33 17Z" stroke="white" stroke-opacity="0.09" stroke-width="2" shape-rendering="crispEdges"/>
<circle cx="70.5" cy="65.5" r="25.5" fill="#FABB14"/>
<path d="M66.5532 57.4569C62.6466 59.4157 62.1958 59.655 62.0789 59.8387C61.8842 60.1281 61.8675 60.3673 61.9343 61.6028C62.3015 67.9413 64.8781 72.5157 69.3134 74.6749C70.2205 75.1146 70.7993 75.326 71.1221 75.326C71.4393 75.326 72.018 75.1201 72.9307 74.6749C77.3493 72.5324 79.9426 67.9413 80.3099 61.6028C80.3766 60.3618 80.3599 60.1281 80.1596 59.8331C80.0372 59.6383 79.6532 59.438 75.6854 57.4513C72.1126 55.6649 71.3057 55.2809 71.1165 55.2809C70.9329 55.2809 70.1259 55.6649 66.5532 57.4569ZM71.4393 61.2466C71.506 61.319 71.7565 61.7809 72.0069 62.2761C72.274 62.8104 72.5077 63.2166 72.5857 63.2667C72.6858 63.3279 74.411 63.6284 74.6837 63.6284C74.7115 63.6284 74.8061 63.6952 74.9007 63.7731C75.0343 63.8844 75.0732 63.9623 75.0732 64.1182C75.0732 64.3018 75.0064 64.3853 74.2663 65.131C73.3202 66.0882 73.3759 65.899 73.6207 67.3013C73.7654 68.1083 73.7766 68.2418 73.7098 68.3976C73.6263 68.5924 73.4816 68.6926 73.2646 68.6926C73.1811 68.6926 72.7081 68.4811 72.2128 68.2196C71.6062 67.9023 71.2445 67.7465 71.1221 67.7465C70.9996 67.7465 70.6379 67.9023 70.0313 68.2196C69.536 68.4811 69.063 68.6926 68.9795 68.6926C68.7625 68.6926 68.6178 68.5924 68.5343 68.3976C68.4731 68.2418 68.4843 68.1083 68.6234 67.3292C68.8738 65.9101 68.9239 66.0882 67.9778 65.131C67.2377 64.3853 67.1709 64.3018 67.1709 64.1182C67.1709 63.9623 67.2099 63.8844 67.3434 63.7731C67.438 63.6952 67.5326 63.6284 67.5605 63.6284C67.8331 63.6284 69.5583 63.3279 69.6585 63.2667C69.7364 63.2166 69.9701 62.8104 70.2372 62.2761C70.7603 61.2244 70.8382 61.1242 71.1221 61.1242C71.2612 61.1242 71.3614 61.1631 71.4393 61.2466Z" fill="black"/>
<path d="M60.4372 71.2734C59.3019 72.4143 58.6508 73.1043 58.6842 73.1377C58.7176 73.1655 59.391 73.4327 60.1868 73.7276C60.9825 74.0281 61.6503 74.2952 61.667 74.3231C61.6893 74.3564 61.9509 75.0409 62.2514 75.8479C62.5519 76.6548 62.8134 77.317 62.8301 77.317C62.8468 77.317 63.5424 76.6325 64.3772 75.7978L65.902 74.273L65.3065 73.6942C64.2659 72.6869 63.3978 71.5406 62.6687 70.2217C62.4851 69.8822 62.3126 69.5761 62.2903 69.5372C62.2569 69.4871 61.6893 70.0213 60.4372 71.2734Z" fill="black"/>
<path d="M79.8092 69.7931C79.0913 71.2178 78.0896 72.5812 76.9376 73.6942L76.3422 74.273L77.867 75.7978C78.7017 76.6325 79.3973 77.317 79.414 77.317C79.4307 77.317 79.6923 76.6548 79.9928 75.8479C80.2933 75.0409 80.5549 74.3564 80.5771 74.3231C80.5938 74.2952 81.2616 74.0281 82.0574 73.7332C82.8532 73.4327 83.5266 73.1655 83.56 73.1377C83.5933 73.1043 82.9589 72.431 81.7959 71.2679L79.9817 69.4537L79.8092 69.7931Z" fill="black"/>
<rect x="243" y="40" width="138" height="31" rx="15.5" fill="white" fill-opacity="0.2"/>
<path d="M257.93 51.88V57.79H261.32V59H256.58V51.88H257.93ZM268.342 58.14C267.689 58.82 266.829 59.16 265.762 59.16C264.695 59.16 263.835 58.82 263.182 58.14C262.529 57.4533 262.202 56.5533 262.202 55.44C262.202 54.3267 262.529 53.4267 263.182 52.74C263.835 52.06 264.695 51.72 265.762 51.72C266.829 51.72 267.689 52.06 268.342 52.74C268.989 53.4133 269.312 54.3133 269.312 55.44C269.312 56.5667 268.989 57.4667 268.342 58.14ZM263.612 55.44C263.612 56.22 263.809 56.8367 264.202 57.29C264.595 57.7433 265.115 57.97 265.762 57.97C266.415 57.97 266.939 57.7433 267.332 57.29C267.719 56.8433 267.912 56.2267 267.912 55.44C267.912 54.6533 267.719 54.0367 267.332 53.59C266.939 53.1367 266.415 52.91 265.762 52.91C265.115 52.91 264.595 53.1367 264.202 53.59C263.809 54.0433 263.612 54.66 263.612 55.44ZM277.018 58.14C276.364 58.82 275.504 59.16 274.438 59.16C273.371 59.16 272.511 58.82 271.858 58.14C271.204 57.4533 270.878 56.5533 270.878 55.44C270.878 54.3267 271.204 53.4267 271.858 52.74C272.511 52.06 273.371 51.72 274.438 51.72C275.504 51.72 276.364 52.06 277.018 52.74C277.664 53.4133 277.988 54.3133 277.988 55.44C277.988 56.5667 277.664 57.4667 277.018 58.14ZM272.288 55.44C272.288 56.22 272.484 56.8367 272.878 57.29C273.271 57.7433 273.791 57.97 274.438 57.97C275.091 57.97 275.614 57.7433 276.008 57.29C276.394 56.8433 276.588 56.2267 276.588 55.44C276.588 54.6533 276.394 54.0367 276.008 53.59C275.614 53.1367 275.091 52.91 274.438 52.91C273.791 52.91 273.271 53.1367 272.878 53.59C272.484 54.0433 272.288 54.66 272.288 55.44ZM284.533 51.88H286.213L283.283 54.78L286.213 59H284.603L282.323 55.68L281.203 56.77V59H279.853V51.88H281.203V55.24L284.533 51.88ZM289.098 59H287.748V51.88H289.098V59ZM295.978 53.74V51.88H297.278V59H295.778L293.798 55.83C293.258 54.9833 292.834 54.27 292.528 53.69C292.554 54.4367 292.568 55.5867 292.568 57.14V59H291.268V51.88H292.768L294.758 55.05C295.351 56.01 295.771 56.7233 296.018 57.19C295.991 56.1967 295.978 55.0467 295.978 53.74ZM302.855 56.25V55.16H306.035V59H305.055L304.865 58.06C304.352 58.7933 303.579 59.16 302.545 59.16C301.519 59.16 300.695 58.82 300.075 58.14C299.455 57.46 299.145 56.56 299.145 55.44C299.145 54.32 299.462 53.4167 300.095 52.73C300.729 52.0567 301.585 51.72 302.665 51.72C303.559 51.72 304.302 51.9467 304.895 52.4C305.482 52.8533 305.835 53.47 305.955 54.25H304.565C304.465 53.83 304.245 53.5 303.905 53.26C303.572 53.02 303.162 52.9 302.675 52.9C302.022 52.9 301.505 53.1267 301.125 53.58C300.745 54.0333 300.555 54.6533 300.555 55.44C300.555 56.2267 300.749 56.8467 301.135 57.3C301.522 57.7533 302.052 57.98 302.725 57.98C303.259 57.98 303.715 57.82 304.095 57.5C304.475 57.18 304.682 56.7633 304.715 56.25H302.855ZM317.09 58.14C316.437 58.82 315.577 59.16 314.51 59.16C313.443 59.16 312.583 58.82 311.93 58.14C311.277 57.4533 310.95 56.5533 310.95 55.44C310.95 54.3267 311.277 53.4267 311.93 52.74C312.583 52.06 313.443 51.72 314.51 51.72C315.577 51.72 316.437 52.06 317.09 52.74C317.737 53.4133 318.06 54.3133 318.06 55.44C318.06 56.5667 317.737 57.4667 317.09 58.14ZM312.36 55.44C312.36 56.22 312.557 56.8367 312.95 57.29C313.343 57.7433 313.863 57.97 314.51 57.97C315.163 57.97 315.687 57.7433 316.08 57.29C316.467 56.8433 316.66 56.2267 316.66 55.44C316.66 54.6533 316.467 54.0367 316.08 53.59C315.687 53.1367 315.163 52.91 314.51 52.91C313.863 52.91 313.343 53.1367 312.95 53.59C312.557 54.0433 312.36 54.66 312.36 55.44ZM322.806 59.15C321.879 59.15 321.149 58.9033 320.616 58.41C320.089 57.91 319.826 57.2133 319.826 56.32V51.88H321.176V56.33C321.176 56.87 321.316 57.28 321.596 57.56C321.876 57.84 322.279 57.98 322.806 57.98C323.332 57.98 323.736 57.84 324.016 57.56C324.296 57.28 324.436 56.87 324.436 56.33V51.88H325.786V56.32C325.786 57.2267 325.522 57.9267 324.996 58.42C324.469 58.9067 323.739 59.15 322.806 59.15ZM327.303 51.88H333.223V53.09H330.943V59H329.583V53.09H327.303V51.88ZM341.943 54.75L342.693 51.88H344.093L342.123 59H340.603L339.843 56.04C339.53 54.74 339.336 53.9 339.263 53.52C339.076 54.4067 338.883 55.2467 338.683 56.04L337.923 59H336.413L334.433 51.88H335.843L336.583 54.75C336.93 56.1367 337.146 57.04 337.233 57.46C337.446 56.46 337.65 55.5533 337.843 54.74L338.573 51.88H339.963L340.693 54.74C340.88 55.5 341.08 56.41 341.293 57.47C341.433 56.85 341.65 55.9433 341.943 54.75ZM351.389 59H349.959L349.399 57.43H346.279L345.729 59H344.339L347.049 51.88H348.629L351.389 59ZM346.959 55.51L346.689 56.28H348.989L348.709 55.51C348.476 54.9167 348.183 54.1033 347.829 53.07C347.549 53.8967 347.259 54.71 346.959 55.51ZM358.49 57.11L358.55 58.17C358.557 58.51 358.63 58.7867 358.77 59H357.38C357.26 58.8 357.197 58.5167 357.19 58.15L357.16 57.37C357.14 56.9367 357.04 56.6367 356.86 56.47C356.687 56.2967 356.407 56.21 356.02 56.21H354.26V59H352.91V51.88H356.14C356.933 51.88 357.55 52.06 357.99 52.42C358.43 52.78 358.65 53.27 358.65 53.89C358.65 54.7433 358.253 55.31 357.46 55.59C357.82 55.7033 358.077 55.8833 358.23 56.13C358.39 56.37 358.477 56.6967 358.49 57.11ZM354.26 52.99V55.15H356.06C356.44 55.15 356.733 55.0567 356.94 54.87C357.153 54.6767 357.26 54.4 357.26 54.04C357.26 53.7 357.15 53.44 356.93 53.26C356.717 53.08 356.41 52.99 356.01 52.99H354.26ZM360.56 51.88H363.28C364.42 51.88 365.3 52.1967 365.92 52.83C366.54 53.47 366.85 54.34 366.85 55.44C366.85 56.54 366.54 57.4067 365.92 58.04C365.3 58.68 364.42 59 363.28 59H360.56V51.88ZM361.91 57.84H363.26C363.96 57.84 364.5 57.6367 364.88 57.23C365.26 56.8167 365.45 56.22 365.45 55.44C365.45 54.66 365.26 54.0667 364.88 53.66C364.5 53.2467 363.96 53.04 363.26 53.04H361.91V57.84Z" fill="white"/>
<path d="M48.536 142L45 123.41H48.458L49.706 131.574C49.836 132.328 49.94 133.316 50.018 133.836H50.096C50.174 133.316 50.278 132.328 50.408 131.574L51.682 123.41H54.932L51.318 142H48.536ZM57.9348 139.348L57.4668 142H54.0868L58.0908 123.41H60.8728L64.9288 142H61.3408L60.8728 139.348H57.9348ZM59.0788 132.796L58.4808 136.254H60.3528L59.7808 132.796C59.6508 132.042 59.5468 131.054 59.4688 130.534H59.3908C59.3128 131.054 59.2088 132.042 59.0788 132.796ZM72.9173 142H65.5853L65.6113 140.102V125.308L65.5853 123.41H69.1733L69.1473 125.308V138.802H72.9173V142ZM73.9642 123.41H77.5522L77.5262 125.308V140.102L77.5522 142H73.9642L73.9902 140.102V125.308L73.9642 123.41ZM83.5336 123.41C85.0416 123.41 86.0816 123.826 86.8096 124.476C87.8496 125.386 88.4216 126.946 88.4216 129.676V135.734C88.4216 138.464 87.8496 140.024 86.8096 140.934C86.0816 141.584 85.0416 142 83.5336 142H79.3216L79.3476 140.102V125.308L79.3216 123.41H83.5336ZM83.3256 126.53H82.8836V138.88H83.3256C84.7816 138.88 84.8596 137.502 84.8596 136.046V129.364C84.8596 128.064 84.8596 126.53 83.3256 126.53ZM92.593 139.348L92.125 142H88.745L92.749 123.41H95.531L99.587 142H95.999L95.531 139.348H92.593ZM93.737 132.796L93.139 136.254H95.011L94.439 132.796C94.309 132.042 94.205 131.054 94.127 130.534H94.049C93.971 131.054 93.867 132.042 93.737 132.796ZM106.93 126.556H104.46V140.102L104.486 142H100.898L100.924 140.102V126.556H98.402V123.41H106.93V126.556ZM107.962 123.41H111.55L111.524 125.308V140.102L111.55 142H107.962L107.988 140.102V125.308L107.962 123.41ZM113.32 142L113.346 140.102V125.308L113.32 123.41H115.634L118.182 129.65C118.624 130.664 118.65 130.846 118.936 131.574H119.04C119.014 130.95 118.988 130.04 118.988 129.39V125.308L118.936 123.41H122.342L122.29 125.308V140.102L122.342 142H120.106L117.324 135.37C117.064 134.798 116.778 133.966 116.674 133.732H116.57C116.622 134.33 116.648 135.24 116.648 135.916V140.102L116.674 142H113.32ZM131.369 141.22C130.693 141.87 129.783 142.312 128.353 142.312C126.923 142.312 125.883 141.87 125.207 141.194C124.271 140.258 123.829 138.62 123.829 135.162V130.248C123.829 127.05 124.193 125.256 125.207 124.242C125.831 123.618 126.819 123.098 128.405 123.098C129.835 123.098 130.875 123.514 131.577 124.242C132.461 125.048 132.955 126.348 132.955 129.494V129.598H129.471V129.442C129.471 127.206 129.471 126.27 128.483 126.27C127.417 126.27 127.417 127.362 127.417 129.52V135.89C127.417 138.152 127.495 139.14 128.483 139.14C129.523 139.14 129.523 138.1 129.523 136.462V135.292H128.327V132.302H133.007V142H132.799L131.421 141.22H131.369ZM141.526 142H137.288L137.314 140.102V125.308L137.288 123.41H141.422C144.568 123.41 146.206 125.256 146.206 128.168V128.22C146.206 130.274 145.712 131.782 143.658 132.432V132.536C145.634 132.978 146.388 134.486 146.388 136.54V136.592C146.388 140.596 144.698 142 141.526 142ZM140.824 138.932H141.058C142.41 138.932 142.826 138.282 142.826 136.54V136.462C142.826 135.032 142.358 134.122 141.11 134.122H140.824V138.932ZM140.824 126.348V130.95H141.162C142.436 130.95 142.8 129.884 142.8 128.532V128.454C142.8 127.154 142.436 126.348 141.084 126.348H140.824ZM152.955 123.41H156.543L156.517 125.308V137.372C156.517 140.544 154.801 142.312 151.967 142.312C149.107 142.312 147.443 140.544 147.443 137.372V125.308L147.417 123.41H151.005L150.979 125.308V137.476C150.979 138.542 151.213 139.14 151.967 139.14C152.721 139.14 152.955 138.542 152.955 137.476V123.41ZM157.563 136.488H161.073C161.073 138.282 161.437 139.036 162.243 139.036C162.789 139.036 163.205 138.672 163.205 137.528C163.205 136.514 162.893 135.448 161.697 134.538L160.501 133.628C158.577 132.172 157.693 130.638 157.693 128.246C157.693 124.892 159.539 123.072 162.347 123.072C165.051 123.072 166.689 124.632 166.611 128.766H163.205C163.205 126.972 162.867 126.374 162.217 126.374C161.541 126.374 161.151 126.972 161.151 127.934C161.151 129.052 161.671 129.858 162.659 130.586L163.985 131.574C165.519 132.718 166.715 134.018 166.715 136.93C166.715 140.57 164.869 142.338 162.087 142.338C159.331 142.338 157.485 140.622 157.563 136.488ZM167.783 123.41H171.371L171.345 125.308V140.102L171.371 142H167.783L167.809 140.102V125.308L167.783 123.41ZM173.14 142L173.166 140.102V125.308L173.14 123.41H175.454L178.002 129.65C178.444 130.664 178.47 130.846 178.756 131.574H178.86C178.834 130.95 178.808 130.04 178.808 129.39V125.308L178.756 123.41H182.162L182.11 125.308V140.102L182.162 142H179.926L177.144 135.37C176.884 134.798 176.598 133.966 176.494 133.732H176.39C176.442 134.33 176.468 135.24 176.468 135.916V140.102L176.494 142H173.14ZM190.458 134.252H187.468V138.802H191.264V142H183.906L183.932 140.102V125.308L183.906 123.41H191.186V126.556H187.468V130.716H190.458V134.252ZM191.866 136.488H195.376C195.376 138.282 195.74 139.036 196.546 139.036C197.092 139.036 197.508 138.672 197.508 137.528C197.508 136.514 197.196 135.448 196 134.538L194.804 133.628C192.88 132.172 191.996 130.638 191.996 128.246C191.996 124.892 193.842 123.072 196.65 123.072C199.354 123.072 200.992 124.632 200.914 128.766H197.508C197.508 126.972 197.17 126.374 196.52 126.374C195.844 126.374 195.454 126.972 195.454 127.934C195.454 129.052 195.974 129.858 196.962 130.586L198.288 131.574C199.822 132.718 201.018 134.018 201.018 136.93C201.018 140.57 199.172 142.338 196.39 142.338C193.634 142.338 191.788 140.622 191.866 136.488ZM201.565 136.488H205.075C205.075 138.282 205.439 139.036 206.245 139.036C206.791 139.036 207.207 138.672 207.207 137.528C207.207 136.514 206.895 135.448 205.699 134.538L204.503 133.628C202.579 132.172 201.695 130.638 201.695 128.246C201.695 124.892 203.541 123.072 206.349 123.072C209.053 123.072 210.691 124.632 210.613 128.766H207.207C207.207 126.972 206.869 126.374 206.219 126.374C205.543 126.374 205.153 126.972 205.153 127.934C205.153 129.052 205.673 129.858 206.661 130.586L207.987 131.574C209.521 132.718 210.717 134.018 210.717 136.93C210.717 140.57 208.871 142.338 206.089 142.338C203.333 142.338 201.487 140.622 201.565 136.488ZM214.476 123.41H218.064L218.038 125.308V140.102L218.064 142H214.476L214.502 140.102V125.308L214.476 123.41ZM224.045 123.41C225.553 123.41 226.593 123.826 227.321 124.476C228.361 125.386 228.933 126.946 228.933 129.676V135.734C228.933 138.464 228.361 140.024 227.321 140.934C226.593 141.584 225.553 142 224.045 142H219.833L219.859 140.102V125.308L219.833 123.41H224.045ZM223.837 126.53H223.395V138.88H223.837C225.293 138.88 225.371 137.502 225.371 136.046V129.364C225.371 128.064 225.371 126.53 223.837 126.53ZM236.999 134.252H234.009V138.802H237.805V142H230.447L230.473 140.102V125.308L230.447 123.41H237.727V126.556H234.009V130.716H236.999V134.252ZM241.839 139.348L241.371 142H237.991L241.995 123.41H244.777L248.833 142H245.245L244.777 139.348H241.839ZM242.983 132.796L242.385 136.254H244.257L243.685 132.796C243.555 132.042 243.451 131.054 243.373 130.534H243.295C243.217 131.054 243.113 132.042 242.983 132.796ZM248.97 136.488H252.48C252.48 138.282 252.844 139.036 253.65 139.036C254.196 139.036 254.612 138.672 254.612 137.528C254.612 136.514 254.3 135.448 253.104 134.538L251.908 133.628C249.984 132.172 249.1 130.638 249.1 128.246C249.1 124.892 250.946 123.072 253.754 123.072C256.458 123.072 258.096 124.632 258.018 128.766H254.612C254.612 126.972 254.274 126.374 253.624 126.374C252.948 126.374 252.558 126.972 252.558 127.934C252.558 129.052 253.078 129.858 254.066 130.586L255.392 131.574C256.926 132.718 258.122 134.018 258.122 136.93C258.122 140.57 256.276 142.338 253.494 142.338C250.738 142.338 248.892 140.622 248.97 136.488ZM261.88 123.41H265.468L265.442 125.308V140.102L265.468 142H261.88L261.906 140.102V125.308L261.88 123.41ZM267.238 142L267.264 140.102V125.308L267.238 123.41H269.552L272.1 129.65C272.542 130.664 272.568 130.846 272.854 131.574H272.958C272.932 130.95 272.906 130.04 272.906 129.39V125.308L272.854 123.41H276.26L276.208 125.308V140.102L276.26 142H274.024L271.242 135.37C270.982 134.798 270.696 133.966 270.592 133.732H270.488C270.54 134.33 270.566 135.24 270.566 135.916V140.102L270.592 142H267.238ZM288.194 126.556H285.724V140.102L285.75 142H282.162L282.188 140.102V126.556H279.666V123.41H288.194V126.556ZM294.79 123.41H298.378L298.352 125.308V140.102L298.378 142H294.79L294.816 140.102V134.2H292.788V140.102L292.814 142H289.226L289.252 140.102V125.308L289.226 123.41H292.814L292.788 125.308V130.638H294.816V125.308L294.79 123.41ZM306.696 134.252H303.706V138.802H307.502V142H300.144L300.17 140.102V125.308L300.144 123.41H307.424V126.556H303.706V130.716H306.696V134.252ZM316.88 137.944L314.722 132.978H314.592C314.618 133.654 314.644 134.694 314.644 135.422V140.102L314.67 142H311.316L311.342 140.102V125.308L311.316 123.41H313.942L317.036 130.716H317.114L320.208 123.41H322.886L322.86 125.308V140.102L322.886 142H319.35L319.376 140.102V135.422C319.376 134.694 319.402 133.654 319.428 132.978H319.298L317.114 137.944H316.88ZM327.406 139.348L326.938 142H323.557L327.562 123.41H330.344L334.4 142H330.812L330.344 139.348H327.406ZM328.55 132.796L327.952 136.254H329.824L329.252 132.796C329.122 132.042 329.018 131.054 328.94 130.534H328.862C328.784 131.054 328.68 132.042 328.55 132.796ZM338.618 126.452V131.288H338.904C340.23 131.288 340.568 130.352 340.568 128.922V128.844C340.568 127.492 340.23 126.452 338.93 126.452H338.618ZM338.878 134.512H338.618V140.102L338.644 142H335.056L335.082 140.102V125.308L335.056 123.41H339.034C343.012 123.41 344.13 125.698 344.13 128.48V128.532C344.13 131.808 342.986 132.536 341.634 132.952V133.082C342.7 133.368 344.052 134.07 344.104 137.138C344.13 139.192 344.156 140.232 344.52 141.61V142H341.01C340.568 140.57 340.542 139.374 340.49 136.566C340.464 135.344 339.944 134.512 338.878 134.512ZM351.52 123.41H355.056L352.326 131.886L355.394 142H351.624L349.31 134.096H349.206V140.102L349.232 142H345.644L345.67 140.102V125.308L345.644 123.41H349.232L349.206 125.308V129.494C349.206 129.962 349.206 130.612 349.18 131.132H349.284L349.752 129.624L351.52 123.41ZM362.708 134.252H359.718V138.802H363.514V142H356.156L356.182 140.102V125.308L356.156 123.41H363.436V126.556H359.718V130.716H362.708V134.252ZM372.592 126.556H370.122V140.102L370.148 142H366.56L366.586 140.102V126.556H364.064V123.41H372.592V126.556Z" fill="white"/>
<path opacity="0.6" d="M54.27 177.25C54.978 177.502 55.524 177.904 55.908 178.456C56.304 179.008 56.502 179.632 56.502 180.328C56.502 181.492 56.118 182.398 55.35 183.046C54.594 183.682 53.49 184 52.038 184H46.044V171.184H51.84C53.184 171.184 54.21 171.49 54.918 172.102C55.626 172.714 55.98 173.512 55.98 174.496C55.98 175.756 55.41 176.674 54.27 177.25ZM51.66 173.182H48.474V176.53H51.66C52.272 176.53 52.74 176.38 53.064 176.08C53.4 175.768 53.568 175.342 53.568 174.802C53.568 174.298 53.4 173.902 53.064 173.614C52.728 173.326 52.26 173.182 51.66 173.182ZM48.474 181.984H51.912C52.596 181.984 53.118 181.834 53.478 181.534C53.838 181.222 54.018 180.784 54.018 180.22C54.018 179.032 53.316 178.438 51.912 178.438H48.474V181.984ZM66.7602 179.518V180.058H59.8122C59.8962 180.85 60.1422 181.45 60.5502 181.858C60.9702 182.254 61.5282 182.452 62.2242 182.452C63.2562 182.452 63.9642 182.008 64.3482 181.12H66.5262C66.2862 182.068 65.7822 182.824 65.0142 183.388C64.2462 183.94 63.3102 184.216 62.2062 184.216C60.8262 184.216 59.7102 183.772 58.8582 182.884C58.0062 181.996 57.5802 180.82 57.5802 179.356C57.5802 177.892 58.0002 176.716 58.8402 175.828C59.6922 174.94 60.8022 174.496 62.1702 174.496C63.5742 174.496 64.6902 174.958 65.5182 175.882C66.3462 176.806 66.7602 178.018 66.7602 179.518ZM62.1522 176.26C60.8202 176.26 60.0462 176.998 59.8302 178.474H64.4922C64.3962 177.79 64.1442 177.25 63.7362 176.854C63.3282 176.458 62.8002 176.26 62.1522 176.26ZM72.4006 184.216C71.0326 184.216 69.9226 183.772 69.0706 182.884C68.2306 182.008 67.8106 180.832 67.8106 179.356C67.8106 177.868 68.2306 176.686 69.0706 175.81C69.8986 174.934 71.0086 174.496 72.4006 174.496C73.6126 174.496 74.6026 174.82 75.3706 175.468C76.1386 176.104 76.5886 176.968 76.7206 178.06H74.4526C74.3446 177.52 74.1106 177.106 73.7506 176.818C73.3906 176.53 72.9406 176.386 72.4006 176.386C71.6926 176.386 71.1346 176.644 70.7266 177.16C70.3306 177.664 70.1326 178.396 70.1326 179.356C70.1326 180.316 70.3366 181.054 70.7446 181.57C71.1526 182.074 71.7046 182.326 72.4006 182.326C72.9526 182.326 73.4146 182.176 73.7866 181.876C74.1706 181.564 74.4046 181.12 74.4886 180.544H76.7566C76.6366 181.66 76.1806 182.554 75.3886 183.226C74.5966 183.886 73.6006 184.216 72.4006 184.216ZM87.0692 179.356C87.0692 180.82 86.6372 181.996 85.7732 182.884C84.9092 183.772 83.7692 184.216 82.3532 184.216C80.9372 184.216 79.7972 183.772 78.9332 182.884C78.0572 182.008 77.6192 180.832 77.6192 179.356C77.6192 177.88 78.0572 176.704 78.9332 175.828C79.7972 174.94 80.9372 174.496 82.3532 174.496C83.7692 174.496 84.9092 174.934 85.7732 175.81C86.6372 176.686 87.0692 177.868 87.0692 179.356ZM80.5712 181.57C81.0032 182.086 81.5972 182.344 82.3532 182.344C83.1092 182.344 83.6972 182.086 84.1172 181.57C84.5492 181.042 84.7652 180.304 84.7652 179.356C84.7652 178.408 84.5492 177.676 84.1172 177.16C83.6972 176.632 83.1092 176.368 82.3532 176.368C81.5972 176.368 81.0032 176.626 80.5712 177.142C80.1512 177.658 79.9412 178.396 79.9412 179.356C79.9412 180.316 80.1512 181.054 80.5712 181.57ZM99.0942 174.496C100.114 174.496 100.906 174.796 101.47 175.396C102.046 175.996 102.334 176.818 102.334 177.862V184H100.066V178.222C100.066 177.046 99.5322 176.458 98.4642 176.458C97.8882 176.458 97.4202 176.668 97.0602 177.088C96.7122 177.496 96.5382 178.096 96.5382 178.888V184H94.2882V178.222C94.2882 177.046 93.7482 176.458 92.6682 176.458C92.1042 176.458 91.6422 176.668 91.2822 177.088C90.9342 177.496 90.7602 178.096 90.7602 178.888V184H88.4922V174.712H90.6882V176.044C91.3242 175.012 92.2062 174.496 93.3342 174.496C94.7502 174.496 95.7102 175.072 96.2142 176.224C96.9102 175.072 97.8702 174.496 99.0942 174.496ZM112.938 179.518V180.058H105.99C106.074 180.85 106.32 181.45 106.728 181.858C107.148 182.254 107.706 182.452 108.402 182.452C109.434 182.452 110.142 182.008 110.526 181.12H112.704C112.464 182.068 111.96 182.824 111.192 183.388C110.424 183.94 109.488 184.216 108.384 184.216C107.004 184.216 105.888 183.772 105.036 182.884C104.184 181.996 103.758 180.82 103.758 179.356C103.758 177.892 104.178 176.716 105.018 175.828C105.87 174.94 106.98 174.496 108.348 174.496C109.752 174.496 110.868 174.958 111.696 175.882C112.524 176.806 112.938 178.018 112.938 179.518ZM108.33 176.26C106.998 176.26 106.224 176.998 106.008 178.474H110.67C110.574 177.79 110.322 177.25 109.914 176.854C109.506 176.458 108.978 176.26 108.33 176.26ZM126.639 184H124.371C124.263 183.808 124.179 183.43 124.119 182.866C123.495 183.766 122.499 184.216 121.131 184.216C120.111 184.216 119.295 183.97 118.683 183.478C118.083 182.986 117.783 182.302 117.783 181.426C117.783 179.734 118.971 178.768 121.347 178.528L122.751 178.402C123.219 178.342 123.555 178.234 123.759 178.078C123.963 177.91 124.065 177.664 124.065 177.34C124.065 176.944 123.933 176.656 123.669 176.476C123.417 176.284 122.985 176.188 122.373 176.188C121.713 176.188 121.239 176.302 120.951 176.53C120.663 176.746 120.495 177.124 120.447 177.664H118.215C118.347 175.552 119.739 174.496 122.391 174.496C124.971 174.496 126.261 175.426 126.261 177.286V182.236C126.261 183.052 126.387 183.64 126.639 184ZM121.671 182.596C122.379 182.596 122.955 182.404 123.399 182.02C123.843 181.624 124.065 181.06 124.065 180.328V179.482C123.849 179.674 123.495 179.8 123.003 179.86L121.779 180.004C121.179 180.076 120.747 180.22 120.483 180.436C120.231 180.64 120.105 180.94 120.105 181.336C120.105 181.732 120.237 182.044 120.501 182.272C120.777 182.488 121.167 182.596 121.671 182.596ZM142.477 174.496C143.497 174.496 144.289 174.796 144.853 175.396C145.429 175.996 145.717 176.818 145.717 177.862V184H143.449V178.222C143.449 177.046 142.915 176.458 141.847 176.458C141.271 176.458 140.803 176.668 140.443 177.088C140.095 177.496 139.921 178.096 139.921 178.888V184H137.671V178.222C137.671 177.046 137.131 176.458 136.051 176.458C135.487 176.458 135.025 176.668 134.665 177.088C134.317 177.496 134.143 178.096 134.143 178.888V184H131.875V174.712H134.071V176.044C134.707 175.012 135.589 174.496 136.717 174.496C138.133 174.496 139.093 175.072 139.597 176.224C140.293 175.072 141.253 174.496 142.477 174.496ZM155.907 184H153.639C153.531 183.808 153.447 183.43 153.387 182.866C152.763 183.766 151.767 184.216 150.399 184.216C149.379 184.216 148.563 183.97 147.951 183.478C147.351 182.986 147.051 182.302 147.051 181.426C147.051 179.734 148.239 178.768 150.615 178.528L152.019 178.402C152.487 178.342 152.823 178.234 153.027 178.078C153.231 177.91 153.333 177.664 153.333 177.34C153.333 176.944 153.201 176.656 152.937 176.476C152.685 176.284 152.253 176.188 151.641 176.188C150.981 176.188 150.507 176.302 150.219 176.53C149.931 176.746 149.763 177.124 149.715 177.664H147.483C147.615 175.552 149.007 174.496 151.659 174.496C154.239 174.496 155.529 175.426 155.529 177.286V182.236C155.529 183.052 155.655 183.64 155.907 184ZM150.939 182.596C151.647 182.596 152.223 182.404 152.667 182.02C153.111 181.624 153.333 181.06 153.333 180.328V179.482C153.117 179.674 152.763 179.8 152.271 179.86L151.047 180.004C150.447 180.076 150.015 180.22 149.751 180.436C149.499 180.64 149.373 180.94 149.373 181.336C149.373 181.732 149.505 182.044 149.769 182.272C150.045 182.488 150.435 182.596 150.939 182.596ZM162.226 174.568C162.43 174.568 162.616 174.58 162.784 174.604V176.692H162.208C161.344 176.692 160.678 176.914 160.21 177.358C159.754 177.79 159.526 178.432 159.526 179.284V184H157.258V174.712H159.454V176.368C159.97 175.168 160.894 174.568 162.226 174.568ZM172.936 184H170.344L167.644 179.68L166.24 181.084V184H164.008V171.184H166.24V178.564L170.02 174.712H172.72L169.21 178.222L172.936 184ZM181.967 179.518V180.058H175.019C175.103 180.85 175.349 181.45 175.757 181.858C176.177 182.254 176.735 182.452 177.431 182.452C178.463 182.452 179.171 182.008 179.555 181.12H181.733C181.493 182.068 180.989 182.824 180.221 183.388C179.453 183.94 178.517 184.216 177.413 184.216C176.033 184.216 174.917 183.772 174.065 182.884C173.213 181.996 172.787 180.82 172.787 179.356C172.787 177.892 173.207 176.716 174.047 175.828C174.899 174.94 176.009 174.496 177.377 174.496C178.781 174.496 179.897 174.958 180.725 175.882C181.553 176.806 181.967 178.018 181.967 179.518ZM177.359 176.26C176.027 176.26 175.253 176.998 175.037 178.474H179.699C179.603 177.79 179.351 177.25 178.943 176.854C178.535 176.458 178.007 176.26 177.359 176.26ZM187.799 174.712V176.44H185.963V181.462C185.963 181.762 186.041 181.972 186.197 182.092C186.365 182.212 186.641 182.272 187.025 182.272H187.799V184C187.307 184.048 186.911 184.072 186.611 184.072C185.603 184.072 184.865 183.886 184.397 183.514C183.941 183.13 183.713 182.524 183.713 181.696V176.44H182.273V174.712H183.713V172.012H185.963V174.712H187.799ZM199.636 175.918V171.184H201.904V184H199.708V182.704C199.024 183.712 198.046 184.216 196.774 184.216C195.49 184.216 194.476 183.772 193.732 182.884C192.976 181.996 192.598 180.82 192.598 179.356C192.598 177.868 192.976 176.686 193.732 175.81C194.464 174.934 195.478 174.496 196.774 174.496C198.022 174.496 198.976 174.97 199.636 175.918ZM194.92 179.428C194.92 180.388 195.13 181.114 195.55 181.606C195.97 182.098 196.552 182.344 197.296 182.344C198.04 182.344 198.628 182.086 199.06 181.57C199.48 181.054 199.69 180.316 199.69 179.356C199.69 178.396 199.48 177.658 199.06 177.142C198.64 176.626 198.052 176.368 197.296 176.368C196.564 176.368 195.982 176.638 195.55 177.178C195.13 177.718 194.92 178.468 194.92 179.428ZM212.5 179.518V180.058H205.552C205.636 180.85 205.882 181.45 206.29 181.858C206.71 182.254 207.268 182.452 207.964 182.452C208.996 182.452 209.704 182.008 210.088 181.12H212.266C212.026 182.068 211.522 182.824 210.754 183.388C209.986 183.94 209.05 184.216 207.946 184.216C206.566 184.216 205.45 183.772 204.598 182.884C203.746 181.996 203.32 180.82 203.32 179.356C203.32 177.892 203.74 176.716 204.58 175.828C205.432 174.94 206.542 174.496 207.91 174.496C209.314 174.496 210.43 174.958 211.258 175.882C212.086 176.806 212.5 178.018 212.5 179.518ZM207.892 176.26C206.56 176.26 205.786 176.998 205.57 178.474H210.232C210.136 177.79 209.884 177.25 209.476 176.854C209.068 176.458 208.54 176.26 207.892 176.26ZM218.332 174.712V176.44H216.496V181.462C216.496 181.762 216.574 181.972 216.73 182.092C216.898 182.212 217.174 182.272 217.558 182.272H218.332V184C217.84 184.048 217.444 184.072 217.144 184.072C216.136 184.072 215.398 183.886 214.93 183.514C214.474 183.13 214.246 182.524 214.246 181.696V176.44H212.806V174.712H214.246V172.012H216.496V174.712H218.332ZM228.25 179.518V180.058H221.302C221.386 180.85 221.632 181.45 222.04 181.858C222.46 182.254 223.018 182.452 223.714 182.452C224.746 182.452 225.454 182.008 225.838 181.12H228.016C227.776 182.068 227.272 182.824 226.504 183.388C225.736 183.94 224.8 184.216 223.696 184.216C222.316 184.216 221.2 183.772 220.348 182.884C219.496 181.996 219.07 180.82 219.07 179.356C219.07 177.892 219.49 176.716 220.33 175.828C221.182 174.94 222.292 174.496 223.66 174.496C225.064 174.496 226.18 174.958 227.008 175.882C227.836 176.806 228.25 178.018 228.25 179.518ZM223.642 176.26C222.31 176.26 221.536 176.998 221.32 178.474H225.982C225.886 177.79 225.634 177.25 225.226 176.854C224.818 176.458 224.29 176.26 223.642 176.26ZM233.891 184.216C232.523 184.216 231.413 183.772 230.561 182.884C229.721 182.008 229.301 180.832 229.301 179.356C229.301 177.868 229.721 176.686 230.561 175.81C231.389 174.934 232.499 174.496 233.891 174.496C235.103 174.496 236.093 174.82 236.861 175.468C237.629 176.104 238.079 176.968 238.211 178.06H235.943C235.835 177.52 235.601 177.106 235.241 176.818C234.881 176.53 234.431 176.386 233.891 176.386C233.183 176.386 232.625 176.644 232.217 177.16C231.821 177.664 231.623 178.396 231.623 179.356C231.623 180.316 231.827 181.054 232.235 181.57C232.643 182.074 233.195 182.326 233.891 182.326C234.443 182.326 234.905 182.176 235.277 181.876C235.661 181.564 235.895 181.12 235.979 180.544H238.247C238.127 181.66 237.671 182.554 236.879 183.226C236.087 183.886 235.091 184.216 233.891 184.216ZM244.102 174.712V176.44H242.266V181.462C242.266 181.762 242.344 181.972 242.5 182.092C242.668 182.212 242.944 182.272 243.328 182.272H244.102V184C243.61 184.048 243.214 184.072 242.914 184.072C241.906 184.072 241.168 183.886 240.7 183.514C240.244 183.13 240.016 182.524 240.016 181.696V176.44H238.576V174.712H240.016V172.012H242.266V174.712H244.102ZM247.68 173.506H245.448V171.382H247.68V173.506ZM247.698 184H245.43V174.712H247.698V184ZM254.82 177.196L255.72 174.712H258.078L254.622 184H252.012L248.574 174.712H251.004L251.904 177.214C252.324 178.522 252.81 180.1 253.362 181.948C253.806 180.46 254.292 178.876 254.82 177.196ZM267.344 179.518V180.058H260.396C260.48 180.85 260.726 181.45 261.134 181.858C261.554 182.254 262.112 182.452 262.808 182.452C263.84 182.452 264.548 182.008 264.932 181.12H267.11C266.87 182.068 266.366 182.824 265.598 183.388C264.83 183.94 263.894 184.216 262.79 184.216C261.41 184.216 260.294 183.772 259.442 182.884C258.59 181.996 258.164 180.82 258.164 179.356C258.164 177.892 258.584 176.716 259.424 175.828C260.276 174.94 261.386 174.496 262.754 174.496C264.158 174.496 265.274 174.958 266.102 175.882C266.93 176.806 267.344 178.018 267.344 179.518ZM262.736 176.26C261.404 176.26 260.63 176.998 260.414 178.474H265.076C264.98 177.79 264.728 177.25 264.32 176.854C263.912 176.458 263.384 176.26 262.736 176.26ZM284.793 179.914H268.485V177.97H284.793V179.914ZM289.953 184.252C287.241 184.252 285.825 183.184 285.705 181.048H287.919C287.979 181.624 288.165 182.032 288.477 182.272C288.801 182.512 289.305 182.632 289.989 182.632C291.213 182.632 291.825 182.26 291.825 181.516C291.825 181.18 291.693 180.922 291.429 180.742C291.165 180.562 290.691 180.412 290.007 180.292L288.945 180.112C286.917 179.776 285.903 178.84 285.903 177.304C285.903 176.428 286.239 175.744 286.911 175.252C287.583 174.748 288.531 174.496 289.755 174.496C292.407 174.496 293.775 175.546 293.859 177.646H291.717C291.693 177.094 291.519 176.704 291.195 176.476C290.871 176.236 290.391 176.116 289.755 176.116C288.675 176.116 288.135 176.476 288.135 177.196C288.135 177.508 288.255 177.754 288.495 177.934C288.735 178.102 289.131 178.234 289.683 178.33L290.853 178.51C291.981 178.714 292.797 179.038 293.301 179.482C293.817 179.926 294.075 180.544 294.075 181.336C294.075 182.272 293.715 182.992 292.995 183.496C292.275 184 291.261 184.252 289.953 184.252ZM300.429 174.496C301.701 174.496 302.715 174.934 303.471 175.81C304.215 176.698 304.587 177.88 304.587 179.356C304.587 180.82 304.215 181.996 303.471 182.884C302.715 183.772 301.701 184.216 300.429 184.216C299.169 184.216 298.209 183.742 297.549 182.794V187.528H295.281V174.712H297.459V176.044C298.131 175.012 299.121 174.496 300.429 174.496ZM298.143 181.57C298.551 182.086 299.133 182.344 299.889 182.344C300.633 182.344 301.221 182.074 301.653 181.534C302.073 181.006 302.283 180.256 302.283 179.284C302.283 178.336 302.073 177.616 301.653 177.124C301.245 176.62 300.657 176.368 299.889 176.368C299.133 176.368 298.545 176.626 298.125 177.142C297.705 177.658 297.495 178.396 297.495 179.356C297.495 180.328 297.711 181.066 298.143 181.57ZM315.04 179.356C315.04 180.82 314.608 181.996 313.744 182.884C312.88 183.772 311.74 184.216 310.324 184.216C308.908 184.216 307.768 183.772 306.904 182.884C306.028 182.008 305.59 180.832 305.59 179.356C305.59 177.88 306.028 176.704 306.904 175.828C307.768 174.94 308.908 174.496 310.324 174.496C311.74 174.496 312.88 174.934 313.744 175.81C314.608 176.686 315.04 177.868 315.04 179.356ZM308.542 181.57C308.974 182.086 309.568 182.344 310.324 182.344C311.08 182.344 311.668 182.086 312.088 181.57C312.52 181.042 312.736 180.304 312.736 179.356C312.736 178.408 312.52 177.676 312.088 177.16C311.668 176.632 311.08 176.368 310.324 176.368C309.568 176.368 308.974 176.626 308.542 177.142C308.122 177.658 307.912 178.396 307.912 179.356C307.912 180.316 308.122 181.054 308.542 181.57ZM320.83 174.712V176.44H318.994V181.462C318.994 181.762 319.072 181.972 319.228 182.092C319.396 182.212 319.672 182.272 320.056 182.272H320.83V184C320.338 184.048 319.942 184.072 319.642 184.072C318.634 184.072 317.896 183.886 317.428 183.514C316.972 183.13 316.744 182.524 316.744 181.696V176.44H315.304V174.712H316.744V172.012H318.994V174.712H320.83ZM54.954 206.356C54.954 207.82 54.522 208.996 53.658 209.884C52.794 210.772 51.654 211.216 50.238 211.216C48.822 211.216 47.682 210.772 46.818 209.884C45.942 209.008 45.504 207.832 45.504 206.356C45.504 204.88 45.942 203.704 46.818 202.828C47.682 201.94 48.822 201.496 50.238 201.496C51.654 201.496 52.794 201.934 53.658 202.81C54.522 203.686 54.954 204.868 54.954 206.356ZM48.456 208.57C48.888 209.086 49.482 209.344 50.238 209.344C50.994 209.344 51.582 209.086 52.002 208.57C52.434 208.042 52.65 207.304 52.65 206.356C52.65 205.408 52.434 204.676 52.002 204.16C51.582 203.632 50.994 203.368 50.238 203.368C49.482 203.368 48.888 203.626 48.456 204.142C48.036 204.658 47.826 205.396 47.826 206.356C47.826 207.316 48.036 208.054 48.456 208.57ZM61.525 201.496C62.797 201.496 63.811 201.934 64.567 202.81C65.311 203.698 65.683 204.88 65.683 206.356C65.683 207.82 65.311 208.996 64.567 209.884C63.811 210.772 62.797 211.216 61.525 211.216C60.265 211.216 59.305 210.742 58.645 209.794V214.528H56.377V201.712H58.555V203.044C59.227 202.012 60.217 201.496 61.525 201.496ZM59.239 208.57C59.647 209.086 60.229 209.344 60.985 209.344C61.729 209.344 62.317 209.074 62.749 208.534C63.169 208.006 63.379 207.256 63.379 206.284C63.379 205.336 63.169 204.616 62.749 204.124C62.341 203.62 61.753 203.368 60.985 203.368C60.229 203.368 59.641 203.626 59.221 204.142C58.801 204.658 58.591 205.396 58.591 206.356C58.591 207.328 58.807 208.066 59.239 208.57ZM72.2476 201.496C73.5196 201.496 74.5336 201.934 75.2896 202.81C76.0336 203.698 76.4056 204.88 76.4056 206.356C76.4056 207.82 76.0336 208.996 75.2896 209.884C74.5336 210.772 73.5196 211.216 72.2476 211.216C70.9876 211.216 70.0276 210.742 69.3676 209.794V214.528H67.0996V201.712H69.2776V203.044C69.9496 202.012 70.9396 201.496 72.2476 201.496ZM69.9616 208.57C70.3696 209.086 70.9516 209.344 71.7076 209.344C72.4516 209.344 73.0396 209.074 73.4716 208.534C73.8916 208.006 74.1016 207.256 74.1016 206.284C74.1016 205.336 73.8916 204.616 73.4716 204.124C73.0636 203.62 72.4756 203.368 71.7076 203.368C70.9516 203.368 70.3636 203.626 69.9436 204.142C69.5236 204.658 69.3136 205.396 69.3136 206.356C69.3136 207.328 69.5296 208.066 69.9616 208.57ZM86.8583 206.356C86.8583 207.82 86.4263 208.996 85.5623 209.884C84.6983 210.772 83.5583 211.216 82.1423 211.216C80.7263 211.216 79.5863 210.772 78.7223 209.884C77.8463 209.008 77.4083 207.832 77.4083 206.356C77.4083 204.88 77.8463 203.704 78.7223 202.828C79.5863 201.94 80.7263 201.496 82.1423 201.496C83.5583 201.496 84.6983 201.934 85.5623 202.81C86.4263 203.686 86.8583 204.868 86.8583 206.356ZM80.3603 208.57C80.7923 209.086 81.3863 209.344 82.1423 209.344C82.8983 209.344 83.4863 209.086 83.9063 208.57C84.3383 208.042 84.5543 207.304 84.5543 206.356C84.5543 205.408 84.3383 204.676 83.9063 204.16C83.4863 203.632 82.8983 203.368 82.1423 203.368C81.3863 203.368 80.7923 203.626 80.3603 204.142C79.9403 204.658 79.7303 205.396 79.7303 206.356C79.7303 207.316 79.9403 208.054 80.3603 208.57ZM93.2493 201.568C93.4533 201.568 93.6393 201.58 93.8073 201.604V203.692H93.2313C92.3673 203.692 91.7013 203.914 91.2333 204.358C90.7773 204.79 90.5493 205.432 90.5493 206.284V211H88.2813V201.712H90.4773V203.368C90.9933 202.168 91.9173 201.568 93.2493 201.568ZM99.9612 201.712V203.44H98.1252V208.462C98.1252 208.762 98.2032 208.972 98.3592 209.092C98.5272 209.212 98.8032 209.272 99.1872 209.272H99.9612V211C99.4692 211.048 99.0732 211.072 98.7732 211.072C97.7652 211.072 97.0272 210.886 96.5592 210.514C96.1032 210.13 95.8752 209.524 95.8752 208.696V203.44H94.4352V201.712H95.8752V199.012H98.1252V201.712H99.9612ZM107.373 206.914V201.712H109.641V211H107.445V209.65C106.737 210.694 105.765 211.216 104.529 211.216C103.533 211.216 102.741 210.928 102.153 210.352C101.577 209.764 101.289 208.936 101.289 207.868V201.712H103.557V207.49C103.557 208.666 104.139 209.254 105.303 209.254C105.879 209.254 106.365 209.05 106.761 208.642C107.169 208.222 107.373 207.646 107.373 206.914ZM116.578 201.496C117.586 201.496 118.378 201.79 118.954 202.378C119.542 202.954 119.836 203.776 119.836 204.844V211H117.568V205.222C117.568 204.046 116.986 203.458 115.822 203.458C115.246 203.458 114.754 203.668 114.346 204.088C113.95 204.496 113.752 205.066 113.752 205.798V211H111.484V201.712H113.68V203.044C114.388 202.012 115.354 201.496 116.578 201.496ZM123.93 200.506H121.698V198.382H123.93V200.506ZM123.948 211H121.68V201.712H123.948V211ZM130.617 201.712V203.44H128.781V208.462C128.781 208.762 128.859 208.972 129.015 209.092C129.183 209.212 129.459 209.272 129.843 209.272H130.617V211C130.125 211.048 129.729 211.072 129.429 211.072C128.421 211.072 127.683 210.886 127.215 210.514C126.759 210.13 126.531 209.524 126.531 208.696V203.44H125.091V201.712H126.531V199.012H128.781V201.712H130.617ZM134.195 200.506H131.963V198.382H134.195V200.506ZM134.213 211H131.945V201.712H134.213V211ZM144.807 206.518V207.058H137.859C137.943 207.85 138.189 208.45 138.597 208.858C139.017 209.254 139.575 209.452 140.271 209.452C141.303 209.452 142.011 209.008 142.395 208.12H144.573C144.333 209.068 143.829 209.824 143.061 210.388C142.293 210.94 141.357 211.216 140.253 211.216C138.873 211.216 137.757 210.772 136.905 209.884C136.053 208.996 135.627 207.82 135.627 206.356C135.627 204.892 136.047 203.716 136.887 202.828C137.739 201.94 138.849 201.496 140.217 201.496C141.621 201.496 142.737 201.958 143.565 202.882C144.393 203.806 144.807 205.018 144.807 206.518ZM140.199 203.26C138.867 203.26 138.093 203.998 137.877 205.474H142.539C142.443 204.79 142.191 204.25 141.783 203.854C141.375 203.458 140.847 203.26 140.199 203.26ZM149.908 211.252C147.196 211.252 145.78 210.184 145.66 208.048H147.874C147.934 208.624 148.12 209.032 148.432 209.272C148.756 209.512 149.26 209.632 149.944 209.632C151.168 209.632 151.78 209.26 151.78 208.516C151.78 208.18 151.648 207.922 151.384 207.742C151.12 207.562 150.646 207.412 149.962 207.292L148.9 207.112C146.872 206.776 145.858 205.84 145.858 204.304C145.858 203.428 146.194 202.744 146.866 202.252C147.538 201.748 148.486 201.496 149.71 201.496C152.362 201.496 153.73 202.546 153.814 204.646H151.672C151.648 204.094 151.474 203.704 151.15 203.476C150.826 203.236 150.346 203.116 149.71 203.116C148.63 203.116 148.09 203.476 148.09 204.196C148.09 204.508 148.21 204.754 148.45 204.934C148.69 205.102 149.086 205.234 149.638 205.33L150.808 205.51C151.936 205.714 152.752 206.038 153.256 206.482C153.772 206.926 154.03 207.544 154.03 208.336C154.03 209.272 153.67 209.992 152.95 210.496C152.23 211 151.216 211.252 149.908 211.252ZM155.002 211V208.426H157.648V211.198C157.648 212.89 156.874 213.766 155.326 213.826H155.002V212.53L155.308 212.512C155.86 212.476 156.136 212.074 156.136 211.306V211H155.002ZM166.783 211.252C164.071 211.252 162.655 210.184 162.535 208.048H164.749C164.809 208.624 164.995 209.032 165.307 209.272C165.631 209.512 166.135 209.632 166.819 209.632C168.043 209.632 168.655 209.26 168.655 208.516C168.655 208.18 168.523 207.922 168.259 207.742C167.995 207.562 167.521 207.412 166.837 207.292L165.775 207.112C163.747 206.776 162.733 205.84 162.733 204.304C162.733 203.428 163.069 202.744 163.741 202.252C164.413 201.748 165.361 201.496 166.585 201.496C169.237 201.496 170.605 202.546 170.689 204.646H168.547C168.523 204.094 168.349 203.704 168.025 203.476C167.701 203.236 167.221 203.116 166.585 203.116C165.505 203.116 164.965 203.476 164.965 204.196C164.965 204.508 165.085 204.754 165.325 204.934C165.565 205.102 165.961 205.234 166.513 205.33L167.683 205.51C168.811 205.714 169.627 206.038 170.131 206.482C170.647 206.926 170.905 207.544 170.905 208.336C170.905 209.272 170.545 209.992 169.825 210.496C169.105 211 168.091 211.252 166.783 211.252ZM176.813 201.712V203.44H174.977V208.462C174.977 208.762 175.055 208.972 175.211 209.092C175.379 209.212 175.655 209.272 176.039 209.272H176.813V211C176.321 211.048 175.925 211.072 175.625 211.072C174.617 211.072 173.879 210.886 173.411 210.514C172.955 210.13 172.727 209.524 172.727 208.696V203.44H171.287V201.712H172.727V199.012H174.977V201.712H176.813ZM184.225 206.914V201.712H186.493V211H184.297V209.65C183.589 210.694 182.617 211.216 181.381 211.216C180.385 211.216 179.593 210.928 179.005 210.352C178.429 209.764 178.141 208.936 178.141 207.868V201.712H180.409V207.49C180.409 208.666 180.991 209.254 182.155 209.254C182.731 209.254 183.217 209.05 183.613 208.642C184.021 208.222 184.225 207.646 184.225 206.914ZM194.96 202.918V198.184H197.228V211H195.032V209.704C194.348 210.712 193.37 211.216 192.098 211.216C190.814 211.216 189.8 210.772 189.056 209.884C188.3 208.996 187.922 207.82 187.922 206.356C187.922 204.868 188.3 203.686 189.056 202.81C189.788 201.934 190.802 201.496 192.098 201.496C193.346 201.496 194.3 201.97 194.96 202.918ZM190.244 206.428C190.244 207.388 190.454 208.114 190.874 208.606C191.294 209.098 191.876 209.344 192.62 209.344C193.364 209.344 193.952 209.086 194.384 208.57C194.804 208.054 195.014 207.316 195.014 206.356C195.014 205.396 194.804 204.658 194.384 204.142C193.964 203.626 193.376 203.368 192.62 203.368C191.888 203.368 191.306 203.638 190.874 204.178C190.454 204.718 190.244 205.468 190.244 206.428ZM204.228 204.052L204.984 201.712H207.36L203.778 211.756C203.394 212.812 202.914 213.538 202.338 213.934C201.75 214.342 200.898 214.546 199.782 214.546C199.41 214.546 199.08 214.528 198.792 214.492V212.71H199.656C200.148 212.71 200.526 212.572 200.79 212.296C201.054 212.02 201.186 211.66 201.186 211.216C201.186 210.772 201.042 210.148 200.754 209.344L198.054 201.712H200.502L201.258 204.034C201.786 205.69 202.278 207.418 202.734 209.218C203.094 207.862 203.592 206.14 204.228 204.052ZM217.049 201.712V203.44H215.213V208.462C215.213 208.762 215.291 208.972 215.447 209.092C215.615 209.212 215.891 209.272 216.275 209.272H217.049V211C216.557 211.048 216.161 211.072 215.861 211.072C214.853 211.072 214.115 210.886 213.647 210.514C213.191 210.13 212.963 209.524 212.963 208.696V203.44H211.523V201.712H212.963V199.012H215.213V201.712H217.049ZM223.345 201.568C223.549 201.568 223.735 201.58 223.903 201.604V203.692H223.327C222.463 203.692 221.797 203.914 221.329 204.358C220.873 204.79 220.645 205.432 220.645 206.284V211H218.377V201.712H220.573V203.368C221.089 202.168 222.013 201.568 223.345 201.568ZM233.471 206.518V207.058H226.523C226.607 207.85 226.853 208.45 227.261 208.858C227.681 209.254 228.239 209.452 228.935 209.452C229.967 209.452 230.675 209.008 231.059 208.12H233.237C232.997 209.068 232.493 209.824 231.725 210.388C230.957 210.94 230.021 211.216 228.917 211.216C227.537 211.216 226.421 210.772 225.569 209.884C224.717 208.996 224.291 207.82 224.291 206.356C224.291 204.892 224.711 203.716 225.551 202.828C226.403 201.94 227.513 201.496 228.881 201.496C230.285 201.496 231.401 201.958 232.229 202.882C233.057 203.806 233.471 205.018 233.471 206.518ZM228.863 203.26C227.531 203.26 226.757 203.998 226.541 205.474H231.203C231.107 204.79 230.855 204.25 230.447 203.854C230.039 203.458 229.511 203.26 228.863 203.26ZM240.03 201.496C241.038 201.496 241.83 201.79 242.406 202.378C242.994 202.954 243.288 203.776 243.288 204.844V211H241.02V205.222C241.02 204.046 240.438 203.458 239.274 203.458C238.698 203.458 238.206 203.668 237.798 204.088C237.402 204.496 237.204 205.066 237.204 205.798V211H234.936V201.712H237.132V203.044C237.84 202.012 238.806 201.496 240.03 201.496ZM251.755 202.918V198.184H254.023V211H251.827V209.704C251.143 210.712 250.165 211.216 248.893 211.216C247.609 211.216 246.595 210.772 245.851 209.884C245.095 208.996 244.717 207.82 244.717 206.356C244.717 204.868 245.095 203.686 245.851 202.81C246.583 201.934 247.597 201.496 248.893 201.496C250.141 201.496 251.095 201.97 251.755 202.918ZM247.039 206.428C247.039 207.388 247.249 208.114 247.669 208.606C248.089 209.098 248.671 209.344 249.415 209.344C250.159 209.344 250.747 209.086 251.179 208.57C251.599 208.054 251.809 207.316 251.809 206.356C251.809 205.396 251.599 204.658 251.179 204.142C250.759 203.626 250.171 203.368 249.415 203.368C248.683 203.368 248.101 203.638 247.669 204.178C247.249 204.718 247.039 205.468 247.039 206.428ZM259.508 211.252C256.796 211.252 255.38 210.184 255.26 208.048H257.474C257.534 208.624 257.72 209.032 258.032 209.272C258.356 209.512 258.86 209.632 259.544 209.632C260.768 209.632 261.38 209.26 261.38 208.516C261.38 208.18 261.248 207.922 260.984 207.742C260.72 207.562 260.246 207.412 259.562 207.292L258.5 207.112C256.472 206.776 255.458 205.84 255.458 204.304C255.458 203.428 255.794 202.744 256.466 202.252C257.138 201.748 258.086 201.496 259.31 201.496C261.962 201.496 263.33 202.546 263.414 204.646H261.272C261.248 204.094 261.074 203.704 260.75 203.476C260.426 203.236 259.946 203.116 259.31 203.116C258.23 203.116 257.69 203.476 257.69 204.196C257.69 204.508 257.81 204.754 258.05 204.934C258.29 205.102 258.686 205.234 259.238 205.33L260.408 205.51C261.536 205.714 262.352 206.038 262.856 206.482C263.372 206.926 263.63 207.544 263.63 208.336C263.63 209.272 263.27 209.992 262.55 210.496C261.83 211 260.816 211.252 259.508 211.252ZM264.602 211V208.426H267.248V211.198C267.248 212.89 266.474 213.766 264.926 213.826H264.602V212.53L264.908 212.512C265.46 212.476 265.736 212.074 265.736 211.306V211H264.602ZM281.081 211H278.813C278.705 210.808 278.621 210.43 278.561 209.866C277.937 210.766 276.941 211.216 275.573 211.216C274.553 211.216 273.737 210.97 273.125 210.478C272.525 209.986 272.225 209.302 272.225 208.426C272.225 206.734 273.413 205.768 275.789 205.528L277.193 205.402C277.661 205.342 277.997 205.234 278.201 205.078C278.405 204.91 278.507 204.664 278.507 204.34C278.507 203.944 278.375 203.656 278.111 203.476C277.859 203.284 277.427 203.188 276.815 203.188C276.155 203.188 275.681 203.302 275.393 203.53C275.105 203.746 274.937 204.124 274.889 204.664H272.657C272.789 202.552 274.181 201.496 276.833 201.496C279.413 201.496 280.703 202.426 280.703 204.286V209.236C280.703 210.052 280.829 210.64 281.081 211ZM276.113 209.596C276.821 209.596 277.397 209.404 277.841 209.02C278.285 208.624 278.507 208.06 278.507 207.328V206.482C278.291 206.674 277.937 206.8 277.445 206.86L276.221 207.004C275.621 207.076 275.189 207.22 274.925 207.436C274.673 207.64 274.547 207.94 274.547 208.336C274.547 208.732 274.679 209.044 274.943 209.272C275.219 209.488 275.609 209.596 276.113 209.596ZM287.526 201.496C288.534 201.496 289.326 201.79 289.902 202.378C290.49 202.954 290.784 203.776 290.784 204.844V211H288.516V205.222C288.516 204.046 287.934 203.458 286.77 203.458C286.194 203.458 285.702 203.668 285.294 204.088C284.898 204.496 284.7 205.066 284.7 205.798V211H282.432V201.712H284.628V203.044C285.336 202.012 286.302 201.496 287.526 201.496ZM299.251 202.918V198.184H301.519V211H299.323V209.704C298.639 210.712 297.661 211.216 296.389 211.216C295.105 211.216 294.091 210.772 293.347 209.884C292.591 208.996 292.213 207.82 292.213 206.356C292.213 204.868 292.591 203.686 293.347 202.81C294.079 201.934 295.093 201.496 296.389 201.496C297.637 201.496 298.591 201.97 299.251 202.918ZM294.535 206.428C294.535 207.388 294.745 208.114 295.165 208.606C295.585 209.098 296.167 209.344 296.911 209.344C297.655 209.344 298.243 209.086 298.675 208.57C299.095 208.054 299.305 207.316 299.305 206.356C299.305 205.396 299.095 204.658 298.675 204.142C298.255 203.626 297.667 203.368 296.911 203.368C296.179 203.368 295.597 203.638 295.165 204.178C294.745 204.718 294.535 205.468 294.535 206.428ZM313.318 206.914V201.712H315.586V211H313.39V209.65C312.682 210.694 311.71 211.216 310.474 211.216C309.478 211.216 308.686 210.928 308.098 210.352C307.522 209.764 307.234 208.936 307.234 207.868V201.712H309.502V207.49C309.502 208.666 310.084 209.254 311.248 209.254C311.824 209.254 312.31 209.05 312.706 208.642C313.114 208.222 313.318 207.646 313.318 206.914ZM322.524 201.496C323.532 201.496 324.324 201.79 324.9 202.378C325.488 202.954 325.782 203.776 325.782 204.844V211H323.514V205.222C323.514 204.046 322.932 203.458 321.768 203.458C321.192 203.458 320.7 203.668 320.292 204.088C319.896 204.496 319.698 205.066 319.698 205.798V211H317.43V201.712H319.626V203.044C320.334 202.012 321.3 201.496 322.524 201.496ZM331.801 211.216C330.433 211.216 329.323 210.772 328.471 209.884C327.631 209.008 327.211 207.832 327.211 206.356C327.211 204.868 327.631 203.686 328.471 202.81C329.299 201.934 330.409 201.496 331.801 201.496C333.013 201.496 334.003 201.82 334.771 202.468C335.539 203.104 335.989 203.968 336.121 205.06H333.853C333.745 204.52 333.511 204.106 333.151 203.818C332.791 203.53 332.341 203.386 331.801 203.386C331.093 203.386 330.535 203.644 330.127 204.16C329.731 204.664 329.533 205.396 329.533 206.356C329.533 207.316 329.737 208.054 330.145 208.57C330.553 209.074 331.105 209.326 331.801 209.326C332.353 209.326 332.815 209.176 333.187 208.876C333.571 208.564 333.805 208.12 333.889 207.544H336.157C336.037 208.66 335.581 209.554 334.789 210.226C333.997 210.886 333.001 211.216 331.801 211.216ZM346.47 206.356C346.47 207.82 346.038 208.996 345.174 209.884C344.31 210.772 343.17 211.216 341.754 211.216C340.338 211.216 339.198 210.772 338.334 209.884C337.458 209.008 337.02 207.832 337.02 206.356C337.02 204.88 337.458 203.704 338.334 202.828C339.198 201.94 340.338 201.496 341.754 201.496C343.17 201.496 344.31 201.934 345.174 202.81C346.038 203.686 346.47 204.868 346.47 206.356ZM339.972 208.57C340.404 209.086 340.998 209.344 341.754 209.344C342.51 209.344 343.098 209.086 343.518 208.57C343.95 208.042 344.166 207.304 344.166 206.356C344.166 205.408 343.95 204.676 343.518 204.16C343.098 203.632 342.51 203.368 341.754 203.368C340.998 203.368 340.404 203.626 339.972 204.142C339.552 204.658 339.342 205.396 339.342 206.356C339.342 207.316 339.552 208.054 339.972 208.57ZM352.8 204.196L353.7 201.712H356.058L352.602 211H349.992L346.554 201.712H348.984L349.884 204.214C350.304 205.522 350.79 207.1 351.342 208.948C351.786 207.46 352.272 205.876 352.8 204.196ZM365.325 206.518V207.058H358.377C358.461 207.85 358.707 208.45 359.115 208.858C359.535 209.254 360.093 209.452 360.789 209.452C361.821 209.452 362.529 209.008 362.913 208.12H365.091C364.851 209.068 364.347 209.824 363.579 210.388C362.811 210.94 361.875 211.216 360.771 211.216C359.391 211.216 358.275 210.772 357.423 209.884C356.571 208.996 356.145 207.82 356.145 206.356C356.145 204.892 356.565 203.716 357.405 202.828C358.257 201.94 359.367 201.496 360.735 201.496C362.139 201.496 363.255 201.958 364.083 202.882C364.911 203.806 365.325 205.018 365.325 206.518ZM360.717 203.26C359.385 203.26 358.611 203.998 358.395 205.474H363.057C362.961 204.79 362.709 204.25 362.301 203.854C361.893 203.458 361.365 203.26 360.717 203.26ZM371.757 201.568C371.961 201.568 372.147 201.58 372.315 201.604V203.692H371.739C370.875 203.692 370.209 203.914 369.741 204.358C369.285 204.79 369.057 205.432 369.057 206.284V211H366.789V201.712H368.985V203.368C369.501 202.168 370.425 201.568 371.757 201.568ZM56.34 232.186L57.384 228.712H59.814L56.754 238H54.378L53.208 234.184C52.764 232.624 52.5 231.7 52.416 231.412C52.38 231.544 52.122 232.468 51.642 234.184L50.49 238H48.114L45.054 228.712H47.484L48.528 232.186C48.792 233.014 49.098 234.088 49.446 235.408C49.782 234.076 50.076 232.996 50.328 232.168L51.354 228.712H53.514L54.54 232.168C54.792 232.996 55.086 234.076 55.422 235.408C55.734 234.22 56.04 233.146 56.34 232.186ZM65.7425 228.496C66.7505 228.496 67.5425 228.79 68.1185 229.378C68.7065 229.954 69.0005 230.776 69.0005 231.844V238H66.7325V232.222C66.7325 231.046 66.1505 230.458 64.9865 230.458C64.4105 230.458 63.9185 230.668 63.5105 231.088C63.1145 231.496 62.9165 232.066 62.9165 232.798V238H60.6485V225.184H62.9165V229.954C63.6245 228.982 64.5665 228.496 65.7425 228.496ZM79.1958 238H76.9278C76.8198 237.808 76.7358 237.43 76.6758 236.866C76.0518 237.766 75.0558 238.216 73.6878 238.216C72.6678 238.216 71.8518 237.97 71.2398 237.478C70.6398 236.986 70.3398 236.302 70.3398 235.426C70.3398 233.734 71.5278 232.768 73.9038 232.528L75.3078 232.402C75.7758 232.342 76.1118 232.234 76.3158 232.078C76.5198 231.91 76.6218 231.664 76.6218 231.34C76.6218 230.944 76.4898 230.656 76.2258 230.476C75.9738 230.284 75.5418 230.188 74.9298 230.188C74.2698 230.188 73.7958 230.302 73.5078 230.53C73.2198 230.746 73.0518 231.124 73.0038 231.664H70.7718C70.9038 229.552 72.2958 228.496 74.9478 228.496C77.5278 228.496 78.8178 229.426 78.8178 231.286V236.236C78.8178 237.052 78.9438 237.64 79.1958 238ZM74.2278 236.596C74.9358 236.596 75.5118 236.404 75.9558 236.02C76.3998 235.624 76.6218 235.06 76.6218 234.328V233.482C76.4058 233.674 76.0518 233.8 75.5598 233.86L74.3358 234.004C73.7358 234.076 73.3038 234.22 73.0398 234.436C72.7878 234.64 72.6618 234.94 72.6618 235.336C72.6618 235.732 72.7938 236.044 73.0578 236.272C73.3338 236.488 73.7238 236.596 74.2278 236.596ZM85.1077 228.712V230.44H83.2717V235.462C83.2717 235.762 83.3497 235.972 83.5057 236.092C83.6737 236.212 83.9497 236.272 84.3337 236.272H85.1077V238C84.6157 238.048 84.2197 238.072 83.9197 238.072C82.9117 238.072 82.1737 237.886 81.7057 237.514C81.2497 237.13 81.0217 236.524 81.0217 235.696V230.44H79.5817V228.712H81.0217V226.012H83.2717V228.712H85.1077ZM94.4963 238.216C93.1283 238.216 92.0183 237.772 91.1663 236.884C90.3263 236.008 89.9063 234.832 89.9063 233.356C89.9063 231.868 90.3263 230.686 91.1663 229.81C91.9943 228.934 93.1043 228.496 94.4963 228.496C95.7083 228.496 96.6983 228.82 97.4663 229.468C98.2343 230.104 98.6843 230.968 98.8163 232.06H96.5483C96.4403 231.52 96.2063 231.106 95.8463 230.818C95.4863 230.53 95.0363 230.386 94.4963 230.386C93.7883 230.386 93.2303 230.644 92.8223 231.16C92.4263 231.664 92.2283 232.396 92.2283 233.356C92.2283 234.316 92.4323 235.054 92.8403 235.57C93.2483 236.074 93.8003 236.326 94.4963 236.326C95.0483 236.326 95.5103 236.176 95.8823 235.876C96.2663 235.564 96.5003 235.12 96.5843 234.544H98.8523C98.7323 235.66 98.2763 236.554 97.4843 237.226C96.6923 237.886 95.6963 238.216 94.4963 238.216ZM106.178 233.914V228.712H108.446V238H106.25V236.65C105.542 237.694 104.57 238.216 103.334 238.216C102.338 238.216 101.546 237.928 100.958 237.352C100.382 236.764 100.094 235.936 100.094 234.868V228.712H102.362V234.49C102.362 235.666 102.944 236.254 104.108 236.254C104.684 236.254 105.17 236.05 105.566 235.642C105.974 235.222 106.178 234.646 106.178 233.914ZM113.943 238.252C111.231 238.252 109.815 237.184 109.695 235.048H111.909C111.969 235.624 112.155 236.032 112.467 236.272C112.791 236.512 113.295 236.632 113.979 236.632C115.203 236.632 115.815 236.26 115.815 235.516C115.815 235.18 115.683 234.922 115.419 234.742C115.155 234.562 114.681 234.412 113.997 234.292L112.935 234.112C110.907 233.776 109.893 232.84 109.893 231.304C109.893 230.428 110.229 229.744 110.901 229.252C111.573 228.748 112.521 228.496 113.745 228.496C116.397 228.496 117.765 229.546 117.849 231.646H115.707C115.683 231.094 115.509 230.704 115.185 230.476C114.861 230.236 114.381 230.116 113.745 230.116C112.665 230.116 112.125 230.476 112.125 231.196C112.125 231.508 112.245 231.754 112.485 231.934C112.725 232.102 113.121 232.234 113.673 232.33L114.843 232.51C115.971 232.714 116.787 233.038 117.291 233.482C117.807 233.926 118.065 234.544 118.065 235.336C118.065 236.272 117.705 236.992 116.985 237.496C116.265 238 115.251 238.252 113.943 238.252ZM123.973 228.712V230.44H122.137V235.462C122.137 235.762 122.215 235.972 122.371 236.092C122.539 236.212 122.815 236.272 123.199 236.272H123.973V238C123.481 238.048 123.085 238.072 122.785 238.072C121.777 238.072 121.039 237.886 120.571 237.514C120.115 237.13 119.887 236.524 119.887 235.696V230.44H118.447V228.712H119.887V226.012H122.137V228.712H123.973ZM134.161 233.356C134.161 234.82 133.729 235.996 132.865 236.884C132.001 237.772 130.861 238.216 129.445 238.216C128.029 238.216 126.889 237.772 126.025 236.884C125.149 236.008 124.711 234.832 124.711 233.356C124.711 231.88 125.149 230.704 126.025 229.828C126.889 228.94 128.029 228.496 129.445 228.496C130.861 228.496 132.001 228.934 132.865 229.81C133.729 230.686 134.161 231.868 134.161 233.356ZM127.663 235.57C128.095 236.086 128.689 236.344 129.445 236.344C130.201 236.344 130.789 236.086 131.209 235.57C131.641 235.042 131.857 234.304 131.857 233.356C131.857 232.408 131.641 231.676 131.209 231.16C130.789 230.632 130.201 230.368 129.445 230.368C128.689 230.368 128.095 230.626 127.663 231.142C127.243 231.658 127.033 232.396 127.033 233.356C127.033 234.316 127.243 235.054 127.663 235.57ZM146.186 228.496C147.206 228.496 147.998 228.796 148.562 229.396C149.138 229.996 149.426 230.818 149.426 231.862V238H147.158V232.222C147.158 231.046 146.624 230.458 145.556 230.458C144.98 230.458 144.512 230.668 144.152 231.088C143.804 231.496 143.63 232.096 143.63 232.888V238H141.38V232.222C141.38 231.046 140.84 230.458 139.76 230.458C139.196 230.458 138.734 230.668 138.374 231.088C138.026 231.496 137.852 232.096 137.852 232.888V238H135.584V228.712H137.78V230.044C138.416 229.012 139.298 228.496 140.426 228.496C141.842 228.496 142.802 229.072 143.306 230.224C144.002 229.072 144.962 228.496 146.186 228.496ZM160.03 233.518V234.058H153.082C153.166 234.85 153.412 235.45 153.82 235.858C154.24 236.254 154.798 236.452 155.494 236.452C156.526 236.452 157.234 236.008 157.618 235.12H159.796C159.556 236.068 159.052 236.824 158.284 237.388C157.516 237.94 156.58 238.216 155.476 238.216C154.096 238.216 152.98 237.772 152.128 236.884C151.276 235.996 150.85 234.82 150.85 233.356C150.85 231.892 151.27 230.716 152.11 229.828C152.962 228.94 154.072 228.496 155.44 228.496C156.844 228.496 157.96 228.958 158.788 229.882C159.616 230.806 160.03 232.018 160.03 233.518ZM155.422 230.26C154.09 230.26 153.316 230.998 153.1 232.474H157.762C157.666 231.79 157.414 231.25 157.006 230.854C156.598 230.458 156.07 230.26 155.422 230.26ZM166.462 228.568C166.666 228.568 166.852 228.58 167.02 228.604V230.692H166.444C165.58 230.692 164.914 230.914 164.446 231.358C163.99 231.79 163.762 232.432 163.762 233.284V238H161.494V228.712H163.69V230.368C164.206 229.168 165.13 228.568 166.462 228.568ZM171.705 238.252C168.993 238.252 167.577 237.184 167.457 235.048H169.671C169.731 235.624 169.917 236.032 170.229 236.272C170.553 236.512 171.057 236.632 171.741 236.632C172.965 236.632 173.577 236.26 173.577 235.516C173.577 235.18 173.445 234.922 173.181 234.742C172.917 234.562 172.443 234.412 171.759 234.292L170.697 234.112C168.669 233.776 167.655 232.84 167.655 231.304C167.655 230.428 167.991 229.744 168.663 229.252C169.335 228.748 170.283 228.496 171.507 228.496C174.159 228.496 175.527 229.546 175.611 231.646H173.469C173.445 231.094 173.271 230.704 172.947 230.476C172.623 230.236 172.143 230.116 171.507 230.116C170.427 230.116 169.887 230.476 169.887 231.196C169.887 231.508 170.007 231.754 170.247 231.934C170.487 232.102 170.883 232.234 171.435 232.33L172.605 232.51C173.733 232.714 174.549 233.038 175.053 233.482C175.569 233.926 175.827 234.544 175.827 235.336C175.827 236.272 175.467 236.992 174.747 237.496C174.027 238 173.013 238.252 171.705 238.252ZM185.76 228.712V230.44H183.924V235.462C183.924 235.762 184.002 235.972 184.158 236.092C184.326 236.212 184.602 236.272 184.986 236.272H185.76V238C185.268 238.048 184.872 238.072 184.572 238.072C183.564 238.072 182.826 237.886 182.358 237.514C181.902 237.13 181.674 236.524 181.674 235.696V230.44H180.234V228.712H181.674V226.012H183.924V228.712H185.76ZM192.056 228.568C192.26 228.568 192.446 228.58 192.614 228.604V230.692H192.038C191.174 230.692 190.508 230.914 190.04 231.358C189.584 231.79 189.356 232.432 189.356 233.284V238H187.088V228.712H189.284V230.368C189.8 229.168 190.724 228.568 192.056 228.568ZM199.834 233.914V228.712H202.102V238H199.906V236.65C199.198 237.694 198.226 238.216 196.99 238.216C195.994 238.216 195.202 237.928 194.614 237.352C194.038 236.764 193.75 235.936 193.75 234.868V228.712H196.018V234.49C196.018 235.666 196.6 236.254 197.764 236.254C198.34 236.254 198.826 236.05 199.222 235.642C199.63 235.222 199.834 234.646 199.834 233.914ZM206.213 238H203.945V225.184H206.213V238ZM213.21 231.052L213.966 228.712H216.342L212.76 238.756C212.376 239.812 211.896 240.538 211.32 240.934C210.732 241.342 209.88 241.546 208.764 241.546C208.392 241.546 208.062 241.528 207.774 241.492V239.71H208.638C209.13 239.71 209.508 239.572 209.772 239.296C210.036 239.02 210.168 238.66 210.168 238.216C210.168 237.772 210.024 237.148 209.736 236.344L207.036 228.712H209.484L210.24 231.034C210.768 232.69 211.26 234.418 211.716 236.218C212.076 234.862 212.574 233.14 213.21 231.052ZM231.611 232.186L232.655 228.712H235.085L232.025 238H229.649L228.479 234.184C228.035 232.624 227.771 231.7 227.687 231.412C227.651 231.544 227.393 232.468 226.913 234.184L225.761 238H223.385L220.325 228.712H222.755L223.799 232.186C224.063 233.014 224.369 234.088 224.717 235.408C225.053 234.076 225.347 232.996 225.599 232.168L226.625 228.712H228.785L229.811 232.168C230.063 232.996 230.357 234.076 230.693 235.408C231.005 234.22 231.311 233.146 231.611 232.186ZM243.956 238H241.688C241.58 237.808 241.496 237.43 241.436 236.866C240.812 237.766 239.816 238.216 238.448 238.216C237.428 238.216 236.612 237.97 236 237.478C235.4 236.986 235.1 236.302 235.1 235.426C235.1 233.734 236.288 232.768 238.664 232.528L240.068 232.402C240.536 232.342 240.872 232.234 241.076 232.078C241.28 231.91 241.382 231.664 241.382 231.34C241.382 230.944 241.25 230.656 240.986 230.476C240.734 230.284 240.302 230.188 239.69 230.188C239.03 230.188 238.556 230.302 238.268 230.53C237.98 230.746 237.812 231.124 237.764 231.664H235.532C235.664 229.552 237.056 228.496 239.708 228.496C242.288 228.496 243.578 229.426 243.578 231.286V236.236C243.578 237.052 243.704 237.64 243.956 238ZM238.988 236.596C239.696 236.596 240.272 236.404 240.716 236.02C241.16 235.624 241.382 235.06 241.382 234.328V233.482C241.166 233.674 240.812 233.8 240.32 233.86L239.096 234.004C238.496 234.076 238.064 234.22 237.8 234.436C237.548 234.64 237.422 234.94 237.422 235.336C237.422 235.732 237.554 236.044 237.818 236.272C238.094 236.488 238.484 236.596 238.988 236.596ZM250.401 228.496C251.409 228.496 252.201 228.79 252.777 229.378C253.365 229.954 253.659 230.776 253.659 231.844V238H251.391V232.222C251.391 231.046 250.809 230.458 249.645 230.458C249.069 230.458 248.577 230.668 248.169 231.088C247.773 231.496 247.575 232.066 247.575 232.798V238H245.307V228.712H247.503V230.044C248.211 229.012 249.177 228.496 250.401 228.496ZM260.028 228.712V230.44H258.192V235.462C258.192 235.762 258.27 235.972 258.426 236.092C258.594 236.212 258.87 236.272 259.254 236.272H260.028V238C259.536 238.048 259.14 238.072 258.84 238.072C257.832 238.072 257.094 237.886 256.626 237.514C256.17 237.13 255.942 236.524 255.942 235.696V230.44H254.502V228.712H255.942V226.012H258.192V228.712H260.028ZM263.768 238H261.122V235.426H263.768V238Z" fill="white"/>
</g>
<defs>
<filter id="filter0_di_6_2492" x="0.6" y="0.255943" width="424.8" height="293.8" filterUnits="userSpaceOnUse" color-interpolation-filters="sRGB">
<feFlood flood-opacity="0" result="BackgroundImageFix"/>
<feColorMatrix in="SourceAlpha" type="matrix" values="0 0 0 0 0 0 0 0 0 0 0 0 0 0 0 0 0 0 127 0" result="hardAlpha"/>
<feOffset dy="4.65594"/>
<feGaussianBlur stdDeviation="10.2"/>
<feComposite in2="hardAlpha" operator="out"/>
<feColorMatrix type="matrix" values="0 0 0 0 0 0 0 0 0 0 0 0 0 0 0 0 0 0 0.06 0"/>
<feBlend mode="normal" in2="BackgroundImageFix" result="effect1_dropShadow_6_2492"/>
<feBlend mode="normal" in="SourceGraphic" in2="effect1_dropShadow_6_2492" result="shape"/>
<feColorMatrix in="SourceAlpha" type="matrix" values="0 0 0 0 0 0 0 0 0 0 0 0 0 0 0 0 0 0 127 0" result="hardAlpha"/>
<feOffset dx="-3" dy="-6"/>
<feGaussianBlur stdDeviation="12.35"/>
<feComposite in2="hardAlpha" operator="arithmetic" k2="-1" k3="1"/>
<feColorMatrix type="matrix" values="0 0 0 0 1 0 0 0 0 1 0 0 0 0 1 0 0 0 0.15 0"/>
<feBlend mode="normal" in2="shape" result="effect2_innerShadow_6_2492"/>
</filter>
</defs>
</svg>
