<svg width="369" height="70" viewBox="0 0 369 70" fill="none" xmlns="http://www.w3.org/2000/svg">
<rect width="369" height="70" rx="35" fill="#FABB14"/>
<path d="M36.698 42.288C35.378 42.288 34.34 41.928 33.584 41.208C32.84 40.476 32.468 39.492 32.468 38.256V37.428H34.79V38.256C34.79 38.868 34.958 39.348 35.294 39.696C35.63 40.032 36.092 40.2 36.68 40.2C37.28 40.2 37.748 40.032 38.084 39.696C38.42 39.36 38.588 38.88 38.588 38.256V29.184H41V38.256C41 39.468 40.616 40.446 39.848 41.19C39.092 41.922 38.042 42.288 36.698 42.288ZM53.9749 40.452C52.7989 41.676 51.2509 42.288 49.3309 42.288C47.4109 42.288 45.8629 41.676 44.6869 40.452C43.5109 39.216 42.9229 37.596 42.9229 35.592C42.9229 33.588 43.5109 31.968 44.6869 30.732C45.8629 29.508 47.4109 28.896 49.3309 28.896C51.2509 28.896 52.7989 29.508 53.9749 30.732C55.1389 31.944 55.7209 33.564 55.7209 35.592C55.7209 37.62 55.1389 39.24 53.9749 40.452ZM45.4609 35.592C45.4609 36.996 45.8149 38.106 46.5229 38.922C47.2309 39.738 48.1669 40.146 49.3309 40.146C50.5069 40.146 51.4489 39.738 52.1569 38.922C52.8529 38.118 53.2009 37.008 53.2009 35.592C53.2009 34.176 52.8529 33.066 52.1569 32.262C51.4489 31.446 50.5069 31.038 49.3309 31.038C48.1669 31.038 47.2309 31.446 46.5229 32.262C45.8149 33.078 45.4609 34.188 45.4609 35.592ZM60.2493 42H57.8193V29.184H60.2493V42ZM71.3725 32.532V29.184H73.7125V42H71.0125L67.4485 36.294C66.4765 34.77 65.7145 33.486 65.1625 32.442C65.2105 33.786 65.2345 35.856 65.2345 38.652V42H62.8945V29.184H65.5945L69.1765 34.89C70.2445 36.618 71.0005 37.902 71.4445 38.742C71.3965 36.954 71.3725 34.884 71.3725 32.532ZM80.0232 29.184H90.6792V31.362H86.5752V42H84.1272V31.362H80.0232V29.184ZM100.834 34.332V29.184H103.264V42H100.834V36.528H94.8761V42H92.4461V29.184H94.8761V34.332H100.834ZM115.338 29.184V31.362H108.318V34.386H114.672V36.474H108.318V39.822H115.302V42H105.888V29.184H115.338ZM124.18 39.948H130.786V42H121.462L121.516 41.046C121.564 40.062 121.768 39.18 122.128 38.4C122.572 37.428 123.49 36.624 124.882 35.988L126.142 35.34C126.886 34.98 127.414 34.614 127.726 34.242C128.038 33.87 128.194 33.408 128.194 32.856C128.194 32.268 128.008 31.806 127.636 31.47C127.264 31.122 126.748 30.948 126.088 30.948C124.612 30.948 123.874 31.728 123.874 33.288H121.534C121.522 31.908 121.912 30.834 122.704 30.066C123.508 29.286 124.66 28.896 126.16 28.896C127.54 28.896 128.632 29.244 129.436 29.94C130.24 30.636 130.642 31.548 130.642 32.676C130.642 33.648 130.372 34.476 129.832 35.16C129.292 35.832 128.434 36.462 127.258 37.05L126.07 37.68C125.398 38.04 124.924 38.382 124.648 38.706C124.384 39.018 124.228 39.432 124.18 39.948ZM140.145 35.196C141.633 35.772 142.377 36.828 142.377 38.364C142.377 39.564 141.927 40.512 141.027 41.208C140.115 41.928 138.891 42.288 137.355 42.288C135.819 42.288 134.601 41.928 133.701 41.208C132.801 40.512 132.351 39.564 132.351 38.364C132.351 36.852 133.089 35.796 134.565 35.196C133.437 34.608 132.873 33.69 132.873 32.442C132.873 31.35 133.287 30.486 134.115 29.85C134.955 29.214 136.035 28.896 137.355 28.896C138.675 28.896 139.755 29.214 140.595 29.85C141.423 30.486 141.837 31.35 141.837 32.442C141.837 33.69 141.273 34.608 140.145 35.196ZM139.623 32.586C139.623 31.998 139.419 31.542 139.011 31.218C138.603 30.894 138.051 30.732 137.355 30.732C136.683 30.732 136.137 30.894 135.717 31.218C135.297 31.542 135.087 31.998 135.087 32.586C135.087 33.15 135.291 33.594 135.699 33.918C136.107 34.242 136.659 34.404 137.355 34.404C138.051 34.404 138.603 34.242 139.011 33.918C139.419 33.594 139.623 33.15 139.623 32.586ZM137.355 40.344C138.183 40.344 138.819 40.158 139.263 39.786C139.719 39.414 139.947 38.892 139.947 38.22C139.947 37.536 139.719 37.008 139.263 36.636C138.807 36.264 138.171 36.078 137.355 36.078C136.539 36.078 135.903 36.264 135.447 36.636C134.991 37.008 134.763 37.536 134.763 38.22C134.763 38.892 134.991 39.414 135.447 39.786C135.903 40.158 136.539 40.344 137.355 40.344ZM149.331 37.914H143.985V35.97H149.331V37.914ZM151.532 29.184H156.428C158.48 29.184 160.064 29.754 161.18 30.894C162.296 32.046 162.854 33.612 162.854 35.592C162.854 37.572 162.296 39.132 161.18 40.272C160.064 41.424 158.48 42 156.428 42H151.532V29.184ZM153.962 39.912H156.392C157.652 39.912 158.624 39.546 159.308 38.814C159.992 38.07 160.334 36.996 160.334 35.592C160.334 34.188 159.992 33.12 159.308 32.388C158.624 31.644 157.652 31.272 156.392 31.272H153.962V39.912ZM175.797 42H173.223L172.215 39.174H166.599L165.609 42H163.107L167.985 29.184H170.829L175.797 42ZM167.823 35.718L167.337 37.104H171.477L170.973 35.718C170.553 34.65 170.025 33.186 169.389 31.326C168.885 32.814 168.363 34.278 167.823 35.718ZM182.185 31.488L183.589 29.184H186.271L181.465 36.942V42H179.035V36.942L174.193 29.184H176.947L178.369 31.506C179.521 33.426 180.163 34.506 180.295 34.746C180.619 34.17 181.249 33.084 182.185 31.488ZM198.051 42.288C196.203 42.288 194.709 41.682 193.569 40.47C192.417 39.258 191.841 37.632 191.841 35.592C191.841 33.54 192.411 31.908 193.551 30.696C194.679 29.496 196.179 28.896 198.051 28.896C199.551 28.896 200.829 29.298 201.885 30.102C202.941 30.906 203.601 32.07 203.865 33.594H201.399C201.183 32.754 200.781 32.118 200.193 31.686C199.617 31.242 198.903 31.02 198.051 31.02C196.911 31.02 196.011 31.428 195.351 32.244C194.703 33.048 194.379 34.164 194.379 35.592C194.379 37.032 194.703 38.154 195.351 38.958C195.999 39.762 196.899 40.164 198.051 40.164C198.939 40.164 199.701 39.9 200.337 39.372C200.973 38.844 201.357 38.112 201.489 37.176H203.919C203.763 38.808 203.127 40.068 202.011 40.956C200.907 41.844 199.587 42.288 198.051 42.288ZM214.352 34.332V29.184H216.782V42H214.352V36.528H208.394V42H205.964V29.184H208.394V34.332H214.352ZM230.932 42H228.358L227.35 39.174H221.734L220.744 42H218.242L223.12 29.184H225.964L230.932 42ZM222.958 35.718L222.472 37.104H226.612L226.108 35.718C225.688 34.65 225.16 33.186 224.524 31.326C224.02 32.814 223.498 34.278 222.958 35.718ZM234.839 29.184V39.822H240.941V42H232.409V29.184H234.839ZM245.241 29.184V39.822H251.343V42H242.811V29.184H245.241ZM262.662 29.184V31.362H255.642V34.386H261.996V36.474H255.642V39.822H262.626V42H253.212V29.184H262.662ZM273.181 32.532V29.184H275.521V42H272.821L269.257 36.294C268.285 34.77 267.523 33.486 266.971 32.442C267.019 33.786 267.043 35.856 267.043 38.652V42H264.703V29.184H267.403L270.985 34.89C272.053 36.618 272.809 37.902 273.253 38.742C273.205 36.954 273.181 34.884 273.181 32.532ZM284.301 37.05V35.088H290.025V42H288.261L287.919 40.308C286.995 41.628 285.603 42.288 283.743 42.288C281.895 42.288 280.413 41.676 279.297 40.452C278.181 39.228 277.623 37.608 277.623 35.592C277.623 33.576 278.193 31.95 279.333 30.714C280.473 29.502 282.015 28.896 283.959 28.896C285.567 28.896 286.905 29.304 287.973 30.12C289.029 30.936 289.665 32.046 289.881 33.45H287.379C287.199 32.694 286.803 32.1 286.191 31.668C285.591 31.236 284.853 31.02 283.977 31.02C282.801 31.02 281.871 31.428 281.187 32.244C280.503 33.06 280.161 34.176 280.161 35.592C280.161 37.008 280.509 38.124 281.205 38.94C281.901 39.756 282.855 40.164 284.067 40.164C285.027 40.164 285.849 39.876 286.533 39.3C287.217 38.724 287.589 37.974 287.649 37.05H284.301ZM301.917 29.184V31.362H294.897V34.386H301.251V36.474H294.897V39.822H301.881V42H292.467V29.184H301.917Z" fill="black"/>
<path d="M334.667 37.667L323 49.3337M334.667 37.667H323M334.667 37.667V49.3337" stroke="#090909" stroke-width="2.38"/>
</svg>
