<svg width="267" height="70" viewBox="0 0 267 70" fill="none" xmlns="http://www.w3.org/2000/svg">
<rect width="267" height="70" rx="35" fill="white"/>
<g clip-path="url(#clip0_6_2523)">
<path d="M35.5 7.5C20.3114 7.5 8 19.8114 8 35C8 50.1869 20.3114 62.5 35.5 62.5C50.6886 62.5 63 50.1869 63 35C63 19.8114 50.6886 7.5 35.5 7.5Z" fill="#231F20"/>
<path d="M23.1761 42.5871C26.2898 45.2907 29.7007 47.8037 34.2875 47.805L34.5592 47.8012C37.4774 47.7339 40.7778 46.7485 43.3404 45.1395L43.3556 45.1294C43.6909 44.9275 44.0274 44.7002 44.3423 44.4462C44.4412 44.3773 44.5227 44.2864 44.5804 44.1806C44.6381 44.0748 44.6705 43.9571 44.675 43.8367C44.6674 43.4138 44.3093 43.1293 43.9233 43.1293C43.7969 43.1289 43.6722 43.1576 43.5588 43.2132C43.428 43.2652 43.2921 43.3249 43.1664 43.3795L42.9785 43.4582L42.7372 43.556V43.5573C40.1022 44.6253 37.3339 45.2526 34.7726 45.3097C34.6786 45.3122 34.5846 45.3123 34.4906 45.3123C30.4626 45.3135 27.1749 43.4443 23.8605 41.603C23.7529 41.5442 23.6327 41.5124 23.5101 41.5103C23.3589 41.5103 23.2078 41.5661 23.0961 41.6703C22.9843 41.7744 22.9183 41.9268 22.9196 42.0817C22.9196 42.2849 23.0262 42.469 23.1761 42.5871Z" fill="#F8981D"/>
<g clip-path="url(#clip1_6_2523)">
<path d="M47.4751 41.6372C47.4771 41.4211 47.4177 41.2088 47.3037 41.0251L47.2935 41.0086L47.2808 40.9921C47.1716 40.8727 47.0675 40.8296 46.9544 40.7788C46.6192 40.6492 46.129 40.5807 45.5411 40.5794C45.0836 40.5787 44.6273 40.6264 44.1798 40.7216L44.1785 40.6912L43.7074 40.8473L43.6998 40.8524L43.4331 40.9388V40.9502C43.128 41.0772 42.8387 41.2392 42.5708 41.4328C42.4058 41.5572 42.2686 41.7197 42.261 41.9686C42.2572 42.1045 42.327 42.262 42.4413 42.3547C42.5028 42.4039 42.5738 42.4398 42.6499 42.4601C42.7259 42.4804 42.8054 42.4847 42.8832 42.4728L42.9035 42.4715L42.9226 42.4677C43.1524 42.4182 43.4902 42.3864 43.8839 42.3306C44.2217 42.2937 44.5798 42.2645 44.8896 42.2645C45.1093 42.2645 45.3074 42.2798 45.4433 42.309C45.4941 42.3187 45.5435 42.3345 45.5906 42.356C45.6008 42.3598 45.6084 42.3623 45.6109 42.3661C45.6217 42.4106 45.6259 42.4563 45.6236 42.502C45.6287 42.761 45.5169 43.2449 45.3671 43.7147C45.2198 44.1858 45.0395 44.6582 44.9214 44.9719C44.8913 45.0479 44.8762 45.1289 44.8769 45.2106C44.8759 45.2815 44.8893 45.3518 44.9163 45.4174C44.9434 45.4829 44.9836 45.5421 45.0344 45.5916C45.132 45.6826 45.2603 45.7334 45.3938 45.7338H45.3988C45.5635 45.728 45.7216 45.6677 45.8484 45.5624C47.0471 44.483 47.4637 42.761 47.4814 41.7934L47.4751 41.6372ZM36.5136 30.0776C35.8088 30.1309 34.9948 30.1842 34.1821 30.2922C32.9351 30.4573 31.6893 30.6731 30.6594 31.162C28.6543 31.9748 27.2981 33.7094 27.2981 36.258C27.2981 39.4581 29.3578 41.0848 31.9611 41.0848C32.7098 41.0873 33.4559 40.9965 34.1821 40.8143C35.2132 40.488 36.078 39.8924 37.1104 38.8067C37.706 39.6194 37.8685 40.0003 38.8984 40.8677C39.1689 40.9743 39.4406 40.9743 39.6565 40.8156C40.4631 40.1423 41.2578 39.4548 42.04 38.7533C42.3131 38.5374 42.2572 38.2111 42.0934 37.9419C41.4991 37.1825 40.9022 36.5311 40.9022 35.0656V30.1855C40.9022 28.1245 41.0648 26.226 39.5485 24.8178C38.3028 23.68 36.351 23.2444 34.8335 23.2444H34.1833C31.4201 23.4057 28.493 24.5993 27.8416 28.0166C27.7324 28.4509 28.06 28.6121 28.2759 28.6655L31.3096 29.0452C31.636 28.9906 31.7998 28.7188 31.8519 28.4496C32.1236 27.2559 33.0989 26.6591 34.1833 26.5511H34.4018C35.0519 26.5511 35.7554 26.8229 36.1351 27.3651C36.5682 28.0166 36.5161 28.8826 36.5161 29.6433L36.5136 30.0776ZM35.918 36.5285C35.5383 37.2854 34.8881 37.773 34.1833 37.9393C34.0741 37.9393 33.9129 37.9914 33.749 37.9914C32.5579 37.9914 31.8531 37.0682 31.8531 35.7145C31.8531 33.9773 32.8843 33.1646 34.1846 32.7849C34.8894 32.6237 35.7021 32.5665 36.5161 32.5665V33.218C36.5136 34.4688 36.5669 35.444 35.918 36.5285Z" fill="white"/>
</g>
<g clip-path="url(#clip2_6_2523)">
<path d="M48.7539 40.6689C48.7558 40.4671 48.7003 40.269 48.5939 40.0976L48.5844 40.0822L48.5726 40.0667C48.4706 39.9553 48.3734 39.915 48.2679 39.8676C47.955 39.7467 47.4974 39.6827 46.9486 39.6815C46.5215 39.6808 46.0956 39.7253 45.6779 39.8143L45.6767 39.7858L45.2369 39.9316L45.2298 39.9364L44.9809 40.017V40.0276C44.6961 40.1462 44.426 40.2974 44.176 40.4781C44.0219 40.5942 43.8939 40.746 43.8868 40.9783C43.8832 41.1051 43.9484 41.2521 44.0551 41.3387C44.1125 41.3846 44.1788 41.4181 44.2498 41.4371C44.3208 41.456 44.395 41.4601 44.4676 41.4489L44.4866 41.4477L44.5044 41.4441C44.7189 41.3979 45.0342 41.3683 45.4017 41.3161C45.717 41.2818 46.0513 41.2545 46.3405 41.2545C46.5456 41.2545 46.7305 41.2687 46.8573 41.296C46.9047 41.3051 46.9509 41.3198 46.9948 41.3398C47.0043 41.3434 47.0114 41.3458 47.0138 41.3493C47.0238 41.3908 47.0278 41.4335 47.0256 41.4762C47.0304 41.718 46.9261 42.1696 46.7862 42.6082C46.6487 43.048 46.4804 43.4889 46.3701 43.7817C46.3421 43.8526 46.328 43.9283 46.3287 44.0046C46.3277 44.0707 46.3402 44.1364 46.3654 44.1975C46.3907 44.2587 46.4282 44.314 46.4756 44.3602C46.5667 44.4451 46.6865 44.4925 46.8111 44.4929H46.8158C46.9696 44.4875 47.1172 44.4312 47.2355 44.3329C48.3544 43.3253 48.7433 41.718 48.7598 40.8147L48.7539 40.6689ZM38.5218 29.8785C37.8639 29.9283 37.1041 29.9781 36.3455 30.0788C35.1814 30.2329 34.0186 30.4344 33.0572 30.8908C31.1855 31.6494 29.9196 33.2686 29.9196 35.6477C29.9196 38.6348 31.8422 40.1533 34.2722 40.1533C34.9711 40.1556 35.6676 40.0708 36.3455 39.9008C37.308 39.5962 38.1152 39.0402 39.0789 38.0267C39.6349 38.7854 39.7866 39.141 40.7479 39.9506C41.0004 40.0502 41.2541 40.0502 41.4556 39.902C42.2086 39.2735 42.9503 38.6317 43.6805 37.9769C43.9354 37.7754 43.8832 37.4708 43.7303 37.2195C43.1756 36.5106 42.6184 35.9025 42.6184 34.5346V29.9792C42.6184 28.0554 42.7702 26.2833 41.3548 24.9687C40.192 23.9066 38.3701 23.5 36.9535 23.5H36.3466C33.7673 23.6505 31.035 24.7648 30.4269 27.9546C30.325 28.36 30.6308 28.5106 30.8323 28.5603L33.6641 28.9148C33.9688 28.8638 34.1217 28.6101 34.1703 28.3588C34.424 27.2446 35.3343 26.6875 36.3466 26.5867H36.5505C37.1574 26.5867 37.8141 26.8404 38.1686 27.3465C38.5728 27.9546 38.5242 28.763 38.5242 29.4731L38.5218 29.8785ZM37.9659 35.9002C37.6114 36.6067 37.0045 37.0618 36.3466 37.2171C36.2447 37.2171 36.0942 37.2657 35.9412 37.2657C34.8294 37.2657 34.1715 36.404 34.1715 35.1403C34.1715 33.5188 35.134 32.7601 36.3478 32.4057C37.0057 32.2552 37.7643 32.2018 38.5242 32.2018V32.8099C38.5218 33.9775 38.5716 34.8879 37.9659 35.9002Z" fill="#F8981D"/>
</g>
</g>
<path d="M88.27 35.25C88.978 35.502 89.524 35.904 89.908 36.456C90.304 37.008 90.502 37.632 90.502 38.328C90.502 39.492 90.118 40.398 89.35 41.046C88.594 41.682 87.49 42 86.038 42H80.044V29.184H85.84C87.184 29.184 88.21 29.49 88.918 30.102C89.626 30.714 89.98 31.512 89.98 32.496C89.98 33.756 89.41 34.674 88.27 35.25ZM85.66 31.182H82.474V34.53H85.66C86.272 34.53 86.74 34.38 87.064 34.08C87.4 33.768 87.568 33.342 87.568 32.802C87.568 32.298 87.4 31.902 87.064 31.614C86.728 31.326 86.26 31.182 85.66 31.182ZM82.474 39.984H85.912C86.596 39.984 87.118 39.834 87.478 39.534C87.838 39.222 88.018 38.784 88.018 38.22C88.018 37.032 87.316 36.438 85.912 36.438H82.474V39.984ZM97.5805 42.27C95.9125 42.27 94.5985 41.826 93.6385 40.938C92.6905 40.038 92.2165 38.784 92.2165 37.176V29.184H94.6465V37.194C94.6465 38.166 94.8985 38.904 95.4025 39.408C95.9065 39.912 96.6325 40.164 97.5805 40.164C98.5285 40.164 99.2545 39.912 99.7585 39.408C100.263 38.904 100.515 38.166 100.515 37.194V29.184H102.945V37.176C102.945 38.808 102.471 40.068 101.522 40.956C100.575 41.832 99.2605 42.27 97.5805 42.27ZM112.262 31.488L113.666 29.184H116.348L111.542 36.942V42H109.112V36.942L104.27 29.184H107.024L108.446 31.506C109.598 33.426 110.24 34.506 110.372 34.746C110.696 34.17 111.326 33.084 112.262 31.488ZM132.97 40.452C131.794 41.676 130.246 42.288 128.326 42.288C126.406 42.288 124.858 41.676 123.682 40.452C122.506 39.216 121.918 37.596 121.918 35.592C121.918 33.588 122.506 31.968 123.682 30.732C124.858 29.508 126.406 28.896 128.326 28.896C130.246 28.896 131.794 29.508 132.97 30.732C134.134 31.944 134.716 33.564 134.716 35.592C134.716 37.62 134.134 39.24 132.97 40.452ZM124.456 35.592C124.456 36.996 124.81 38.106 125.518 38.922C126.226 39.738 127.162 40.146 128.326 40.146C129.502 40.146 130.444 39.738 131.152 38.922C131.848 38.118 132.196 37.008 132.196 35.592C132.196 34.176 131.848 33.066 131.152 32.262C130.444 31.446 129.502 31.038 128.326 31.038C127.162 31.038 126.226 31.446 125.518 32.262C124.81 33.078 124.456 34.188 124.456 35.592ZM145.292 32.532V29.184H147.632V42H144.932L141.368 36.294C140.396 34.77 139.634 33.486 139.082 32.442C139.13 33.786 139.154 35.856 139.154 38.652V42H136.814V29.184H139.514L143.096 34.89C144.164 36.618 144.92 37.902 145.364 38.742C145.316 36.954 145.292 34.884 145.292 32.532ZM166.453 42H163.879L162.871 39.174H157.255L156.265 42H153.763L158.641 29.184H161.485L166.453 42ZM158.479 35.718L157.993 37.104H162.133L161.629 35.718C161.209 34.65 160.681 33.186 160.045 31.326C159.541 32.814 159.019 34.278 158.479 35.718ZM175.904 35.286L178.046 29.184H181.574V42H179.252V38.094C179.252 35.694 179.276 33.576 179.324 31.74C179.06 32.64 178.736 33.624 178.352 34.692L175.76 42H173.762L171.152 34.692C170.696 33.36 170.378 32.388 170.198 31.776C170.246 33.6 170.27 35.706 170.27 38.094V42H167.93V29.184H171.458L173.672 35.412C173.816 35.832 174.182 36.99 174.77 38.886C175.154 37.554 175.532 36.354 175.904 35.286ZM195.746 42H193.172L192.164 39.174H186.548L185.558 42H183.056L187.934 29.184H190.778L195.746 42ZM187.772 35.718L187.286 37.104H191.426L190.922 35.718C190.502 34.65 189.974 33.186 189.338 31.326C188.834 32.814 188.312 34.278 187.772 35.718ZM203.415 39.822H207.015V42H196.629V40.02L201.453 34.098C202.533 32.79 203.313 31.866 203.793 31.326C201.585 31.35 200.349 31.362 200.085 31.362H196.881V29.184H206.907V31.146L202.047 37.086C200.967 38.394 200.187 39.318 199.707 39.858C201.915 39.834 203.151 39.822 203.415 39.822ZM218.998 40.452C217.822 41.676 216.274 42.288 214.354 42.288C212.434 42.288 210.886 41.676 209.71 40.452C208.534 39.216 207.946 37.596 207.946 35.592C207.946 33.588 208.534 31.968 209.71 30.732C210.886 29.508 212.434 28.896 214.354 28.896C216.274 28.896 217.822 29.508 218.998 30.732C220.162 31.944 220.744 33.564 220.744 35.592C220.744 37.62 220.162 39.24 218.998 40.452ZM210.484 35.592C210.484 36.996 210.838 38.106 211.546 38.922C212.254 39.738 213.19 40.146 214.354 40.146C215.53 40.146 216.472 39.738 217.18 38.922C217.876 38.118 218.224 37.008 218.224 35.592C218.224 34.176 217.876 33.066 217.18 32.262C216.472 31.446 215.53 31.038 214.354 31.038C213.19 31.038 212.254 31.446 211.546 32.262C210.838 33.078 210.484 34.188 210.484 35.592ZM231.32 32.532V29.184H233.66V42H230.96L227.396 36.294C226.424 34.77 225.662 33.486 225.11 32.442C225.158 33.786 225.182 35.856 225.182 38.652V42H222.842V29.184H225.542L229.124 34.89C230.192 36.618 230.948 37.902 231.392 38.742C231.344 36.954 231.32 34.884 231.32 32.532Z" fill="#1A1A1A"/>
<defs>
<clipPath id="clip0_6_2523">
<rect width="55" height="55" fill="white" transform="translate(8 7.5)"/>
</clipPath>
<clipPath id="clip1_6_2523">
<rect width="16.0693" height="19.2831" fill="white" transform="translate(26.4226 22.5)"/>
</clipPath>
<clipPath id="clip2_6_2523">
<rect width="5.35643" height="7.499" fill="white" transform="translate(43.9196 37.5)"/>
</clipPath>
</defs>
</svg>
