<svg width="563" height="239" viewBox="0 0 563 239" fill="none" xmlns="http://www.w3.org/2000/svg">
<path d="M19.11 43.832L12.636 28.934H12.246C12.324 30.962 12.402 34.082 12.402 36.266V50.306L12.48 56H2.418L2.496 50.306V5.924L2.418 0.229997H10.296L19.578 22.148H19.812L29.094 0.229997H37.128L37.05 5.924V50.306L37.128 56H26.52L26.598 50.306V36.266C26.598 34.082 26.676 30.962 26.754 28.934H26.364L19.812 43.832H19.11ZM62.0642 32.756H53.0942V46.406H64.4822V56H42.4082L42.4862 50.306V5.924L42.4082 0.229997H64.2482V9.668H53.0942V22.148H62.0642V32.756ZM87.5056 32.756H78.5356V46.406H89.9236V56H67.8496L67.9276 50.306V5.924L67.8496 0.229997H89.6896V9.668H78.5356V22.148H87.5056V32.756ZM117.159 9.668H109.749V50.306L109.827 56H99.063L99.141 50.306V9.668H91.575V0.229997H117.159V9.668ZM127.416 0.229997H138.18L138.102 5.924V50.306L138.18 56H127.416L127.494 50.306V5.924L127.416 0.229997ZM161.116 0.229997H171.724L163.534 25.658L172.738 56H161.428L154.486 32.288H154.174V50.306L154.252 56H143.488L143.566 50.306V5.924L143.488 0.229997H154.252L154.174 5.924V18.482C154.174 19.886 154.174 21.836 154.096 23.396H154.408L155.812 18.872L161.116 0.229997ZM194.679 32.756H185.709V46.406H197.097V56H175.023L175.101 50.306V5.924L175.023 0.229997H196.863V9.668H185.709V22.148H194.679V32.756ZM228.195 32.756H219.225V46.406H230.613V56H208.539L208.617 50.306V5.924L208.539 0.229997H230.379V9.668H219.225V22.148H228.195V32.756ZM254.885 46.406V56H232.343V49.76L243.107 9.824H233.591V0.229997H254.885V6.47L244.199 46.406H254.885ZM278.164 32.756H269.194V46.406H280.582V56H258.508L258.586 50.306V5.924L258.508 0.229997H280.348V9.668H269.194V22.148H278.164V32.756ZM291.477 31.274V22.694H308.403V31.274H291.477ZM22.074 118.756H13.104V132.406H24.492V142H2.418L2.496 136.306V91.924L2.418 86.23H24.258V95.668H13.104V108.148H22.074V118.756ZM27.8594 142L27.9374 136.306V91.924L27.8594 86.23H34.8014L42.4454 104.95C43.7714 107.992 43.8494 108.538 44.7074 110.722H45.0194C44.9414 108.85 44.8634 106.12 44.8634 104.17V91.924L44.7074 86.23H54.9254L54.7694 91.924V136.306L54.9254 142H48.2174L39.8714 122.11C39.0914 120.394 38.2334 117.898 37.9214 117.196H37.6094C37.7654 118.99 37.8434 121.72 37.8434 123.748V136.306L37.9214 142H27.8594ZM83.5673 95.668H76.1573V136.306L76.2353 142H65.4713L65.5493 136.306V95.668H57.9833V86.23H83.5673V95.668ZM97.3501 95.356V109.864H98.2081C102.186 109.864 103.2 107.056 103.2 102.766V102.532C103.2 98.476 102.186 95.356 98.2861 95.356H97.3501ZM98.1301 119.536H97.3501V136.306L97.4281 142H86.6641L86.7421 136.306V91.924L86.6641 86.23H98.5981C110.532 86.23 113.886 93.094 113.886 101.44V101.596C113.886 111.424 110.454 113.608 106.398 114.856V115.246C109.596 116.104 113.652 118.21 113.808 127.414C113.886 133.576 113.964 136.696 115.056 140.83V142H104.526C103.2 137.71 103.122 134.122 102.966 125.698C102.888 122.032 101.328 119.536 98.1301 119.536ZM138.084 118.756H129.114V132.406H140.502V142H118.428L118.506 136.306V91.924L118.428 86.23H140.268V95.668H129.114V108.148H138.084V118.756ZM143.869 142L143.947 136.306V91.924L143.869 86.23H157.207C169.219 86.23 171.013 94.108 171.013 103.936V104.092C171.013 113.998 168.829 121.798 157.207 121.798H154.555V136.306L154.633 142H143.869ZM154.555 112.438H155.101C160.093 112.438 160.405 108.382 160.405 104.17V103.858C160.405 98.554 159.469 95.59 155.101 95.59H154.555V112.438ZM184.491 95.356V109.864H185.349C189.327 109.864 190.341 107.056 190.341 102.766V102.532C190.341 98.476 189.327 95.356 185.427 95.356H184.491ZM185.271 119.536H184.491V136.306L184.569 142H173.805L173.883 136.306V91.924L173.805 86.23H185.739C197.673 86.23 201.027 93.094 201.027 101.44V101.596C201.027 111.424 197.595 113.608 193.539 114.856V115.246C196.737 116.104 200.793 118.21 200.949 127.414C201.027 133.576 201.105 136.696 202.197 140.83V142H191.667C190.341 137.71 190.263 134.122 190.107 125.698C190.029 122.032 188.469 119.536 185.271 119.536ZM225.224 118.756H216.254V132.406H227.642V142H205.568L205.646 136.306V91.924L205.568 86.23H227.408V95.668H216.254V108.148H225.224V118.756ZM231.01 142L231.088 136.306V91.924L231.01 86.23H237.952L245.596 104.95C246.922 107.992 247 108.538 247.858 110.722H248.17C248.092 108.85 248.014 106.12 248.014 104.17V91.924L247.858 86.23H258.076L257.92 91.924V136.306L258.076 142H251.368L243.022 122.11C242.242 120.394 241.384 117.898 241.072 117.196H240.76C240.916 118.99 240.994 121.72 240.994 123.748V136.306L241.072 142H231.01ZM282.963 118.756H273.993V132.406H285.381V142H263.307L263.385 136.306V91.924L263.307 86.23H285.147V95.668H273.993V108.148H282.963V118.756ZM305.128 86.23H315.892L315.814 91.924V128.116C315.814 137.632 310.666 142.936 302.164 142.936C293.584 142.936 288.592 137.632 288.592 128.116V91.924L288.514 86.23H299.278L299.2 91.924V128.428C299.2 131.626 299.902 133.42 302.164 133.42C304.426 133.42 305.128 131.626 305.128 128.428V86.23ZM331.198 95.356V109.864H332.056C336.034 109.864 337.048 107.056 337.048 102.766V102.532C337.048 98.476 336.034 95.356 332.134 95.356H331.198ZM331.978 119.536H331.198V136.306L331.276 142H320.512L320.59 136.306V91.924L320.512 86.23H332.446C344.38 86.23 347.734 93.094 347.734 101.44V101.596C347.734 111.424 344.302 113.608 340.246 114.856V115.246C343.444 116.104 347.5 118.21 347.656 127.414C347.734 133.576 347.812 136.696 348.904 140.83V142H338.374C337.048 137.71 336.97 134.122 336.814 125.698C336.736 122.032 335.176 119.536 331.978 119.536ZM351.573 142V130.612H361.947V141.454L356.799 152.53H352.041L354.693 142H351.573ZM19.11 215.832L12.636 200.934H12.246C12.324 202.962 12.402 206.082 12.402 208.266V222.306L12.48 228H2.418L2.496 222.306V177.924L2.418 172.23H10.296L19.578 194.148H19.812L29.094 172.23H37.128L37.05 177.924V222.306L37.128 228H26.52L26.598 222.306V208.266C26.598 206.082 26.676 202.962 26.754 200.934H26.364L19.812 215.832H19.11ZM62.0642 204.756H53.0942V218.406H64.4822V228H42.4082L42.4862 222.306V177.924L42.4082 172.23H64.2482V181.668H53.0942V194.148H62.0642V204.756ZM67.8496 228L67.9276 222.306V177.924L67.8496 172.23H74.7916L82.4356 190.95C83.7616 193.992 83.8396 194.538 84.6976 196.722H85.0096C84.9316 194.85 84.8536 192.12 84.8536 190.17V177.924L84.6976 172.23H94.9156L94.7596 177.924V222.306L94.9156 228H88.2076L79.8616 208.11C79.0816 206.394 78.2236 203.898 77.9116 203.196H77.5996C77.7556 204.99 77.8336 207.72 77.8336 209.748V222.306L77.9116 228H67.8496ZM123.557 181.668H116.147V222.306L116.225 228H105.461L105.539 222.306V181.668H97.9735V172.23H123.557V181.668ZM139.087 228.936C134.641 228.936 131.209 227.766 129.181 225.582C126.451 222.696 125.047 218.718 125.047 207.486V192.744C125.047 181.512 126.451 177.534 129.181 174.648C131.209 172.542 134.641 171.294 139.087 171.294C143.611 171.294 146.965 172.542 148.993 174.648C151.723 177.612 153.205 181.512 153.205 192.744V207.486C153.205 218.718 151.801 222.696 148.993 225.582C146.965 227.766 143.611 228.936 139.087 228.936ZM135.811 190.56V209.67C135.811 216.222 135.967 219.42 139.087 219.42C142.051 219.42 142.363 216.222 142.363 209.67V190.56C142.363 184.008 142.051 180.81 139.087 180.81C135.967 180.81 135.811 184.008 135.811 190.56ZM168.418 181.356V195.864H169.276C173.254 195.864 174.268 193.056 174.268 188.766V188.532C174.268 184.476 173.254 181.356 169.354 181.356H168.418ZM169.198 205.536H168.418V222.306L168.496 228H157.732L157.81 222.306V177.924L157.732 172.23H169.666C181.6 172.23 184.954 179.094 184.954 187.44V187.596C184.954 197.424 181.522 199.608 177.466 200.856V201.246C180.664 202.104 184.72 204.21 184.876 213.414C184.954 219.576 185.032 222.696 186.124 226.83V228H175.594C174.268 223.71 174.19 220.122 174.034 211.698C173.956 208.032 172.396 205.536 169.198 205.536ZM188.794 228V216.612H199.168V227.454L194.02 238.53H189.262L191.914 228H188.794ZM218.481 228L207.873 172.23H218.247L221.991 196.722C222.381 198.984 222.693 201.948 222.927 203.508H223.161C223.395 201.948 223.707 198.984 224.097 196.722L227.919 172.23H237.669L226.827 228H218.481ZM240.074 172.23H250.838L250.76 177.924V222.306L250.838 228H240.074L240.152 222.306V177.924L240.074 172.23ZM254.129 211.464H264.659C264.659 216.846 265.751 219.108 268.169 219.108C269.807 219.108 271.055 218.016 271.055 214.584C271.055 211.542 270.119 208.344 266.531 205.614L262.943 202.884C257.171 198.516 254.519 193.914 254.519 186.738C254.519 176.676 260.057 171.216 268.481 171.216C276.593 171.216 281.507 175.896 281.273 188.298H271.055C271.055 182.916 270.041 181.122 268.091 181.122C266.063 181.122 264.893 182.916 264.893 185.802C264.893 189.156 266.453 191.574 269.417 193.758L273.395 196.722C277.997 200.154 281.585 204.054 281.585 212.79C281.585 223.71 276.047 229.014 267.701 229.014C259.433 229.014 253.895 223.866 254.129 211.464ZM284.787 172.23H295.551L295.473 177.924V222.306L295.551 228H284.787L284.865 222.306V177.924L284.787 172.23ZM314.13 228.936C309.684 228.936 306.252 227.766 304.224 225.582C301.494 222.696 300.09 218.718 300.09 207.486V192.744C300.09 181.512 301.494 177.534 304.224 174.648C306.252 172.542 309.684 171.294 314.13 171.294C318.654 171.294 322.008 172.542 324.036 174.648C326.766 177.612 328.248 181.512 328.248 192.744V207.486C328.248 218.718 326.844 222.696 324.036 225.582C322.008 227.766 318.654 228.936 314.13 228.936ZM310.854 190.56V209.67C310.854 216.222 311.01 219.42 314.13 219.42C317.094 219.42 317.406 216.222 317.406 209.67V190.56C317.406 184.008 317.094 180.81 314.13 180.81C311.01 180.81 310.854 184.008 310.854 190.56ZM332.775 228L332.853 222.306V177.924L332.775 172.23H339.717L347.361 190.95C348.687 193.992 348.765 194.538 349.623 196.722H349.935C349.857 194.85 349.779 192.12 349.779 190.17V177.924L349.623 172.23H359.841L359.685 177.924V222.306L359.841 228H353.133L344.787 208.11C344.007 206.394 343.149 203.898 342.837 203.196H342.525C342.681 204.99 342.759 207.72 342.759 209.748V222.306L342.837 228H332.775ZM373.351 220.044L371.947 228H361.807L373.819 172.23H382.165L394.333 228H383.569L382.165 220.044H373.351ZM376.783 200.388L374.989 210.762H380.605L378.889 200.388C378.499 198.126 378.187 195.162 377.953 193.602H377.719C377.485 195.162 377.173 198.126 376.783 200.388ZM406.989 181.356V195.864H407.847C411.825 195.864 412.839 193.056 412.839 188.766V188.532C412.839 184.476 411.825 181.356 407.925 181.356H406.989ZM407.769 205.536H406.989V222.306L407.067 228H396.303L396.381 222.306V177.924L396.303 172.23H408.237C420.171 172.23 423.525 179.094 423.525 187.44V187.596C423.525 197.424 420.093 199.608 416.037 200.856V201.246C419.235 202.104 423.291 204.21 423.447 213.414C423.525 219.576 423.603 222.696 424.695 226.83V228H414.165C412.839 223.71 412.761 220.122 412.605 211.698C412.527 208.032 410.967 205.536 407.769 205.536ZM438.784 191.886H439.096C439.408 190.17 439.876 188.22 440.344 186.348L443.464 172.23H453.838L444.244 205.692V222.306L444.322 228H433.558L433.636 222.306V205.692L424.354 172.23H434.962L437.692 186.348C438.082 188.22 438.55 190.17 438.784 191.886Z" fill="black"/>
</svg>
