<svg width="426" height="295" viewBox="0 0 426 295" fill="none" xmlns="http://www.w3.org/2000/svg">
<g filter="url(#filter0_di_6_2507)">
<path d="M21 28C21 21.3726 26.3726 16 33 16H393C399.627 16 405 21.3726 405 28V257C405 263.627 399.627 269 393 269H33C26.3726 269 21 263.627 21 257V28Z" fill="white" fill-opacity="0.15" shape-rendering="crispEdges"/>
<path d="M33 17H393C399.075 17 404 21.9249 404 28V257C404 263.075 399.075 268 393 268H33C26.9249 268 22 263.075 22 257V28C22 21.9249 26.9249 17 33 17Z" stroke="white" stroke-opacity="0.09" stroke-width="2" shape-rendering="crispEdges"/>
<circle cx="70.5" cy="65.5" r="25.5" fill="#FABB14"/>
<path d="M70.6109 54.0516C70.5641 54.0797 70.2781 54.4781 69.9688 54.9375C69.6594 55.4016 69.3688 55.8 69.3172 55.8234C69.2703 55.8516 68.825 55.9875 68.3328 56.1281C67.8406 56.2687 67.3813 56.4141 67.3156 56.4609C67.1797 56.55 67.1094 56.7094 67.1094 56.9297C67.1094 57.1031 67.1891 57.2203 67.8828 58.0547C68.1219 58.3359 68.3375 58.6219 68.3703 58.6828C68.4172 58.7719 68.4219 58.9922 68.3938 59.6906C68.3703 60.1828 68.3563 60.6562 68.3563 60.7406C68.3703 61.0547 68.5813 61.2656 68.8859 61.2656C68.9609 61.2656 69.4297 61.1062 69.9219 60.9141C70.4141 60.7219 70.8641 60.5625 70.9156 60.5625C70.9672 60.5625 71.4125 60.7219 71.9 60.9141C72.3875 61.1062 72.8516 61.2656 72.9266 61.2656C73.1375 61.2656 73.3438 61.1391 73.4141 60.9656C73.4703 60.8344 73.4703 60.6422 73.4281 59.8172C73.3953 59.1281 73.3906 58.7906 73.4234 58.7203C73.4516 58.6594 73.7281 58.3078 74.0375 57.9328C74.3422 57.5578 74.6188 57.2062 74.6516 57.1547C74.75 56.9672 74.7172 56.6859 74.5766 56.5312C74.4641 56.4141 74.3188 56.3578 73.5125 56.1328C72.9969 55.9875 72.5375 55.8469 72.4859 55.8234C72.4391 55.7953 72.1578 55.4062 71.8625 54.9609C71.5672 54.5109 71.2812 54.1125 71.225 54.075C71.1078 53.9906 70.7375 53.9766 70.6109 54.0516Z" fill="black"/>
<path d="M62.3046 56.2032C61.9484 56.3485 61.7656 56.8313 61.925 57.2016C61.9625 57.286 62.689 58.0453 63.575 58.9313C65.1171 60.4594 65.1687 60.5063 65.3843 60.5391C65.7406 60.5907 66.0453 60.436 66.214 60.1078C66.2796 59.9813 66.2796 59.6719 66.2187 59.4985C66.1531 59.325 63.1437 56.3063 62.9515 56.2219C62.7875 56.1516 62.4546 56.1375 62.3046 56.2032Z" fill="black"/>
<path d="M79.0391 56.2219C78.8469 56.311 75.8469 59.3344 75.7813 59.4985C75.5703 60.075 76.011 60.6282 76.6157 60.5391C76.8313 60.5063 76.8828 60.4594 78.425 58.9313C79.311 58.0454 80.0375 57.286 80.075 57.2016C80.1125 57.1172 80.1407 56.9813 80.1407 56.8969C80.1407 56.7 79.986 56.3907 79.8266 56.2735C79.6625 56.161 79.236 56.1282 79.0391 56.2219Z" fill="black"/>
<path d="M63.228 62.85C62.7733 63.0141 62.3843 63.4219 62.253 63.8766C62.1874 64.0969 62.1827 64.3453 62.2015 65.5969C62.2249 67.1297 62.2577 67.3969 62.5108 68.3063C62.9608 69.9 64.0202 71.5266 65.2952 72.5813C65.5765 72.8156 65.764 73.0078 65.7968 73.0922C65.8249 73.1813 65.8437 74.0578 65.8437 75.4781V77.7281L65.9796 77.8641L66.1155 78H70.8499C75.5468 78 75.5843 78 75.7015 77.9063C75.7718 77.85 75.8468 77.7281 75.8749 77.6344C75.903 77.5266 75.9218 76.6266 75.9218 75.2813C75.9265 73.6406 75.9405 73.0828 75.9827 73.0266C76.0155 72.9844 76.1655 72.8531 76.3202 72.7266C77.9046 71.4609 79.0249 69.6234 79.4702 67.5703C79.5827 67.05 79.5921 66.8953 79.6108 65.5313C79.6343 64.1063 79.6296 64.0453 79.5312 63.7875C79.3999 63.4359 79.0812 63.0844 78.7437 62.9203C78.5093 62.8031 78.4249 62.7891 78.0312 62.7891C77.6608 62.7891 77.5483 62.8078 77.3702 62.8969C77.0374 63.0609 76.7983 63.2906 76.6202 63.6188L76.4608 63.9141L76.428 65.2969C76.4093 66.2906 76.3765 66.7734 76.3249 67.0078C75.903 68.8688 74.6655 70.35 72.964 71.0297C72.214 71.3344 71.7827 71.4094 70.8827 71.4094C70.1796 71.4047 70.0343 71.3906 69.6358 71.2875C67.4562 70.7016 65.9515 69.1359 65.4874 66.9609C65.4312 66.6844 65.403 66.2391 65.3796 65.25L65.3515 63.9141L65.2202 63.6516C65.0702 63.3375 64.7515 63.0328 64.4468 62.8922C64.1327 62.7563 63.5562 62.7328 63.228 62.85Z" fill="black"/>
<path d="M70.1703 63.3516C69.4766 63.5391 68.7969 64.0688 68.4781 64.6734C67.6578 66.2297 68.4078 68.0391 70.1094 68.6063C70.4985 68.7328 71.2485 68.7281 71.6891 68.5875C72.5656 68.3156 73.2969 67.5281 73.5078 66.6469C73.5969 66.2625 73.5969 65.6719 73.5078 65.3203C73.2641 64.3594 72.5 63.5953 71.5391 63.3516C71.1969 63.2625 70.4985 63.2625 70.1703 63.3516Z" fill="black"/>
<rect x="222" y="40" width="159" height="31" rx="15.5" fill="white" fill-opacity="0.2"/>
<path d="M240.29 53.74V51.88H241.59V59H240.09L238.11 55.83C237.57 54.9833 237.147 54.27 236.84 53.69C236.867 54.4367 236.88 55.5867 236.88 57.14V59H235.58V51.88H237.08L239.07 55.05C239.663 56.01 240.083 56.7233 240.33 57.19C240.303 56.1967 240.29 55.0467 240.29 53.74ZM250.161 59H248.731L248.171 57.43H245.051L244.501 59H243.111L245.821 51.88H247.401L250.161 59ZM245.731 55.51L245.461 56.28H247.761L247.481 55.51C247.247 54.9167 246.954 54.1033 246.601 53.07C246.321 53.8967 246.031 54.71 245.731 55.51ZM257.262 57.11L257.322 58.17C257.328 58.51 257.402 58.7867 257.542 59H256.152C256.032 58.8 255.968 58.5167 255.962 58.15L255.932 57.37C255.912 56.9367 255.812 56.6367 255.632 56.47C255.458 56.2967 255.178 56.21 254.792 56.21H253.032V59H251.682V51.88H254.912C255.705 51.88 256.322 52.06 256.762 52.42C257.202 52.78 257.422 53.27 257.422 53.89C257.422 54.7433 257.025 55.31 256.232 55.59C256.592 55.7033 256.848 55.8833 257.002 56.13C257.162 56.37 257.248 56.6967 257.262 57.11ZM253.032 52.99V55.15H254.832C255.212 55.15 255.505 55.0567 255.712 54.87C255.925 54.6767 256.032 54.4 256.032 54.04C256.032 53.7 255.922 53.44 255.702 53.26C255.488 53.08 255.182 52.99 254.782 52.99H253.032ZM264.912 57.11L264.972 58.17C264.979 58.51 265.052 58.7867 265.192 59H263.802C263.682 58.8 263.619 58.5167 263.612 58.15L263.582 57.37C263.562 56.9367 263.462 56.6367 263.282 56.47C263.109 56.2967 262.829 56.21 262.442 56.21H260.682V59H259.332V51.88H262.562C263.355 51.88 263.972 52.06 264.412 52.42C264.852 52.78 265.072 53.27 265.072 53.89C265.072 54.7433 264.675 55.31 263.882 55.59C264.242 55.7033 264.499 55.8833 264.652 56.13C264.812 56.37 264.899 56.6967 264.912 57.11ZM260.682 52.99V55.15H262.482C262.862 55.15 263.155 55.0567 263.362 54.87C263.575 54.6767 263.682 54.4 263.682 54.04C263.682 53.7 263.572 53.44 263.352 53.26C263.139 53.08 262.832 52.99 262.432 52.99H260.682ZM272.822 58.14C272.169 58.82 271.309 59.16 270.242 59.16C269.176 59.16 268.316 58.82 267.662 58.14C267.009 57.4533 266.682 56.5533 266.682 55.44C266.682 54.3267 267.009 53.4267 267.662 52.74C268.316 52.06 269.176 51.72 270.242 51.72C271.309 51.72 272.169 52.06 272.822 52.74C273.469 53.4133 273.792 54.3133 273.792 55.44C273.792 56.5667 273.469 57.4667 272.822 58.14ZM268.092 55.44C268.092 56.22 268.289 56.8367 268.682 57.29C269.076 57.7433 269.596 57.97 270.242 57.97C270.896 57.97 271.419 57.7433 271.812 57.29C272.199 56.8433 272.392 56.2267 272.392 55.44C272.392 54.6533 272.199 54.0367 271.812 53.59C271.419 53.1367 270.896 52.91 270.242 52.91C269.596 52.91 269.076 53.1367 268.682 53.59C268.289 54.0433 268.092 54.66 268.092 55.44ZM282.384 54.75L283.134 51.88H284.534L282.564 59H281.044L280.284 56.04C279.971 54.74 279.778 53.9 279.704 53.52C279.518 54.4067 279.324 55.2467 279.124 56.04L278.364 59H276.854L274.874 51.88H276.284L277.024 54.75C277.371 56.1367 277.588 57.04 277.674 57.46C277.888 56.46 278.091 55.5533 278.284 54.74L279.014 51.88H280.404L281.134 54.74C281.321 55.5 281.521 56.41 281.734 57.47C281.874 56.85 282.091 55.9433 282.384 54.75ZM287.52 59H286.17V51.88H287.52V59ZM294.399 53.74V51.88H295.699V59H294.199L292.219 55.83C291.679 54.9833 291.256 54.27 290.949 53.69C290.976 54.4367 290.989 55.5867 290.989 57.14V59H289.689V51.88H291.189L293.179 55.05C293.773 56.01 294.193 56.7233 294.439 57.19C294.413 56.1967 294.399 55.0467 294.399 53.74ZM301.277 56.25V55.16H304.457V59H303.477L303.287 58.06C302.774 58.7933 302 59.16 300.967 59.16C299.94 59.16 299.117 58.82 298.497 58.14C297.877 57.46 297.567 56.56 297.567 55.44C297.567 54.32 297.884 53.4167 298.517 52.73C299.15 52.0567 300.007 51.72 301.087 51.72C301.98 51.72 302.724 51.9467 303.317 52.4C303.904 52.8533 304.257 53.47 304.377 54.25H302.987C302.887 53.83 302.667 53.5 302.327 53.26C301.994 53.02 301.584 52.9 301.097 52.9C300.444 52.9 299.927 53.1267 299.547 53.58C299.167 54.0333 298.977 54.6533 298.977 55.44C298.977 56.2267 299.17 56.8467 299.557 57.3C299.944 57.7533 300.474 57.98 301.147 57.98C301.68 57.98 302.137 57.82 302.517 57.5C302.897 57.18 303.104 56.7633 303.137 56.25H301.277ZM314.692 57.52L316.022 59H314.442L313.922 58.41C313.315 58.91 312.605 59.16 311.792 59.16C311.038 59.16 310.445 58.9633 310.012 58.57C309.572 58.1833 309.352 57.6867 309.352 57.08C309.352 56.6267 309.475 56.2367 309.722 55.91C309.975 55.5833 310.368 55.2867 310.902 55.02C310.622 54.7 310.422 54.42 310.302 54.18C310.188 53.94 310.132 53.69 310.132 53.43C310.132 52.9433 310.312 52.5367 310.672 52.21C311.025 51.8833 311.512 51.72 312.132 51.72C312.718 51.72 313.195 51.87 313.562 52.17C313.935 52.47 314.122 52.87 314.122 53.37C314.122 54.1233 313.632 54.7533 312.652 55.26L313.892 56.64C314.038 56.28 314.118 55.9 314.132 55.5H315.292C315.265 56.2333 315.065 56.9067 314.692 57.52ZM312.172 52.73C311.952 52.73 311.768 52.7967 311.622 52.93C311.475 53.0567 311.402 53.2233 311.402 53.43C311.402 53.7233 311.605 54.0933 312.012 54.54L312.032 54.56C312.645 54.22 312.952 53.8433 312.952 53.43C312.952 53.23 312.878 53.0633 312.732 52.93C312.585 52.7967 312.398 52.73 312.172 52.73ZM311.902 58.08C312.388 58.08 312.825 57.9233 313.212 57.61L311.542 55.75C310.962 56.07 310.672 56.48 310.672 56.98C310.672 57.2867 310.785 57.5467 311.012 57.76C311.238 57.9733 311.535 58.08 311.902 58.08ZM320.344 51.88H326.264V53.09H323.984V59H322.624V53.09H320.344V51.88ZM333.195 51.88V53.09H329.295V54.77H332.825V55.93H329.295V57.79H333.175V59H327.945V51.88H333.195ZM337.729 59.16C336.763 59.16 336.013 58.9433 335.479 58.51C334.953 58.0767 334.686 57.4567 334.679 56.65H336.009C336.016 57.1567 336.166 57.52 336.459 57.74C336.759 57.96 337.196 58.07 337.769 58.07C338.236 58.07 338.593 57.9833 338.839 57.81C339.086 57.63 339.209 57.3733 339.209 57.04C339.209 56.76 339.103 56.5467 338.889 56.4C338.683 56.2533 338.303 56.1233 337.749 56.01L337.149 55.89C335.623 55.6033 334.859 54.8833 334.859 53.73C334.859 53.1167 335.093 52.63 335.559 52.27C336.026 51.9033 336.673 51.72 337.499 51.72C338.439 51.72 339.149 51.92 339.629 52.32C340.116 52.72 340.373 53.28 340.399 54H339.089C339.063 53.5933 338.926 53.2933 338.679 53.1C338.439 52.9067 338.053 52.81 337.519 52.81C337.106 52.81 336.789 52.8867 336.569 53.04C336.349 53.1933 336.239 53.41 336.239 53.69C336.239 53.9767 336.339 54.1967 336.539 54.35C336.746 54.5033 337.109 54.6333 337.629 54.74L338.249 54.86C339.083 55.0267 339.683 55.2767 340.049 55.61C340.423 55.9367 340.609 56.39 340.609 56.97C340.609 57.6633 340.356 58.2033 339.849 58.59C339.343 58.97 338.636 59.16 337.729 59.16ZM341.596 51.88H347.516V53.09H345.236V59H343.876V53.09H341.596V51.88ZM350.547 59H349.197V51.88H350.547V59ZM357.427 53.74V51.88H358.727V59H357.227L355.247 55.83C354.707 54.9833 354.283 54.27 353.977 53.69C354.003 54.4367 354.017 55.5867 354.017 57.14V59H352.717V51.88H354.217L356.207 55.05C356.8 56.01 357.22 56.7233 357.467 57.19C357.44 56.1967 357.427 55.0467 357.427 53.74ZM364.304 56.25V55.16H367.484V59H366.504L366.314 58.06C365.801 58.7933 365.028 59.16 363.994 59.16C362.968 59.16 362.144 58.82 361.524 58.14C360.904 57.46 360.594 56.56 360.594 55.44C360.594 54.32 360.911 53.4167 361.544 52.73C362.178 52.0567 363.034 51.72 364.114 51.72C365.008 51.72 365.751 51.9467 366.344 52.4C366.931 52.8533 367.284 53.47 367.404 54.25H366.014C365.914 53.83 365.694 53.5 365.354 53.26C365.021 53.02 364.611 52.9 364.124 52.9C363.471 52.9 362.954 53.1267 362.574 53.58C362.194 54.0333 362.004 54.6533 362.004 55.44C362.004 56.2267 362.198 56.8467 362.584 57.3C362.971 57.7533 363.501 57.98 364.174 57.98C364.708 57.98 365.164 57.82 365.544 57.5C365.924 57.18 366.131 56.7633 366.164 56.25H364.304Z" fill="white"/>
<path d="M53.138 142H45.806L45.832 140.102V125.308L45.806 123.41H49.394L49.368 125.308V138.802H53.138V142ZM57.0969 139.348L56.6289 142H53.2489L57.2529 123.41H60.0349L64.0909 142H60.5029L60.0349 139.348H57.0969ZM58.2409 132.796L57.6429 136.254H59.5149L58.9429 132.796C58.8129 132.042 58.7089 131.054 58.6309 130.534H58.5529C58.4749 131.054 58.3709 132.042 58.2409 132.796ZM70.2074 123.41H73.7954L73.7694 125.308V137.372C73.7694 140.544 72.0534 142.312 69.2194 142.312C66.3594 142.312 64.6954 140.544 64.6954 137.372V125.308L64.6694 123.41H68.2574L68.2314 125.308V137.476C68.2314 138.542 68.4654 139.14 69.2194 139.14C69.9734 139.14 70.2074 138.542 70.2074 137.476V123.41ZM75.3353 142L75.3613 140.102V125.308L75.3353 123.41H77.6493L80.1973 129.65C80.6393 130.664 80.6653 130.846 80.9513 131.574H81.0553C81.0293 130.95 81.0033 130.04 81.0033 129.39V125.308L80.9513 123.41H84.3573L84.3053 125.308V140.102L84.3573 142H82.1213L79.3393 135.37C79.0793 134.798 78.7933 133.966 78.6893 133.732H78.5853C78.6373 134.33 78.6633 135.24 78.6633 135.916V140.102L78.6893 142H75.3353ZM90.4466 142.312C88.9906 142.312 87.9506 141.922 87.2226 141.194C86.2086 140.18 85.8446 138.36 85.8446 135.162V130.248C85.8446 126.868 86.2606 125.204 87.2226 124.242C87.9766 123.488 89.0686 123.098 90.3946 123.098C91.7466 123.098 92.8906 123.514 93.6186 124.216C94.4766 125.048 94.9706 126.478 94.9706 129.494V129.598H91.4866V129.442C91.4866 127.258 91.4866 126.27 90.4986 126.27C89.5106 126.27 89.4326 127.232 89.4326 129.52V135.89C89.4326 137.996 89.4326 139.14 90.4986 139.14C91.5386 139.14 91.5386 138.048 91.5386 135.162V135.006H95.0226V135.11C95.0226 138.776 94.5026 140.258 93.5926 141.194C92.8646 141.948 91.8506 142.312 90.4466 142.312ZM101.745 123.41H105.333L105.307 125.308V140.102L105.333 142H101.745L101.771 140.102V134.2H99.743V140.102L99.769 142H96.181L96.207 140.102V125.308L96.181 123.41H99.769L99.743 125.308V130.638H101.771V125.308L101.745 123.41ZM114.247 123.41H116.613L117.757 130.872C117.861 131.548 117.913 132.12 117.991 132.796H118.095C118.147 132.198 118.225 131.47 118.303 130.872L119.291 123.41H122.489L119.291 142H116.665L115.833 136.254L115.495 133.654H115.365L115.027 136.254L114.195 142H111.569L108.501 123.41H111.751L112.739 130.872L112.947 132.796H113.051L113.285 130.872L114.247 123.41ZM123.222 123.41H126.81L126.784 125.308V140.102L126.81 142H123.222L123.248 140.102V125.308L123.222 123.41ZM136.383 126.556H133.913V140.102L133.939 142H130.351L130.377 140.102V126.556H127.855V123.41H136.383V126.556ZM142.979 123.41H146.567L146.541 125.308V140.102L146.567 142H142.979L143.005 140.102V134.2H140.977V140.102L141.003 142H137.415L137.441 140.102V125.308L137.415 123.41H141.003L140.977 125.308V130.638H143.005V125.308L142.979 123.41ZM155.37 142.312C153.914 142.312 152.874 141.922 152.146 141.194C151.132 140.18 150.768 138.36 150.768 135.162V130.248C150.768 126.868 151.184 125.204 152.146 124.242C152.9 123.488 153.992 123.098 155.318 123.098C156.67 123.098 157.814 123.514 158.542 124.216C159.4 125.048 159.894 126.478 159.894 129.494V129.598H156.41V129.442C156.41 127.258 156.41 126.27 155.422 126.27C154.434 126.27 154.356 127.232 154.356 129.52V135.89C154.356 137.996 154.356 139.14 155.422 139.14C156.462 139.14 156.462 138.048 156.462 135.162V135.006H159.946V135.11C159.946 138.776 159.426 140.258 158.516 141.194C157.788 141.948 156.774 142.312 155.37 142.312ZM165.681 142.312C164.199 142.312 163.055 141.922 162.379 141.194C161.469 140.232 161.001 138.906 161.001 135.162V130.248C161.001 126.504 161.469 125.178 162.379 124.216C163.055 123.514 164.199 123.098 165.681 123.098C167.189 123.098 168.307 123.514 168.983 124.216C169.893 125.204 170.387 126.504 170.387 130.248V135.162C170.387 138.906 169.919 140.232 168.983 141.194C168.307 141.922 167.189 142.312 165.681 142.312ZM164.589 129.52V135.89C164.589 138.074 164.641 139.14 165.681 139.14C166.669 139.14 166.773 138.074 166.773 135.89V129.52C166.773 127.336 166.669 126.27 165.681 126.27C164.641 126.27 164.589 127.336 164.589 129.52ZM171.896 142L171.922 140.102V125.308L171.896 123.41H174.21L176.758 129.65C177.2 130.664 177.226 130.846 177.512 131.574H177.616C177.59 130.95 177.564 130.04 177.564 129.39V125.308L177.512 123.41H180.918L180.866 125.308V140.102L180.918 142H178.682L175.9 135.37C175.64 134.798 175.354 133.966 175.25 133.732H175.146C175.198 134.33 175.224 135.24 175.224 135.916V140.102L175.25 142H171.896ZM189.265 134.486H186.223V140.102L186.249 142H182.661L182.687 140.102V125.308L182.661 123.41H189.837V126.556H186.223V130.95H189.265V134.486ZM190.812 123.41H194.4L194.374 125.308V140.102L194.4 142H190.812L190.838 140.102V125.308L190.812 123.41ZM200.381 123.41C201.889 123.41 202.929 123.826 203.657 124.476C204.697 125.386 205.269 126.946 205.269 129.676V135.734C205.269 138.464 204.697 140.024 203.657 140.934C202.929 141.584 201.889 142 200.381 142H196.169L196.195 140.102V125.308L196.169 123.41H200.381ZM200.173 126.53H199.731V138.88H200.173C201.629 138.88 201.707 137.502 201.707 136.046V129.364C201.707 128.064 201.707 126.53 200.173 126.53ZM213.335 134.252H210.345V138.802H214.141V142H206.783L206.809 140.102V125.308L206.783 123.41H214.063V126.556H210.345V130.716H213.335V134.252ZM215.263 142L215.289 140.102V125.308L215.263 123.41H217.577L220.125 129.65C220.567 130.664 220.593 130.846 220.879 131.574H220.983C220.957 130.95 220.931 130.04 220.931 129.39V125.308L220.879 123.41H224.285L224.233 125.308V140.102L224.285 142H222.049L219.267 135.37C219.007 134.798 218.721 133.966 218.617 133.732H218.513C218.565 134.33 218.591 135.24 218.591 135.916V140.102L218.617 142H215.263ZM230.374 142.312C228.918 142.312 227.878 141.922 227.15 141.194C226.136 140.18 225.772 138.36 225.772 135.162V130.248C225.772 126.868 226.188 125.204 227.15 124.242C227.904 123.488 228.996 123.098 230.322 123.098C231.674 123.098 232.818 123.514 233.546 124.216C234.404 125.048 234.898 126.478 234.898 129.494V129.598H231.414V129.442C231.414 127.258 231.414 126.27 230.426 126.27C229.438 126.27 229.36 127.232 229.36 129.52V135.89C229.36 137.996 229.36 139.14 230.426 139.14C231.466 139.14 231.466 138.048 231.466 135.162V135.006H234.95V135.11C234.95 138.776 234.43 140.258 233.52 141.194C232.792 141.948 231.778 142.312 230.374 142.312ZM242.661 134.252H239.671V138.802H243.467V142H236.109L236.135 140.102V125.308L236.109 123.41H243.389V126.556H239.671V130.716H242.661V134.252Z" fill="white"/>
<path opacity="0.6" d="M51.228 184.27C49.56 184.27 48.246 183.826 47.286 182.938C46.338 182.038 45.864 180.784 45.864 179.176V171.184H48.294V179.194C48.294 180.166 48.546 180.904 49.05 181.408C49.554 181.912 50.28 182.164 51.228 182.164C52.176 182.164 52.902 181.912 53.406 181.408C53.91 180.904 54.162 180.166 54.162 179.194V171.184H56.592V179.176C56.592 180.808 56.118 182.068 55.17 182.956C54.222 183.832 52.908 184.27 51.228 184.27ZM62.0349 184.252C59.3229 184.252 57.9069 183.184 57.7869 181.048H60.0009C60.0609 181.624 60.2469 182.032 60.5589 182.272C60.8829 182.512 61.3869 182.632 62.0709 182.632C63.2949 182.632 63.9069 182.26 63.9069 181.516C63.9069 181.18 63.7749 180.922 63.5109 180.742C63.2469 180.562 62.7729 180.412 62.0889 180.292L61.0269 180.112C58.9989 179.776 57.9849 178.84 57.9849 177.304C57.9849 176.428 58.3209 175.744 58.9929 175.252C59.6649 174.748 60.6129 174.496 61.8369 174.496C64.4889 174.496 65.8569 175.546 65.9409 177.646H63.7989C63.7749 177.094 63.6009 176.704 63.2769 176.476C62.9529 176.236 62.4729 176.116 61.8369 176.116C60.7569 176.116 60.2169 176.476 60.2169 177.196C60.2169 177.508 60.3369 177.754 60.5769 177.934C60.8169 178.102 61.2129 178.234 61.7649 178.33L62.9349 178.51C64.0629 178.714 64.8789 179.038 65.3829 179.482C65.8989 179.926 66.1569 180.544 66.1569 181.336C66.1569 182.272 65.7969 182.992 65.0769 183.496C64.3569 184 63.3429 184.252 62.0349 184.252ZM76.1293 179.518V180.058H69.1813C69.2653 180.85 69.5113 181.45 69.9193 181.858C70.3393 182.254 70.8973 182.452 71.5933 182.452C72.6253 182.452 73.3333 182.008 73.7173 181.12H75.8953C75.6553 182.068 75.1513 182.824 74.3833 183.388C73.6153 183.94 72.6793 184.216 71.5753 184.216C70.1953 184.216 69.0793 183.772 68.2273 182.884C67.3753 181.996 66.9493 180.82 66.9493 179.356C66.9493 177.892 67.3693 176.716 68.2093 175.828C69.0613 174.94 70.1713 174.496 71.5393 174.496C72.9433 174.496 74.0593 174.958 74.8873 175.882C75.7153 176.806 76.1293 178.018 76.1293 179.518ZM71.5213 176.26C70.1893 176.26 69.4153 176.998 69.1993 178.474H73.8613C73.7653 177.79 73.5133 177.25 73.1053 176.854C72.6973 176.458 72.1693 176.26 71.5213 176.26ZM89.8305 184H87.5625C87.4545 183.808 87.3705 183.43 87.3105 182.866C86.6865 183.766 85.6905 184.216 84.3225 184.216C83.3025 184.216 82.4865 183.97 81.8745 183.478C81.2745 182.986 80.9745 182.302 80.9745 181.426C80.9745 179.734 82.1625 178.768 84.5385 178.528L85.9425 178.402C86.4105 178.342 86.7465 178.234 86.9505 178.078C87.1545 177.91 87.2565 177.664 87.2565 177.34C87.2565 176.944 87.1245 176.656 86.8605 176.476C86.6085 176.284 86.1765 176.188 85.5645 176.188C84.9045 176.188 84.4305 176.302 84.1425 176.53C83.8545 176.746 83.6865 177.124 83.6385 177.664H81.4065C81.5385 175.552 82.9305 174.496 85.5825 174.496C88.1625 174.496 89.4525 175.426 89.4525 177.286V182.236C89.4525 183.052 89.5785 183.64 89.8305 184ZM84.8625 182.596C85.5705 182.596 86.1465 182.404 86.5905 182.02C87.0345 181.624 87.2565 181.06 87.2565 180.328V179.482C87.0405 179.674 86.6865 179.8 86.1945 179.86L84.9705 180.004C84.3705 180.076 83.9385 180.22 83.6745 180.436C83.4225 180.64 83.2965 180.94 83.2965 181.336C83.2965 181.732 83.4285 182.044 83.6925 182.272C83.9685 182.488 84.3585 182.596 84.8625 182.596ZM100.214 174.496C101.486 174.496 102.5 174.934 103.256 175.81C104 176.698 104.372 177.88 104.372 179.356C104.372 180.82 104 181.996 103.256 182.884C102.5 183.772 101.486 184.216 100.214 184.216C98.9544 184.216 97.9944 183.742 97.3344 182.794V187.528H95.0664V174.712H97.2444V176.044C97.9164 175.012 98.9064 174.496 100.214 174.496ZM97.9284 181.57C98.3364 182.086 98.9184 182.344 99.6744 182.344C100.418 182.344 101.006 182.074 101.438 181.534C101.858 181.006 102.068 180.256 102.068 179.284C102.068 178.336 101.858 177.616 101.438 177.124C101.03 176.62 100.442 176.368 99.6744 176.368C98.9184 176.368 98.3304 176.626 97.9104 177.142C97.4904 177.658 97.2804 178.396 97.2804 179.356C97.2804 180.328 97.4964 181.066 97.9284 181.57ZM110.757 174.568C110.961 174.568 111.147 174.58 111.315 174.604V176.692H110.739C109.875 176.692 109.209 176.914 108.741 177.358C108.285 177.79 108.057 178.432 108.057 179.284V184H105.789V174.712H107.985V176.368C108.501 175.168 109.425 174.568 110.757 174.568ZM121.153 179.356C121.153 180.82 120.721 181.996 119.857 182.884C118.993 183.772 117.853 184.216 116.437 184.216C115.021 184.216 113.881 183.772 113.017 182.884C112.141 182.008 111.703 180.832 111.703 179.356C111.703 177.88 112.141 176.704 113.017 175.828C113.881 174.94 115.021 174.496 116.437 174.496C117.853 174.496 118.993 174.934 119.857 175.81C120.721 176.686 121.153 177.868 121.153 179.356ZM114.655 181.57C115.087 182.086 115.681 182.344 116.437 182.344C117.193 182.344 117.781 182.086 118.201 181.57C118.633 181.042 118.849 180.304 118.849 179.356C118.849 178.408 118.633 177.676 118.201 177.16C117.781 176.632 117.193 176.368 116.437 176.368C115.681 176.368 115.087 176.626 114.655 177.142C114.235 177.658 114.025 178.396 114.025 179.356C114.025 180.316 114.235 181.054 114.655 181.57ZM127.484 177.196L128.384 174.712H130.742L127.286 184H124.676L121.238 174.712H123.668L124.568 177.214C124.988 178.522 125.474 180.1 126.026 181.948C126.47 180.46 126.956 178.876 127.484 177.196ZM140.008 179.518V180.058H133.06C133.144 180.85 133.39 181.45 133.798 181.858C134.218 182.254 134.776 182.452 135.472 182.452C136.504 182.452 137.212 182.008 137.596 181.12H139.774C139.534 182.068 139.03 182.824 138.262 183.388C137.494 183.94 136.558 184.216 135.454 184.216C134.074 184.216 132.958 183.772 132.106 182.884C131.254 181.996 130.828 180.82 130.828 179.356C130.828 177.892 131.248 176.716 132.088 175.828C132.94 174.94 134.05 174.496 135.418 174.496C136.822 174.496 137.938 174.958 138.766 175.882C139.594 176.806 140.008 178.018 140.008 179.518ZM135.4 176.26C134.068 176.26 133.294 176.998 133.078 178.474H137.74C137.644 177.79 137.392 177.25 136.984 176.854C136.576 176.458 136.048 176.26 135.4 176.26ZM146.567 174.496C147.575 174.496 148.367 174.79 148.943 175.378C149.531 175.954 149.825 176.776 149.825 177.844V184H147.557V178.222C147.557 177.046 146.975 176.458 145.811 176.458C145.235 176.458 144.743 176.668 144.335 177.088C143.939 177.496 143.741 178.066 143.741 178.798V184H141.473V174.712H143.669V176.044C144.377 175.012 145.343 174.496 146.567 174.496ZM160.521 174.568C160.725 174.568 160.911 174.58 161.079 174.604V176.692H160.503C159.639 176.692 158.973 176.914 158.505 177.358C158.049 177.79 157.821 178.432 157.821 179.284V184H155.553V174.712H157.749V176.368C158.265 175.168 159.189 174.568 160.521 174.568ZM170.11 184H167.842C167.734 183.808 167.65 183.43 167.59 182.866C166.966 183.766 165.97 184.216 164.602 184.216C163.582 184.216 162.766 183.97 162.154 183.478C161.554 182.986 161.254 182.302 161.254 181.426C161.254 179.734 162.442 178.768 164.818 178.528L166.222 178.402C166.69 178.342 167.026 178.234 167.23 178.078C167.434 177.91 167.536 177.664 167.536 177.34C167.536 176.944 167.404 176.656 167.14 176.476C166.888 176.284 166.456 176.188 165.844 176.188C165.184 176.188 164.71 176.302 164.422 176.53C164.134 176.746 163.966 177.124 163.918 177.664H161.686C161.818 175.552 163.21 174.496 165.862 174.496C168.442 174.496 169.732 175.426 169.732 177.286V182.236C169.732 183.052 169.858 183.64 170.11 184ZM165.142 182.596C165.85 182.596 166.426 182.404 166.87 182.02C167.314 181.624 167.536 181.06 167.536 180.328V179.482C167.32 179.674 166.966 179.8 166.474 179.86L165.25 180.004C164.65 180.076 164.218 180.22 163.954 180.436C163.702 180.64 163.576 180.94 163.576 181.336C163.576 181.732 163.708 182.044 163.972 182.272C164.248 182.488 164.638 182.596 165.142 182.596ZM176.555 174.496C177.563 174.496 178.355 174.79 178.931 175.378C179.519 175.954 179.813 176.776 179.813 177.844V184H177.545V178.222C177.545 177.046 176.963 176.458 175.799 176.458C175.223 176.458 174.731 176.668 174.323 177.088C173.927 177.496 173.729 178.066 173.729 178.798V184H171.461V174.712H173.657V176.044C174.365 175.012 175.331 174.496 176.555 174.496ZM190.584 184H187.992L185.292 179.68L183.888 181.084V184H181.656V171.184H183.888V178.564L187.668 174.712H190.368L186.858 178.222L190.584 184ZM193.627 173.506H191.395V171.382H193.627V173.506ZM193.645 184H191.377V174.712H193.645V184ZM200.567 174.496C201.575 174.496 202.367 174.79 202.943 175.378C203.531 175.954 203.825 176.776 203.825 177.844V184H201.557V178.222C201.557 177.046 200.975 176.458 199.811 176.458C199.235 176.458 198.743 176.668 198.335 177.088C197.939 177.496 197.741 178.066 197.741 178.798V184H195.473V174.712H197.669V176.044C198.377 175.012 199.343 174.496 200.567 174.496ZM212.364 175.99V174.712H214.56V183.694C214.56 184.954 214.158 185.944 213.354 186.664C212.562 187.384 211.434 187.744 209.97 187.744C208.674 187.744 207.654 187.456 206.91 186.88C206.178 186.304 205.776 185.512 205.704 184.504H207.936C208.044 185.5 208.734 185.998 210.006 185.998C210.75 185.998 211.314 185.806 211.698 185.422C212.094 185.038 212.292 184.48 212.292 183.748V182.578C211.62 183.502 210.672 183.964 209.448 183.964C208.188 183.964 207.174 183.526 206.406 182.65C205.638 181.798 205.254 180.658 205.254 179.23C205.254 177.79 205.638 176.644 206.406 175.792C207.162 174.928 208.17 174.496 209.43 174.496C210.738 174.496 211.716 174.994 212.364 175.99ZM209.952 182.092C210.708 182.092 211.296 181.84 211.716 181.336C212.136 180.832 212.346 180.13 212.346 179.23C212.346 178.33 212.136 177.628 211.716 177.124C211.296 176.62 210.708 176.368 209.952 176.368C209.22 176.368 208.638 176.626 208.206 177.142C207.786 177.646 207.576 178.348 207.576 179.248C207.576 180.136 207.786 180.832 208.206 181.336C208.638 181.84 209.22 182.092 209.952 182.092ZM223.929 184.252C221.217 184.252 219.801 183.184 219.681 181.048H221.895C221.955 181.624 222.141 182.032 222.453 182.272C222.777 182.512 223.281 182.632 223.965 182.632C225.189 182.632 225.801 182.26 225.801 181.516C225.801 181.18 225.669 180.922 225.405 180.742C225.141 180.562 224.667 180.412 223.983 180.292L222.921 180.112C220.893 179.776 219.879 178.84 219.879 177.304C219.879 176.428 220.215 175.744 220.887 175.252C221.559 174.748 222.507 174.496 223.731 174.496C226.383 174.496 227.751 175.546 227.835 177.646H225.693C225.669 177.094 225.495 176.704 225.171 176.476C224.847 176.236 224.367 176.116 223.731 176.116C222.651 176.116 222.111 176.476 222.111 177.196C222.111 177.508 222.231 177.754 222.471 177.934C222.711 178.102 223.107 178.234 223.659 178.33L224.829 178.51C225.957 178.714 226.773 179.038 227.277 179.482C227.793 179.926 228.051 180.544 228.051 181.336C228.051 182.272 227.691 182.992 226.971 183.496C226.251 184 225.237 184.252 223.929 184.252ZM234.357 177.052L235.113 174.712H237.489L233.907 184.756C233.523 185.812 233.043 186.538 232.467 186.934C231.879 187.342 231.027 187.546 229.911 187.546C229.539 187.546 229.209 187.528 228.921 187.492V185.71H229.785C230.277 185.71 230.655 185.572 230.919 185.296C231.183 185.02 231.315 184.66 231.315 184.216C231.315 183.772 231.171 183.148 230.883 182.344L228.183 174.712H230.631L231.387 177.034C231.915 178.69 232.407 180.418 232.863 182.218C233.223 180.862 233.721 179.14 234.357 177.052ZM241.929 184.252C239.217 184.252 237.801 183.184 237.681 181.048H239.895C239.955 181.624 240.141 182.032 240.453 182.272C240.777 182.512 241.281 182.632 241.965 182.632C243.189 182.632 243.801 182.26 243.801 181.516C243.801 181.18 243.669 180.922 243.405 180.742C243.141 180.562 242.667 180.412 241.983 180.292L240.921 180.112C238.893 179.776 237.879 178.84 237.879 177.304C237.879 176.428 238.215 175.744 238.887 175.252C239.559 174.748 240.507 174.496 241.731 174.496C244.383 174.496 245.751 175.546 245.835 177.646H243.693C243.669 177.094 243.495 176.704 243.171 176.476C242.847 176.236 242.367 176.116 241.731 176.116C240.651 176.116 240.111 176.476 240.111 177.196C240.111 177.508 240.231 177.754 240.471 177.934C240.711 178.102 241.107 178.234 241.659 178.33L242.829 178.51C243.957 178.714 244.773 179.038 245.277 179.482C245.793 179.926 246.051 180.544 246.051 181.336C246.051 182.272 245.691 182.992 244.971 183.496C244.251 184 243.237 184.252 241.929 184.252ZM251.959 174.712V176.44H250.123V181.462C250.123 181.762 250.201 181.972 250.357 182.092C250.525 182.212 250.801 182.272 251.185 182.272H251.959V184C251.467 184.048 251.071 184.072 250.771 184.072C249.763 184.072 249.025 183.886 248.557 183.514C248.101 183.13 247.873 182.524 247.873 181.696V176.44H246.433V174.712H247.873V172.012H250.123V174.712H251.959ZM261.877 179.518V180.058H254.929C255.013 180.85 255.259 181.45 255.667 181.858C256.087 182.254 256.645 182.452 257.341 182.452C258.373 182.452 259.081 182.008 259.465 181.12H261.643C261.403 182.068 260.899 182.824 260.131 183.388C259.363 183.94 258.427 184.216 257.323 184.216C255.943 184.216 254.827 183.772 253.975 182.884C253.123 181.996 252.697 180.82 252.697 179.356C252.697 177.892 253.117 176.716 253.957 175.828C254.809 174.94 255.919 174.496 257.287 174.496C258.691 174.496 259.807 174.958 260.635 175.882C261.463 176.806 261.877 178.018 261.877 179.518ZM257.269 176.26C255.937 176.26 255.163 176.998 254.947 178.474H259.609C259.513 177.79 259.261 177.25 258.853 176.854C258.445 176.458 257.917 176.26 257.269 176.26ZM273.944 174.496C274.964 174.496 275.756 174.796 276.32 175.396C276.896 175.996 277.184 176.818 277.184 177.862V184H274.916V178.222C274.916 177.046 274.382 176.458 273.314 176.458C272.738 176.458 272.27 176.668 271.91 177.088C271.562 177.496 271.388 178.096 271.388 178.888V184H269.138V178.222C269.138 177.046 268.598 176.458 267.518 176.458C266.954 176.458 266.492 176.668 266.132 177.088C265.784 177.496 265.61 178.096 265.61 178.888V184H263.342V174.712H265.538V176.044C266.174 175.012 267.056 174.496 268.184 174.496C269.6 174.496 270.56 175.072 271.064 176.224C271.76 175.072 272.72 174.496 273.944 174.496ZM291.258 184H288.99C288.882 183.808 288.798 183.43 288.738 182.866C288.114 183.766 287.118 184.216 285.75 184.216C284.73 184.216 283.914 183.97 283.302 183.478C282.702 182.986 282.402 182.302 282.402 181.426C282.402 179.734 283.59 178.768 285.966 178.528L287.37 178.402C287.838 178.342 288.174 178.234 288.378 178.078C288.582 177.91 288.684 177.664 288.684 177.34C288.684 176.944 288.552 176.656 288.288 176.476C288.036 176.284 287.604 176.188 286.992 176.188C286.332 176.188 285.858 176.302 285.57 176.53C285.282 176.746 285.114 177.124 285.066 177.664H282.834C282.966 175.552 284.358 174.496 287.01 174.496C289.59 174.496 290.88 175.426 290.88 177.286V182.236C290.88 183.052 291.006 183.64 291.258 184ZM286.29 182.596C286.998 182.596 287.574 182.404 288.018 182.02C288.462 181.624 288.684 181.06 288.684 180.328V179.482C288.468 179.674 288.114 179.8 287.622 179.86L286.398 180.004C285.798 180.076 285.366 180.22 285.102 180.436C284.85 180.64 284.724 180.94 284.724 181.336C284.724 181.732 284.856 182.044 285.12 182.272C285.396 182.488 285.786 182.596 286.29 182.596ZM297.703 174.496C298.711 174.496 299.503 174.79 300.079 175.378C300.667 175.954 300.961 176.776 300.961 177.844V184H298.693V178.222C298.693 177.046 298.111 176.458 296.947 176.458C296.371 176.458 295.879 176.668 295.471 177.088C295.075 177.496 294.877 178.066 294.877 178.798V184H292.609V174.712H294.805V176.044C295.513 175.012 296.479 174.496 297.703 174.496ZM309.429 175.918V171.184H311.697V184H309.501V182.704C308.817 183.712 307.839 184.216 306.567 184.216C305.283 184.216 304.269 183.772 303.525 182.884C302.769 181.996 302.391 180.82 302.391 179.356C302.391 177.868 302.769 176.686 303.525 175.81C304.257 174.934 305.271 174.496 306.567 174.496C307.815 174.496 308.769 174.97 309.429 175.918ZM304.713 179.428C304.713 180.388 304.923 181.114 305.343 181.606C305.763 182.098 306.345 182.344 307.089 182.344C307.833 182.344 308.421 182.086 308.853 181.57C309.273 181.054 309.483 180.316 309.483 179.356C309.483 178.396 309.273 177.658 308.853 177.142C308.433 176.626 307.845 176.368 307.089 176.368C306.357 176.368 305.775 176.638 305.343 177.178C304.923 177.718 304.713 178.468 304.713 179.428ZM325.764 184H323.496C323.388 183.808 323.304 183.43 323.244 182.866C322.62 183.766 321.624 184.216 320.256 184.216C319.236 184.216 318.42 183.97 317.808 183.478C317.208 182.986 316.908 182.302 316.908 181.426C316.908 179.734 318.096 178.768 320.472 178.528L321.876 178.402C322.344 178.342 322.68 178.234 322.884 178.078C323.088 177.91 323.19 177.664 323.19 177.34C323.19 176.944 323.058 176.656 322.794 176.476C322.542 176.284 322.11 176.188 321.498 176.188C320.838 176.188 320.364 176.302 320.076 176.53C319.788 176.746 319.62 177.124 319.572 177.664H317.34C317.472 175.552 318.864 174.496 321.516 174.496C324.096 174.496 325.386 175.426 325.386 177.286V182.236C325.386 183.052 325.512 183.64 325.764 184ZM320.796 182.596C321.504 182.596 322.08 182.404 322.524 182.02C322.968 181.624 323.19 181.06 323.19 180.328V179.482C322.974 179.674 322.62 179.8 322.128 179.86L320.904 180.004C320.304 180.076 319.872 180.22 319.608 180.436C319.356 180.64 319.23 180.94 319.23 181.336C319.23 181.732 319.362 182.044 319.626 182.272C319.902 182.488 320.292 182.596 320.796 182.596ZM333.502 181.948H340.108V184H330.784L330.838 183.046C330.886 182.062 331.09 181.18 331.45 180.4C331.894 179.428 332.812 178.624 334.204 177.988L335.464 177.34C336.208 176.98 336.736 176.614 337.048 176.242C337.36 175.87 337.516 175.408 337.516 174.856C337.516 174.268 337.33 173.806 336.958 173.47C336.586 173.122 336.07 172.948 335.41 172.948C333.934 172.948 333.196 173.728 333.196 175.288H330.856C330.844 173.908 331.234 172.834 332.026 172.066C332.83 171.286 333.982 170.896 335.482 170.896C336.862 170.896 337.954 171.244 338.758 171.94C339.562 172.636 339.964 173.548 339.964 174.676C339.964 175.648 339.694 176.476 339.154 177.16C338.614 177.832 337.756 178.462 336.58 179.05L335.392 179.68C334.72 180.04 334.246 180.382 333.97 180.706C333.706 181.018 333.55 181.432 333.502 181.948ZM348.927 177.196C350.415 177.772 351.159 178.828 351.159 180.364C351.159 181.564 350.709 182.512 349.809 183.208C348.897 183.928 347.673 184.288 346.137 184.288C344.601 184.288 343.383 183.928 342.483 183.208C341.583 182.512 341.133 181.564 341.133 180.364C341.133 178.852 341.871 177.796 343.347 177.196C342.219 176.608 341.655 175.69 341.655 174.442C341.655 173.35 342.069 172.486 342.897 171.85C343.737 171.214 344.817 170.896 346.137 170.896C347.457 170.896 348.537 171.214 349.377 171.85C350.205 172.486 350.619 173.35 350.619 174.442C350.619 175.69 350.055 176.608 348.927 177.196ZM348.405 174.586C348.405 173.998 348.201 173.542 347.793 173.218C347.385 172.894 346.833 172.732 346.137 172.732C345.465 172.732 344.919 172.894 344.499 173.218C344.079 173.542 343.869 173.998 343.869 174.586C343.869 175.15 344.073 175.594 344.481 175.918C344.889 176.242 345.441 176.404 346.137 176.404C346.833 176.404 347.385 176.242 347.793 175.918C348.201 175.594 348.405 175.15 348.405 174.586ZM346.137 182.344C346.965 182.344 347.601 182.158 348.045 181.786C348.501 181.414 348.729 180.892 348.729 180.22C348.729 179.536 348.501 179.008 348.045 178.636C347.589 178.264 346.953 178.078 346.137 178.078C345.321 178.078 344.685 178.264 344.229 178.636C343.773 179.008 343.545 179.536 343.545 180.22C343.545 180.892 343.773 181.414 344.229 181.786C344.685 182.158 345.321 182.344 346.137 182.344ZM357.573 179.914H352.227V177.97H357.573V179.914ZM52.542 202.918V198.184H54.81V211H52.614V209.704C51.93 210.712 50.952 211.216 49.68 211.216C48.396 211.216 47.382 210.772 46.638 209.884C45.882 208.996 45.504 207.82 45.504 206.356C45.504 204.868 45.882 203.686 46.638 202.81C47.37 201.934 48.384 201.496 49.68 201.496C50.928 201.496 51.882 201.97 52.542 202.918ZM47.826 206.428C47.826 207.388 48.036 208.114 48.456 208.606C48.876 209.098 49.458 209.344 50.202 209.344C50.946 209.344 51.534 209.086 51.966 208.57C52.386 208.054 52.596 207.316 52.596 206.356C52.596 205.396 52.386 204.658 51.966 204.142C51.546 203.626 50.958 203.368 50.202 203.368C49.47 203.368 48.888 203.638 48.456 204.178C48.036 204.718 47.826 205.468 47.826 206.428ZM64.9927 211H62.7247C62.6167 210.808 62.5327 210.43 62.4727 209.866C61.8487 210.766 60.8527 211.216 59.4847 211.216C58.4647 211.216 57.6487 210.97 57.0367 210.478C56.4367 209.986 56.1367 209.302 56.1367 208.426C56.1367 206.734 57.3247 205.768 59.7007 205.528L61.1047 205.402C61.5727 205.342 61.9087 205.234 62.1127 205.078C62.3167 204.91 62.4187 204.664 62.4187 204.34C62.4187 203.944 62.2867 203.656 62.0227 203.476C61.7707 203.284 61.3387 203.188 60.7267 203.188C60.0667 203.188 59.5927 203.302 59.3047 203.53C59.0167 203.746 58.8487 204.124 58.8007 204.664H56.5687C56.7007 202.552 58.0927 201.496 60.7447 201.496C63.3247 201.496 64.6147 202.426 64.6147 204.286V209.236C64.6147 210.052 64.7407 210.64 64.9927 211ZM60.0247 209.596C60.7327 209.596 61.3087 209.404 61.7527 209.02C62.1967 208.624 62.4187 208.06 62.4187 207.328V206.482C62.2027 206.674 61.8487 206.8 61.3567 206.86L60.1327 207.004C59.5327 207.076 59.1007 207.22 58.8367 207.436C58.5847 207.64 58.4587 207.94 58.4587 208.336C58.4587 208.732 58.5907 209.044 58.8547 209.272C59.1307 209.488 59.5207 209.596 60.0247 209.596ZM71.1968 204.052L71.9528 201.712H74.3288L70.7468 211.756C70.3628 212.812 69.8828 213.538 69.3068 213.934C68.7188 214.342 67.8668 214.546 66.7508 214.546C66.3788 214.546 66.0488 214.528 65.7608 214.492V212.71H66.6248C67.1168 212.71 67.4948 212.572 67.7588 212.296C68.0228 212.02 68.1548 211.66 68.1548 211.216C68.1548 210.772 68.0108 210.148 67.7228 209.344L65.0228 201.712H67.4708L68.2268 204.034C68.7548 205.69 69.2468 207.418 69.7028 209.218C70.0628 207.862 70.5608 206.14 71.1968 204.052ZM84.3238 201.496C85.5958 201.496 86.6098 201.934 87.3658 202.81C88.1098 203.698 88.4818 204.88 88.4818 206.356C88.4818 207.82 88.1098 208.996 87.3658 209.884C86.6098 210.772 85.5958 211.216 84.3238 211.216C83.0638 211.216 82.1038 210.742 81.4438 209.794V214.528H79.1758V201.712H81.3538V203.044C82.0258 202.012 83.0158 201.496 84.3238 201.496ZM82.0378 208.57C82.4458 209.086 83.0278 209.344 83.7838 209.344C84.5278 209.344 85.1158 209.074 85.5478 208.534C85.9678 208.006 86.1778 207.256 86.1778 206.284C86.1778 205.336 85.9678 204.616 85.5478 204.124C85.1398 203.62 84.5518 203.368 83.7838 203.368C83.0278 203.368 82.4398 203.626 82.0198 204.142C81.5998 204.658 81.3898 205.396 81.3898 206.356C81.3898 207.328 81.6058 208.066 82.0378 208.57ZM92.1665 211H89.8985V198.184H92.1665V211ZM102.346 211H100.078C99.9702 210.808 99.8862 210.43 99.8262 209.866C99.2022 210.766 98.2062 211.216 96.8382 211.216C95.8182 211.216 95.0022 210.97 94.3902 210.478C93.7902 209.986 93.4902 209.302 93.4902 208.426C93.4902 206.734 94.6782 205.768 97.0542 205.528L98.4582 205.402C98.9262 205.342 99.2622 205.234 99.4662 205.078C99.6702 204.91 99.7722 204.664 99.7722 204.34C99.7722 203.944 99.6402 203.656 99.3762 203.476C99.1242 203.284 98.6922 203.188 98.0802 203.188C97.4202 203.188 96.9462 203.302 96.6582 203.53C96.3702 203.746 96.2022 204.124 96.1542 204.664H93.9222C94.0542 202.552 95.4462 201.496 98.0982 201.496C100.678 201.496 101.968 202.426 101.968 204.286V209.236C101.968 210.052 102.094 210.64 102.346 211ZM97.3782 209.596C98.0862 209.596 98.6622 209.404 99.1062 209.02C99.5502 208.624 99.7722 208.06 99.7722 207.328V206.482C99.5562 206.674 99.2022 206.8 98.7102 206.86L97.4862 207.004C96.8862 207.076 96.4542 207.22 96.1902 207.436C95.9382 207.64 95.8122 207.94 95.8122 208.336C95.8122 208.732 95.9442 209.044 96.2082 209.272C96.4842 209.488 96.8742 209.596 97.3782 209.596ZM108.791 201.496C109.799 201.496 110.591 201.79 111.167 202.378C111.755 202.954 112.049 203.776 112.049 204.844V211H109.781V205.222C109.781 204.046 109.199 203.458 108.035 203.458C107.459 203.458 106.967 203.668 106.559 204.088C106.163 204.496 105.965 205.066 105.965 205.798V211H103.697V201.712H105.893V203.044C106.601 202.012 107.567 201.496 108.791 201.496ZM122.619 201.712V203.44H120.783V208.462C120.783 208.762 120.861 208.972 121.017 209.092C121.185 209.212 121.461 209.272 121.845 209.272H122.619V211C122.127 211.048 121.731 211.072 121.431 211.072C120.423 211.072 119.685 210.886 119.217 210.514C118.761 210.13 118.533 209.524 118.533 208.696V203.44H117.093V201.712H118.533V199.012H120.783V201.712H122.619ZM132.808 206.356C132.808 207.82 132.376 208.996 131.512 209.884C130.648 210.772 129.508 211.216 128.092 211.216C126.676 211.216 125.536 210.772 124.672 209.884C123.796 209.008 123.358 207.832 123.358 206.356C123.358 204.88 123.796 203.704 124.672 202.828C125.536 201.94 126.676 201.496 128.092 201.496C129.508 201.496 130.648 201.934 131.512 202.81C132.376 203.686 132.808 204.868 132.808 206.356ZM126.31 208.57C126.742 209.086 127.336 209.344 128.092 209.344C128.848 209.344 129.436 209.086 129.856 208.57C130.288 208.042 130.504 207.304 130.504 206.356C130.504 205.408 130.288 204.676 129.856 204.16C129.436 203.632 128.848 203.368 128.092 203.368C127.336 203.368 126.742 203.626 126.31 204.142C125.89 204.658 125.68 205.396 125.68 206.356C125.68 207.316 125.89 208.054 126.31 208.57ZM142.957 201.712V203.44H141.121V208.462C141.121 208.762 141.199 208.972 141.355 209.092C141.523 209.212 141.799 209.272 142.183 209.272H142.957V211C142.465 211.048 142.069 211.072 141.769 211.072C140.761 211.072 140.023 210.886 139.555 210.514C139.099 210.13 138.871 209.524 138.871 208.696V203.44H137.431V201.712H138.871V199.012H141.121V201.712H142.957ZM152.875 206.518V207.058H145.927C146.011 207.85 146.257 208.45 146.665 208.858C147.085 209.254 147.643 209.452 148.339 209.452C149.371 209.452 150.079 209.008 150.463 208.12H152.641C152.401 209.068 151.897 209.824 151.129 210.388C150.361 210.94 149.425 211.216 148.321 211.216C146.941 211.216 145.825 210.772 144.973 209.884C144.121 208.996 143.695 207.82 143.695 206.356C143.695 204.892 144.115 203.716 144.955 202.828C145.807 201.94 146.917 201.496 148.285 201.496C149.689 201.496 150.805 201.958 151.633 202.882C152.461 203.806 152.875 205.018 152.875 206.518ZM148.267 203.26C146.935 203.26 146.161 203.998 145.945 205.474H150.607C150.511 204.79 150.259 204.25 149.851 203.854C149.443 203.458 148.915 203.26 148.267 203.26ZM157.976 211.252C155.264 211.252 153.848 210.184 153.728 208.048H155.942C156.002 208.624 156.188 209.032 156.5 209.272C156.824 209.512 157.328 209.632 158.012 209.632C159.236 209.632 159.848 209.26 159.848 208.516C159.848 208.18 159.716 207.922 159.452 207.742C159.188 207.562 158.714 207.412 158.03 207.292L156.968 207.112C154.94 206.776 153.926 205.84 153.926 204.304C153.926 203.428 154.262 202.744 154.934 202.252C155.606 201.748 156.554 201.496 157.778 201.496C160.43 201.496 161.798 202.546 161.882 204.646H159.74C159.716 204.094 159.542 203.704 159.218 203.476C158.894 203.236 158.414 203.116 157.778 203.116C156.698 203.116 156.158 203.476 156.158 204.196C156.158 204.508 156.278 204.754 156.518 204.934C156.758 205.102 157.154 205.234 157.706 205.33L158.876 205.51C160.004 205.714 160.82 206.038 161.324 206.482C161.84 206.926 162.098 207.544 162.098 208.336C162.098 209.272 161.738 209.992 161.018 210.496C160.298 211 159.284 211.252 157.976 211.252ZM168.006 201.712V203.44H166.17V208.462C166.17 208.762 166.248 208.972 166.404 209.092C166.572 209.212 166.848 209.272 167.232 209.272H168.006V211C167.514 211.048 167.118 211.072 166.818 211.072C165.81 211.072 165.072 210.886 164.604 210.514C164.148 210.13 163.92 209.524 163.92 208.696V203.44H162.48V201.712H163.92V199.012H166.17V201.712H168.006ZM181.571 211H179.303C179.195 210.808 179.111 210.43 179.051 209.866C178.427 210.766 177.431 211.216 176.063 211.216C175.043 211.216 174.227 210.97 173.615 210.478C173.015 209.986 172.715 209.302 172.715 208.426C172.715 206.734 173.903 205.768 176.279 205.528L177.683 205.402C178.151 205.342 178.487 205.234 178.691 205.078C178.895 204.91 178.997 204.664 178.997 204.34C178.997 203.944 178.865 203.656 178.601 203.476C178.349 203.284 177.917 203.188 177.305 203.188C176.645 203.188 176.171 203.302 175.883 203.53C175.595 203.746 175.427 204.124 175.379 204.664H173.147C173.279 202.552 174.671 201.496 177.323 201.496C179.903 201.496 181.193 202.426 181.193 204.286V209.236C181.193 210.052 181.319 210.64 181.571 211ZM176.603 209.596C177.311 209.596 177.887 209.404 178.331 209.02C178.775 208.624 178.997 208.06 178.997 207.328V206.482C178.781 206.674 178.427 206.8 177.935 206.86L176.711 207.004C176.111 207.076 175.679 207.22 175.415 207.436C175.163 207.64 175.037 207.94 175.037 208.336C175.037 208.732 175.169 209.044 175.433 209.272C175.709 209.488 176.099 209.596 176.603 209.596ZM188.016 201.496C189.024 201.496 189.816 201.79 190.392 202.378C190.98 202.954 191.274 203.776 191.274 204.844V211H189.006V205.222C189.006 204.046 188.424 203.458 187.26 203.458C186.684 203.458 186.192 203.668 185.784 204.088C185.388 204.496 185.19 205.066 185.19 205.798V211H182.922V201.712H185.118V203.044C185.826 202.012 186.792 201.496 188.016 201.496ZM199.741 202.918V198.184H202.009V211H199.813V209.704C199.129 210.712 198.151 211.216 196.879 211.216C195.595 211.216 194.581 210.772 193.837 209.884C193.081 208.996 192.703 207.82 192.703 206.356C192.703 204.868 193.081 203.686 193.837 202.81C194.569 201.934 195.583 201.496 196.879 201.496C198.127 201.496 199.081 201.97 199.741 202.918ZM195.025 206.428C195.025 207.388 195.235 208.114 195.655 208.606C196.075 209.098 196.657 209.344 197.401 209.344C198.145 209.344 198.733 209.086 199.165 208.57C199.585 208.054 199.795 207.316 199.795 206.356C199.795 205.396 199.585 204.658 199.165 204.142C198.745 203.626 198.157 203.368 197.401 203.368C196.669 203.368 196.087 203.638 195.655 204.178C195.235 204.718 195.025 205.468 195.025 206.428ZM209.993 211H207.725V198.184H209.993V211ZM220.172 211H217.904C217.796 210.808 217.712 210.43 217.652 209.866C217.028 210.766 216.032 211.216 214.664 211.216C213.644 211.216 212.828 210.97 212.216 210.478C211.616 209.986 211.316 209.302 211.316 208.426C211.316 206.734 212.504 205.768 214.88 205.528L216.284 205.402C216.752 205.342 217.088 205.234 217.292 205.078C217.496 204.91 217.598 204.664 217.598 204.34C217.598 203.944 217.466 203.656 217.202 203.476C216.95 203.284 216.518 203.188 215.906 203.188C215.246 203.188 214.772 203.302 214.484 203.53C214.196 203.746 214.028 204.124 213.98 204.664H211.748C211.88 202.552 213.272 201.496 215.924 201.496C218.504 201.496 219.794 202.426 219.794 204.286V209.236C219.794 210.052 219.92 210.64 220.172 211ZM215.204 209.596C215.912 209.596 216.488 209.404 216.932 209.02C217.376 208.624 217.598 208.06 217.598 207.328V206.482C217.382 206.674 217.028 206.8 216.536 206.86L215.312 207.004C214.712 207.076 214.28 207.22 214.016 207.436C213.764 207.64 213.638 207.94 213.638 208.336C213.638 208.732 213.77 209.044 214.034 209.272C214.31 209.488 214.7 209.596 215.204 209.596ZM227.572 206.914V201.712H229.84V211H227.644V209.65C226.936 210.694 225.964 211.216 224.728 211.216C223.732 211.216 222.94 210.928 222.352 210.352C221.776 209.764 221.488 208.936 221.488 207.868V201.712H223.756V207.49C223.756 208.666 224.338 209.254 225.502 209.254C226.078 209.254 226.564 209.05 226.96 208.642C227.368 208.222 227.572 207.646 227.572 206.914ZM236.778 201.496C237.786 201.496 238.578 201.79 239.154 202.378C239.742 202.954 240.036 203.776 240.036 204.844V211H237.768V205.222C237.768 204.046 237.186 203.458 236.022 203.458C235.446 203.458 234.954 203.668 234.546 204.088C234.15 204.496 233.952 205.066 233.952 205.798V211H231.684V201.712H233.88V203.044C234.588 202.012 235.554 201.496 236.778 201.496ZM246.055 211.216C244.687 211.216 243.577 210.772 242.725 209.884C241.885 209.008 241.465 207.832 241.465 206.356C241.465 204.868 241.885 203.686 242.725 202.81C243.553 201.934 244.663 201.496 246.055 201.496C247.267 201.496 248.257 201.82 249.025 202.468C249.793 203.104 250.243 203.968 250.375 205.06H248.107C247.999 204.52 247.765 204.106 247.405 203.818C247.045 203.53 246.595 203.386 246.055 203.386C245.347 203.386 244.789 203.644 244.381 204.16C243.985 204.664 243.787 205.396 243.787 206.356C243.787 207.316 243.991 208.054 244.399 208.57C244.807 209.074 245.359 209.326 246.055 209.326C246.607 209.326 247.069 209.176 247.441 208.876C247.825 208.564 248.059 208.12 248.143 207.544H250.411C250.291 208.66 249.835 209.554 249.043 210.226C248.251 210.886 247.255 211.216 246.055 211.216ZM256.746 201.496C257.754 201.496 258.546 201.79 259.122 202.378C259.71 202.954 260.004 203.776 260.004 204.844V211H257.736V205.222C257.736 204.046 257.154 203.458 255.99 203.458C255.414 203.458 254.922 203.668 254.514 204.088C254.118 204.496 253.92 205.066 253.92 205.798V211H251.652V198.184H253.92V202.954C254.628 201.982 255.57 201.496 256.746 201.496ZM271.042 204.052L271.798 201.712H274.174L270.592 211.756C270.208 212.812 269.728 213.538 269.152 213.934C268.564 214.342 267.712 214.546 266.596 214.546C266.224 214.546 265.894 214.528 265.606 214.492V212.71H266.47C266.962 212.71 267.34 212.572 267.604 212.296C267.868 212.02 268 211.66 268 211.216C268 210.772 267.856 210.148 267.568 209.344L264.868 201.712H267.316L268.072 204.034C268.6 205.69 269.092 207.418 269.548 209.218C269.908 207.862 270.406 206.14 271.042 204.052ZM283.698 206.356C283.698 207.82 283.266 208.996 282.402 209.884C281.538 210.772 280.398 211.216 278.982 211.216C277.566 211.216 276.426 210.772 275.562 209.884C274.686 209.008 274.248 207.832 274.248 206.356C274.248 204.88 274.686 203.704 275.562 202.828C276.426 201.94 277.566 201.496 278.982 201.496C280.398 201.496 281.538 201.934 282.402 202.81C283.266 203.686 283.698 204.868 283.698 206.356ZM277.2 208.57C277.632 209.086 278.226 209.344 278.982 209.344C279.738 209.344 280.326 209.086 280.746 208.57C281.178 208.042 281.394 207.304 281.394 206.356C281.394 205.408 281.178 204.676 280.746 204.16C280.326 203.632 279.738 203.368 278.982 203.368C278.226 203.368 277.632 203.626 277.2 204.142C276.78 204.658 276.57 205.396 276.57 206.356C276.57 207.316 276.78 208.054 277.2 208.57ZM290.977 206.914V201.712H293.245V211H291.049V209.65C290.341 210.694 289.369 211.216 288.133 211.216C287.137 211.216 286.345 210.928 285.757 210.352C285.181 209.764 284.893 208.936 284.893 207.868V201.712H287.161V207.49C287.161 208.666 287.743 209.254 288.907 209.254C289.483 209.254 289.969 209.05 290.365 208.642C290.773 208.222 290.977 207.646 290.977 206.914ZM300.056 201.568C300.26 201.568 300.446 201.58 300.614 201.604V203.692H300.038C299.174 203.692 298.508 203.914 298.04 204.358C297.584 204.79 297.356 205.432 297.356 206.284V211H295.088V201.712H297.284V203.368C297.8 202.168 298.724 201.568 300.056 201.568ZM310.976 201.496C312.248 201.496 313.262 201.934 314.018 202.81C314.762 203.698 315.134 204.88 315.134 206.356C315.134 207.82 314.762 208.996 314.018 209.884C313.262 210.772 312.248 211.216 310.976 211.216C309.668 211.216 308.678 210.7 308.006 209.668V211H305.828V198.184H308.096V202.918C308.756 201.97 309.716 201.496 310.976 201.496ZM308.69 208.57C309.098 209.086 309.68 209.344 310.436 209.344C311.18 209.344 311.768 209.074 312.2 208.534C312.62 208.006 312.83 207.256 312.83 206.284C312.83 205.336 312.62 204.616 312.2 204.124C311.792 203.62 311.204 203.368 310.436 203.368C309.68 203.368 309.092 203.626 308.672 204.142C308.252 204.658 308.042 205.396 308.042 206.356C308.042 207.328 308.258 208.066 308.69 208.57ZM325.317 206.518V207.058H318.369C318.453 207.85 318.699 208.45 319.107 208.858C319.527 209.254 320.085 209.452 320.781 209.452C321.813 209.452 322.521 209.008 322.905 208.12H325.083C324.843 209.068 324.339 209.824 323.571 210.388C322.803 210.94 321.867 211.216 320.763 211.216C319.383 211.216 318.267 210.772 317.415 209.884C316.563 208.996 316.137 207.82 316.137 206.356C316.137 204.892 316.557 203.716 317.397 202.828C318.249 201.94 319.359 201.496 320.727 201.496C322.131 201.496 323.247 201.958 324.075 202.882C324.903 203.806 325.317 205.018 325.317 206.518ZM320.709 203.26C319.377 203.26 318.603 203.998 318.387 205.474H323.049C322.953 204.79 322.701 204.25 322.293 203.854C321.885 203.458 321.357 203.26 320.709 203.26ZM330.418 211.252C327.706 211.252 326.29 210.184 326.17 208.048H328.384C328.444 208.624 328.63 209.032 328.942 209.272C329.266 209.512 329.77 209.632 330.454 209.632C331.678 209.632 332.29 209.26 332.29 208.516C332.29 208.18 332.158 207.922 331.894 207.742C331.63 207.562 331.156 207.412 330.472 207.292L329.41 207.112C327.382 206.776 326.368 205.84 326.368 204.304C326.368 203.428 326.704 202.744 327.376 202.252C328.048 201.748 328.996 201.496 330.22 201.496C332.872 201.496 334.24 202.546 334.324 204.646H332.182C332.158 204.094 331.984 203.704 331.66 203.476C331.336 203.236 330.856 203.116 330.22 203.116C329.14 203.116 328.6 203.476 328.6 204.196C328.6 204.508 328.72 204.754 328.96 204.934C329.2 205.102 329.596 205.234 330.148 205.33L331.318 205.51C332.446 205.714 333.262 206.038 333.766 206.482C334.282 206.926 334.54 207.544 334.54 208.336C334.54 209.272 334.18 209.992 333.46 210.496C332.74 211 331.726 211.252 330.418 211.252ZM340.448 201.712V203.44H338.612V208.462C338.612 208.762 338.69 208.972 338.846 209.092C339.014 209.212 339.29 209.272 339.674 209.272H340.448V211C339.956 211.048 339.56 211.072 339.26 211.072C338.252 211.072 337.514 210.886 337.046 210.514C336.59 210.13 336.362 209.524 336.362 208.696V203.44H334.922V201.712H336.362V199.012H338.612V201.712H340.448ZM347.91 200.506H345.678V198.382H347.91V200.506ZM347.928 211H345.66V201.712H347.928V211ZM356.38 202.918V198.184H358.648V211H356.452V209.704C355.768 210.712 354.79 211.216 353.518 211.216C352.234 211.216 351.22 210.772 350.476 209.884C349.72 208.996 349.342 207.82 349.342 206.356C349.342 204.868 349.72 203.686 350.476 202.81C351.208 201.934 352.222 201.496 353.518 201.496C354.766 201.496 355.72 201.97 356.38 202.918ZM351.664 206.428C351.664 207.388 351.874 208.114 352.294 208.606C352.714 209.098 353.296 209.344 354.04 209.344C354.784 209.344 355.372 209.086 355.804 208.57C356.224 208.054 356.434 207.316 356.434 206.356C356.434 205.396 356.224 204.658 355.804 204.142C355.384 203.626 354.796 203.368 354.04 203.368C353.308 203.368 352.726 203.638 352.294 204.178C351.874 204.718 351.664 205.468 351.664 206.428ZM369.245 206.518V207.058H362.297C362.381 207.85 362.627 208.45 363.035 208.858C363.455 209.254 364.013 209.452 364.709 209.452C365.741 209.452 366.449 209.008 366.833 208.12H369.011C368.771 209.068 368.267 209.824 367.499 210.388C366.731 210.94 365.795 211.216 364.691 211.216C363.311 211.216 362.195 210.772 361.343 209.884C360.491 208.996 360.065 207.82 360.065 206.356C360.065 204.892 360.485 203.716 361.325 202.828C362.177 201.94 363.287 201.496 364.655 201.496C366.059 201.496 367.175 201.958 368.003 202.882C368.831 203.806 369.245 205.018 369.245 206.518ZM364.637 203.26C363.305 203.26 362.531 203.998 362.315 205.474H366.977C366.881 204.79 366.629 204.25 366.221 203.854C365.813 203.458 365.285 203.26 364.637 203.26ZM378.973 211H376.705C376.597 210.808 376.513 210.43 376.453 209.866C375.829 210.766 374.833 211.216 373.465 211.216C372.445 211.216 371.629 210.97 371.017 210.478C370.417 209.986 370.117 209.302 370.117 208.426C370.117 206.734 371.305 205.768 373.681 205.528L375.085 205.402C375.553 205.342 375.889 205.234 376.093 205.078C376.297 204.91 376.399 204.664 376.399 204.34C376.399 203.944 376.267 203.656 376.003 203.476C375.751 203.284 375.319 203.188 374.707 203.188C374.047 203.188 373.573 203.302 373.285 203.53C372.997 203.746 372.829 204.124 372.781 204.664H370.549C370.681 202.552 372.073 201.496 374.725 201.496C377.305 201.496 378.595 202.426 378.595 204.286V209.236C378.595 210.052 378.721 210.64 378.973 211ZM374.005 209.596C374.713 209.596 375.289 209.404 375.733 209.02C376.177 208.624 376.399 208.06 376.399 207.328V206.482C376.183 206.674 375.829 206.8 375.337 206.86L374.113 207.004C373.513 207.076 373.081 207.22 372.817 207.436C372.565 207.64 372.439 207.94 372.439 208.336C372.439 208.732 372.571 209.044 372.835 209.272C373.111 209.488 373.501 209.596 374.005 209.596ZM61.902 233.914H45.594V231.97H61.902V233.914ZM65.6762 238H63.4082V225.184H65.6762V238ZM69.7539 227.506H67.5219V225.382H69.7539V227.506ZM69.7719 238H67.5039V228.712H69.7719V238ZM80.5276 238H77.9356L75.2356 233.68L73.8316 235.084V238H71.5996V225.184H73.8316V232.564L77.6116 228.712H80.3116L76.8016 232.222L80.5276 238ZM89.559 233.518V234.058H82.611C82.695 234.85 82.941 235.45 83.349 235.858C83.769 236.254 84.327 236.452 85.023 236.452C86.055 236.452 86.763 236.008 87.147 235.12H89.325C89.085 236.068 88.581 236.824 87.813 237.388C87.045 237.94 86.109 238.216 85.005 238.216C83.625 238.216 82.509 237.772 81.657 236.884C80.805 235.996 80.379 234.82 80.379 233.356C80.379 231.892 80.799 230.716 81.639 229.828C82.491 228.94 83.601 228.496 84.969 228.496C86.373 228.496 87.489 228.958 88.317 229.882C89.145 230.806 89.559 232.018 89.559 233.518ZM84.951 230.26C83.619 230.26 82.845 230.998 82.629 232.474H87.291C87.195 231.79 86.943 231.25 86.535 230.854C86.127 230.458 85.599 230.26 84.951 230.26ZM103.26 238H100.992C100.884 237.808 100.8 237.43 100.74 236.866C100.116 237.766 99.1202 238.216 97.7522 238.216C96.7322 238.216 95.9162 237.97 95.3042 237.478C94.7042 236.986 94.4042 236.302 94.4042 235.426C94.4042 233.734 95.5922 232.768 97.9682 232.528L99.3722 232.402C99.8402 232.342 100.176 232.234 100.38 232.078C100.584 231.91 100.686 231.664 100.686 231.34C100.686 230.944 100.554 230.656 100.29 230.476C100.038 230.284 99.6062 230.188 98.9942 230.188C98.3342 230.188 97.8602 230.302 97.5722 230.53C97.2842 230.746 97.1162 231.124 97.0682 231.664H94.8362C94.9682 229.552 96.3602 228.496 99.0122 228.496C101.592 228.496 102.882 229.426 102.882 231.286V236.236C102.882 237.052 103.008 237.64 103.26 238ZM98.2922 236.596C99.0002 236.596 99.5762 236.404 100.02 236.02C100.464 235.624 100.686 235.06 100.686 234.328V233.482C100.47 233.674 100.116 233.8 99.6242 233.86L98.4002 234.004C97.8002 234.076 97.3682 234.22 97.1042 234.436C96.8522 234.64 96.7262 234.94 96.7262 235.336C96.7262 235.732 96.8582 236.044 97.1222 236.272C97.3982 236.488 97.7882 236.596 98.2922 236.596ZM113.644 228.496C114.916 228.496 115.93 228.934 116.686 229.81C117.43 230.698 117.802 231.88 117.802 233.356C117.802 234.82 117.43 235.996 116.686 236.884C115.93 237.772 114.916 238.216 113.644 238.216C112.384 238.216 111.424 237.742 110.764 236.794V241.528H108.496V228.712H110.674V230.044C111.346 229.012 112.336 228.496 113.644 228.496ZM111.358 235.57C111.766 236.086 112.348 236.344 113.104 236.344C113.848 236.344 114.436 236.074 114.868 235.534C115.288 235.006 115.498 234.256 115.498 233.284C115.498 232.336 115.288 231.616 114.868 231.124C114.46 230.62 113.872 230.368 113.104 230.368C112.348 230.368 111.76 230.626 111.34 231.142C110.92 231.658 110.71 232.396 110.71 233.356C110.71 234.328 110.926 235.066 111.358 235.57ZM124.187 228.568C124.391 228.568 124.577 228.58 124.745 228.604V230.692H124.169C123.305 230.692 122.639 230.914 122.171 231.358C121.715 231.79 121.487 232.432 121.487 233.284V238H119.219V228.712H121.415V230.368C121.931 229.168 122.855 228.568 124.187 228.568ZM134.583 233.356C134.583 234.82 134.151 235.996 133.287 236.884C132.423 237.772 131.283 238.216 129.867 238.216C128.451 238.216 127.311 237.772 126.447 236.884C125.571 236.008 125.133 234.832 125.133 233.356C125.133 231.88 125.571 230.704 126.447 229.828C127.311 228.94 128.451 228.496 129.867 228.496C131.283 228.496 132.423 228.934 133.287 229.81C134.151 230.686 134.583 231.868 134.583 233.356ZM128.085 235.57C128.517 236.086 129.111 236.344 129.867 236.344C130.623 236.344 131.211 236.086 131.631 235.57C132.063 235.042 132.279 234.304 132.279 233.356C132.279 232.408 132.063 231.676 131.631 231.16C131.211 230.632 130.623 230.368 129.867 230.368C129.111 230.368 128.517 230.626 128.085 231.142C127.665 231.658 127.455 232.396 127.455 233.356C127.455 234.316 127.665 235.054 128.085 235.57ZM137.926 238H135.28V235.426H137.926V238Z" fill="white"/>
</g>
<defs>
<filter id="filter0_di_6_2507" x="0.6" y="0.255943" width="424.8" height="293.8" filterUnits="userSpaceOnUse" color-interpolation-filters="sRGB">
<feFlood flood-opacity="0" result="BackgroundImageFix"/>
<feColorMatrix in="SourceAlpha" type="matrix" values="0 0 0 0 0 0 0 0 0 0 0 0 0 0 0 0 0 0 127 0" result="hardAlpha"/>
<feOffset dy="4.65594"/>
<feGaussianBlur stdDeviation="10.2"/>
<feComposite in2="hardAlpha" operator="out"/>
<feColorMatrix type="matrix" values="0 0 0 0 0 0 0 0 0 0 0 0 0 0 0 0 0 0 0.06 0"/>
<feBlend mode="normal" in2="BackgroundImageFix" result="effect1_dropShadow_6_2507"/>
<feBlend mode="normal" in="SourceGraphic" in2="effect1_dropShadow_6_2507" result="shape"/>
<feColorMatrix in="SourceAlpha" type="matrix" values="0 0 0 0 0 0 0 0 0 0 0 0 0 0 0 0 0 0 127 0" result="hardAlpha"/>
<feOffset dx="-3" dy="-6"/>
<feGaussianBlur stdDeviation="12.35"/>
<feComposite in2="hardAlpha" operator="arithmetic" k2="-1" k3="1"/>
<feColorMatrix type="matrix" values="0 0 0 0 1 0 0 0 0 1 0 0 0 0 1 0 0 0 0.15 0"/>
<feBlend mode="normal" in2="shape" result="effect2_innerShadow_6_2507"/>
</filter>
</defs>
</svg>
