<svg width="422" height="70" viewBox="0 0 422 70" fill="none" xmlns="http://www.w3.org/2000/svg">
<rect width="422" height="70" rx="35" fill="#FABB14"/>
<path d="M36.698 42.288C35.378 42.288 34.34 41.928 33.584 41.208C32.84 40.476 32.468 39.492 32.468 38.256V37.428H34.79V38.256C34.79 38.868 34.958 39.348 35.294 39.696C35.63 40.032 36.092 40.2 36.68 40.2C37.28 40.2 37.748 40.032 38.084 39.696C38.42 39.36 38.588 38.88 38.588 38.256V29.184H41V38.256C41 39.468 40.616 40.446 39.848 41.19C39.092 41.922 38.042 42.288 36.698 42.288ZM53.9749 40.452C52.7989 41.676 51.2509 42.288 49.3309 42.288C47.4109 42.288 45.8629 41.676 44.6869 40.452C43.5109 39.216 42.9229 37.596 42.9229 35.592C42.9229 33.588 43.5109 31.968 44.6869 30.732C45.8629 29.508 47.4109 28.896 49.3309 28.896C51.2509 28.896 52.7989 29.508 53.9749 30.732C55.1389 31.944 55.7209 33.564 55.7209 35.592C55.7209 37.62 55.1389 39.24 53.9749 40.452ZM45.4609 35.592C45.4609 36.996 45.8149 38.106 46.5229 38.922C47.2309 39.738 48.1669 40.146 49.3309 40.146C50.5069 40.146 51.4489 39.738 52.1569 38.922C52.8529 38.118 53.2009 37.008 53.2009 35.592C53.2009 34.176 52.8529 33.066 52.1569 32.262C51.4489 31.446 50.5069 31.038 49.3309 31.038C48.1669 31.038 47.2309 31.446 46.5229 32.262C45.8149 33.078 45.4609 34.188 45.4609 35.592ZM60.2493 42H57.8193V29.184H60.2493V42ZM71.3725 32.532V29.184H73.7125V42H71.0125L67.4485 36.294C66.4765 34.77 65.7145 33.486 65.1625 32.442C65.2105 33.786 65.2345 35.856 65.2345 38.652V42H62.8945V29.184H65.5945L69.1765 34.89C70.2445 36.618 71.0005 37.902 71.4445 38.742C71.3965 36.954 71.3725 34.884 71.3725 32.532ZM83.2092 42H80.7792V29.184H83.2092V42ZM94.2783 29.184H97.3023L92.0283 34.404L97.3023 42H94.4043L90.3003 36.024L88.2843 37.986V42H85.8543V29.184H88.2843V35.232L94.2783 29.184ZM108.254 29.184V31.362H101.234V34.386H107.588V36.474H101.234V39.822H108.218V42H98.8045V29.184H108.254ZM109.83 31.596V29.184H112.314V31.794C112.314 33.402 111.588 34.23 110.136 34.278L109.83 34.296V33.054L110.118 33.036C110.634 33 110.892 32.616 110.892 31.884V31.596H109.83ZM119.159 42.288C117.419 42.288 116.069 41.898 115.109 41.118C114.161 40.338 113.681 39.222 113.669 37.77H116.063C116.075 38.682 116.345 39.336 116.873 39.732C117.413 40.128 118.199 40.326 119.231 40.326C120.071 40.326 120.713 40.17 121.157 39.858C121.601 39.534 121.823 39.072 121.823 38.472C121.823 37.968 121.631 37.584 121.247 37.32C120.875 37.056 120.191 36.822 119.195 36.618L118.115 36.402C115.367 35.886 113.993 34.59 113.993 32.514C113.993 31.41 114.413 30.534 115.253 29.886C116.093 29.226 117.257 28.896 118.745 28.896C120.437 28.896 121.715 29.256 122.579 29.976C123.455 30.696 123.917 31.704 123.965 33H121.607C121.559 32.268 121.313 31.728 120.869 31.38C120.437 31.032 119.741 30.858 118.781 30.858C118.037 30.858 117.467 30.996 117.071 31.272C116.675 31.548 116.477 31.938 116.477 32.442C116.477 32.958 116.657 33.354 117.017 33.63C117.389 33.906 118.043 34.14 118.979 34.332L120.095 34.548C121.595 34.848 122.675 35.298 123.335 35.898C124.007 36.486 124.343 37.302 124.343 38.346C124.343 39.594 123.887 40.566 122.975 41.262C122.063 41.946 120.791 42.288 119.159 42.288ZM135.585 42.288C133.845 42.288 132.495 41.898 131.535 41.118C130.587 40.338 130.107 39.222 130.095 37.77H132.489C132.501 38.682 132.771 39.336 133.299 39.732C133.839 40.128 134.625 40.326 135.657 40.326C136.497 40.326 137.139 40.17 137.583 39.858C138.027 39.534 138.249 39.072 138.249 38.472C138.249 37.968 138.057 37.584 137.673 37.32C137.301 37.056 136.617 36.822 135.621 36.618L134.541 36.402C131.793 35.886 130.419 34.59 130.419 32.514C130.419 31.41 130.839 30.534 131.679 29.886C132.519 29.226 133.683 28.896 135.171 28.896C136.863 28.896 138.141 29.256 139.005 29.976C139.881 30.696 140.343 31.704 140.391 33H138.033C137.985 32.268 137.739 31.728 137.295 31.38C136.863 31.032 136.167 30.858 135.207 30.858C134.463 30.858 133.893 30.996 133.497 31.272C133.101 31.548 132.903 31.938 132.903 32.442C132.903 32.958 133.083 33.354 133.443 33.63C133.815 33.906 134.469 34.14 135.405 34.332L136.521 34.548C138.021 34.848 139.101 35.298 139.761 35.898C140.433 36.486 140.769 37.302 140.769 38.346C140.769 39.594 140.313 40.566 139.401 41.262C138.489 41.946 137.217 42.288 135.585 42.288ZM147.892 42.27C146.224 42.27 144.91 41.826 143.95 40.938C143.002 40.038 142.528 38.784 142.528 37.176V29.184H144.958V37.194C144.958 38.166 145.21 38.904 145.714 39.408C146.218 39.912 146.944 40.164 147.892 40.164C148.84 40.164 149.566 39.912 150.07 39.408C150.574 38.904 150.826 38.166 150.826 37.194V29.184H153.256V37.176C153.256 38.808 152.782 40.068 151.834 40.956C150.886 41.832 149.572 42.27 147.892 42.27ZM163.936 35.25C164.644 35.502 165.19 35.904 165.574 36.456C165.97 37.008 166.168 37.632 166.168 38.328C166.168 39.492 165.784 40.398 165.016 41.046C164.26 41.682 163.156 42 161.704 42H155.71V29.184H161.506C162.85 29.184 163.876 29.49 164.584 30.102C165.292 30.714 165.646 31.512 165.646 32.496C165.646 33.756 165.076 34.674 163.936 35.25ZM161.326 31.182H158.14V34.53H161.326C161.938 34.53 162.406 34.38 162.73 34.08C163.066 33.768 163.234 33.342 163.234 32.802C163.234 32.298 163.066 31.902 162.73 31.614C162.394 31.326 161.926 31.182 161.326 31.182ZM158.14 39.984H161.578C162.262 39.984 162.784 39.834 163.144 39.534C163.504 39.222 163.684 38.784 163.684 38.22C163.684 37.032 162.982 36.438 161.578 36.438H158.14V39.984ZM172.994 42.288C171.254 42.288 169.904 41.898 168.944 41.118C167.996 40.338 167.516 39.222 167.504 37.77H169.898C169.91 38.682 170.18 39.336 170.708 39.732C171.248 40.128 172.034 40.326 173.066 40.326C173.906 40.326 174.548 40.17 174.992 39.858C175.436 39.534 175.658 39.072 175.658 38.472C175.658 37.968 175.466 37.584 175.082 37.32C174.71 37.056 174.026 36.822 173.03 36.618L171.95 36.402C169.202 35.886 167.828 34.59 167.828 32.514C167.828 31.41 168.248 30.534 169.088 29.886C169.928 29.226 171.092 28.896 172.58 28.896C174.272 28.896 175.55 29.256 176.414 29.976C177.29 30.696 177.752 31.704 177.8 33H175.442C175.394 32.268 175.148 31.728 174.704 31.38C174.272 31.032 173.576 30.858 172.616 30.858C171.872 30.858 171.302 30.996 170.906 31.272C170.51 31.548 170.312 31.938 170.312 32.442C170.312 32.958 170.492 33.354 170.852 33.63C171.224 33.906 171.878 34.14 172.814 34.332L173.93 34.548C175.43 34.848 176.51 35.298 177.17 35.898C177.842 36.486 178.178 37.302 178.178 38.346C178.178 39.594 177.722 40.566 176.81 41.262C175.898 41.946 174.626 42.288 172.994 42.288ZM178.693 29.184H189.349V31.362H185.245V42H182.797V31.362H178.693V29.184ZM200.795 42H198.221L197.213 39.174H191.597L190.607 42H188.105L192.983 29.184H195.827L200.795 42ZM192.821 35.718L192.335 37.104H196.475L195.971 35.718C195.551 34.65 195.023 33.186 194.387 31.326C193.883 32.814 193.361 34.278 192.821 35.718ZM207.257 42.288C205.409 42.288 203.915 41.682 202.775 40.47C201.623 39.258 201.047 37.632 201.047 35.592C201.047 33.54 201.617 31.908 202.757 30.696C203.885 29.496 205.385 28.896 207.257 28.896C208.757 28.896 210.035 29.298 211.091 30.102C212.147 30.906 212.807 32.07 213.071 33.594H210.605C210.389 32.754 209.987 32.118 209.399 31.686C208.823 31.242 208.109 31.02 207.257 31.02C206.117 31.02 205.217 31.428 204.557 32.244C203.909 33.048 203.585 34.164 203.585 35.592C203.585 37.032 203.909 38.154 204.557 38.958C205.205 39.762 206.105 40.164 207.257 40.164C208.145 40.164 208.907 39.9 209.543 39.372C210.179 38.844 210.563 38.112 210.695 37.176H213.125C212.969 38.808 212.333 40.068 211.217 40.956C210.113 41.844 208.793 42.288 207.257 42.288ZM223.594 29.184H226.618L221.344 34.404L226.618 42H223.72L219.616 36.024L217.6 37.986V42H215.17V29.184H217.6V35.232L223.594 29.184ZM241.217 32.532V29.184H243.557V42H240.857L237.293 36.294C236.321 34.77 235.559 33.486 235.007 32.442C235.055 33.786 235.079 35.856 235.079 38.652V42H232.739V29.184H235.439L239.021 34.89C240.089 36.618 240.845 37.902 241.289 38.742C241.241 36.954 241.217 34.884 241.217 32.532ZM255.648 29.184V31.362H248.628V34.386H254.982V36.474H248.628V39.822H255.612V42H246.198V29.184H255.648ZM270.166 34.35L271.516 29.184H274.036L270.49 42H267.754L266.386 36.672C265.822 34.332 265.474 32.82 265.342 32.136C265.006 33.732 264.658 35.244 264.298 36.672L262.93 42H260.212L256.648 29.184H259.186L260.518 34.35C261.142 36.846 261.532 38.472 261.688 39.228C262.072 37.428 262.438 35.796 262.786 34.332L264.1 29.184H266.602L267.916 34.332C268.252 35.7 268.612 37.338 268.996 39.246C269.248 38.13 269.638 36.498 270.166 34.35ZM280.158 42.288C278.418 42.288 277.068 41.898 276.108 41.118C275.16 40.338 274.68 39.222 274.668 37.77H277.062C277.074 38.682 277.344 39.336 277.872 39.732C278.412 40.128 279.198 40.326 280.23 40.326C281.07 40.326 281.712 40.17 282.156 39.858C282.6 39.534 282.822 39.072 282.822 38.472C282.822 37.968 282.63 37.584 282.246 37.32C281.874 37.056 281.19 36.822 280.194 36.618L279.114 36.402C276.366 35.886 274.992 34.59 274.992 32.514C274.992 31.41 275.412 30.534 276.252 29.886C277.092 29.226 278.256 28.896 279.744 28.896C281.436 28.896 282.714 29.256 283.578 29.976C284.454 30.696 284.916 31.704 284.964 33H282.606C282.558 32.268 282.312 31.728 281.868 31.38C281.436 31.032 280.74 30.858 279.78 30.858C279.036 30.858 278.466 30.996 278.07 31.272C277.674 31.548 277.476 31.938 277.476 32.442C277.476 32.958 277.656 33.354 278.016 33.63C278.388 33.906 279.042 34.14 279.978 34.332L281.094 34.548C282.594 34.848 283.674 35.298 284.334 35.898C285.006 36.486 285.342 37.302 285.342 38.346C285.342 39.594 284.886 40.566 283.974 41.262C283.062 41.946 281.79 42.288 280.158 42.288ZM289.711 29.184V39.822H295.813V42H287.281V29.184H289.711ZM307.133 29.184V31.362H300.113V34.386H306.467V36.474H300.113V39.822H307.097V42H297.683V29.184H307.133ZM308.365 29.184H319.021V31.362H314.917V42H312.469V31.362H308.365V29.184ZM320.208 29.184H330.864V31.362H326.76V42H324.312V31.362H320.208V29.184ZM342.081 29.184V31.362H335.061V34.386H341.415V36.474H335.061V39.822H342.045V42H332.631V29.184H342.081ZM354.166 38.598L354.274 40.506C354.286 41.118 354.418 41.616 354.67 42H352.168C351.952 41.64 351.838 41.13 351.826 40.47L351.772 39.066C351.736 38.286 351.556 37.746 351.232 37.446C350.92 37.134 350.416 36.978 349.72 36.978H346.552V42H344.122V29.184H349.936C351.364 29.184 352.474 29.508 353.266 30.156C354.058 30.804 354.454 31.686 354.454 32.802C354.454 34.338 353.74 35.358 352.312 35.862C352.96 36.066 353.422 36.39 353.698 36.834C353.986 37.266 354.142 37.854 354.166 38.598ZM346.552 31.182V35.07H349.792C350.476 35.07 351.004 34.902 351.376 34.566C351.76 34.218 351.952 33.72 351.952 33.072C351.952 32.46 351.754 31.992 351.358 31.668C350.974 31.344 350.422 31.182 349.702 31.182H346.552Z" fill="black"/>
<path d="M387.667 29L376 40.6667M387.667 29H376M387.667 29V40.6667" stroke="#090909" stroke-width="2.38"/>
</svg>
