<svg width="513" height="171" viewBox="0 0 513 171" fill="none" xmlns="http://www.w3.org/2000/svg">
<rect x="0.452346" y="0.452346" width="434.095" height="35.0953" rx="17.5477" fill="#F2F4F6"/>
<rect x="0.452346" y="0.452346" width="434.095" height="35.0953" rx="17.5477" stroke="#E6E9EE" stroke-width="0.904692"/>
<rect x="6" y="6" width="24" height="24" rx="12" fill="#FABB14"/>
<g clip-path="url(#clip0_6_986)">
<g clip-path="url(#clip1_6_986)">
<path d="M22.75 14.75L16.219 21.25L13.25 18.295" stroke="#1A1A1A" stroke-width="2" stroke-linecap="round" stroke-linejoin="round"/>
</g>
</g>
<path opacity="0.6" d="M53.098 11.684V13.862H46.474V16.886H52.504V18.974H46.474V24.5H44.044V11.684H53.098ZM63.1142 19.856C63.1142 21.32 62.6822 22.496 61.8182 23.384C60.9542 24.272 59.8142 24.716 58.3982 24.716C56.9822 24.716 55.8422 24.272 54.9782 23.384C54.1022 22.508 53.6642 21.332 53.6642 19.856C53.6642 18.38 54.1022 17.204 54.9782 16.328C55.8422 15.44 56.9822 14.996 58.3982 14.996C59.8142 14.996 60.9542 15.434 61.8182 16.31C62.6822 17.186 63.1142 18.368 63.1142 19.856ZM56.6162 22.07C57.0482 22.586 57.6422 22.844 58.3982 22.844C59.1542 22.844 59.7422 22.586 60.1622 22.07C60.5942 21.542 60.8102 20.804 60.8102 19.856C60.8102 18.908 60.5942 18.176 60.1622 17.66C59.7422 17.132 59.1542 16.868 58.3982 16.868C57.6422 16.868 57.0482 17.126 56.6162 17.642C56.1962 18.158 55.9862 18.896 55.9862 19.856C55.9862 20.816 56.1962 21.554 56.6162 22.07ZM70.3926 20.414V15.212H72.6606V24.5H70.4646V23.15C69.7566 24.194 68.7846 24.716 67.5486 24.716C66.5526 24.716 65.7606 24.428 65.1726 23.852C64.5966 23.264 64.3086 22.436 64.3086 21.368V15.212H66.5766V20.99C66.5766 22.166 67.1586 22.754 68.3226 22.754C68.8986 22.754 69.3846 22.55 69.7806 22.142C70.1886 21.722 70.3926 21.146 70.3926 20.414ZM79.5979 14.996C80.6059 14.996 81.3979 15.29 81.9739 15.878C82.5619 16.454 82.8559 17.276 82.8559 18.344V24.5H80.5879V18.722C80.5879 17.546 80.0059 16.958 78.8419 16.958C78.2659 16.958 77.7739 17.168 77.3659 17.588C76.9699 17.996 76.7719 18.566 76.7719 19.298V24.5H74.5039V15.212H76.6999V16.544C77.4079 15.512 78.3739 14.996 79.5979 14.996ZM91.3233 16.418V11.684H93.5913V24.5H91.3953V23.204C90.7113 24.212 89.7333 24.716 88.4613 24.716C87.1773 24.716 86.1633 24.272 85.4193 23.384C84.6633 22.496 84.2853 21.32 84.2853 19.856C84.2853 18.368 84.6633 17.186 85.4193 16.31C86.1513 15.434 87.1653 14.996 88.4613 14.996C89.7093 14.996 90.6633 15.47 91.3233 16.418ZM86.6073 19.928C86.6073 20.888 86.8173 21.614 87.2373 22.106C87.6573 22.598 88.2393 22.844 88.9833 22.844C89.7273 22.844 90.3153 22.586 90.7473 22.07C91.1673 21.554 91.3773 20.816 91.3773 19.856C91.3773 18.896 91.1673 18.158 90.7473 17.642C90.3273 17.126 89.7393 16.868 88.9833 16.868C88.2513 16.868 87.6693 17.138 87.2373 17.678C86.8173 18.218 86.6073 18.968 86.6073 19.928ZM104.188 20.018V20.558H97.2399C97.3239 21.35 97.5699 21.95 97.9779 22.358C98.3979 22.754 98.9559 22.952 99.6519 22.952C100.684 22.952 101.392 22.508 101.776 21.62H103.954C103.714 22.568 103.21 23.324 102.442 23.888C101.674 24.44 100.738 24.716 99.6339 24.716C98.2539 24.716 97.1379 24.272 96.2859 23.384C95.4339 22.496 95.0079 21.32 95.0079 19.856C95.0079 18.392 95.4279 17.216 96.2679 16.328C97.1199 15.44 98.2299 14.996 99.5979 14.996C101.002 14.996 102.118 15.458 102.946 16.382C103.774 17.306 104.188 18.518 104.188 20.018ZM99.5799 16.76C98.2479 16.76 97.4739 17.498 97.2579 18.974H101.92C101.824 18.29 101.572 17.75 101.164 17.354C100.756 16.958 100.228 16.76 99.5799 16.76ZM112.276 16.418V11.684H114.544V24.5H112.348V23.204C111.664 24.212 110.686 24.716 109.414 24.716C108.13 24.716 107.116 24.272 106.372 23.384C105.616 22.496 105.238 21.32 105.238 19.856C105.238 18.368 105.616 17.186 106.372 16.31C107.104 15.434 108.118 14.996 109.414 14.996C110.662 14.996 111.616 15.47 112.276 16.418ZM107.56 19.928C107.56 20.888 107.77 21.614 108.19 22.106C108.61 22.598 109.192 22.844 109.936 22.844C110.68 22.844 111.268 22.586 111.7 22.07C112.12 21.554 112.33 20.816 112.33 19.856C112.33 18.896 112.12 18.158 111.7 17.642C111.28 17.126 110.692 16.868 109.936 16.868C109.204 16.868 108.622 17.138 108.19 17.678C107.77 18.218 107.56 18.968 107.56 19.928ZM128.612 24.5H126.344C126.236 24.308 126.152 23.93 126.092 23.366C125.468 24.266 124.472 24.716 123.104 24.716C122.084 24.716 121.268 24.47 120.656 23.978C120.056 23.486 119.756 22.802 119.756 21.926C119.756 20.234 120.944 19.268 123.32 19.028L124.724 18.902C125.192 18.842 125.528 18.734 125.732 18.578C125.936 18.41 126.038 18.164 126.038 17.84C126.038 17.444 125.906 17.156 125.642 16.976C125.39 16.784 124.958 16.688 124.346 16.688C123.686 16.688 123.212 16.802 122.924 17.03C122.636 17.246 122.468 17.624 122.42 18.164H120.188C120.32 16.052 121.712 14.996 124.364 14.996C126.944 14.996 128.234 15.926 128.234 17.786V22.736C128.234 23.552 128.36 24.14 128.612 24.5ZM123.644 23.096C124.352 23.096 124.928 22.904 125.372 22.52C125.816 22.124 126.038 21.56 126.038 20.828V19.982C125.822 20.174 125.468 20.3 124.976 20.36L123.752 20.504C123.152 20.576 122.72 20.72 122.456 20.936C122.204 21.14 122.078 21.44 122.078 21.836C122.078 22.232 122.21 22.544 122.474 22.772C122.75 22.988 123.14 23.096 123.644 23.096ZM135.057 14.996C136.065 14.996 136.857 15.29 137.433 15.878C138.021 16.454 138.315 17.276 138.315 18.344V24.5H136.047V18.722C136.047 17.546 135.465 16.958 134.301 16.958C133.725 16.958 133.233 17.168 132.825 17.588C132.429 17.996 132.231 18.566 132.231 19.298V24.5H129.963V15.212H132.159V16.544C132.867 15.512 133.833 14.996 135.057 14.996ZM146.782 16.418V11.684H149.05V24.5H146.854V23.204C146.17 24.212 145.192 24.716 143.92 24.716C142.636 24.716 141.622 24.272 140.878 23.384C140.122 22.496 139.744 21.32 139.744 19.856C139.744 18.368 140.122 17.186 140.878 16.31C141.61 15.434 142.624 14.996 143.92 14.996C145.168 14.996 146.122 15.47 146.782 16.418ZM142.066 19.928C142.066 20.888 142.276 21.614 142.696 22.106C143.116 22.598 143.698 22.844 144.442 22.844C145.186 22.844 145.774 22.586 146.206 22.07C146.626 21.554 146.836 20.816 146.836 19.856C146.836 18.896 146.626 18.158 146.206 17.642C145.786 17.126 145.198 16.868 144.442 16.868C143.71 16.868 143.128 17.138 142.696 17.678C142.276 18.218 142.066 18.968 142.066 19.928ZM163.532 20.018V20.558H156.584C156.668 21.35 156.914 21.95 157.322 22.358C157.742 22.754 158.3 22.952 158.996 22.952C160.028 22.952 160.736 22.508 161.12 21.62H163.298C163.058 22.568 162.554 23.324 161.786 23.888C161.018 24.44 160.082 24.716 158.978 24.716C157.598 24.716 156.482 24.272 155.63 23.384C154.778 22.496 154.352 21.32 154.352 19.856C154.352 18.392 154.772 17.216 155.612 16.328C156.464 15.44 157.574 14.996 158.942 14.996C160.346 14.996 161.462 15.458 162.29 16.382C163.118 17.306 163.532 18.518 163.532 20.018ZM158.924 16.76C157.592 16.76 156.818 17.498 156.602 18.974H161.264C161.168 18.29 160.916 17.75 160.508 17.354C160.1 16.958 159.572 16.76 158.924 16.76ZM172.593 15.212L169.317 19.73L172.773 24.5H170.181L169.839 24.014C169.251 23.15 168.927 22.676 168.867 22.592C168.399 21.932 168.123 21.53 168.039 21.386C167.187 22.622 166.581 23.498 166.221 24.014L165.879 24.5H163.341L166.797 19.748L163.521 15.212H166.113L166.599 15.896C167.235 16.796 167.733 17.528 168.093 18.092C168.681 17.204 169.173 16.472 169.569 15.896L170.055 15.212H172.593ZM175.859 14.006H173.627V11.882H175.859V14.006ZM175.877 24.5H173.609V15.212H175.877V24.5ZM182.547 15.212V16.94H180.711V21.962C180.711 22.262 180.789 22.472 180.945 22.592C181.113 22.712 181.389 22.772 181.773 22.772H182.547V24.5C182.055 24.548 181.659 24.572 181.359 24.572C180.351 24.572 179.613 24.386 179.145 24.014C178.689 23.63 178.461 23.024 178.461 22.196V16.94H177.021V15.212H178.461V12.512H180.711V15.212H182.547ZM192.465 20.018V20.558H185.517C185.601 21.35 185.847 21.95 186.255 22.358C186.675 22.754 187.233 22.952 187.929 22.952C188.961 22.952 189.669 22.508 190.053 21.62H192.231C191.991 22.568 191.487 23.324 190.719 23.888C189.951 24.44 189.015 24.716 187.911 24.716C186.531 24.716 185.415 24.272 184.563 23.384C183.711 22.496 183.285 21.32 183.285 19.856C183.285 18.392 183.705 17.216 184.545 16.328C185.397 15.44 186.507 14.996 187.875 14.996C189.279 14.996 190.395 15.458 191.223 16.382C192.051 17.306 192.465 18.518 192.465 20.018ZM187.857 16.76C186.525 16.76 185.751 17.498 185.535 18.974H190.197C190.101 18.29 189.849 17.75 189.441 17.354C189.033 16.958 188.505 16.76 187.857 16.76ZM200.554 16.418V11.684H202.822V24.5H200.626V23.204C199.942 24.212 198.964 24.716 197.692 24.716C196.408 24.716 195.394 24.272 194.65 23.384C193.894 22.496 193.516 21.32 193.516 19.856C193.516 18.368 193.894 17.186 194.65 16.31C195.382 15.434 196.396 14.996 197.692 14.996C198.94 14.996 199.894 15.47 200.554 16.418ZM195.838 19.928C195.838 20.888 196.048 21.614 196.468 22.106C196.888 22.598 197.47 22.844 198.214 22.844C198.958 22.844 199.546 22.586 199.978 22.07C200.398 21.554 200.608 20.816 200.608 19.856C200.608 18.896 200.398 18.158 199.978 17.642C199.558 17.126 198.97 16.868 198.214 16.868C197.482 16.868 196.9 17.138 196.468 17.678C196.048 18.218 195.838 18.968 195.838 19.928ZM215.953 17.66C216.625 17.948 217.153 18.368 217.537 18.92C217.933 19.46 218.131 20.096 218.131 20.828C218.131 22.016 217.699 22.97 216.835 23.69C215.959 24.422 214.789 24.788 213.325 24.788C211.693 24.788 210.445 24.392 209.581 23.6C208.729 22.796 208.303 21.68 208.303 20.252H210.661C210.697 21.908 211.561 22.736 213.253 22.736C213.985 22.736 214.561 22.556 214.981 22.196C215.401 21.836 215.611 21.35 215.611 20.738C215.611 20.078 215.395 19.568 214.963 19.208C214.531 18.848 213.931 18.668 213.163 18.668H212.209V16.886H213.145C214.645 16.886 215.395 16.292 215.395 15.104C215.395 14.564 215.203 14.144 214.819 13.844C214.435 13.532 213.907 13.376 213.235 13.376C211.783 13.376 211.021 14.054 210.949 15.41H208.609C208.633 14.126 209.041 13.136 209.833 12.44C210.637 11.744 211.777 11.396 213.253 11.396C214.633 11.396 215.725 11.714 216.529 12.35C217.345 12.974 217.753 13.826 217.753 14.906C217.753 16.13 217.153 17.048 215.953 17.66ZM228.321 15.212V16.94H226.485V21.962C226.485 22.262 226.563 22.472 226.719 22.592C226.887 22.712 227.163 22.772 227.547 22.772H228.321V24.5C227.829 24.548 227.433 24.572 227.133 24.572C226.125 24.572 225.387 24.386 224.919 24.014C224.463 23.63 224.235 23.024 224.235 22.196V16.94H222.795V15.212H224.235V12.512H226.485V15.212H228.321ZM238.239 20.018V20.558H231.291C231.375 21.35 231.621 21.95 232.029 22.358C232.449 22.754 233.007 22.952 233.703 22.952C234.735 22.952 235.443 22.508 235.827 21.62H238.005C237.765 22.568 237.261 23.324 236.493 23.888C235.725 24.44 234.789 24.716 233.685 24.716C232.305 24.716 231.189 24.272 230.337 23.384C229.485 22.496 229.059 21.32 229.059 19.856C229.059 18.392 229.479 17.216 230.319 16.328C231.171 15.44 232.281 14.996 233.649 14.996C235.053 14.996 236.169 15.458 236.997 16.382C237.825 17.306 238.239 18.518 238.239 20.018ZM233.631 16.76C232.299 16.76 231.525 17.498 231.309 18.974H235.971C235.875 18.29 235.623 17.75 235.215 17.354C234.807 16.958 234.279 16.76 233.631 16.76ZM243.879 24.716C242.511 24.716 241.401 24.272 240.549 23.384C239.709 22.508 239.289 21.332 239.289 19.856C239.289 18.368 239.709 17.186 240.549 16.31C241.377 15.434 242.487 14.996 243.879 14.996C245.091 14.996 246.081 15.32 246.849 15.968C247.617 16.604 248.067 17.468 248.199 18.56H245.931C245.823 18.02 245.589 17.606 245.229 17.318C244.869 17.03 244.419 16.886 243.879 16.886C243.171 16.886 242.613 17.144 242.205 17.66C241.809 18.164 241.611 18.896 241.611 19.856C241.611 20.816 241.815 21.554 242.223 22.07C242.631 22.574 243.183 22.826 243.879 22.826C244.431 22.826 244.893 22.676 245.265 22.376C245.649 22.064 245.883 21.62 245.967 21.044H248.235C248.115 22.16 247.659 23.054 246.867 23.726C246.075 24.386 245.079 24.716 243.879 24.716ZM254.571 14.996C255.579 14.996 256.371 15.29 256.947 15.878C257.535 16.454 257.829 17.276 257.829 18.344V24.5H255.561V18.722C255.561 17.546 254.979 16.958 253.815 16.958C253.239 16.958 252.747 17.168 252.339 17.588C251.943 17.996 251.745 18.566 251.745 19.298V24.5H249.477V11.684H251.745V16.454C252.453 15.482 253.395 14.996 254.571 14.996ZM267.211 24.752C264.499 24.752 263.083 23.684 262.963 21.548H265.177C265.237 22.124 265.423 22.532 265.735 22.772C266.059 23.012 266.563 23.132 267.247 23.132C268.471 23.132 269.083 22.76 269.083 22.016C269.083 21.68 268.951 21.422 268.687 21.242C268.423 21.062 267.949 20.912 267.265 20.792L266.203 20.612C264.175 20.276 263.161 19.34 263.161 17.804C263.161 16.928 263.497 16.244 264.169 15.752C264.841 15.248 265.789 14.996 267.013 14.996C269.665 14.996 271.033 16.046 271.117 18.146H268.975C268.951 17.594 268.777 17.204 268.453 16.976C268.129 16.736 267.649 16.616 267.013 16.616C265.933 16.616 265.393 16.976 265.393 17.696C265.393 18.008 265.513 18.254 265.753 18.434C265.993 18.602 266.389 18.734 266.941 18.83L268.111 19.01C269.239 19.214 270.055 19.538 270.559 19.982C271.075 20.426 271.333 21.044 271.333 21.836C271.333 22.772 270.973 23.492 270.253 23.996C269.533 24.5 268.519 24.752 267.211 24.752ZM277.24 15.212V16.94H275.404V21.962C275.404 22.262 275.482 22.472 275.638 22.592C275.806 22.712 276.082 22.772 276.466 22.772H277.24V24.5C276.748 24.548 276.352 24.572 276.052 24.572C275.044 24.572 274.306 24.386 273.838 24.014C273.382 23.63 273.154 23.024 273.154 22.196V16.94H271.714V15.212H273.154V12.512H275.404V15.212H277.24ZM286.868 24.5H284.6C284.492 24.308 284.408 23.93 284.348 23.366C283.724 24.266 282.728 24.716 281.36 24.716C280.34 24.716 279.524 24.47 278.912 23.978C278.312 23.486 278.012 22.802 278.012 21.926C278.012 20.234 279.2 19.268 281.576 19.028L282.98 18.902C283.448 18.842 283.784 18.734 283.988 18.578C284.192 18.41 284.294 18.164 284.294 17.84C284.294 17.444 284.162 17.156 283.898 16.976C283.646 16.784 283.214 16.688 282.602 16.688C281.942 16.688 281.468 16.802 281.18 17.03C280.892 17.246 280.724 17.624 280.676 18.164H278.444C278.576 16.052 279.968 14.996 282.62 14.996C285.2 14.996 286.49 15.926 286.49 17.786V22.736C286.49 23.552 286.616 24.14 286.868 24.5ZM281.9 23.096C282.608 23.096 283.184 22.904 283.628 22.52C284.072 22.124 284.294 21.56 284.294 20.828V19.982C284.078 20.174 283.724 20.3 283.232 20.36L282.008 20.504C281.408 20.576 280.976 20.72 280.712 20.936C280.46 21.14 280.334 21.44 280.334 21.836C280.334 22.232 280.466 22.544 280.73 22.772C281.006 22.988 281.396 23.096 281.9 23.096ZM293.187 15.068C293.391 15.068 293.577 15.08 293.745 15.104V17.192H293.169C292.305 17.192 291.639 17.414 291.171 17.858C290.715 18.29 290.487 18.932 290.487 19.784V24.5H288.219V15.212H290.415V16.868C290.931 15.668 291.855 15.068 293.187 15.068ZM299.899 15.212V16.94H298.063V21.962C298.063 22.262 298.141 22.472 298.297 22.592C298.465 22.712 298.741 22.772 299.125 22.772H299.899V24.5C299.407 24.548 299.011 24.572 298.711 24.572C297.703 24.572 296.965 24.386 296.497 24.014C296.041 23.63 295.813 23.024 295.813 22.196V16.94H294.373V15.212H295.813V12.512H298.063V15.212H299.899ZM307.311 20.414V15.212H309.579V24.5H307.383V23.15C306.675 24.194 305.703 24.716 304.467 24.716C303.471 24.716 302.679 24.428 302.091 23.852C301.515 23.264 301.227 22.436 301.227 21.368V15.212H303.495V20.99C303.495 22.166 304.077 22.754 305.241 22.754C305.817 22.754 306.303 22.55 306.699 22.142C307.107 21.722 307.311 21.146 307.311 20.414ZM316.57 14.996C317.842 14.996 318.856 15.434 319.612 16.31C320.356 17.198 320.728 18.38 320.728 19.856C320.728 21.32 320.356 22.496 319.612 23.384C318.856 24.272 317.842 24.716 316.57 24.716C315.31 24.716 314.35 24.242 313.69 23.294V28.028H311.422V15.212H313.6V16.544C314.272 15.512 315.262 14.996 316.57 14.996ZM314.284 22.07C314.692 22.586 315.274 22.844 316.03 22.844C316.774 22.844 317.362 22.574 317.794 22.034C318.214 21.506 318.424 20.756 318.424 19.784C318.424 18.836 318.214 18.116 317.794 17.624C317.386 17.12 316.798 16.868 316.03 16.868C315.274 16.868 314.686 17.126 314.266 17.642C313.846 18.158 313.636 18.896 313.636 19.856C313.636 20.828 313.852 21.566 314.284 22.07ZM325.693 24.752C322.981 24.752 321.565 23.684 321.445 21.548H323.659C323.719 22.124 323.905 22.532 324.217 22.772C324.541 23.012 325.045 23.132 325.729 23.132C326.953 23.132 327.565 22.76 327.565 22.016C327.565 21.68 327.433 21.422 327.169 21.242C326.905 21.062 326.431 20.912 325.747 20.792L324.685 20.612C322.657 20.276 321.643 19.34 321.643 17.804C321.643 16.928 321.979 16.244 322.651 15.752C323.323 15.248 324.271 14.996 325.495 14.996C328.147 14.996 329.515 16.046 329.599 18.146H327.457C327.433 17.594 327.259 17.204 326.935 16.976C326.611 16.736 326.131 16.616 325.495 16.616C324.415 16.616 323.875 16.976 323.875 17.696C323.875 18.008 323.995 18.254 324.235 18.434C324.475 18.602 324.871 18.734 325.423 18.83L326.593 19.01C327.721 19.214 328.537 19.538 329.041 19.982C329.557 20.426 329.815 21.044 329.815 21.836C329.815 22.772 329.455 23.492 328.735 23.996C328.015 24.5 327.001 24.752 325.693 24.752ZM340.054 14.996C341.326 14.996 342.34 15.434 343.096 16.31C343.84 17.198 344.212 18.38 344.212 19.856C344.212 21.32 343.84 22.496 343.096 23.384C342.34 24.272 341.326 24.716 340.054 24.716C338.746 24.716 337.756 24.2 337.084 23.168V24.5H334.906V11.684H337.174V16.418C337.834 15.47 338.794 14.996 340.054 14.996ZM337.768 22.07C338.176 22.586 338.758 22.844 339.514 22.844C340.258 22.844 340.846 22.574 341.278 22.034C341.698 21.506 341.908 20.756 341.908 19.784C341.908 18.836 341.698 18.116 341.278 17.624C340.87 17.12 340.282 16.868 339.514 16.868C338.758 16.868 338.17 17.126 337.75 17.642C337.33 18.158 337.12 18.896 337.12 19.856C337.12 20.828 337.336 21.566 337.768 22.07ZM350.464 17.552L351.22 15.212H353.596L350.014 25.256C349.63 26.312 349.15 27.038 348.574 27.434C347.986 27.842 347.134 28.046 346.018 28.046C345.646 28.046 345.316 28.028 345.028 27.992V26.21H345.892C346.384 26.21 346.762 26.072 347.026 25.796C347.29 25.52 347.422 25.16 347.422 24.716C347.422 24.272 347.278 23.648 346.99 22.844L344.29 15.212H346.738L347.494 17.534C348.022 19.19 348.514 20.918 348.97 22.718C349.33 21.362 349.828 19.64 350.464 17.552ZM366.795 24.5H364.527C364.419 24.308 364.335 23.93 364.275 23.366C363.651 24.266 362.655 24.716 361.287 24.716C360.267 24.716 359.451 24.47 358.839 23.978C358.239 23.486 357.939 22.802 357.939 21.926C357.939 20.234 359.127 19.268 361.503 19.028L362.907 18.902C363.375 18.842 363.711 18.734 363.915 18.578C364.119 18.41 364.221 18.164 364.221 17.84C364.221 17.444 364.089 17.156 363.825 16.976C363.573 16.784 363.141 16.688 362.529 16.688C361.869 16.688 361.395 16.802 361.107 17.03C360.819 17.246 360.651 17.624 360.603 18.164H358.371C358.503 16.052 359.895 14.996 362.547 14.996C365.127 14.996 366.417 15.926 366.417 17.786V22.736C366.417 23.552 366.543 24.14 366.795 24.5ZM361.827 23.096C362.535 23.096 363.111 22.904 363.555 22.52C363.999 22.124 364.221 21.56 364.221 20.828V19.982C364.005 20.174 363.651 20.3 363.159 20.36L361.935 20.504C361.335 20.576 360.903 20.72 360.639 20.936C360.387 21.14 360.261 21.44 360.261 21.836C360.261 22.232 360.393 22.544 360.657 22.772C360.933 22.988 361.323 23.096 361.827 23.096ZM374.667 16.49V15.212H376.863V24.194C376.863 25.454 376.461 26.444 375.657 27.164C374.865 27.884 373.737 28.244 372.273 28.244C370.977 28.244 369.957 27.956 369.213 27.38C368.481 26.804 368.079 26.012 368.007 25.004H370.239C370.347 26 371.037 26.498 372.309 26.498C373.053 26.498 373.617 26.306 374.001 25.922C374.397 25.538 374.595 24.98 374.595 24.248V23.078C373.923 24.002 372.975 24.464 371.751 24.464C370.491 24.464 369.477 24.026 368.709 23.15C367.941 22.298 367.557 21.158 367.557 19.73C367.557 18.29 367.941 17.144 368.709 16.292C369.465 15.428 370.473 14.996 371.733 14.996C373.041 14.996 374.019 15.494 374.667 16.49ZM372.255 22.592C373.011 22.592 373.599 22.34 374.019 21.836C374.439 21.332 374.649 20.63 374.649 19.73C374.649 18.83 374.439 18.128 374.019 17.624C373.599 17.12 373.011 16.868 372.255 16.868C371.523 16.868 370.941 17.126 370.509 17.642C370.089 18.146 369.879 18.848 369.879 19.748C369.879 20.636 370.089 21.332 370.509 21.836C370.941 22.34 371.523 22.592 372.255 22.592ZM387.459 20.018V20.558H380.511C380.595 21.35 380.841 21.95 381.249 22.358C381.669 22.754 382.227 22.952 382.923 22.952C383.955 22.952 384.663 22.508 385.047 21.62H387.225C386.985 22.568 386.481 23.324 385.713 23.888C384.945 24.44 384.009 24.716 382.905 24.716C381.525 24.716 380.409 24.272 379.557 23.384C378.705 22.496 378.279 21.32 378.279 19.856C378.279 18.392 378.699 17.216 379.539 16.328C380.391 15.44 381.501 14.996 382.869 14.996C384.273 14.996 385.389 15.458 386.217 16.382C387.045 17.306 387.459 18.518 387.459 20.018ZM382.851 16.76C381.519 16.76 380.745 17.498 380.529 18.974H385.191C385.095 18.29 384.843 17.75 384.435 17.354C384.027 16.958 383.499 16.76 382.851 16.76ZM400.225 17.66C400.897 17.948 401.425 18.368 401.809 18.92C402.205 19.46 402.403 20.096 402.403 20.828C402.403 22.016 401.971 22.97 401.107 23.69C400.231 24.422 399.061 24.788 397.597 24.788C395.965 24.788 394.717 24.392 393.853 23.6C393.001 22.796 392.575 21.68 392.575 20.252H394.933C394.969 21.908 395.833 22.736 397.525 22.736C398.257 22.736 398.833 22.556 399.253 22.196C399.673 21.836 399.883 21.35 399.883 20.738C399.883 20.078 399.667 19.568 399.235 19.208C398.803 18.848 398.203 18.668 397.435 18.668H396.481V16.886H397.417C398.917 16.886 399.667 16.292 399.667 15.104C399.667 14.564 399.475 14.144 399.091 13.844C398.707 13.532 398.179 13.376 397.507 13.376C396.055 13.376 395.293 14.054 395.221 15.41H392.881C392.905 14.126 393.313 13.136 394.105 12.44C394.909 11.744 396.049 11.396 397.525 11.396C398.905 11.396 399.997 11.714 400.801 12.35C401.617 12.974 402.025 13.826 402.025 14.906C402.025 16.13 401.425 17.048 400.225 17.66ZM412.544 23.06C411.668 24.212 410.39 24.788 408.71 24.788C407.03 24.788 405.752 24.212 404.876 23.06C404.012 21.908 403.58 20.252 403.58 18.092C403.58 15.932 404.012 14.276 404.876 13.124C405.752 11.972 407.03 11.396 408.71 11.396C410.39 11.396 411.668 11.972 412.544 13.124C413.42 14.276 413.858 15.932 413.858 18.092C413.858 20.252 413.42 21.908 412.544 23.06ZM408.71 22.736C410.45 22.736 411.32 21.188 411.32 18.092C411.32 14.996 410.45 13.448 408.71 13.448C406.982 13.448 406.118 14.996 406.118 18.092C406.118 21.188 406.982 22.736 408.71 22.736Z" fill="black"/>
<rect x="0.452346" y="45.4523" width="512.095" height="35.0953" rx="17.5477" fill="#F2F4F6"/>
<rect x="0.452346" y="45.4523" width="512.095" height="35.0953" rx="17.5477" stroke="#E6E9EE" stroke-width="0.904692"/>
<rect x="6" y="51" width="24" height="24" rx="12" fill="#FABB14"/>
<g clip-path="url(#clip2_6_986)">
<g clip-path="url(#clip3_6_986)">
<path d="M22.75 59.75L16.219 66.25L13.25 63.295" stroke="#1A1A1A" stroke-width="2" stroke-linecap="round" stroke-linejoin="round"/>
</g>
</g>
<path opacity="0.6" d="M52.27 62.75C52.978 63.002 53.524 63.404 53.908 63.956C54.304 64.508 54.502 65.132 54.502 65.828C54.502 66.992 54.118 67.898 53.35 68.546C52.594 69.182 51.49 69.5 50.038 69.5H44.044V56.684H49.84C51.184 56.684 52.21 56.99 52.918 57.602C53.626 58.214 53.98 59.012 53.98 59.996C53.98 61.256 53.41 62.174 52.27 62.75ZM49.66 58.682H46.474V62.03H49.66C50.272 62.03 50.74 61.88 51.064 61.58C51.4 61.268 51.568 60.842 51.568 60.302C51.568 59.798 51.4 59.402 51.064 59.114C50.728 58.826 50.26 58.682 49.66 58.682ZM46.474 67.484H49.912C50.596 67.484 51.118 67.334 51.478 67.034C51.838 66.722 52.018 66.284 52.018 65.72C52.018 64.532 51.316 63.938 49.912 63.938H46.474V67.484ZM64.2583 69.5H61.9903C61.8823 69.308 61.7983 68.93 61.7383 68.366C61.1143 69.266 60.1183 69.716 58.7503 69.716C57.7303 69.716 56.9143 69.47 56.3023 68.978C55.7023 68.486 55.4023 67.802 55.4023 66.926C55.4023 65.234 56.5903 64.268 58.9663 64.028L60.3703 63.902C60.8383 63.842 61.1743 63.734 61.3783 63.578C61.5823 63.41 61.6843 63.164 61.6843 62.84C61.6843 62.444 61.5523 62.156 61.2883 61.976C61.0363 61.784 60.6043 61.688 59.9923 61.688C59.3323 61.688 58.8583 61.802 58.5703 62.03C58.2823 62.246 58.1143 62.624 58.0663 63.164H55.8343C55.9663 61.052 57.3583 59.996 60.0103 59.996C62.5903 59.996 63.8803 60.926 63.8803 62.786V67.736C63.8803 68.552 64.0063 69.14 64.2583 69.5ZM59.2903 68.096C59.9983 68.096 60.5743 67.904 61.0183 67.52C61.4623 67.124 61.6843 66.56 61.6843 65.828V64.982C61.4683 65.174 61.1143 65.3 60.6223 65.36L59.3983 65.504C58.7983 65.576 58.3663 65.72 58.1023 65.936C57.8503 66.14 57.7243 66.44 57.7243 66.836C57.7243 67.232 57.8563 67.544 58.1203 67.772C58.3963 67.988 58.7863 68.096 59.2903 68.096ZM69.6975 69.716C68.3295 69.716 67.2195 69.272 66.3675 68.384C65.5275 67.508 65.1075 66.332 65.1075 64.856C65.1075 63.368 65.5275 62.186 66.3675 61.31C67.1955 60.434 68.3055 59.996 69.6975 59.996C70.9095 59.996 71.8995 60.32 72.6675 60.968C73.4355 61.604 73.8855 62.468 74.0175 63.56H71.7495C71.6415 63.02 71.4075 62.606 71.0475 62.318C70.6875 62.03 70.2375 61.886 69.6975 61.886C68.9895 61.886 68.4315 62.144 68.0235 62.66C67.6275 63.164 67.4295 63.896 67.4295 64.856C67.4295 65.816 67.6335 66.554 68.0415 67.07C68.4495 67.574 69.0015 67.826 69.6975 67.826C70.2495 67.826 70.7115 67.676 71.0835 67.376C71.4675 67.064 71.7015 66.62 71.7855 66.044H74.0535C73.9335 67.16 73.4775 68.054 72.6855 68.726C71.8935 69.386 70.8975 69.716 69.6975 69.716ZM84.223 69.5H81.631L78.931 65.18L77.527 66.584V69.5H75.295V56.684H77.527V64.064L81.307 60.212H84.007L80.497 63.722L84.223 69.5ZM91.3249 61.49V60.212H93.5209V69.194C93.5209 70.454 93.1189 71.444 92.3149 72.164C91.5229 72.884 90.3949 73.244 88.9309 73.244C87.6349 73.244 86.6149 72.956 85.8709 72.38C85.1389 71.804 84.7369 71.012 84.6649 70.004H86.8969C87.0049 71 87.6949 71.498 88.9669 71.498C89.7109 71.498 90.2749 71.306 90.6589 70.922C91.0549 70.538 91.2529 69.98 91.2529 69.248V68.078C90.5809 69.002 89.6329 69.464 88.4089 69.464C87.1489 69.464 86.1349 69.026 85.3669 68.15C84.5989 67.298 84.2149 66.158 84.2149 64.73C84.2149 63.29 84.5989 62.144 85.3669 61.292C86.1229 60.428 87.1309 59.996 88.3909 59.996C89.6989 59.996 90.6769 60.494 91.3249 61.49ZM88.9129 67.592C89.6689 67.592 90.2569 67.34 90.6769 66.836C91.0969 66.332 91.3069 65.63 91.3069 64.73C91.3069 63.83 91.0969 63.128 90.6769 62.624C90.2569 62.12 89.6689 61.868 88.9129 61.868C88.1809 61.868 87.5989 62.126 87.1669 62.642C86.7469 63.146 86.5369 63.848 86.5369 64.748C86.5369 65.636 86.7469 66.332 87.1669 66.836C87.5989 67.34 88.1809 67.592 88.9129 67.592ZM100.32 60.068C100.524 60.068 100.71 60.08 100.878 60.104V62.192H100.302C99.4376 62.192 98.7716 62.414 98.3036 62.858C97.8476 63.29 97.6196 63.932 97.6196 64.784V69.5H95.3516V60.212H97.5476V61.868C98.0636 60.668 98.9876 60.068 100.32 60.068ZM110.716 64.856C110.716 66.32 110.284 67.496 109.42 68.384C108.556 69.272 107.416 69.716 106 69.716C104.584 69.716 103.444 69.272 102.58 68.384C101.704 67.508 101.266 66.332 101.266 64.856C101.266 63.38 101.704 62.204 102.58 61.328C103.444 60.44 104.584 59.996 106 59.996C107.416 59.996 108.556 60.434 109.42 61.31C110.284 62.186 110.716 63.368 110.716 64.856ZM104.218 67.07C104.65 67.586 105.244 67.844 106 67.844C106.756 67.844 107.344 67.586 107.764 67.07C108.196 66.542 108.412 65.804 108.412 64.856C108.412 63.908 108.196 63.176 107.764 62.66C107.344 62.132 106.756 61.868 106 61.868C105.244 61.868 104.65 62.126 104.218 62.642C103.798 63.158 103.588 63.896 103.588 64.856C103.588 65.816 103.798 66.554 104.218 67.07ZM117.994 65.414V60.212H120.262V69.5H118.066V68.15C117.358 69.194 116.386 69.716 115.15 69.716C114.154 69.716 113.362 69.428 112.774 68.852C112.198 68.264 111.91 67.436 111.91 66.368V60.212H114.178V65.99C114.178 67.166 114.76 67.754 115.924 67.754C116.5 67.754 116.986 67.55 117.382 67.142C117.79 66.722 117.994 66.146 117.994 65.414ZM127.2 59.996C128.208 59.996 129 60.29 129.576 60.878C130.164 61.454 130.458 62.276 130.458 63.344V69.5H128.19V63.722C128.19 62.546 127.608 61.958 126.444 61.958C125.868 61.958 125.376 62.168 124.968 62.588C124.572 62.996 124.374 63.566 124.374 64.298V69.5H122.106V60.212H124.302V61.544C125.01 60.512 125.976 59.996 127.2 59.996ZM138.925 61.418V56.684H141.193V69.5H138.997V68.204C138.313 69.212 137.335 69.716 136.063 69.716C134.779 69.716 133.765 69.272 133.021 68.384C132.265 67.496 131.887 66.32 131.887 64.856C131.887 63.368 132.265 62.186 133.021 61.31C133.753 60.434 134.767 59.996 136.063 59.996C137.311 59.996 138.265 60.47 138.925 61.418ZM134.209 64.928C134.209 65.888 134.419 66.614 134.839 67.106C135.259 67.598 135.841 67.844 136.585 67.844C137.329 67.844 137.917 67.586 138.349 67.07C138.769 66.554 138.979 65.816 138.979 64.856C138.979 63.896 138.769 63.158 138.349 62.642C137.929 62.126 137.341 61.868 136.585 61.868C135.853 61.868 135.271 62.138 134.839 62.678C134.419 63.218 134.209 63.968 134.209 64.928ZM149.158 59.006H146.926V56.882H149.158V59.006ZM149.176 69.5H146.908V60.212H149.176V69.5ZM156.098 59.996C157.106 59.996 157.898 60.29 158.474 60.878C159.062 61.454 159.356 62.276 159.356 63.344V69.5H157.088V63.722C157.088 62.546 156.506 61.958 155.342 61.958C154.766 61.958 154.274 62.168 153.866 62.588C153.47 62.996 153.272 63.566 153.272 64.298V69.5H151.004V60.212H153.2V61.544C153.908 60.512 154.874 59.996 156.098 59.996ZM173.85 65.018V65.558H166.902C166.986 66.35 167.232 66.95 167.64 67.358C168.06 67.754 168.618 67.952 169.314 67.952C170.346 67.952 171.054 67.508 171.438 66.62H173.616C173.376 67.568 172.872 68.324 172.104 68.888C171.336 69.44 170.4 69.716 169.296 69.716C167.916 69.716 166.8 69.272 165.948 68.384C165.096 67.496 164.67 66.32 164.67 64.856C164.67 63.392 165.09 62.216 165.93 61.328C166.782 60.44 167.892 59.996 169.26 59.996C170.664 59.996 171.78 60.458 172.608 61.382C173.436 62.306 173.85 63.518 173.85 65.018ZM169.242 61.76C167.91 61.76 167.136 62.498 166.92 63.974H171.582C171.486 63.29 171.234 62.75 170.826 62.354C170.418 61.958 169.89 61.76 169.242 61.76ZM180.408 59.996C181.416 59.996 182.208 60.29 182.784 60.878C183.372 61.454 183.666 62.276 183.666 63.344V69.5H181.398V63.722C181.398 62.546 180.816 61.958 179.652 61.958C179.076 61.958 178.584 62.168 178.176 62.588C177.78 62.996 177.582 63.566 177.582 64.298V69.5H175.314V60.212H177.51V61.544C178.218 60.512 179.184 59.996 180.408 59.996ZM192.206 61.49V60.212H194.402V69.194C194.402 70.454 194 71.444 193.196 72.164C192.404 72.884 191.276 73.244 189.812 73.244C188.516 73.244 187.496 72.956 186.752 72.38C186.02 71.804 185.618 71.012 185.546 70.004H187.778C187.886 71 188.576 71.498 189.848 71.498C190.592 71.498 191.156 71.306 191.54 70.922C191.936 70.538 192.134 69.98 192.134 69.248V68.078C191.462 69.002 190.514 69.464 189.29 69.464C188.03 69.464 187.016 69.026 186.248 68.15C185.48 67.298 185.096 66.158 185.096 64.73C185.096 63.29 185.48 62.144 186.248 61.292C187.004 60.428 188.012 59.996 189.272 59.996C190.58 59.996 191.558 60.494 192.206 61.49ZM189.794 67.592C190.55 67.592 191.138 67.34 191.558 66.836C191.978 66.332 192.188 65.63 192.188 64.73C192.188 63.83 191.978 63.128 191.558 62.624C191.138 62.12 190.55 61.868 189.794 61.868C189.062 61.868 188.48 62.126 188.048 62.642C187.628 63.146 187.418 63.848 187.418 64.748C187.418 65.636 187.628 66.332 188.048 66.836C188.48 67.34 189.062 67.592 189.794 67.592ZM198.482 59.006H196.25V56.882H198.482V59.006ZM198.5 69.5H196.232V60.212H198.5V69.5ZM205.422 59.996C206.43 59.996 207.222 60.29 207.798 60.878C208.386 61.454 208.68 62.276 208.68 63.344V69.5H206.412V63.722C206.412 62.546 205.83 61.958 204.666 61.958C204.09 61.958 203.598 62.168 203.19 62.588C202.794 62.996 202.596 63.566 202.596 64.298V69.5H200.328V60.212H202.524V61.544C203.232 60.512 204.198 59.996 205.422 59.996ZM219.289 65.018V65.558H212.341C212.425 66.35 212.671 66.95 213.079 67.358C213.499 67.754 214.057 67.952 214.753 67.952C215.785 67.952 216.493 67.508 216.877 66.62H219.055C218.815 67.568 218.311 68.324 217.543 68.888C216.775 69.44 215.839 69.716 214.735 69.716C213.355 69.716 212.239 69.272 211.387 68.384C210.535 67.496 210.109 66.32 210.109 64.856C210.109 63.392 210.529 62.216 211.369 61.328C212.221 60.44 213.331 59.996 214.699 59.996C216.103 59.996 217.219 60.458 218.047 61.382C218.875 62.306 219.289 63.518 219.289 65.018ZM214.681 61.76C213.349 61.76 212.575 62.498 212.359 63.974H217.021C216.925 63.29 216.673 62.75 216.265 62.354C215.857 61.958 215.329 61.76 214.681 61.76ZM229.52 65.018V65.558H222.572C222.656 66.35 222.902 66.95 223.31 67.358C223.73 67.754 224.288 67.952 224.984 67.952C226.016 67.952 226.724 67.508 227.108 66.62H229.286C229.046 67.568 228.542 68.324 227.774 68.888C227.006 69.44 226.07 69.716 224.966 69.716C223.586 69.716 222.47 69.272 221.618 68.384C220.766 67.496 220.34 66.32 220.34 64.856C220.34 63.392 220.76 62.216 221.6 61.328C222.452 60.44 223.562 59.996 224.93 59.996C226.334 59.996 227.45 60.458 228.278 61.382C229.106 62.306 229.52 63.518 229.52 65.018ZM224.912 61.76C223.58 61.76 222.806 62.498 222.59 63.974H227.252C227.156 63.29 226.904 62.75 226.496 62.354C226.088 61.958 225.56 61.76 224.912 61.76ZM235.952 60.068C236.156 60.068 236.342 60.08 236.51 60.104V62.192H235.934C235.07 62.192 234.404 62.414 233.936 62.858C233.48 63.29 233.252 63.932 233.252 64.784V69.5H230.984V60.212H233.18V61.868C233.696 60.668 234.62 60.068 235.952 60.068ZM239.984 59.006H237.752V56.882H239.984V59.006ZM240.002 69.5H237.734V60.212H240.002V69.5ZM246.924 59.996C247.932 59.996 248.724 60.29 249.3 60.878C249.888 61.454 250.182 62.276 250.182 63.344V69.5H247.914V63.722C247.914 62.546 247.332 61.958 246.168 61.958C245.592 61.958 245.1 62.168 244.692 62.588C244.296 62.996 244.098 63.566 244.098 64.298V69.5H241.83V60.212H244.026V61.544C244.734 60.512 245.7 59.996 246.924 59.996ZM258.721 61.49V60.212H260.917V69.194C260.917 70.454 260.515 71.444 259.711 72.164C258.919 72.884 257.791 73.244 256.327 73.244C255.031 73.244 254.011 72.956 253.267 72.38C252.535 71.804 252.133 71.012 252.061 70.004H254.293C254.401 71 255.091 71.498 256.363 71.498C257.107 71.498 257.671 71.306 258.055 70.922C258.451 70.538 258.649 69.98 258.649 69.248V68.078C257.977 69.002 257.029 69.464 255.805 69.464C254.545 69.464 253.531 69.026 252.763 68.15C251.995 67.298 251.611 66.158 251.611 64.73C251.611 63.29 251.995 62.144 252.763 61.292C253.519 60.428 254.527 59.996 255.787 59.996C257.095 59.996 258.073 60.494 258.721 61.49ZM256.309 67.592C257.065 67.592 257.653 67.34 258.073 66.836C258.493 66.332 258.703 65.63 258.703 64.73C258.703 63.83 258.493 63.128 258.073 62.624C257.653 62.12 257.065 61.868 256.309 61.868C255.577 61.868 254.995 62.126 254.563 62.642C254.143 63.146 253.933 63.848 253.933 64.748C253.933 65.636 254.143 66.332 254.563 66.836C254.995 67.34 255.577 67.592 256.309 67.592ZM262.514 69.5V66.926H265.16V69.698C265.16 71.39 264.386 72.266 262.838 72.326H262.514V71.03L262.82 71.012C263.372 70.976 263.648 70.574 263.648 69.806V69.5H262.514ZM271.397 60.212V59.51C271.397 58.61 271.649 57.908 272.153 57.404C272.657 56.888 273.419 56.63 274.439 56.63C274.895 56.63 275.285 56.648 275.609 56.684V58.43H274.817C274.037 58.43 273.647 58.802 273.647 59.546V60.212H275.555V61.94H273.647V69.5H271.397V61.94H269.957V60.212H271.397ZM276.833 56.882H279.065V59.006H276.833V56.882ZM276.815 69.5V60.212H279.083V69.5H276.815ZM286.035 59.996C287.043 59.996 287.835 60.29 288.411 60.878C288.999 61.454 289.293 62.276 289.293 63.344V69.5H287.025V63.722C287.025 62.546 286.443 61.958 285.279 61.958C284.703 61.958 284.211 62.168 283.803 62.588C283.407 62.996 283.209 63.566 283.209 64.298V69.5H280.941V60.212H283.137V61.544C283.845 60.512 284.811 59.996 286.035 59.996ZM299.489 69.5H297.221C297.113 69.308 297.029 68.93 296.969 68.366C296.345 69.266 295.349 69.716 293.981 69.716C292.961 69.716 292.145 69.47 291.533 68.978C290.933 68.486 290.633 67.802 290.633 66.926C290.633 65.234 291.821 64.268 294.197 64.028L295.601 63.902C296.069 63.842 296.405 63.734 296.609 63.578C296.813 63.41 296.915 63.164 296.915 62.84C296.915 62.444 296.783 62.156 296.519 61.976C296.267 61.784 295.835 61.688 295.223 61.688C294.563 61.688 294.089 61.802 293.801 62.03C293.513 62.246 293.345 62.624 293.297 63.164H291.065C291.197 61.052 292.589 59.996 295.241 59.996C297.821 59.996 299.111 60.926 299.111 62.786V67.736C299.111 68.552 299.237 69.14 299.489 69.5ZM294.521 68.096C295.229 68.096 295.805 67.904 296.249 67.52C296.693 67.124 296.915 66.56 296.915 65.828V64.982C296.699 65.174 296.345 65.3 295.853 65.36L294.629 65.504C294.029 65.576 293.597 65.72 293.333 65.936C293.081 66.14 292.955 66.44 292.955 66.836C292.955 67.232 293.087 67.544 293.351 67.772C293.627 67.988 294.017 68.096 294.521 68.096ZM305.934 59.996C306.942 59.996 307.734 60.29 308.31 60.878C308.898 61.454 309.192 62.276 309.192 63.344V69.5H306.924V63.722C306.924 62.546 306.342 61.958 305.178 61.958C304.602 61.958 304.11 62.168 303.702 62.588C303.306 62.996 303.108 63.566 303.108 64.298V69.5H300.84V60.212H303.036V61.544C303.744 60.512 304.71 59.996 305.934 59.996ZM315.211 69.716C313.843 69.716 312.733 69.272 311.881 68.384C311.041 67.508 310.621 66.332 310.621 64.856C310.621 63.368 311.041 62.186 311.881 61.31C312.709 60.434 313.819 59.996 315.211 59.996C316.423 59.996 317.413 60.32 318.181 60.968C318.949 61.604 319.399 62.468 319.531 63.56H317.263C317.155 63.02 316.921 62.606 316.561 62.318C316.201 62.03 315.751 61.886 315.211 61.886C314.503 61.886 313.945 62.144 313.537 62.66C313.141 63.164 312.943 63.896 312.943 64.856C312.943 65.816 313.147 66.554 313.555 67.07C313.963 67.574 314.515 67.826 315.211 67.826C315.763 67.826 316.225 67.676 316.597 67.376C316.981 67.064 317.215 66.62 317.299 66.044H319.567C319.447 67.16 318.991 68.054 318.199 68.726C317.407 69.386 316.411 69.716 315.211 69.716ZM329.61 65.018V65.558H322.662C322.746 66.35 322.992 66.95 323.4 67.358C323.82 67.754 324.378 67.952 325.074 67.952C326.106 67.952 326.814 67.508 327.198 66.62H329.376C329.136 67.568 328.632 68.324 327.864 68.888C327.096 69.44 326.16 69.716 325.056 69.716C323.676 69.716 322.56 69.272 321.708 68.384C320.856 67.496 320.43 66.32 320.43 64.856C320.43 63.392 320.85 62.216 321.69 61.328C322.542 60.44 323.652 59.996 325.02 59.996C326.424 59.996 327.54 60.458 328.368 61.382C329.196 62.306 329.61 63.518 329.61 65.018ZM325.002 61.76C323.67 61.76 322.896 62.498 322.68 63.974H327.342C327.246 63.29 326.994 62.75 326.586 62.354C326.178 61.958 325.65 61.76 325.002 61.76ZM330.348 69.5V66.926H332.994V69.698C332.994 71.39 332.22 72.266 330.672 72.326H330.348V71.03L330.654 71.012C331.206 70.976 331.482 70.574 331.482 69.806V69.5H330.348ZM346.827 69.5H344.559C344.451 69.308 344.367 68.93 344.307 68.366C343.683 69.266 342.687 69.716 341.319 69.716C340.299 69.716 339.483 69.47 338.871 68.978C338.271 68.486 337.971 67.802 337.971 66.926C337.971 65.234 339.159 64.268 341.535 64.028L342.939 63.902C343.407 63.842 343.743 63.734 343.947 63.578C344.151 63.41 344.253 63.164 344.253 62.84C344.253 62.444 344.121 62.156 343.857 61.976C343.605 61.784 343.173 61.688 342.561 61.688C341.901 61.688 341.427 61.802 341.139 62.03C340.851 62.246 340.683 62.624 340.635 63.164H338.403C338.535 61.052 339.927 59.996 342.579 59.996C345.159 59.996 346.449 60.926 346.449 62.786V67.736C346.449 68.552 346.575 69.14 346.827 69.5ZM341.859 68.096C342.567 68.096 343.143 67.904 343.587 67.52C344.031 67.124 344.253 66.56 344.253 65.828V64.982C344.037 65.174 343.683 65.3 343.191 65.36L341.967 65.504C341.367 65.576 340.935 65.72 340.671 65.936C340.419 66.14 340.293 66.44 340.293 66.836C340.293 67.232 340.425 67.544 340.689 67.772C340.965 67.988 341.355 68.096 341.859 68.096ZM353.272 59.996C354.28 59.996 355.072 60.29 355.648 60.878C356.236 61.454 356.53 62.276 356.53 63.344V69.5H354.262V63.722C354.262 62.546 353.68 61.958 352.516 61.958C351.94 61.958 351.448 62.168 351.04 62.588C350.644 62.996 350.446 63.566 350.446 64.298V69.5H348.178V60.212H350.374V61.544C351.082 60.512 352.048 59.996 353.272 59.996ZM364.997 61.418V56.684H367.265V69.5H365.069V68.204C364.385 69.212 363.407 69.716 362.135 69.716C360.851 69.716 359.837 69.272 359.093 68.384C358.337 67.496 357.959 66.32 357.959 64.856C357.959 63.368 358.337 62.186 359.093 61.31C359.825 60.434 360.839 59.996 362.135 59.996C363.383 59.996 364.337 60.47 364.997 61.418ZM360.281 64.928C360.281 65.888 360.491 66.614 360.911 67.106C361.331 67.598 361.913 67.844 362.657 67.844C363.401 67.844 363.989 67.586 364.421 67.07C364.841 66.554 365.051 65.816 365.051 64.856C365.051 63.896 364.841 63.158 364.421 62.642C364.001 62.126 363.413 61.868 362.657 61.868C361.925 61.868 361.343 62.138 360.911 62.678C360.491 63.218 360.281 63.968 360.281 64.928ZM378.363 62.696L379.263 60.212H381.621L378.165 69.5H375.555L372.117 60.212H374.547L375.447 62.714C375.867 64.022 376.353 65.6 376.905 67.448C377.349 65.96 377.835 64.376 378.363 62.696ZM390.887 65.018V65.558H383.939C384.023 66.35 384.269 66.95 384.677 67.358C385.097 67.754 385.655 67.952 386.351 67.952C387.383 67.952 388.091 67.508 388.475 66.62H390.653C390.413 67.568 389.909 68.324 389.141 68.888C388.373 69.44 387.437 69.716 386.333 69.716C384.953 69.716 383.837 69.272 382.985 68.384C382.133 67.496 381.707 66.32 381.707 64.856C381.707 63.392 382.127 62.216 382.967 61.328C383.819 60.44 384.929 59.996 386.297 59.996C387.701 59.996 388.817 60.458 389.645 61.382C390.473 62.306 390.887 63.518 390.887 65.018ZM386.279 61.76C384.947 61.76 384.173 62.498 383.957 63.974H388.619C388.523 63.29 388.271 62.75 387.863 62.354C387.455 61.958 386.927 61.76 386.279 61.76ZM397.446 59.996C398.454 59.996 399.246 60.29 399.822 60.878C400.41 61.454 400.704 62.276 400.704 63.344V69.5H398.436V63.722C398.436 62.546 397.854 61.958 396.69 61.958C396.114 61.958 395.622 62.168 395.214 62.588C394.818 62.996 394.62 63.566 394.62 64.298V69.5H392.352V60.212H394.548V61.544C395.256 60.512 396.222 59.996 397.446 59.996ZM407.073 60.212V61.94H405.237V66.962C405.237 67.262 405.315 67.472 405.471 67.592C405.639 67.712 405.915 67.772 406.299 67.772H407.073V69.5C406.581 69.548 406.185 69.572 405.885 69.572C404.877 69.572 404.139 69.386 403.671 69.014C403.215 68.63 402.987 68.024 402.987 67.196V61.94H401.547V60.212H402.987V57.512H405.237V60.212H407.073ZM414.484 65.414V60.212H416.752V69.5H414.556V68.15C413.848 69.194 412.876 69.716 411.64 69.716C410.644 69.716 409.852 69.428 409.264 68.852C408.688 68.264 408.4 67.436 408.4 66.368V60.212H410.668V65.99C410.668 67.166 411.25 67.754 412.414 67.754C412.99 67.754 413.476 67.55 413.872 67.142C414.28 66.722 414.484 66.146 414.484 65.414ZM423.564 60.068C423.768 60.068 423.954 60.08 424.122 60.104V62.192H423.546C422.682 62.192 422.016 62.414 421.548 62.858C421.092 63.29 420.864 63.932 420.864 64.784V69.5H418.596V60.212H420.792V61.868C421.308 60.668 422.232 60.068 423.564 60.068ZM433.69 65.018V65.558H426.742C426.826 66.35 427.072 66.95 427.48 67.358C427.9 67.754 428.458 67.952 429.154 67.952C430.186 67.952 430.894 67.508 431.278 66.62H433.456C433.216 67.568 432.712 68.324 431.944 68.888C431.176 69.44 430.24 69.716 429.136 69.716C427.756 69.716 426.64 69.272 425.788 68.384C424.936 67.496 424.51 66.32 424.51 64.856C424.51 63.392 424.93 62.216 425.77 61.328C426.622 60.44 427.732 59.996 429.1 59.996C430.504 59.996 431.62 60.458 432.448 61.382C433.276 62.306 433.69 63.518 433.69 65.018ZM429.082 61.76C427.75 61.76 426.976 62.498 426.76 63.974H431.422C431.326 63.29 431.074 62.75 430.666 62.354C430.258 61.958 429.73 61.76 429.082 61.76ZM443.215 69.716C441.847 69.716 440.737 69.272 439.885 68.384C439.045 67.508 438.625 66.332 438.625 64.856C438.625 63.368 439.045 62.186 439.885 61.31C440.713 60.434 441.823 59.996 443.215 59.996C444.427 59.996 445.417 60.32 446.185 60.968C446.953 61.604 447.403 62.468 447.535 63.56H445.267C445.159 63.02 444.925 62.606 444.565 62.318C444.205 62.03 443.755 61.886 443.215 61.886C442.507 61.886 441.949 62.144 441.541 62.66C441.145 63.164 440.947 63.896 440.947 64.856C440.947 65.816 441.151 66.554 441.559 67.07C441.967 67.574 442.519 67.826 443.215 67.826C443.767 67.826 444.229 67.676 444.601 67.376C444.985 67.064 445.219 66.62 445.303 66.044H447.571C447.451 67.16 446.995 68.054 446.203 68.726C445.411 69.386 444.415 69.716 443.215 69.716ZM457.235 69.5H454.967C454.859 69.308 454.775 68.93 454.715 68.366C454.091 69.266 453.095 69.716 451.727 69.716C450.707 69.716 449.891 69.47 449.279 68.978C448.679 68.486 448.379 67.802 448.379 66.926C448.379 65.234 449.567 64.268 451.943 64.028L453.347 63.902C453.815 63.842 454.151 63.734 454.355 63.578C454.559 63.41 454.661 63.164 454.661 62.84C454.661 62.444 454.529 62.156 454.265 61.976C454.013 61.784 453.581 61.688 452.969 61.688C452.309 61.688 451.835 61.802 451.547 62.03C451.259 62.246 451.091 62.624 451.043 63.164H448.811C448.943 61.052 450.335 59.996 452.987 59.996C455.567 59.996 456.857 60.926 456.857 62.786V67.736C456.857 68.552 456.983 69.14 457.235 69.5ZM452.267 68.096C452.975 68.096 453.551 67.904 453.995 67.52C454.439 67.124 454.661 66.56 454.661 65.828V64.982C454.445 65.174 454.091 65.3 453.599 65.36L452.375 65.504C451.775 65.576 451.343 65.72 451.079 65.936C450.827 66.14 450.701 66.44 450.701 66.836C450.701 67.232 450.833 67.544 451.097 67.772C451.373 67.988 451.763 68.096 452.267 68.096ZM463.734 59.996C465.006 59.996 466.02 60.434 466.776 61.31C467.52 62.198 467.892 63.38 467.892 64.856C467.892 66.32 467.52 67.496 466.776 68.384C466.02 69.272 465.006 69.716 463.734 69.716C462.474 69.716 461.514 69.242 460.854 68.294V73.028H458.586V60.212H460.764V61.544C461.436 60.512 462.426 59.996 463.734 59.996ZM461.448 67.07C461.856 67.586 462.438 67.844 463.194 67.844C463.938 67.844 464.526 67.574 464.958 67.034C465.378 66.506 465.588 65.756 465.588 64.784C465.588 63.836 465.378 63.116 464.958 62.624C464.55 62.12 463.962 61.868 463.194 61.868C462.438 61.868 461.85 62.126 461.43 62.642C461.01 63.158 460.8 63.896 460.8 64.856C460.8 65.828 461.016 66.566 461.448 67.07ZM471.559 59.006H469.327V56.882H471.559V59.006ZM471.577 69.5H469.309V60.212H471.577V69.5ZM478.246 60.212V61.94H476.41V66.962C476.41 67.262 476.488 67.472 476.644 67.592C476.812 67.712 477.088 67.772 477.472 67.772H478.246V69.5C477.754 69.548 477.358 69.572 477.058 69.572C476.05 69.572 475.312 69.386 474.844 69.014C474.388 68.63 474.16 68.024 474.16 67.196V61.94H472.72V60.212H474.16V57.512H476.41V60.212H478.246ZM487.874 69.5H485.606C485.498 69.308 485.414 68.93 485.354 68.366C484.73 69.266 483.734 69.716 482.366 69.716C481.346 69.716 480.53 69.47 479.918 68.978C479.318 68.486 479.018 67.802 479.018 66.926C479.018 65.234 480.206 64.268 482.582 64.028L483.986 63.902C484.454 63.842 484.79 63.734 484.994 63.578C485.198 63.41 485.3 63.164 485.3 62.84C485.3 62.444 485.168 62.156 484.904 61.976C484.652 61.784 484.22 61.688 483.608 61.688C482.948 61.688 482.474 61.802 482.186 62.03C481.898 62.246 481.73 62.624 481.682 63.164H479.45C479.582 61.052 480.974 59.996 483.626 59.996C486.206 59.996 487.496 60.926 487.496 62.786V67.736C487.496 68.552 487.622 69.14 487.874 69.5ZM482.906 68.096C483.614 68.096 484.19 67.904 484.634 67.52C485.078 67.124 485.3 66.56 485.3 65.828V64.982C485.084 65.174 484.73 65.3 484.238 65.36L483.014 65.504C482.414 65.576 481.982 65.72 481.718 65.936C481.466 66.14 481.34 66.44 481.34 66.836C481.34 67.232 481.472 67.544 481.736 67.772C482.012 67.988 482.402 68.096 482.906 68.096ZM491.44 69.5H489.172V56.684H491.44V69.5Z" fill="black"/>
<rect x="0.452346" y="90.4523" width="450.095" height="35.0953" rx="17.5477" fill="#F2F4F6"/>
<rect x="0.452346" y="90.4523" width="450.095" height="35.0953" rx="17.5477" stroke="#E6E9EE" stroke-width="0.904692"/>
<rect x="6" y="96" width="24" height="24" rx="12" fill="#FABB14"/>
<g clip-path="url(#clip4_6_986)">
<g clip-path="url(#clip5_6_986)">
<path d="M22.75 104.75L16.219 111.25L13.25 108.295" stroke="#1A1A1A" stroke-width="2" stroke-linecap="round" stroke-linejoin="round"/>
</g>
</g>
<path opacity="0.6" d="M52.018 107.786L54.16 101.684H57.688V114.5H55.366V110.594C55.366 108.194 55.39 106.076 55.438 104.24C55.174 105.14 54.85 106.124 54.466 107.192L51.874 114.5H49.876L47.266 107.192C46.81 105.86 46.492 104.888 46.312 104.276C46.36 106.1 46.384 108.206 46.384 110.594V114.5H44.044V101.684H47.572L49.786 107.912C49.93 108.332 50.296 109.49 50.884 111.386C51.268 110.054 51.646 108.854 52.018 107.786ZM68.02 107.75C68.728 108.002 69.274 108.404 69.658 108.956C70.054 109.508 70.252 110.132 70.252 110.828C70.252 111.992 69.868 112.898 69.1 113.546C68.344 114.182 67.24 114.5 65.788 114.5H59.794V101.684H65.59C66.934 101.684 67.96 101.99 68.668 102.602C69.376 103.214 69.73 104.012 69.73 104.996C69.73 106.256 69.16 107.174 68.02 107.75ZM65.41 103.682H62.224V107.03H65.41C66.022 107.03 66.49 106.88 66.814 106.58C67.15 106.268 67.318 105.842 67.318 105.302C67.318 104.798 67.15 104.402 66.814 104.114C66.478 103.826 66.01 103.682 65.41 103.682ZM62.224 112.484H65.662C66.346 112.484 66.868 112.334 67.228 112.034C67.588 111.722 67.768 111.284 67.768 110.72C67.768 109.532 67.066 108.938 65.662 108.938H62.224V112.484ZM83.0265 114.5H80.4525L79.4445 111.674H73.8285L72.8385 114.5H70.3365L75.2145 101.684H78.0585L83.0265 114.5ZM75.0525 108.218L74.5665 109.604H78.7065L78.2025 108.218C77.7825 107.15 77.2545 105.686 76.6185 103.826C76.1145 105.314 75.5925 106.778 75.0525 108.218ZM92.9192 103.43H92.1272C91.3472 103.43 90.9572 103.802 90.9572 104.546V105.212H92.8652V106.94H90.9572V114.5H88.7072V106.94H87.2672V105.212H88.7072V104.51C88.7072 103.61 88.9592 102.908 89.4632 102.404C89.9672 101.888 90.7292 101.63 91.7492 101.63C92.2052 101.63 92.5952 101.648 92.9192 101.684V103.43ZM99.0891 105.068C99.2931 105.068 99.4791 105.08 99.6471 105.104V107.192H99.0711C98.2071 107.192 97.5411 107.414 97.0731 107.858C96.6171 108.29 96.3891 108.932 96.3891 109.784V114.5H94.1211V105.212H96.3171V106.868C96.8331 105.668 97.7571 105.068 99.0891 105.068ZM109.485 109.856C109.485 111.32 109.053 112.496 108.189 113.384C107.325 114.272 106.185 114.716 104.769 114.716C103.353 114.716 102.213 114.272 101.349 113.384C100.473 112.508 100.035 111.332 100.035 109.856C100.035 108.38 100.473 107.204 101.349 106.328C102.213 105.44 103.353 104.996 104.769 104.996C106.185 104.996 107.325 105.434 108.189 106.31C109.053 107.186 109.485 108.368 109.485 109.856ZM102.987 112.07C103.419 112.586 104.013 112.844 104.769 112.844C105.525 112.844 106.113 112.586 106.533 112.07C106.965 111.542 107.181 110.804 107.181 109.856C107.181 108.908 106.965 108.176 106.533 107.66C106.113 107.132 105.525 106.868 104.769 106.868C104.013 106.868 103.419 107.126 102.987 107.642C102.567 108.158 102.357 108.896 102.357 109.856C102.357 110.816 102.567 111.554 102.987 112.07ZM121.51 104.996C122.53 104.996 123.322 105.296 123.886 105.896C124.462 106.496 124.75 107.318 124.75 108.362V114.5H122.482V108.722C122.482 107.546 121.948 106.958 120.88 106.958C120.304 106.958 119.836 107.168 119.476 107.588C119.128 107.996 118.954 108.596 118.954 109.388V114.5H116.704V108.722C116.704 107.546 116.164 106.958 115.084 106.958C114.52 106.958 114.058 107.168 113.698 107.588C113.35 107.996 113.176 108.596 113.176 109.388V114.5H110.908V105.212H113.104V106.544C113.74 105.512 114.622 104.996 115.75 104.996C117.166 104.996 118.126 105.572 118.63 106.724C119.326 105.572 120.286 104.996 121.51 104.996ZM143.181 106.85L144.531 101.684H147.051L143.505 114.5H140.769L139.401 109.172C138.837 106.832 138.489 105.32 138.357 104.636C138.021 106.232 137.673 107.744 137.313 109.172L135.945 114.5H133.227L129.663 101.684H132.201L133.533 106.85C134.157 109.346 134.547 110.972 134.703 111.728C135.087 109.928 135.453 108.296 135.801 106.832L137.115 101.684H139.617L140.931 106.832C141.267 108.2 141.627 109.838 142.011 111.746C142.263 110.63 142.653 108.998 143.181 106.85ZM152.776 104.996C153.784 104.996 154.576 105.29 155.152 105.878C155.74 106.454 156.034 107.276 156.034 108.344V114.5H153.766V108.722C153.766 107.546 153.184 106.958 152.02 106.958C151.444 106.958 150.952 107.168 150.544 107.588C150.148 107.996 149.95 108.566 149.95 109.298V114.5H147.682V101.684H149.95V106.454C150.658 105.482 151.6 104.996 152.776 104.996ZM166.229 114.5H163.961C163.853 114.308 163.769 113.93 163.709 113.366C163.085 114.266 162.089 114.716 160.721 114.716C159.701 114.716 158.885 114.47 158.273 113.978C157.673 113.486 157.373 112.802 157.373 111.926C157.373 110.234 158.561 109.268 160.937 109.028L162.341 108.902C162.809 108.842 163.145 108.734 163.349 108.578C163.553 108.41 163.655 108.164 163.655 107.84C163.655 107.444 163.523 107.156 163.259 106.976C163.007 106.784 162.575 106.688 161.963 106.688C161.303 106.688 160.829 106.802 160.541 107.03C160.253 107.246 160.085 107.624 160.037 108.164H157.805C157.937 106.052 159.329 104.996 161.981 104.996C164.561 104.996 165.851 105.926 165.851 107.786V112.736C165.851 113.552 165.977 114.14 166.229 114.5ZM161.261 113.096C161.969 113.096 162.545 112.904 162.989 112.52C163.433 112.124 163.655 111.56 163.655 110.828V109.982C163.439 110.174 163.085 110.3 162.593 110.36L161.369 110.504C160.769 110.576 160.337 110.72 160.073 110.936C159.821 111.14 159.695 111.44 159.695 111.836C159.695 112.232 159.827 112.544 160.091 112.772C160.367 112.988 160.757 113.096 161.261 113.096ZM172.548 105.068C172.752 105.068 172.938 105.08 173.106 105.104V107.192H172.53C171.666 107.192 171 107.414 170.532 107.858C170.076 108.29 169.848 108.932 169.848 109.784V114.5H167.58V105.212H169.776V106.868C170.292 105.668 171.216 105.068 172.548 105.068ZM179.26 105.212V106.94H177.424V111.962C177.424 112.262 177.502 112.472 177.658 112.592C177.826 112.712 178.102 112.772 178.486 112.772H179.26V114.5C178.768 114.548 178.372 114.572 178.072 114.572C177.064 114.572 176.326 114.386 175.858 114.014C175.402 113.63 175.174 113.024 175.174 112.196V106.94H173.734V105.212H175.174V102.512H177.424V105.212H179.26ZM189.448 109.856C189.448 111.32 189.016 112.496 188.152 113.384C187.288 114.272 186.148 114.716 184.732 114.716C183.316 114.716 182.176 114.272 181.312 113.384C180.436 112.508 179.998 111.332 179.998 109.856C179.998 108.38 180.436 107.204 181.312 106.328C182.176 105.44 183.316 104.996 184.732 104.996C186.148 104.996 187.288 105.434 188.152 106.31C189.016 107.186 189.448 108.368 189.448 109.856ZM182.95 112.07C183.382 112.586 183.976 112.844 184.732 112.844C185.488 112.844 186.076 112.586 186.496 112.07C186.928 111.542 187.144 110.804 187.144 109.856C187.144 108.908 186.928 108.176 186.496 107.66C186.076 107.132 185.488 106.868 184.732 106.868C183.976 106.868 183.382 107.126 182.95 107.642C182.53 108.158 182.32 108.896 182.32 109.856C182.32 110.816 182.53 111.554 182.95 112.07ZM195.965 104.996C196.973 104.996 197.765 105.29 198.341 105.878C198.929 106.454 199.223 107.276 199.223 108.344V114.5H196.955V108.722C196.955 107.546 196.373 106.958 195.209 106.958C194.633 106.958 194.141 107.168 193.733 107.588C193.337 107.996 193.139 108.566 193.139 109.298V114.5H190.871V105.212H193.067V106.544C193.775 105.512 194.741 104.996 195.965 104.996ZM200.832 114.5V111.926H203.478V114.698C203.478 116.39 202.704 117.266 201.156 117.326H200.832V116.03L201.138 116.012C201.69 115.976 201.966 115.574 201.966 114.806V114.5H200.832ZM217.311 114.5H215.043C214.935 114.308 214.851 113.93 214.791 113.366C214.167 114.266 213.171 114.716 211.803 114.716C210.783 114.716 209.967 114.47 209.355 113.978C208.755 113.486 208.455 112.802 208.455 111.926C208.455 110.234 209.643 109.268 212.019 109.028L213.423 108.902C213.891 108.842 214.227 108.734 214.431 108.578C214.635 108.41 214.737 108.164 214.737 107.84C214.737 107.444 214.605 107.156 214.341 106.976C214.089 106.784 213.657 106.688 213.045 106.688C212.385 106.688 211.911 106.802 211.623 107.03C211.335 107.246 211.167 107.624 211.119 108.164H208.887C209.019 106.052 210.411 104.996 213.063 104.996C215.643 104.996 216.933 105.926 216.933 107.786V112.736C216.933 113.552 217.059 114.14 217.311 114.5ZM212.343 113.096C213.051 113.096 213.627 112.904 214.071 112.52C214.515 112.124 214.737 111.56 214.737 110.828V109.982C214.521 110.174 214.167 110.3 213.675 110.36L212.451 110.504C211.851 110.576 211.419 110.72 211.155 110.936C210.903 111.14 210.777 111.44 210.777 111.836C210.777 112.232 210.909 112.544 211.173 112.772C211.449 112.988 211.839 113.096 212.343 113.096ZM225.198 106.418V101.684H227.466V114.5H225.27V113.204C224.586 114.212 223.608 114.716 222.336 114.716C221.052 114.716 220.038 114.272 219.294 113.384C218.538 112.496 218.16 111.32 218.16 109.856C218.16 108.368 218.538 107.186 219.294 106.31C220.026 105.434 221.04 104.996 222.336 104.996C223.584 104.996 224.538 105.47 225.198 106.418ZM220.482 109.928C220.482 110.888 220.692 111.614 221.112 112.106C221.532 112.598 222.114 112.844 222.858 112.844C223.602 112.844 224.19 112.586 224.622 112.07C225.042 111.554 225.252 110.816 225.252 109.856C225.252 108.896 225.042 108.158 224.622 107.642C224.202 107.126 223.614 106.868 222.858 106.868C222.126 106.868 221.544 107.138 221.112 107.678C220.692 108.218 220.482 108.968 220.482 109.928ZM234.538 107.696L235.438 105.212H237.796L234.34 114.5H231.73L228.292 105.212H230.722L231.622 107.714C232.042 109.022 232.528 110.6 233.08 112.448C233.524 110.96 234.01 109.376 234.538 107.696ZM240.934 104.006H238.702V101.882H240.934V104.006ZM240.952 114.5H238.684V105.212H240.952V114.5ZM246.433 114.752C243.721 114.752 242.305 113.684 242.185 111.548H244.399C244.459 112.124 244.645 112.532 244.957 112.772C245.281 113.012 245.785 113.132 246.469 113.132C247.693 113.132 248.305 112.76 248.305 112.016C248.305 111.68 248.173 111.422 247.909 111.242C247.645 111.062 247.171 110.912 246.487 110.792L245.425 110.612C243.397 110.276 242.383 109.34 242.383 107.804C242.383 106.928 242.719 106.244 243.391 105.752C244.063 105.248 245.011 104.996 246.235 104.996C248.887 104.996 250.255 106.046 250.339 108.146H248.197C248.173 107.594 247.999 107.204 247.675 106.976C247.351 106.736 246.871 106.616 246.235 106.616C245.155 106.616 244.615 106.976 244.615 107.696C244.615 108.008 244.735 108.254 244.975 108.434C245.215 108.602 245.611 108.734 246.163 108.83L247.333 109.01C248.461 109.214 249.277 109.538 249.781 109.982C250.297 110.426 250.555 111.044 250.555 111.836C250.555 112.772 250.195 113.492 249.475 113.996C248.755 114.5 247.741 114.752 246.433 114.752ZM260.798 109.856C260.798 111.32 260.366 112.496 259.502 113.384C258.638 114.272 257.498 114.716 256.082 114.716C254.666 114.716 253.526 114.272 252.662 113.384C251.786 112.508 251.348 111.332 251.348 109.856C251.348 108.38 251.786 107.204 252.662 106.328C253.526 105.44 254.666 104.996 256.082 104.996C257.498 104.996 258.638 105.434 259.502 106.31C260.366 107.186 260.798 108.368 260.798 109.856ZM254.3 112.07C254.732 112.586 255.326 112.844 256.082 112.844C256.838 112.844 257.426 112.586 257.846 112.07C258.278 111.542 258.494 110.804 258.494 109.856C258.494 108.908 258.278 108.176 257.846 107.66C257.426 107.132 256.838 106.868 256.082 106.868C255.326 106.868 254.732 107.126 254.3 107.642C253.88 108.158 253.67 108.896 253.67 109.856C253.67 110.816 253.88 111.554 254.3 112.07ZM267.189 105.068C267.393 105.068 267.579 105.08 267.747 105.104V107.192H267.171C266.307 107.192 265.641 107.414 265.173 107.858C264.717 108.29 264.489 108.932 264.489 109.784V114.5H262.221V105.212H264.417V106.868C264.933 105.668 265.857 105.068 267.189 105.068ZM267.207 114.5V111.926H269.853V114.698C269.853 116.39 269.079 117.266 267.531 117.326H267.207V116.03L267.513 116.012C268.065 115.976 268.341 115.574 268.341 114.806V114.5H267.207ZM283.686 114.5H281.418C281.31 114.308 281.226 113.93 281.166 113.366C280.542 114.266 279.546 114.716 278.178 114.716C277.158 114.716 276.342 114.47 275.73 113.978C275.13 113.486 274.83 112.802 274.83 111.926C274.83 110.234 276.018 109.268 278.394 109.028L279.798 108.902C280.266 108.842 280.602 108.734 280.806 108.578C281.01 108.41 281.112 108.164 281.112 107.84C281.112 107.444 280.98 107.156 280.716 106.976C280.464 106.784 280.032 106.688 279.42 106.688C278.76 106.688 278.286 106.802 277.998 107.03C277.71 107.246 277.542 107.624 277.494 108.164H275.262C275.394 106.052 276.786 104.996 279.438 104.996C282.018 104.996 283.308 105.926 283.308 107.786V112.736C283.308 113.552 283.434 114.14 283.686 114.5ZM278.718 113.096C279.426 113.096 280.002 112.904 280.446 112.52C280.89 112.124 281.112 111.56 281.112 110.828V109.982C280.896 110.174 280.542 110.3 280.05 110.36L278.826 110.504C278.226 110.576 277.794 110.72 277.53 110.936C277.278 111.14 277.152 111.44 277.152 111.836C277.152 112.232 277.284 112.544 277.548 112.772C277.824 112.988 278.214 113.096 278.718 113.096ZM290.131 104.996C291.139 104.996 291.931 105.29 292.507 105.878C293.095 106.454 293.389 107.276 293.389 108.344V114.5H291.121V108.722C291.121 107.546 290.539 106.958 289.375 106.958C288.799 106.958 288.307 107.168 287.899 107.588C287.503 107.996 287.305 108.566 287.305 109.298V114.5H285.037V105.212H287.233V106.544C287.941 105.512 288.907 104.996 290.131 104.996ZM301.856 106.418V101.684H304.124V114.5H301.928V113.204C301.244 114.212 300.266 114.716 298.994 114.716C297.71 114.716 296.696 114.272 295.952 113.384C295.196 112.496 294.818 111.32 294.818 109.856C294.818 108.368 295.196 107.186 295.952 106.31C296.684 105.434 297.698 104.996 298.994 104.996C300.242 104.996 301.196 105.47 301.856 106.418ZM297.14 109.928C297.14 110.888 297.35 111.614 297.77 112.106C298.19 112.598 298.772 112.844 299.516 112.844C300.26 112.844 300.848 112.586 301.28 112.07C301.7 111.554 301.91 110.816 301.91 109.856C301.91 108.896 301.7 108.158 301.28 107.642C300.86 107.126 300.272 106.868 299.516 106.868C298.784 106.868 298.202 107.138 297.77 107.678C297.35 108.218 297.14 108.968 297.14 109.928ZM313.494 114.752C310.782 114.752 309.366 113.684 309.246 111.548H311.46C311.52 112.124 311.706 112.532 312.018 112.772C312.342 113.012 312.846 113.132 313.53 113.132C314.754 113.132 315.366 112.76 315.366 112.016C315.366 111.68 315.234 111.422 314.97 111.242C314.706 111.062 314.232 110.912 313.548 110.792L312.486 110.612C310.458 110.276 309.444 109.34 309.444 107.804C309.444 106.928 309.78 106.244 310.452 105.752C311.124 105.248 312.072 104.996 313.296 104.996C315.948 104.996 317.316 106.046 317.4 108.146H315.258C315.234 107.594 315.06 107.204 314.736 106.976C314.412 106.736 313.932 106.616 313.296 106.616C312.216 106.616 311.676 106.976 311.676 107.696C311.676 108.008 311.796 108.254 312.036 108.434C312.276 108.602 312.672 108.734 313.224 108.83L314.394 109.01C315.522 109.214 316.338 109.538 316.842 109.982C317.358 110.426 317.616 111.044 317.616 111.836C317.616 112.772 317.256 113.492 316.536 113.996C315.816 114.5 314.802 114.752 313.494 114.752ZM323.524 105.212V106.94H321.688V111.962C321.688 112.262 321.766 112.472 321.922 112.592C322.09 112.712 322.366 112.772 322.75 112.772H323.524V114.5C323.032 114.548 322.636 114.572 322.336 114.572C321.328 114.572 320.59 114.386 320.122 114.014C319.666 113.63 319.438 113.024 319.438 112.196V106.94H317.998V105.212H319.438V102.512H321.688V105.212H323.524ZM333.151 114.5H330.883C330.775 114.308 330.691 113.93 330.631 113.366C330.007 114.266 329.011 114.716 327.643 114.716C326.623 114.716 325.807 114.47 325.195 113.978C324.595 113.486 324.295 112.802 324.295 111.926C324.295 110.234 325.483 109.268 327.859 109.028L329.263 108.902C329.731 108.842 330.067 108.734 330.271 108.578C330.475 108.41 330.577 108.164 330.577 107.84C330.577 107.444 330.445 107.156 330.181 106.976C329.929 106.784 329.497 106.688 328.885 106.688C328.225 106.688 327.751 106.802 327.463 107.03C327.175 107.246 327.007 107.624 326.959 108.164H324.727C324.859 106.052 326.251 104.996 328.903 104.996C331.483 104.996 332.773 105.926 332.773 107.786V112.736C332.773 113.552 332.899 114.14 333.151 114.5ZM328.183 113.096C328.891 113.096 329.467 112.904 329.911 112.52C330.355 112.124 330.577 111.56 330.577 110.828V109.982C330.361 110.174 330.007 110.3 329.515 110.36L328.291 110.504C327.691 110.576 327.259 110.72 326.995 110.936C326.743 111.14 326.617 111.44 326.617 111.836C326.617 112.232 326.749 112.544 327.013 112.772C327.289 112.988 327.679 113.096 328.183 113.096ZM339.47 105.068C339.674 105.068 339.86 105.08 340.028 105.104V107.192H339.452C338.588 107.192 337.922 107.414 337.454 107.858C336.998 108.29 336.77 108.932 336.77 109.784V114.5H334.502V105.212H336.698V106.868C337.214 105.668 338.138 105.068 339.47 105.068ZM346.182 105.212V106.94H344.346V111.962C344.346 112.262 344.424 112.472 344.58 112.592C344.748 112.712 345.024 112.772 345.408 112.772H346.182V114.5C345.69 114.548 345.294 114.572 344.994 114.572C343.986 114.572 343.248 114.386 342.78 114.014C342.324 113.63 342.096 113.024 342.096 112.196V106.94H340.656V105.212H342.096V102.512H344.346V105.212H346.182ZM353.594 110.414V105.212H355.862V114.5H353.666V113.15C352.958 114.194 351.986 114.716 350.75 114.716C349.754 114.716 348.962 114.428 348.374 113.852C347.798 113.264 347.51 112.436 347.51 111.368V105.212H349.778V110.99C349.778 112.166 350.36 112.754 351.524 112.754C352.1 112.754 352.586 112.55 352.982 112.142C353.39 111.722 353.594 111.146 353.594 110.414ZM362.853 104.996C364.125 104.996 365.139 105.434 365.895 106.31C366.639 107.198 367.011 108.38 367.011 109.856C367.011 111.32 366.639 112.496 365.895 113.384C365.139 114.272 364.125 114.716 362.853 114.716C361.593 114.716 360.633 114.242 359.973 113.294V118.028H357.705V105.212H359.883V106.544C360.555 105.512 361.545 104.996 362.853 104.996ZM360.567 112.07C360.975 112.586 361.557 112.844 362.313 112.844C363.057 112.844 363.645 112.574 364.077 112.034C364.497 111.506 364.707 110.756 364.707 109.784C364.707 108.836 364.497 108.116 364.077 107.624C363.669 107.12 363.081 106.868 362.313 106.868C361.557 106.868 360.969 107.126 360.549 107.642C360.129 108.158 359.919 108.896 359.919 109.856C359.919 110.828 360.135 111.566 360.567 112.07ZM382.915 104.996C383.935 104.996 384.727 105.296 385.291 105.896C385.867 106.496 386.155 107.318 386.155 108.362V114.5H383.887V108.722C383.887 107.546 383.353 106.958 382.285 106.958C381.709 106.958 381.241 107.168 380.881 107.588C380.533 107.996 380.359 108.596 380.359 109.388V114.5H378.109V108.722C378.109 107.546 377.569 106.958 376.489 106.958C375.925 106.958 375.463 107.168 375.103 107.588C374.755 107.996 374.581 108.596 374.581 109.388V114.5H372.313V105.212H374.509V106.544C375.145 105.512 376.027 104.996 377.155 104.996C378.571 104.996 379.531 105.572 380.035 106.724C380.731 105.572 381.691 104.996 382.915 104.996ZM396.758 110.018V110.558H389.81C389.894 111.35 390.14 111.95 390.548 112.358C390.968 112.754 391.526 112.952 392.222 112.952C393.254 112.952 393.962 112.508 394.346 111.62H396.524C396.284 112.568 395.78 113.324 395.012 113.888C394.244 114.44 393.308 114.716 392.204 114.716C390.824 114.716 389.708 114.272 388.856 113.384C388.004 112.496 387.578 111.32 387.578 109.856C387.578 108.392 387.998 107.216 388.838 106.328C389.69 105.44 390.8 104.996 392.168 104.996C393.572 104.996 394.688 105.458 395.516 106.382C396.344 107.306 396.758 108.518 396.758 110.018ZM392.15 106.76C390.818 106.76 390.044 107.498 389.828 108.974H394.49C394.394 108.29 394.142 107.75 393.734 107.354C393.326 106.958 392.798 106.76 392.15 106.76ZM403.317 104.996C404.325 104.996 405.117 105.29 405.693 105.878C406.281 106.454 406.575 107.276 406.575 108.344V114.5H404.307V108.722C404.307 107.546 403.725 106.958 402.561 106.958C401.985 106.958 401.493 107.168 401.085 107.588C400.689 107.996 400.491 108.566 400.491 109.298V114.5H398.223V105.212H400.419V106.544C401.127 105.512 402.093 104.996 403.317 104.996ZM412.944 105.212V106.94H411.108V111.962C411.108 112.262 411.186 112.472 411.342 112.592C411.51 112.712 411.786 112.772 412.17 112.772H412.944V114.5C412.452 114.548 412.056 114.572 411.756 114.572C410.748 114.572 410.01 114.386 409.542 114.014C409.086 113.63 408.858 113.024 408.858 112.196V106.94H407.418V105.212H408.858V102.512H411.108V105.212H412.944ZM423.132 109.856C423.132 111.32 422.7 112.496 421.836 113.384C420.972 114.272 419.832 114.716 418.416 114.716C417 114.716 415.86 114.272 414.996 113.384C414.12 112.508 413.682 111.332 413.682 109.856C413.682 108.38 414.12 107.204 414.996 106.328C415.86 105.44 417 104.996 418.416 104.996C419.832 104.996 420.972 105.434 421.836 106.31C422.7 107.186 423.132 108.368 423.132 109.856ZM416.634 112.07C417.066 112.586 417.66 112.844 418.416 112.844C419.172 112.844 419.76 112.586 420.18 112.07C420.612 111.542 420.828 110.804 420.828 109.856C420.828 108.908 420.612 108.176 420.18 107.66C419.76 107.132 419.172 106.868 418.416 106.868C417.66 106.868 417.066 107.126 416.634 107.642C416.214 108.158 416.004 108.896 416.004 109.856C416.004 110.816 416.214 111.554 416.634 112.07ZM429.523 105.068C429.727 105.068 429.913 105.08 430.081 105.104V107.192H429.505C428.641 107.192 427.975 107.414 427.507 107.858C427.051 108.29 426.823 108.932 426.823 109.784V114.5H424.555V105.212H426.751V106.868C427.267 105.668 428.191 105.068 429.523 105.068Z" fill="black"/>
<rect x="0.452346" y="135.452" width="502.095" height="35.0953" rx="17.5477" fill="#F2F4F6"/>
<rect x="0.452346" y="135.452" width="502.095" height="35.0953" rx="17.5477" stroke="#E6E9EE" stroke-width="0.904692"/>
<rect x="6" y="141" width="24" height="24" rx="12" fill="#FABB14"/>
<g clip-path="url(#clip6_6_986)">
<g clip-path="url(#clip7_6_986)">
<path d="M22.75 149.75L16.219 156.25L13.25 153.295" stroke="#1A1A1A" stroke-width="2" stroke-linecap="round" stroke-linejoin="round"/>
</g>
</g>
<path opacity="0.6" d="M46.474 146.684V157.322H52.576V159.5H44.044V146.684H46.474ZM62.2465 155.018V155.558H55.2985C55.3825 156.35 55.6285 156.95 56.0365 157.358C56.4565 157.754 57.0145 157.952 57.7105 157.952C58.7425 157.952 59.4505 157.508 59.8345 156.62H62.0125C61.7725 157.568 61.2685 158.324 60.5005 158.888C59.7325 159.44 58.7965 159.716 57.6925 159.716C56.3125 159.716 55.1965 159.272 54.3445 158.384C53.4925 157.496 53.0665 156.32 53.0665 154.856C53.0665 153.392 53.4865 152.216 54.3265 151.328C55.1785 150.44 56.2885 149.996 57.6565 149.996C59.0605 149.996 60.1765 150.458 61.0045 151.382C61.8325 152.306 62.2465 153.518 62.2465 155.018ZM57.6385 151.76C56.3065 151.76 55.5325 152.498 55.3165 153.974H59.9785C59.8825 153.29 59.6305 152.75 59.2225 152.354C58.8145 151.958 58.2865 151.76 57.6385 151.76ZM71.9751 159.5H69.7071C69.5991 159.308 69.5151 158.93 69.4551 158.366C68.8311 159.266 67.8351 159.716 66.4671 159.716C65.4471 159.716 64.6311 159.47 64.0191 158.978C63.4191 158.486 63.1191 157.802 63.1191 156.926C63.1191 155.234 64.3071 154.268 66.6831 154.028L68.0871 153.902C68.5551 153.842 68.8911 153.734 69.0951 153.578C69.2991 153.41 69.4011 153.164 69.4011 152.84C69.4011 152.444 69.2691 152.156 69.0051 151.976C68.7531 151.784 68.3211 151.688 67.7091 151.688C67.0491 151.688 66.5751 151.802 66.2871 152.03C65.9991 152.246 65.8311 152.624 65.7831 153.164H63.5511C63.6831 151.052 65.0751 149.996 67.7271 149.996C70.3071 149.996 71.5971 150.926 71.5971 152.786V157.736C71.5971 158.552 71.7231 159.14 71.9751 159.5ZM67.0071 158.096C67.7151 158.096 68.2911 157.904 68.7351 157.52C69.1791 157.124 69.4011 156.56 69.4011 155.828V154.982C69.1851 155.174 68.8311 155.3 68.3391 155.36L67.1151 155.504C66.5151 155.576 66.0831 155.72 65.8191 155.936C65.5671 156.14 65.4411 156.44 65.4411 156.836C65.4411 157.232 65.5731 157.544 65.8371 157.772C66.1131 157.988 66.5031 158.096 67.0071 158.096ZM79.8623 151.418V146.684H82.1303V159.5H79.9343V158.204C79.2503 159.212 78.2723 159.716 77.0003 159.716C75.7163 159.716 74.7023 159.272 73.9583 158.384C73.2023 157.496 72.8243 156.32 72.8243 154.856C72.8243 153.368 73.2023 152.186 73.9583 151.31C74.6903 150.434 75.7043 149.996 77.0003 149.996C78.2483 149.996 79.2023 150.47 79.8623 151.418ZM75.1463 154.928C75.1463 155.888 75.3563 156.614 75.7763 157.106C76.1963 157.598 76.7783 157.844 77.5223 157.844C78.2663 157.844 78.8543 157.586 79.2863 157.07C79.7063 156.554 79.9163 155.816 79.9163 154.856C79.9163 153.896 79.7063 153.158 79.2863 152.642C78.8663 152.126 78.2783 151.868 77.5223 151.868C76.7903 151.868 76.2083 152.138 75.7763 152.678C75.3563 153.218 75.1463 153.968 75.1463 154.928ZM87.615 159.752C84.903 159.752 83.487 158.684 83.367 156.548H85.581C85.641 157.124 85.827 157.532 86.139 157.772C86.463 158.012 86.967 158.132 87.651 158.132C88.875 158.132 89.487 157.76 89.487 157.016C89.487 156.68 89.355 156.422 89.091 156.242C88.827 156.062 88.353 155.912 87.669 155.792L86.607 155.612C84.579 155.276 83.565 154.34 83.565 152.804C83.565 151.928 83.901 151.244 84.573 150.752C85.245 150.248 86.193 149.996 87.417 149.996C90.069 149.996 91.437 151.046 91.521 153.146H89.379C89.355 152.594 89.181 152.204 88.857 151.976C88.533 151.736 88.053 151.616 87.417 151.616C86.337 151.616 85.797 151.976 85.797 152.696C85.797 153.008 85.917 153.254 86.157 153.434C86.397 153.602 86.793 153.734 87.345 153.83L88.515 154.01C89.643 154.214 90.459 154.538 90.963 154.982C91.479 155.426 91.737 156.044 91.737 156.836C91.737 157.772 91.377 158.492 90.657 158.996C89.937 159.5 88.923 159.752 87.615 159.752ZM107.25 153.686L108.294 150.212H110.724L107.664 159.5H105.288L104.118 155.684C103.674 154.124 103.41 153.2 103.326 152.912C103.29 153.044 103.032 153.968 102.552 155.684L101.4 159.5H99.0242L95.9642 150.212H98.3942L99.4382 153.686C99.7022 154.514 100.008 155.588 100.356 156.908C100.692 155.576 100.986 154.496 101.238 153.668L102.264 150.212H104.424L105.45 153.668C105.702 154.496 105.996 155.576 106.332 156.908C106.644 155.72 106.95 154.646 107.25 153.686ZM113.861 149.006H111.629V146.882H113.861V149.006ZM113.879 159.5H111.611V150.212H113.879V159.5ZM120.549 150.212V151.94H118.713V156.962C118.713 157.262 118.791 157.472 118.947 157.592C119.115 157.712 119.391 157.772 119.775 157.772H120.549V159.5C120.057 159.548 119.661 159.572 119.361 159.572C118.353 159.572 117.615 159.386 117.147 159.014C116.691 158.63 116.463 158.024 116.463 157.196V151.94H115.023V150.212H116.463V147.512H118.713V150.212H120.549ZM126.971 149.996C127.979 149.996 128.771 150.29 129.347 150.878C129.935 151.454 130.229 152.276 130.229 153.344V159.5H127.961V153.722C127.961 152.546 127.379 151.958 126.215 151.958C125.639 151.958 125.147 152.168 124.739 152.588C124.343 152.996 124.145 153.566 124.145 154.298V159.5H121.877V146.684H124.145V151.454C124.853 150.482 125.795 149.996 126.971 149.996ZM139.611 159.752C136.899 159.752 135.483 158.684 135.363 156.548H137.577C137.637 157.124 137.823 157.532 138.135 157.772C138.459 158.012 138.963 158.132 139.647 158.132C140.871 158.132 141.483 157.76 141.483 157.016C141.483 156.68 141.351 156.422 141.087 156.242C140.823 156.062 140.349 155.912 139.665 155.792L138.603 155.612C136.575 155.276 135.561 154.34 135.561 152.804C135.561 151.928 135.897 151.244 136.569 150.752C137.241 150.248 138.189 149.996 139.413 149.996C142.065 149.996 143.433 151.046 143.517 153.146H141.375C141.351 152.594 141.177 152.204 140.853 151.976C140.529 151.736 140.049 151.616 139.413 151.616C138.333 151.616 137.793 151.976 137.793 152.696C137.793 153.008 137.913 153.254 138.153 153.434C138.393 153.602 138.789 153.734 139.341 153.83L140.511 154.01C141.639 154.214 142.455 154.538 142.959 154.982C143.475 155.426 143.733 156.044 143.733 156.836C143.733 157.772 143.373 158.492 142.653 158.996C141.933 159.5 140.919 159.752 139.611 159.752ZM149.641 150.212V151.94H147.805V156.962C147.805 157.262 147.883 157.472 148.039 157.592C148.207 157.712 148.483 157.772 148.867 157.772H149.641V159.5C149.149 159.548 148.753 159.572 148.453 159.572C147.445 159.572 146.707 159.386 146.239 159.014C145.783 158.63 145.555 158.024 145.555 157.196V151.94H144.115V150.212H145.555V147.512H147.805V150.212H149.641ZM155.937 150.068C156.141 150.068 156.327 150.08 156.495 150.104V152.192H155.919C155.055 152.192 154.389 152.414 153.921 152.858C153.465 153.29 153.237 153.932 153.237 154.784V159.5H150.969V150.212H153.165V151.868C153.681 150.668 154.605 150.068 155.937 150.068ZM165.526 159.5H163.258C163.15 159.308 163.066 158.93 163.006 158.366C162.382 159.266 161.386 159.716 160.018 159.716C158.998 159.716 158.182 159.47 157.57 158.978C156.97 158.486 156.67 157.802 156.67 156.926C156.67 155.234 157.858 154.268 160.234 154.028L161.638 153.902C162.106 153.842 162.442 153.734 162.646 153.578C162.85 153.41 162.952 153.164 162.952 152.84C162.952 152.444 162.82 152.156 162.556 151.976C162.304 151.784 161.872 151.688 161.26 151.688C160.6 151.688 160.126 151.802 159.838 152.03C159.55 152.246 159.382 152.624 159.334 153.164H157.102C157.234 151.052 158.626 149.996 161.278 149.996C163.858 149.996 165.148 150.926 165.148 152.786V157.736C165.148 158.552 165.274 159.14 165.526 159.5ZM160.558 158.096C161.266 158.096 161.842 157.904 162.286 157.52C162.73 157.124 162.952 156.56 162.952 155.828V154.982C162.736 155.174 162.382 155.3 161.89 155.36L160.666 155.504C160.066 155.576 159.634 155.72 159.37 155.936C159.118 156.14 158.992 156.44 158.992 156.836C158.992 157.232 159.124 157.544 159.388 157.772C159.664 157.988 160.054 158.096 160.558 158.096ZM171.438 150.212V151.94H169.602V156.962C169.602 157.262 169.68 157.472 169.836 157.592C170.004 157.712 170.28 157.772 170.664 157.772H171.438V159.5C170.946 159.548 170.55 159.572 170.25 159.572C169.242 159.572 168.504 159.386 168.036 159.014C167.58 158.63 167.352 158.024 167.352 157.196V151.94H165.912V150.212H167.352V147.512H169.602V150.212H171.438ZM181.356 155.018V155.558H174.408C174.492 156.35 174.738 156.95 175.146 157.358C175.566 157.754 176.124 157.952 176.82 157.952C177.852 157.952 178.56 157.508 178.944 156.62H181.122C180.882 157.568 180.378 158.324 179.61 158.888C178.842 159.44 177.906 159.716 176.802 159.716C175.422 159.716 174.306 159.272 173.454 158.384C172.602 157.496 172.176 156.32 172.176 154.856C172.176 153.392 172.596 152.216 173.436 151.328C174.288 150.44 175.398 149.996 176.766 149.996C178.17 149.996 179.286 150.458 180.114 151.382C180.942 152.306 181.356 153.518 181.356 155.018ZM176.748 151.76C175.416 151.76 174.642 152.498 174.426 153.974H179.088C178.992 153.29 178.74 152.75 178.332 152.354C177.924 151.958 177.396 151.76 176.748 151.76ZM189.516 151.49V150.212H191.712V159.194C191.712 160.454 191.31 161.444 190.506 162.164C189.714 162.884 188.586 163.244 187.122 163.244C185.826 163.244 184.806 162.956 184.062 162.38C183.33 161.804 182.928 161.012 182.856 160.004H185.088C185.196 161 185.886 161.498 187.158 161.498C187.902 161.498 188.466 161.306 188.85 160.922C189.246 160.538 189.444 159.98 189.444 159.248V158.078C188.772 159.002 187.824 159.464 186.6 159.464C185.34 159.464 184.326 159.026 183.558 158.15C182.79 157.298 182.406 156.158 182.406 154.73C182.406 153.29 182.79 152.144 183.558 151.292C184.314 150.428 185.322 149.996 186.582 149.996C187.89 149.996 188.868 150.494 189.516 151.49ZM187.104 157.592C187.86 157.592 188.448 157.34 188.868 156.836C189.288 156.332 189.498 155.63 189.498 154.73C189.498 153.83 189.288 153.128 188.868 152.624C188.448 152.12 187.86 151.868 187.104 151.868C186.372 151.868 185.79 152.126 185.358 152.642C184.938 153.146 184.728 153.848 184.728 154.748C184.728 155.636 184.938 156.332 185.358 156.836C185.79 157.34 186.372 157.592 187.104 157.592ZM198.765 152.552L199.521 150.212H201.897L198.315 160.256C197.931 161.312 197.451 162.038 196.875 162.434C196.287 162.842 195.435 163.046 194.319 163.046C193.947 163.046 193.617 163.028 193.329 162.992V161.21H194.193C194.685 161.21 195.063 161.072 195.327 160.796C195.591 160.52 195.723 160.16 195.723 159.716C195.723 159.272 195.579 158.648 195.291 157.844L192.591 150.212H195.039L195.795 152.534C196.323 154.19 196.815 155.918 197.271 157.718C197.631 156.362 198.129 154.64 198.765 152.552ZM201.079 159.5V156.926H203.725V159.698C203.725 161.39 202.951 162.266 201.403 162.326H201.079V161.03L201.385 161.012C201.937 160.976 202.213 160.574 202.213 159.806V159.5H201.079ZM211.455 149.006H209.223V146.882H211.455V149.006ZM211.473 159.5H209.205V150.212H211.473V159.5ZM218.395 149.996C219.403 149.996 220.195 150.29 220.771 150.878C221.359 151.454 221.653 152.276 221.653 153.344V159.5H219.385V153.722C219.385 152.546 218.803 151.958 217.639 151.958C217.063 151.958 216.571 152.168 216.163 152.588C215.767 152.996 215.569 153.566 215.569 154.298V159.5H213.301V150.212H215.497V151.544C216.205 150.512 217.171 149.996 218.395 149.996ZM227.15 159.752C224.438 159.752 223.022 158.684 222.902 156.548H225.116C225.176 157.124 225.362 157.532 225.674 157.772C225.998 158.012 226.502 158.132 227.186 158.132C228.41 158.132 229.022 157.76 229.022 157.016C229.022 156.68 228.89 156.422 228.626 156.242C228.362 156.062 227.888 155.912 227.204 155.792L226.142 155.612C224.114 155.276 223.1 154.34 223.1 152.804C223.1 151.928 223.436 151.244 224.108 150.752C224.78 150.248 225.728 149.996 226.952 149.996C229.604 149.996 230.972 151.046 231.056 153.146H228.914C228.89 152.594 228.716 152.204 228.392 151.976C228.068 151.736 227.588 151.616 226.952 151.616C225.872 151.616 225.332 151.976 225.332 152.696C225.332 153.008 225.452 153.254 225.692 153.434C225.932 153.602 226.328 153.734 226.88 153.83L228.05 154.01C229.178 154.214 229.994 154.538 230.498 154.982C231.014 155.426 231.272 156.044 231.272 156.836C231.272 157.772 230.912 158.492 230.192 158.996C229.472 159.5 228.458 159.752 227.15 159.752ZM234.729 149.006H232.497V146.882H234.729V149.006ZM234.747 159.5H232.479V150.212H234.747V159.5ZM243.27 151.49V150.212H245.466V159.194C245.466 160.454 245.064 161.444 244.26 162.164C243.468 162.884 242.34 163.244 240.876 163.244C239.58 163.244 238.56 162.956 237.816 162.38C237.084 161.804 236.682 161.012 236.61 160.004H238.842C238.95 161 239.64 161.498 240.912 161.498C241.656 161.498 242.22 161.306 242.604 160.922C243 160.538 243.198 159.98 243.198 159.248V158.078C242.526 159.002 241.578 159.464 240.354 159.464C239.094 159.464 238.08 159.026 237.312 158.15C236.544 157.298 236.16 156.158 236.16 154.73C236.16 153.29 236.544 152.144 237.312 151.292C238.068 150.428 239.076 149.996 240.336 149.996C241.644 149.996 242.622 150.494 243.27 151.49ZM240.858 157.592C241.614 157.592 242.202 157.34 242.622 156.836C243.042 156.332 243.252 155.63 243.252 154.73C243.252 153.83 243.042 153.128 242.622 152.624C242.202 152.12 241.614 151.868 240.858 151.868C240.126 151.868 239.544 152.126 239.112 152.642C238.692 153.146 238.482 153.848 238.482 154.748C238.482 155.636 238.692 156.332 239.112 156.836C239.544 157.34 240.126 157.592 240.858 157.592ZM252.391 149.996C253.399 149.996 254.191 150.29 254.767 150.878C255.355 151.454 255.649 152.276 255.649 153.344V159.5H253.381V153.722C253.381 152.546 252.799 151.958 251.635 151.958C251.059 151.958 250.567 152.168 250.159 152.588C249.763 152.996 249.565 153.566 249.565 154.298V159.5H247.297V146.684H249.565V151.454C250.273 150.482 251.215 149.996 252.391 149.996ZM262.018 150.212V151.94H260.182V156.962C260.182 157.262 260.26 157.472 260.416 157.592C260.584 157.712 260.86 157.772 261.244 157.772H262.018V159.5C261.526 159.548 261.13 159.572 260.83 159.572C259.822 159.572 259.084 159.386 258.616 159.014C258.16 158.63 257.932 158.024 257.932 157.196V151.94H256.492V150.212H257.932V147.512H260.182V150.212H262.018ZM263.112 159.5V156.926H265.758V159.698C265.758 161.39 264.984 162.266 263.436 162.326H263.112V161.03L263.418 161.012C263.97 160.976 264.246 160.574 264.246 159.806V159.5H263.112ZM279.59 159.5H277.322C277.214 159.308 277.13 158.93 277.07 158.366C276.446 159.266 275.45 159.716 274.082 159.716C273.062 159.716 272.246 159.47 271.634 158.978C271.034 158.486 270.734 157.802 270.734 156.926C270.734 155.234 271.922 154.268 274.298 154.028L275.702 153.902C276.17 153.842 276.506 153.734 276.71 153.578C276.914 153.41 277.016 153.164 277.016 152.84C277.016 152.444 276.884 152.156 276.62 151.976C276.368 151.784 275.936 151.688 275.324 151.688C274.664 151.688 274.19 151.802 273.902 152.03C273.614 152.246 273.446 152.624 273.398 153.164H271.166C271.298 151.052 272.69 149.996 275.342 149.996C277.922 149.996 279.212 150.926 279.212 152.786V157.736C279.212 158.552 279.338 159.14 279.59 159.5ZM274.622 158.096C275.33 158.096 275.906 157.904 276.35 157.52C276.794 157.124 277.016 156.56 277.016 155.828V154.982C276.8 155.174 276.446 155.3 275.954 155.36L274.73 155.504C274.13 155.576 273.698 155.72 273.434 155.936C273.182 156.14 273.056 156.44 273.056 156.836C273.056 157.232 273.188 157.544 273.452 157.772C273.728 157.988 274.118 158.096 274.622 158.096ZM286.035 149.996C287.043 149.996 287.835 150.29 288.411 150.878C288.999 151.454 289.293 152.276 289.293 153.344V159.5H287.025V153.722C287.025 152.546 286.443 151.958 285.279 151.958C284.703 151.958 284.211 152.168 283.803 152.588C283.407 152.996 283.209 153.566 283.209 154.298V159.5H280.941V150.212H283.137V151.544C283.845 150.512 284.811 149.996 286.035 149.996ZM297.761 151.418V146.684H300.029V159.5H297.833V158.204C297.149 159.212 296.171 159.716 294.899 159.716C293.615 159.716 292.601 159.272 291.857 158.384C291.101 157.496 290.723 156.32 290.723 154.856C290.723 153.368 291.101 152.186 291.857 151.31C292.589 150.434 293.603 149.996 294.899 149.996C296.147 149.996 297.101 150.47 297.761 151.418ZM293.045 154.928C293.045 155.888 293.255 156.614 293.675 157.106C294.095 157.598 294.677 157.844 295.421 157.844C296.165 157.844 296.753 157.586 297.185 157.07C297.605 156.554 297.815 155.816 297.815 154.856C297.815 153.896 297.605 153.158 297.185 152.642C296.765 152.126 296.177 151.868 295.421 151.868C294.689 151.868 294.107 152.138 293.675 152.678C293.255 153.218 293.045 153.968 293.045 154.928ZM310.712 150.068C310.916 150.068 311.102 150.08 311.27 150.104V152.192H310.694C309.83 152.192 309.164 152.414 308.696 152.858C308.24 153.29 308.012 153.932 308.012 154.784V159.5H305.744V150.212H307.94V151.868C308.456 150.668 309.38 150.068 310.712 150.068ZM320.838 155.018V155.558H313.89C313.974 156.35 314.22 156.95 314.628 157.358C315.048 157.754 315.606 157.952 316.302 157.952C317.334 157.952 318.042 157.508 318.426 156.62H320.604C320.364 157.568 319.86 158.324 319.092 158.888C318.324 159.44 317.388 159.716 316.284 159.716C314.904 159.716 313.788 159.272 312.936 158.384C312.084 157.496 311.658 156.32 311.658 154.856C311.658 153.392 312.078 152.216 312.918 151.328C313.77 150.44 314.88 149.996 316.248 149.996C317.652 149.996 318.768 150.458 319.596 151.382C320.424 152.306 320.838 153.518 320.838 155.018ZM316.23 151.76C314.898 151.76 314.124 152.498 313.908 153.974H318.57C318.474 153.29 318.222 152.75 317.814 152.354C317.406 151.958 316.878 151.76 316.23 151.76ZM330.567 159.5H328.299C328.191 159.308 328.107 158.93 328.047 158.366C327.423 159.266 326.427 159.716 325.059 159.716C324.039 159.716 323.223 159.47 322.611 158.978C322.011 158.486 321.711 157.802 321.711 156.926C321.711 155.234 322.899 154.268 325.275 154.028L326.679 153.902C327.147 153.842 327.483 153.734 327.687 153.578C327.891 153.41 327.993 153.164 327.993 152.84C327.993 152.444 327.861 152.156 327.597 151.976C327.345 151.784 326.913 151.688 326.301 151.688C325.641 151.688 325.167 151.802 324.879 152.03C324.591 152.246 324.423 152.624 324.375 153.164H322.143C322.275 151.052 323.667 149.996 326.319 149.996C328.899 149.996 330.189 150.926 330.189 152.786V157.736C330.189 158.552 330.315 159.14 330.567 159.5ZM325.599 158.096C326.307 158.096 326.883 157.904 327.327 157.52C327.771 157.124 327.993 156.56 327.993 155.828V154.982C327.777 155.174 327.423 155.3 326.931 155.36L325.707 155.504C325.107 155.576 324.675 155.72 324.411 155.936C324.159 156.14 324.033 156.44 324.033 156.836C324.033 157.232 324.165 157.544 324.429 157.772C324.705 157.988 325.095 158.096 325.599 158.096ZM334.133 159.5H331.865V146.684H334.133V159.5ZM340.983 155.414H335.637V153.47H340.983V155.414ZM352.465 153.686L353.509 150.212H355.939L352.879 159.5H350.503L349.333 155.684C348.889 154.124 348.625 153.2 348.541 152.912C348.505 153.044 348.247 153.968 347.767 155.684L346.615 159.5H344.239L341.179 150.212H343.609L344.653 153.686C344.917 154.514 345.223 155.588 345.571 156.908C345.907 155.576 346.201 154.496 346.453 153.668L347.479 150.212H349.639L350.665 153.668C350.917 154.496 351.211 155.576 351.547 156.908C351.859 155.72 352.165 154.646 352.465 153.686ZM365.475 154.856C365.475 156.32 365.043 157.496 364.179 158.384C363.315 159.272 362.175 159.716 360.759 159.716C359.343 159.716 358.203 159.272 357.339 158.384C356.463 157.508 356.025 156.332 356.025 154.856C356.025 153.38 356.463 152.204 357.339 151.328C358.203 150.44 359.343 149.996 360.759 149.996C362.175 149.996 363.315 150.434 364.179 151.31C365.043 152.186 365.475 153.368 365.475 154.856ZM358.977 157.07C359.409 157.586 360.003 157.844 360.759 157.844C361.515 157.844 362.103 157.586 362.523 157.07C362.955 156.542 363.171 155.804 363.171 154.856C363.171 153.908 362.955 153.176 362.523 152.66C362.103 152.132 361.515 151.868 360.759 151.868C360.003 151.868 359.409 152.126 358.977 152.642C358.557 153.158 358.347 153.896 358.347 154.856C358.347 155.816 358.557 156.554 358.977 157.07ZM371.866 150.068C372.07 150.068 372.256 150.08 372.424 150.104V152.192H371.848C370.984 152.192 370.318 152.414 369.85 152.858C369.394 153.29 369.166 153.932 369.166 154.784V159.5H366.898V150.212H369.094V151.868C369.61 150.668 370.534 150.068 371.866 150.068ZM375.916 159.5H373.648V146.684H375.916V159.5ZM384.368 151.418V146.684H386.636V159.5H384.44V158.204C383.756 159.212 382.778 159.716 381.506 159.716C380.222 159.716 379.208 159.272 378.464 158.384C377.708 157.496 377.33 156.32 377.33 154.856C377.33 153.368 377.708 152.186 378.464 151.31C379.196 150.434 380.21 149.996 381.506 149.996C382.754 149.996 383.708 150.47 384.368 151.418ZM379.652 154.928C379.652 155.888 379.862 156.614 380.282 157.106C380.702 157.598 381.284 157.844 382.028 157.844C382.772 157.844 383.36 157.586 383.792 157.07C384.212 156.554 384.422 155.816 384.422 154.856C384.422 153.896 384.212 153.158 383.792 152.642C383.372 152.126 382.784 151.868 382.028 151.868C381.296 151.868 380.714 152.138 380.282 152.678C379.862 153.218 379.652 153.968 379.652 154.928ZM401.118 155.018V155.558H394.17C394.254 156.35 394.5 156.95 394.908 157.358C395.328 157.754 395.886 157.952 396.582 157.952C397.614 157.952 398.322 157.508 398.706 156.62H400.884C400.644 157.568 400.14 158.324 399.372 158.888C398.604 159.44 397.668 159.716 396.564 159.716C395.184 159.716 394.068 159.272 393.216 158.384C392.364 157.496 391.938 156.32 391.938 154.856C391.938 153.392 392.358 152.216 393.198 151.328C394.05 150.44 395.16 149.996 396.528 149.996C397.932 149.996 399.048 150.458 399.876 151.382C400.704 152.306 401.118 153.518 401.118 155.018ZM396.51 151.76C395.178 151.76 394.404 152.498 394.188 153.974H398.85C398.754 153.29 398.502 152.75 398.094 152.354C397.686 151.958 397.158 151.76 396.51 151.76ZM410.179 150.212L406.903 154.73L410.359 159.5H407.767L407.425 159.014C406.837 158.15 406.513 157.676 406.453 157.592C405.985 156.932 405.709 156.53 405.625 156.386C404.773 157.622 404.167 158.498 403.807 159.014L403.465 159.5H400.927L404.383 154.748L401.107 150.212H403.699L404.185 150.896C404.821 151.796 405.319 152.528 405.679 153.092C406.267 152.204 406.759 151.472 407.155 150.896L407.641 150.212H410.179ZM416.343 149.996C417.615 149.996 418.629 150.434 419.385 151.31C420.129 152.198 420.501 153.38 420.501 154.856C420.501 156.32 420.129 157.496 419.385 158.384C418.629 159.272 417.615 159.716 416.343 159.716C415.083 159.716 414.123 159.242 413.463 158.294V163.028H411.195V150.212H413.373V151.544C414.045 150.512 415.035 149.996 416.343 149.996ZM414.057 157.07C414.465 157.586 415.047 157.844 415.803 157.844C416.547 157.844 417.135 157.574 417.567 157.034C417.987 156.506 418.197 155.756 418.197 154.784C418.197 153.836 417.987 153.116 417.567 152.624C417.159 152.12 416.571 151.868 415.803 151.868C415.047 151.868 414.459 152.126 414.039 152.642C413.619 153.158 413.409 153.896 413.409 154.856C413.409 155.828 413.625 156.566 414.057 157.07ZM430.684 155.018V155.558H423.736C423.82 156.35 424.066 156.95 424.474 157.358C424.894 157.754 425.452 157.952 426.148 157.952C427.18 157.952 427.888 157.508 428.272 156.62H430.45C430.21 157.568 429.706 158.324 428.938 158.888C428.17 159.44 427.234 159.716 426.13 159.716C424.75 159.716 423.634 159.272 422.782 158.384C421.93 157.496 421.504 156.32 421.504 154.856C421.504 153.392 421.924 152.216 422.764 151.328C423.616 150.44 424.726 149.996 426.094 149.996C427.498 149.996 428.614 150.458 429.442 151.382C430.27 152.306 430.684 153.518 430.684 155.018ZM426.076 151.76C424.744 151.76 423.97 152.498 423.754 153.974H428.416C428.32 153.29 428.068 152.75 427.66 152.354C427.252 151.958 426.724 151.76 426.076 151.76ZM437.116 150.068C437.32 150.068 437.506 150.08 437.674 150.104V152.192H437.098C436.234 152.192 435.568 152.414 435.1 152.858C434.644 153.29 434.416 153.932 434.416 154.784V159.5H432.148V150.212H434.344V151.868C434.86 150.668 435.784 150.068 437.116 150.068ZM441.148 149.006H438.916V146.882H441.148V149.006ZM441.166 159.5H438.898V150.212H441.166V159.5ZM451.76 155.018V155.558H444.812C444.896 156.35 445.142 156.95 445.55 157.358C445.97 157.754 446.528 157.952 447.224 157.952C448.256 157.952 448.964 157.508 449.348 156.62H451.526C451.286 157.568 450.782 158.324 450.014 158.888C449.246 159.44 448.31 159.716 447.206 159.716C445.826 159.716 444.71 159.272 443.858 158.384C443.006 157.496 442.58 156.32 442.58 154.856C442.58 153.392 443 152.216 443.84 151.328C444.692 150.44 445.802 149.996 447.17 149.996C448.574 149.996 449.69 150.458 450.518 151.382C451.346 152.306 451.76 153.518 451.76 155.018ZM447.152 151.76C445.82 151.76 445.046 152.498 444.83 153.974H449.492C449.396 153.29 449.144 152.75 448.736 152.354C448.328 151.958 447.8 151.76 447.152 151.76ZM458.319 149.996C459.327 149.996 460.119 150.29 460.695 150.878C461.283 151.454 461.577 152.276 461.577 153.344V159.5H459.309V153.722C459.309 152.546 458.727 151.958 457.563 151.958C456.987 151.958 456.495 152.168 456.087 152.588C455.691 152.996 455.493 153.566 455.493 154.298V159.5H453.225V150.212H455.421V151.544C456.129 150.512 457.095 149.996 458.319 149.996ZM467.596 159.716C466.228 159.716 465.118 159.272 464.266 158.384C463.426 157.508 463.006 156.332 463.006 154.856C463.006 153.368 463.426 152.186 464.266 151.31C465.094 150.434 466.204 149.996 467.596 149.996C468.808 149.996 469.798 150.32 470.566 150.968C471.334 151.604 471.784 152.468 471.916 153.56H469.648C469.54 153.02 469.306 152.606 468.946 152.318C468.586 152.03 468.136 151.886 467.596 151.886C466.888 151.886 466.33 152.144 465.922 152.66C465.526 153.164 465.328 153.896 465.328 154.856C465.328 155.816 465.532 156.554 465.94 157.07C466.348 157.574 466.9 157.826 467.596 157.826C468.148 157.826 468.61 157.676 468.982 157.376C469.366 157.064 469.6 156.62 469.684 156.044H471.952C471.832 157.16 471.376 158.054 470.584 158.726C469.792 159.386 468.796 159.716 467.596 159.716ZM481.995 155.018V155.558H475.047C475.131 156.35 475.377 156.95 475.785 157.358C476.205 157.754 476.763 157.952 477.459 157.952C478.491 157.952 479.199 157.508 479.583 156.62H481.761C481.521 157.568 481.017 158.324 480.249 158.888C479.481 159.44 478.545 159.716 477.441 159.716C476.061 159.716 474.945 159.272 474.093 158.384C473.241 157.496 472.815 156.32 472.815 154.856C472.815 153.392 473.235 152.216 474.075 151.328C474.927 150.44 476.037 149.996 477.405 149.996C478.809 149.996 479.925 150.458 480.753 151.382C481.581 152.306 481.995 153.518 481.995 155.018ZM477.387 151.76C476.055 151.76 475.281 152.498 475.065 153.974H479.727C479.631 153.29 479.379 152.75 478.971 152.354C478.563 151.958 478.035 151.76 477.387 151.76Z" fill="black"/>
<defs>
<clipPath id="clip0_6_986">
<rect width="12" height="12" fill="white" transform="translate(12 12)"/>
</clipPath>
<clipPath id="clip1_6_986">
<rect width="12" height="12" fill="white" transform="translate(12 12)"/>
</clipPath>
<clipPath id="clip2_6_986">
<rect width="12" height="12" fill="white" transform="translate(12 57)"/>
</clipPath>
<clipPath id="clip3_6_986">
<rect width="12" height="12" fill="white" transform="translate(12 57)"/>
</clipPath>
<clipPath id="clip4_6_986">
<rect width="12" height="12" fill="white" transform="translate(12 102)"/>
</clipPath>
<clipPath id="clip5_6_986">
<rect width="12" height="12" fill="white" transform="translate(12 102)"/>
</clipPath>
<clipPath id="clip6_6_986">
<rect width="12" height="12" fill="white" transform="translate(12 147)"/>
</clipPath>
<clipPath id="clip7_6_986">
<rect width="12" height="12" fill="white" transform="translate(12 147)"/>
</clipPath>
</defs>
</svg>
