<svg width="41" height="41" viewBox="0 0 41 41" fill="none" xmlns="http://www.w3.org/2000/svg">
<circle cx="20.5" cy="20.5" r="20.5" fill="#FABB14"/>
<path d="M20.6347 12.8318C20.5793 12.8599 20.3724 13.1095 20.173 13.3908L19.8074 13.9005L19.2165 14.0658C18.8915 14.1537 18.5886 14.2521 18.5406 14.2802C18.3523 14.3927 18.2636 14.6599 18.3449 14.8603C18.3633 14.906 18.548 15.1451 18.7511 15.3982L19.1241 15.8552V16.5267C19.1241 17.156 19.1278 17.2052 19.2017 17.2931C19.2977 17.4126 19.4602 17.49 19.6006 17.49C19.6633 17.49 19.9699 17.4021 20.2838 17.2966C20.5977 17.1912 20.8747 17.1033 20.8969 17.1033C20.919 17.1033 21.196 17.1912 21.5099 17.2966C21.8239 17.4021 22.1304 17.49 22.1932 17.49C22.3335 17.49 22.496 17.4126 22.592 17.2931C22.6659 17.2052 22.6696 17.156 22.6696 16.5267V15.8552L23.0426 15.3982C23.2494 15.1451 23.4304 14.906 23.4489 14.8603C23.5301 14.6564 23.4415 14.3927 23.2531 14.2802C23.2051 14.2521 22.9023 14.1537 22.5773 14.0623L21.9864 13.9005L21.6207 13.3908C21.3991 13.0814 21.2145 12.8599 21.1517 12.8318C21.0224 12.765 20.7602 12.765 20.6347 12.8318Z" fill="#141414"/>
<path d="M14.9658 14.333C14.9215 14.3505 14.748 14.5615 14.5781 14.8005L14.2678 15.233L13.7397 15.3841C13.1599 15.5494 13.0491 15.6162 13.0085 15.8201C12.9752 15.9923 13.0269 16.0838 13.3999 16.5408L13.7028 16.9099L13.6843 17.4232C13.6658 17.9998 13.6917 18.1193 13.8764 18.2072C14.0462 18.2916 14.1533 18.2775 14.6962 18.0982L15.1948 17.933L15.6786 18.0982C16.2695 18.3021 16.3914 18.3056 16.5613 18.1439L16.6869 18.0244V17.4584V16.8923L17.0193 16.4775C17.3295 16.0908 17.3516 16.0521 17.3516 15.8974C17.3516 15.6267 17.2482 15.5529 16.6352 15.3841C16.3508 15.3033 16.107 15.2295 16.096 15.2154C16.0812 15.1978 15.9408 15.008 15.7857 14.7935C15.6306 14.5755 15.4644 14.3752 15.4201 14.3435C15.3315 14.2838 15.084 14.2767 14.9658 14.333Z" fill="#141414"/>
<path d="M26.3742 14.3435C26.3298 14.3716 26.1673 14.5755 26.0085 14.7935C25.8534 15.008 25.7131 15.1978 25.702 15.2119C25.6872 15.2295 25.4435 15.3033 25.1628 15.3841C24.546 15.5564 24.4426 15.6302 24.4426 15.8974C24.4426 16.0521 24.4648 16.0908 24.775 16.4775L25.1074 16.8888V17.4584V18.0244L25.233 18.1439C25.4029 18.3056 25.5247 18.3021 26.1156 18.0982L26.5994 17.933L27.098 18.0982C27.6409 18.2775 27.748 18.2916 27.9179 18.2072C28.1026 18.1193 28.1284 17.9998 28.11 17.4232L28.0915 16.9099L28.3943 16.5408C28.7636 16.0908 28.819 15.9923 28.7858 15.8271C28.7452 15.6162 28.6307 15.5459 28.0546 15.3841L27.5264 15.233L27.2162 14.8005C27.0463 14.5615 26.869 14.3505 26.8173 14.3295C26.6918 14.2732 26.4665 14.2802 26.3742 14.3435Z" fill="#141414"/>
<path d="M20.3726 19.1985C19.6082 19.3743 18.9545 20.0036 18.7735 20.7348C18.7033 21.0126 18.7033 21.4204 18.7735 21.6981C18.9175 22.2852 19.3644 22.8126 19.9368 23.0762C20.1067 23.1571 20.2803 23.2204 20.3209 23.2204C20.4724 23.2204 20.3468 23.2555 20.0624 23.2942C18.8437 23.4524 17.8613 24.254 17.4587 25.4176C17.3812 25.6461 17.3738 25.734 17.359 26.6481C17.3479 27.5868 17.3479 27.643 17.4255 27.8329C17.5215 28.0754 17.7431 28.304 17.9979 28.4235L18.1826 28.5114L20.8491 28.5219C23.4675 28.529 23.5155 28.529 23.7187 28.4586C23.9661 28.3672 24.2099 28.1528 24.3317 27.9137C24.4241 27.7379 24.4241 27.7309 24.4241 26.7184C24.4241 25.7481 24.4204 25.6848 24.3391 25.4352C24.0363 24.5176 23.342 23.7969 22.4519 23.47C22.1786 23.3715 21.957 23.3223 21.5803 23.2696L21.3957 23.2485L21.5434 23.2028C22.2488 23.0024 22.8508 22.3872 23.0207 21.7016C23.1351 21.2376 23.0724 20.7208 22.8471 20.2778C22.6809 19.9508 22.2266 19.5184 21.8832 19.3602C21.4215 19.1493 20.8491 19.086 20.3726 19.1985Z" fill="#141414"/>
<path d="M15.6085 19.5958C15.073 19.761 14.615 20.2075 14.4562 20.7208C14.3787 20.9704 14.3787 21.4625 14.4562 21.7122C14.6114 22.2254 15.0767 22.679 15.6011 22.8336L15.8116 22.8934L15.5014 22.911C14.5597 22.9708 13.6585 23.5754 13.256 24.4227C13.0418 24.8692 13.0122 25.0344 13.0122 25.8395V26.5778L13.1193 26.7817C13.2412 27.0067 13.4222 27.1825 13.6659 27.3055C13.821 27.3864 13.8469 27.3864 15.2023 27.3969L16.5761 27.4075V26.7465C16.5761 25.7411 16.6795 25.2313 17.0156 24.595C17.2077 24.2364 17.5548 23.7969 17.854 23.5438C17.9832 23.4348 18.0903 23.3329 18.0903 23.3223C18.0903 23.3083 17.9685 23.2415 17.8207 23.1711C17.4883 23.0165 17.0452 22.904 16.746 22.9004H16.5207L16.7312 22.8372C17.2668 22.6719 17.7247 22.2254 17.8835 21.7122C17.9611 21.4625 17.9611 20.9704 17.8835 20.7208C17.7247 20.2004 17.2631 19.7575 16.7202 19.5958C16.421 19.5079 15.9003 19.5079 15.6085 19.5958Z" fill="#141414"/>
<path d="M25.0629 19.5958C24.5274 19.7611 24.0695 20.2076 23.9107 20.7208C23.8331 20.9705 23.8331 21.4626 23.9107 21.7123C24.0695 22.2255 24.5274 22.672 25.0629 22.8373L25.2735 22.9005H25.0482C24.749 22.9041 24.3058 23.0166 23.9735 23.1712C23.8257 23.2416 23.7039 23.3083 23.7039 23.3224C23.7039 23.333 23.811 23.4349 23.9402 23.5439C24.2394 23.797 24.5865 24.2365 24.7786 24.5951C25.1147 25.2314 25.2181 25.7412 25.2181 26.7431V27.4041H26.5218C27.2567 27.4041 27.8772 27.39 27.951 27.3689C28.3166 27.274 28.6416 26.947 28.7487 26.5708C28.83 26.2861 28.8041 25.1822 28.7081 24.8552C28.3868 23.7689 27.4081 22.9779 26.2928 22.9111L25.9826 22.8935L26.1931 22.8337C26.4553 22.7529 26.7175 22.5947 26.9243 22.3837C27.2604 22.0427 27.397 21.7017 27.397 21.2166C27.397 20.7314 27.2604 20.3904 26.9243 20.0494C26.7138 19.8349 26.4553 19.6802 26.1746 19.5958C25.8754 19.508 25.3547 19.508 25.0629 19.5958Z" fill="#141414"/>
</svg>
