<svg width="41" height="41" viewBox="0 0 41 41" fill="none" xmlns="http://www.w3.org/2000/svg">
<circle cx="20.5" cy="20.5" r="20.5" fill="#FABB14"/>
<g clip-path="url(#clip0_6_718)">
<path d="M16.3066 12.9984C15.8637 13.1391 15.5227 13.4379 15.3117 13.8598C15.1852 14.1164 15.1816 14.134 15.1711 14.591L15.157 15.0586H13.5785H12V16.6547V18.2508L12.4113 18.2648C12.791 18.2754 12.8473 18.2859 13.0687 18.3914C13.5504 18.6164 13.7859 18.8977 13.9793 19.4672C14.1094 19.8398 14.1094 19.8434 13.9758 20.2301C13.8035 20.7187 13.5398 21.0352 13.1496 21.2285C12.8578 21.3691 12.6223 21.4219 12.2602 21.4219H12V23.0215V24.6211H13.5961H15.1922L15.2062 24.157C15.2168 23.7176 15.2238 23.6754 15.3293 23.4504C15.4559 23.1832 15.7371 22.8668 15.9656 22.7332C16.5914 22.3676 17.3684 22.4695 17.8852 22.9863C18.2156 23.3133 18.3633 23.7316 18.3633 24.3293V24.6211H19.9629H21.5625V23.0391V21.457H21.8227C22.1848 21.457 22.4203 21.4043 22.7086 21.2637C23.4891 20.8805 23.816 19.9066 23.4293 19.1227C23.1375 18.5285 22.6242 18.2227 21.9141 18.2227H21.5625V16.6406V15.0586H19.9805H18.3984V14.7492C18.3949 13.8562 17.9977 13.241 17.2699 13.016C17.0203 12.9387 16.5246 12.9281 16.3066 12.9984Z" fill="#141414"/>
<path d="M22.9055 15.8426L22.582 16.166V16.7145V17.2594L22.8211 17.3367C23.1902 17.4563 23.482 17.6461 23.8336 17.9941C24.1043 18.2648 24.1781 18.3633 24.3152 18.6445C24.5051 19.0277 24.5789 19.2914 24.6105 19.6641C24.6984 20.7926 23.925 21.9492 22.8387 22.3184L22.5996 22.3992L22.5891 24.0199L22.582 25.6406H21.6047H20.6273L20.4445 25.827C20.3426 25.9289 20.2617 26.0273 20.2617 26.0449C20.2617 26.066 20.9332 26.7516 21.7559 27.5742L23.25 29.0684L24.375 27.9434L25.4965 26.8219L25.7355 27.0504C26.1363 27.4336 26.4562 27.5742 26.9449 27.5742C27.7043 27.5742 28.3125 27.0996 28.5059 26.3543C28.5727 26.0977 28.5727 25.8586 28.5023 25.5703C28.432 25.2645 28.316 25.0746 28.0277 24.7793L27.7852 24.5332L28.8926 23.4258C29.5008 22.8176 30 22.3043 30 22.2832C30 22.2656 29.5078 21.7559 28.9031 21.1512L27.8098 20.0578L28.0629 19.7801C28.2176 19.6113 28.3652 19.4074 28.4461 19.2457C28.5656 19.0066 28.5762 18.9539 28.5867 18.6305C28.6043 18.2156 28.5305 17.9484 28.323 17.6355C27.9855 17.1258 27.3457 16.8516 26.741 16.957C26.3613 17.0203 26.0941 17.1645 25.7742 17.4738L25.4965 17.7445L24.382 16.6301C23.7703 16.0184 23.2605 15.5156 23.25 15.5156C23.2395 15.5156 23.0848 15.6633 22.9055 15.8426Z" fill="#141414"/>
</g>
<defs>
<clipPath id="clip0_6_718">
<rect width="18" height="18" fill="white" transform="translate(12 12)"/>
</clipPath>
</defs>
</svg>
