<svg width="51" height="51" viewBox="0 0 51 51" fill="none" xmlns="http://www.w3.org/2000/svg">
<circle cx="25.5" cy="25.5" r="25.5" fill="#FABB14"/>
<g clip-path="url(#clip0_6_2479)">
<path d="M26 17.457C25.8011 17.457 25.6103 17.378 25.4697 17.2373C25.329 17.0967 25.25 16.9059 25.25 16.707V14.75C25.25 14.5511 25.329 14.3603 25.4697 14.2197C25.6103 14.079 25.8011 14 26 14C26.1989 14 26.3897 14.079 26.5303 14.2197C26.671 14.3603 26.75 14.5511 26.75 14.75V16.707C26.75 16.9059 26.671 17.0967 26.5303 17.2373C26.3897 17.378 26.1989 17.457 26 17.457ZM32.571 20.179C32.4226 20.1791 32.2774 20.1351 32.154 20.0526C32.0306 19.9701 31.9344 19.8529 31.8776 19.7157C31.8209 19.5786 31.8061 19.4276 31.8352 19.2821C31.8643 19.1365 31.9359 19.0028 32.041 18.898L33.425 17.514C33.4947 17.4443 33.5774 17.3891 33.6684 17.3514C33.7594 17.3137 33.857 17.2943 33.9555 17.2943C34.054 17.2943 34.1516 17.3137 34.2426 17.3514C34.3336 17.3891 34.4163 17.4443 34.486 17.514C34.5557 17.5837 34.6109 17.6664 34.6486 17.7574C34.6863 17.8484 34.7057 17.946 34.7057 18.0445C34.7057 18.143 34.6863 18.2406 34.6486 18.3316C34.6109 18.4226 34.5557 18.5053 34.486 18.575L33.102 19.959C32.9611 20.0998 32.7701 20.1789 32.571 20.179ZM37.25 26.75H35.293C35.0941 26.75 34.9033 26.671 34.7627 26.5303C34.622 26.3897 34.543 26.1989 34.543 26C34.543 25.8011 34.622 25.6103 34.7627 25.4697C34.9033 25.329 35.0941 25.25 35.293 25.25H37.25C37.4489 25.25 37.6397 25.329 37.7803 25.4697C37.921 25.6103 38 25.8011 38 26C38 26.1989 37.921 26.3897 37.7803 26.5303C37.6397 26.671 37.4489 26.75 37.25 26.75ZM33.955 34.705C33.8565 34.7052 33.7589 34.6859 33.6679 34.6482C33.577 34.6104 33.4944 34.5549 33.425 34.485L32.041 33.101C31.9713 33.0313 31.9161 32.9486 31.8784 32.8576C31.8407 32.7666 31.8213 32.669 31.8213 32.5705C31.8213 32.472 31.8407 32.3744 31.8784 32.2834C31.9161 32.1924 31.9713 32.1097 32.041 32.04C32.1107 31.9703 32.1934 31.9151 32.2844 31.8774C32.3754 31.8397 32.473 31.8203 32.5715 31.8203C32.67 31.8203 32.7676 31.8397 32.8586 31.8774C32.9496 31.9151 33.0323 31.9703 33.102 32.04L34.486 33.424C34.5912 33.5289 34.6628 33.6627 34.6919 33.8083C34.7209 33.954 34.7061 34.105 34.6492 34.2422C34.5923 34.3794 34.496 34.4966 34.3724 34.579C34.2488 34.6614 34.1035 34.7053 33.955 34.705ZM18.045 34.705C17.8966 34.7051 17.7514 34.6611 17.628 34.5786C17.5046 34.4961 17.4084 34.3789 17.3516 34.2417C17.2949 34.1046 17.2801 33.9536 17.3092 33.8081C17.3383 33.6625 17.4099 33.5288 17.515 33.424L18.899 32.04C18.9687 31.9703 19.0514 31.9151 19.1424 31.8774C19.2334 31.8397 19.331 31.8203 19.4295 31.8203C19.528 31.8203 19.6256 31.8397 19.7166 31.8774C19.8076 31.9151 19.8903 31.9703 19.96 32.04C20.0297 32.1097 20.0849 32.1924 20.1226 32.2834C20.1603 32.3744 20.1797 32.472 20.1797 32.5705C20.1797 32.669 20.1603 32.7666 20.1226 32.8576C20.0849 32.9486 20.0297 33.0313 19.96 33.101L18.576 34.485C18.5064 34.5549 18.4236 34.6103 18.3325 34.648C18.2413 34.6858 18.1436 34.7052 18.045 34.705ZM16.707 26.75H14.75C14.5511 26.75 14.3603 26.671 14.2197 26.5303C14.079 26.3897 14 26.1989 14 26C14 25.8011 14.079 25.6103 14.2197 25.4697C14.3603 25.329 14.5511 25.25 14.75 25.25H16.707C16.9059 25.25 17.0967 25.329 17.2373 25.4697C17.378 25.6103 17.457 25.8011 17.457 26C17.457 26.1989 17.378 26.3897 17.2373 26.5303C17.0967 26.671 16.9059 26.75 16.707 26.75ZM19.429 20.179C19.3305 20.1792 19.2329 20.1599 19.1419 20.1222C19.051 20.0844 18.9684 20.0289 18.899 19.959L17.515 18.575C17.4453 18.5053 17.3901 18.4226 17.3524 18.3316C17.3147 18.2406 17.2953 18.143 17.2953 18.0445C17.2953 17.946 17.3147 17.8484 17.3524 17.7574C17.3901 17.6664 17.4453 17.5837 17.515 17.514C17.5847 17.4443 17.6674 17.3891 17.7584 17.3514C17.8494 17.3137 17.947 17.2943 18.0455 17.2943C18.144 17.2943 18.2416 17.3137 18.3326 17.3514C18.4236 17.3891 18.5063 17.4443 18.576 17.514L19.96 18.898C20.0652 19.0029 20.1368 19.1367 20.1659 19.2823C20.1949 19.428 20.1801 19.579 20.1232 19.7162C20.0663 19.8534 19.97 19.9706 19.8464 20.053C19.7228 20.1354 19.5775 20.1793 19.429 20.179ZM29 35V36.25C29 37.21 28.21 38 27.25 38H24.75C23.91 38 23 37.36 23 35.96V35H29ZM30.41 20.56C29.5924 19.8994 28.6369 19.4307 27.6141 19.1884C26.5913 18.9461 25.5271 18.9364 24.5 19.16C21.85 19.71 19.7 21.87 19.15 24.52C18.59 27.24 19.61 29.94 21.79 31.59C22.38 32.03 22.79 32.71 22.93 33.5V33.51C22.95 33.5 22.98 33.5 23 33.5H29C29.02 33.5 29.03 33.5 29.05 33.51V33.5C29.19 32.74 29.64 32.04 30.33 31.5C31.1629 30.8457 31.8361 30.0105 32.2987 29.0576C32.7613 28.1048 33.0011 27.0592 33 26C33 23.88 32.06 21.9 30.41 20.56ZM29.75 26.5C29.34 26.5 29 26.16 29 25.75C29 24.23 27.77 23 26.25 23C25.84 23 25.5 22.66 25.5 22.25C25.5 21.84 25.84 21.5 26.25 21.5C27.3764 21.5026 28.4558 21.9513 29.2523 22.7477C30.0487 23.5442 30.4974 24.6236 30.5 25.75C30.5 26.16 30.16 26.5 29.75 26.5Z" fill="black"/>
<path d="M22.9301 33.5H23.0001C22.9801 33.5 22.9501 33.5 22.9301 33.51V33.5ZM29.0501 33.5V33.51C29.0301 33.5 29.0201 33.5 29.0001 33.5H29.0501Z" fill="black"/>
</g>
<defs>
<clipPath id="clip0_6_2479">
<rect width="24" height="24" fill="white" transform="translate(14 14)"/>
</clipPath>
</defs>
</svg>
