<svg width="41" height="41" viewBox="0 0 41 41" fill="none" xmlns="http://www.w3.org/2000/svg">
<circle cx="20.5" cy="20.5" r="20.5" fill="#FABB14"/>
<g clip-path="url(#clip0_6_732)">
<path d="M25.2714 12.0387C25.1625 12.0984 21.1441 16.1203 21.0843 16.2258C21.007 16.3734 21.0211 16.6441 21.116 16.7848C21.2671 17.0168 21.3304 17.0273 22.364 17.0273H23.2851V23.3273C23.2851 29.5535 23.2851 29.6309 23.3554 29.7469C23.3941 29.8102 23.475 29.891 23.5382 29.9297C23.6507 29.9965 23.7211 30 25.5175 30C27.314 30 27.3843 29.9965 27.4968 29.9297C27.5601 29.891 27.641 29.8102 27.6796 29.7469C27.75 29.6309 27.75 29.5535 27.75 23.3273V17.0273H28.6746C29.7046 17.0273 29.7679 17.0168 29.9191 16.7848C30.007 16.6512 30.0281 16.377 29.9613 16.2434C29.905 16.1344 25.8902 12.1125 25.7742 12.0492C25.6617 11.993 25.3734 11.9859 25.2714 12.0387Z" fill="#141414"/>
<path d="M17.9448 19.3898C17.8569 19.4355 17.755 19.5164 17.7163 19.5691C17.6425 19.6676 17.6425 19.6852 17.6319 24.6105C17.6249 29.434 17.6249 29.5535 17.6917 29.7047C17.7339 29.7961 17.8077 29.8875 17.878 29.9297C17.9905 29.9965 18.0503 30 19.8714 30C21.6644 30 21.7522 29.9965 21.8577 29.9332C21.9175 29.8945 21.9983 29.8102 22.037 29.7469C22.1073 29.6309 22.1073 29.5676 22.1073 24.6738C22.1073 19.752 22.1073 19.7168 22.037 19.5938C21.9948 19.527 21.9104 19.4426 21.8436 19.4004C21.7241 19.3336 21.6573 19.3301 19.9101 19.3195L18.0995 19.309L17.9448 19.3898Z" fill="#141414"/>
<path d="M12.2812 23.9109C12.2145 23.9426 12.123 24.0234 12.0809 24.0902L12 24.2098V26.9379C12 29.55 12.0035 29.6695 12.0668 29.768C12.102 29.8207 12.1793 29.898 12.232 29.9332C12.3305 29.9965 12.4324 30 14.2184 30H16.1027L16.2188 29.9191C16.282 29.877 16.3629 29.7855 16.398 29.7188C16.4613 29.6027 16.4648 29.4586 16.4648 26.9449C16.4648 24.3188 16.4648 24.2906 16.391 24.1395C16.3418 24.034 16.275 23.9637 16.1801 23.918C16.05 23.8512 15.9656 23.8477 14.2254 23.8477C12.5625 23.8477 12.3937 23.8547 12.2812 23.9109Z" fill="#141414"/>
</g>
<defs>
<clipPath id="clip0_6_732">
<rect width="18" height="18" fill="white" transform="translate(12 12)"/>
</clipPath>
</defs>
</svg>
