<svg width="323" height="15" viewBox="0 0 323 15" fill="none" xmlns="http://www.w3.org/2000/svg">
<path d="M4.698 14.288C3.378 14.288 2.34 13.928 1.584 13.208C0.84 12.476 0.468 11.492 0.468 10.256V9.428H2.79V10.256C2.79 10.868 2.958 11.348 3.294 11.696C3.63 12.032 4.092 12.2 4.68 12.2C5.28 12.2 5.748 12.032 6.084 11.696C6.42 11.36 6.588 10.88 6.588 10.256V1.184H9V10.256C9 11.468 8.616 12.446 7.848 13.19C7.092 13.922 6.042 14.288 4.698 14.288ZM21.9749 12.452C20.7989 13.676 19.2509 14.288 17.3309 14.288C15.4109 14.288 13.8629 13.676 12.6869 12.452C11.5109 11.216 10.9229 9.596 10.9229 7.592C10.9229 5.588 11.5109 3.968 12.6869 2.732C13.8629 1.508 15.4109 0.895999 17.3309 0.895999C19.2509 0.895999 20.7989 1.508 21.9749 2.732C23.1389 3.944 23.7209 5.564 23.7209 7.592C23.7209 9.62 23.1389 11.24 21.9749 12.452ZM13.4609 7.592C13.4609 8.996 13.8149 10.106 14.5229 10.922C15.2309 11.738 16.1669 12.146 17.3309 12.146C18.5069 12.146 19.4489 11.738 20.1569 10.922C20.8529 10.118 21.2009 9.008 21.2009 7.592C21.2009 6.176 20.8529 5.066 20.1569 4.262C19.4489 3.446 18.5069 3.038 17.3309 3.038C16.1669 3.038 15.2309 3.446 14.5229 4.262C13.8149 5.078 13.4609 6.188 13.4609 7.592ZM28.2493 14H25.8193V1.184H28.2493V14ZM39.3725 4.532V1.184H41.7125V14H39.0125L35.4485 8.294C34.4765 6.77 33.7145 5.486 33.1625 4.442C33.2105 5.786 33.2345 7.856 33.2345 10.652V14H30.8945V1.184H33.5945L37.1765 6.89C38.2445 8.618 39.0005 9.902 39.4445 10.742C39.3965 8.954 39.3725 6.884 39.3725 4.532ZM51.2092 14H48.7792V1.184H51.2092V14ZM62.2783 1.184H65.3023L60.0283 6.404L65.3023 14H62.4043L58.3003 8.024L56.2843 9.986V14H53.8543V1.184H56.2843V7.232L62.2783 1.184ZM76.2545 1.184V3.362H69.2345V6.386H75.5885V8.474H69.2345V11.822H76.2185V14H66.8045V1.184H76.2545ZM77.8302 3.596V1.184H80.3142V3.794C80.3142 5.402 79.5882 6.23 78.1362 6.278L77.8302 6.296V5.054L78.1182 5.036C78.6342 5 78.8922 4.616 78.8922 3.884V3.596H77.8302ZM87.159 14.288C85.419 14.288 84.069 13.898 83.109 13.118C82.161 12.338 81.681 11.222 81.669 9.77H84.063C84.075 10.682 84.345 11.336 84.873 11.732C85.413 12.128 86.199 12.326 87.231 12.326C88.071 12.326 88.713 12.17 89.157 11.858C89.601 11.534 89.823 11.072 89.823 10.472C89.823 9.968 89.631 9.584 89.247 9.32C88.875 9.056 88.191 8.822 87.195 8.618L86.115 8.402C83.367 7.886 81.993 6.59 81.993 4.514C81.993 3.41 82.413 2.534 83.253 1.886C84.093 1.226 85.257 0.895999 86.745 0.895999C88.437 0.895999 89.715 1.256 90.579 1.976C91.455 2.696 91.917 3.704 91.965 5H89.607C89.559 4.268 89.313 3.728 88.869 3.38C88.437 3.032 87.741 2.858 86.781 2.858C86.037 2.858 85.467 2.996 85.071 3.272C84.675 3.548 84.477 3.938 84.477 4.442C84.477 4.958 84.657 5.354 85.017 5.63C85.389 5.906 86.043 6.14 86.979 6.332L88.095 6.548C89.595 6.848 90.675 7.298 91.335 7.898C92.007 8.486 92.343 9.302 92.343 10.346C92.343 11.594 91.887 12.566 90.975 13.262C90.063 13.946 88.791 14.288 87.159 14.288ZM103.585 14.288C101.845 14.288 100.495 13.898 99.5347 13.118C98.5867 12.338 98.1067 11.222 98.0947 9.77H100.489C100.501 10.682 100.771 11.336 101.299 11.732C101.839 12.128 102.625 12.326 103.657 12.326C104.497 12.326 105.139 12.17 105.583 11.858C106.027 11.534 106.249 11.072 106.249 10.472C106.249 9.968 106.057 9.584 105.673 9.32C105.301 9.056 104.617 8.822 103.621 8.618L102.541 8.402C99.7927 7.886 98.4187 6.59 98.4187 4.514C98.4187 3.41 98.8387 2.534 99.6787 1.886C100.519 1.226 101.683 0.895999 103.171 0.895999C104.863 0.895999 106.141 1.256 107.005 1.976C107.881 2.696 108.343 3.704 108.391 5H106.033C105.985 4.268 105.739 3.728 105.295 3.38C104.863 3.032 104.167 2.858 103.207 2.858C102.463 2.858 101.893 2.996 101.497 3.272C101.101 3.548 100.903 3.938 100.903 4.442C100.903 4.958 101.083 5.354 101.443 5.63C101.815 5.906 102.469 6.14 103.405 6.332L104.521 6.548C106.021 6.848 107.101 7.298 107.761 7.898C108.433 8.486 108.769 9.302 108.769 10.346C108.769 11.594 108.313 12.566 107.401 13.262C106.489 13.946 105.217 14.288 103.585 14.288ZM115.892 14.27C114.224 14.27 112.91 13.826 111.95 12.938C111.002 12.038 110.528 10.784 110.528 9.176V1.184H112.958V9.194C112.958 10.166 113.21 10.904 113.714 11.408C114.218 11.912 114.944 12.164 115.892 12.164C116.84 12.164 117.566 11.912 118.07 11.408C118.574 10.904 118.826 10.166 118.826 9.194V1.184H121.256V9.176C121.256 10.808 120.782 12.068 119.834 12.956C118.886 13.832 117.572 14.27 115.892 14.27ZM131.936 7.25C132.644 7.502 133.19 7.904 133.574 8.456C133.97 9.008 134.168 9.632 134.168 10.328C134.168 11.492 133.784 12.398 133.016 13.046C132.26 13.682 131.156 14 129.704 14H123.71V1.184H129.506C130.85 1.184 131.876 1.49 132.584 2.102C133.292 2.714 133.646 3.512 133.646 4.496C133.646 5.756 133.076 6.674 131.936 7.25ZM129.326 3.182H126.14V6.53H129.326C129.938 6.53 130.406 6.38 130.73 6.08C131.066 5.768 131.234 5.342 131.234 4.802C131.234 4.298 131.066 3.902 130.73 3.614C130.394 3.326 129.926 3.182 129.326 3.182ZM126.14 11.984H129.578C130.262 11.984 130.784 11.834 131.144 11.534C131.504 11.222 131.684 10.784 131.684 10.22C131.684 9.032 130.982 8.438 129.578 8.438H126.14V11.984ZM140.994 14.288C139.254 14.288 137.904 13.898 136.944 13.118C135.996 12.338 135.516 11.222 135.504 9.77H137.898C137.91 10.682 138.18 11.336 138.708 11.732C139.248 12.128 140.034 12.326 141.066 12.326C141.906 12.326 142.548 12.17 142.992 11.858C143.436 11.534 143.658 11.072 143.658 10.472C143.658 9.968 143.466 9.584 143.082 9.32C142.71 9.056 142.026 8.822 141.03 8.618L139.95 8.402C137.202 7.886 135.828 6.59 135.828 4.514C135.828 3.41 136.248 2.534 137.088 1.886C137.928 1.226 139.092 0.895999 140.58 0.895999C142.272 0.895999 143.55 1.256 144.414 1.976C145.29 2.696 145.752 3.704 145.8 5H143.442C143.394 4.268 143.148 3.728 142.704 3.38C142.272 3.032 141.576 2.858 140.616 2.858C139.872 2.858 139.302 2.996 138.906 3.272C138.51 3.548 138.312 3.938 138.312 4.442C138.312 4.958 138.492 5.354 138.852 5.63C139.224 5.906 139.878 6.14 140.814 6.332L141.93 6.548C143.43 6.848 144.51 7.298 145.17 7.898C145.842 8.486 146.178 9.302 146.178 10.346C146.178 11.594 145.722 12.566 144.81 13.262C143.898 13.946 142.626 14.288 140.994 14.288ZM146.693 1.184H157.349V3.362H153.245V14H150.797V3.362H146.693V1.184ZM168.795 14H166.221L165.213 11.174H159.597L158.607 14H156.105L160.983 1.184H163.827L168.795 14ZM160.821 7.718L160.335 9.104H164.475L163.971 7.718C163.551 6.65 163.023 5.186 162.387 3.326C161.883 4.814 161.361 6.278 160.821 7.718ZM175.257 14.288C173.409 14.288 171.915 13.682 170.775 12.47C169.623 11.258 169.047 9.632 169.047 7.592C169.047 5.54 169.617 3.908 170.757 2.696C171.885 1.496 173.385 0.895999 175.257 0.895999C176.757 0.895999 178.035 1.298 179.091 2.102C180.147 2.906 180.807 4.07 181.071 5.594H178.605C178.389 4.754 177.987 4.118 177.399 3.686C176.823 3.242 176.109 3.02 175.257 3.02C174.117 3.02 173.217 3.428 172.557 4.244C171.909 5.048 171.585 6.164 171.585 7.592C171.585 9.032 171.909 10.154 172.557 10.958C173.205 11.762 174.105 12.164 175.257 12.164C176.145 12.164 176.907 11.9 177.543 11.372C178.179 10.844 178.563 10.112 178.695 9.176H181.125C180.969 10.808 180.333 12.068 179.217 12.956C178.113 13.844 176.793 14.288 175.257 14.288ZM191.594 1.184H194.618L189.344 6.404L194.618 14H191.72L187.616 8.024L185.6 9.986V14H183.17V1.184H185.6V7.232L191.594 1.184ZM209.217 4.532V1.184H211.557V14H208.857L205.293 8.294C204.321 6.77 203.559 5.486 203.007 4.442C203.055 5.786 203.079 7.856 203.079 10.652V14H200.739V1.184H203.439L207.021 6.89C208.089 8.618 208.845 9.902 209.289 10.742C209.241 8.954 209.217 6.884 209.217 4.532ZM223.648 1.184V3.362H216.628V6.386H222.982V8.474H216.628V11.822H223.612V14H214.198V1.184H223.648ZM238.166 6.35L239.516 1.184H242.036L238.49 14H235.754L234.386 8.672C233.822 6.332 233.474 4.82 233.342 4.136C233.006 5.732 232.658 7.244 232.298 8.672L230.93 14H228.212L224.648 1.184H227.186L228.518 6.35C229.142 8.846 229.532 10.472 229.688 11.228C230.072 9.428 230.438 7.796 230.786 6.332L232.1 1.184H234.602L235.916 6.332C236.252 7.7 236.612 9.338 236.996 11.246C237.248 10.13 237.638 8.498 238.166 6.35ZM248.158 14.288C246.418 14.288 245.068 13.898 244.108 13.118C243.16 12.338 242.68 11.222 242.668 9.77H245.062C245.074 10.682 245.344 11.336 245.872 11.732C246.412 12.128 247.198 12.326 248.23 12.326C249.07 12.326 249.712 12.17 250.156 11.858C250.6 11.534 250.822 11.072 250.822 10.472C250.822 9.968 250.63 9.584 250.246 9.32C249.874 9.056 249.19 8.822 248.194 8.618L247.114 8.402C244.366 7.886 242.992 6.59 242.992 4.514C242.992 3.41 243.412 2.534 244.252 1.886C245.092 1.226 246.256 0.895999 247.744 0.895999C249.436 0.895999 250.714 1.256 251.578 1.976C252.454 2.696 252.916 3.704 252.964 5H250.606C250.558 4.268 250.312 3.728 249.868 3.38C249.436 3.032 248.74 2.858 247.78 2.858C247.036 2.858 246.466 2.996 246.07 3.272C245.674 3.548 245.476 3.938 245.476 4.442C245.476 4.958 245.656 5.354 246.016 5.63C246.388 5.906 247.042 6.14 247.978 6.332L249.094 6.548C250.594 6.848 251.674 7.298 252.334 7.898C253.006 8.486 253.342 9.302 253.342 10.346C253.342 11.594 252.886 12.566 251.974 13.262C251.062 13.946 249.79 14.288 248.158 14.288ZM257.711 1.184V11.822H263.813V14H255.281V1.184H257.711ZM275.133 1.184V3.362H268.113V6.386H274.467V8.474H268.113V11.822H275.097V14H265.683V1.184H275.133ZM276.365 1.184H287.021V3.362H282.917V14H280.469V3.362H276.365V1.184ZM288.208 1.184H298.864V3.362H294.76V14H292.312V3.362H288.208V1.184ZM310.081 1.184V3.362H303.061V6.386H309.415V8.474H303.061V11.822H310.045V14H300.631V1.184H310.081ZM322.166 10.598L322.274 12.506C322.286 13.118 322.418 13.616 322.67 14H320.168C319.952 13.64 319.838 13.13 319.826 12.47L319.772 11.066C319.736 10.286 319.556 9.746 319.232 9.446C318.92 9.134 318.416 8.978 317.72 8.978H314.552V14H312.122V1.184H317.936C319.364 1.184 320.474 1.508 321.266 2.156C322.058 2.804 322.454 3.686 322.454 4.802C322.454 6.338 321.74 7.358 320.312 7.862C320.96 8.066 321.422 8.39 321.698 8.834C321.986 9.266 322.142 9.854 322.166 10.598ZM314.552 3.182V7.07H317.792C318.476 7.07 319.004 6.902 319.376 6.566C319.76 6.218 319.952 5.72 319.952 5.072C319.952 4.46 319.754 3.992 319.358 3.668C318.974 3.344 318.422 3.182 317.702 3.182H314.552Z" fill="black"/>
</svg>
