<svg width="119" height="22" viewBox="0 0 119 22" fill="none" xmlns="http://www.w3.org/2000/svg">
<path d="M0.308 15.064H4.088C4.088 16.996 4.48 17.808 5.348 17.808C5.936 17.808 6.384 17.416 6.384 16.184C6.384 15.092 6.048 13.944 4.76 12.964L3.472 11.984C1.4 10.416 0.448 8.764 0.448 6.188C0.448 2.576 2.436 0.615999 5.46 0.615999C8.372 0.615999 10.136 2.296 10.052 6.748H6.384C6.384 4.816 6.02 4.172 5.32 4.172C4.592 4.172 4.172 4.816 4.172 5.852C4.172 7.056 4.732 7.924 5.796 8.708L7.224 9.772C8.876 11.004 10.164 12.404 10.164 15.54C10.164 19.46 8.176 21.364 5.18 21.364C2.212 21.364 0.224 19.516 0.308 15.064ZM16.2413 21.336C14.6453 21.336 13.4133 20.916 12.6853 20.132C11.7053 19.096 11.2013 17.668 11.2013 13.636V8.344C11.2013 4.312 11.7053 2.884 12.6853 1.848C13.4133 1.092 14.6453 0.643998 16.2413 0.643998C17.8653 0.643998 19.0693 1.092 19.7973 1.848C20.7773 2.912 21.3093 4.312 21.3093 8.344V13.636C21.3093 17.668 20.8053 19.096 19.7973 20.132C19.0693 20.916 17.8653 21.336 16.2413 21.336ZM15.0653 7.56V14.42C15.0653 16.772 15.1213 17.92 16.2413 17.92C17.3053 17.92 17.4173 16.772 17.4173 14.42V7.56C17.4173 5.208 17.3053 4.06 16.2413 4.06C15.1213 4.06 15.0653 5.208 15.0653 7.56ZM27.7784 21.336C26.2104 21.336 25.0904 20.916 24.3064 20.132C23.2144 19.04 22.8224 17.08 22.8224 13.636V8.344C22.8224 4.704 23.2704 2.912 24.3064 1.876C25.1184 1.064 26.2944 0.643998 27.7224 0.643998C29.1784 0.643998 30.4104 1.092 31.1944 1.848C32.1184 2.744 32.6504 4.284 32.6504 7.532V7.644H28.8984V7.476C28.8984 5.124 28.8984 4.06 27.8344 4.06C26.7704 4.06 26.6864 5.096 26.6864 7.56V14.42C26.6864 16.688 26.6864 17.92 27.8344 17.92C28.9544 17.92 28.9544 16.744 28.9544 13.636V13.468H32.7064V13.58C32.7064 17.528 32.1464 19.124 31.1664 20.132C30.3824 20.944 29.2904 21.336 27.7784 21.336ZM33.9539 0.979999H37.8179L37.7899 3.024V18.956L37.8179 21H33.9539L33.9819 18.956V3.024L33.9539 0.979999ZM42.6954 18.144L42.1914 21H38.5514L42.8634 0.979999H45.8594L50.2274 21H46.3634L45.8594 18.144H42.6954ZM43.9274 11.088L43.2834 14.812H45.2994L44.6834 11.088C44.5434 10.276 44.4314 9.212 44.3474 8.652H44.2634C44.1794 9.212 44.0674 10.276 43.9274 11.088ZM58.8304 21H50.9344L50.9624 18.956V3.024L50.9344 0.979999H54.7984L54.7704 3.024V17.556H58.8304V21ZM68.5202 16.632L66.1962 11.284H66.0562C66.0842 12.012 66.1122 13.132 66.1122 13.916V18.956L66.1402 21H62.5282L62.5562 18.956V3.024L62.5282 0.979999H65.3562L68.6882 8.848H68.7722L72.1042 0.979999H74.9882L74.9602 3.024V18.956L74.9882 21H71.1802L71.2082 18.956V13.916C71.2082 13.132 71.2362 12.012 71.2642 11.284H71.1242L68.7722 16.632H68.5202ZM83.9396 12.656H80.7196V17.556H84.8076V21H76.8836L76.9116 18.956V3.024L76.8836 0.979999H84.7236V4.368H80.7196V8.848H83.9396V12.656ZM90.5524 0.979999C92.1764 0.979999 93.2964 1.428 94.0804 2.128C95.2004 3.108 95.8164 4.788 95.8164 7.728V14.252C95.8164 17.192 95.2004 18.872 94.0804 19.852C93.2964 20.552 92.1764 21 90.5524 21H86.0164L86.0444 18.956V3.024L86.0164 0.979999H90.5524ZM90.3284 4.34H89.8524V17.64H90.3284C91.8964 17.64 91.9804 16.156 91.9804 14.588V7.392C91.9804 5.992 91.9804 4.34 90.3284 4.34ZM97.4461 0.979999H101.31L101.282 3.024V18.956L101.31 21H97.4461L97.4741 18.956V3.024L97.4461 0.979999ZM106.188 18.144L105.684 21H102.044L106.356 0.979999H109.352L113.72 21H109.856L109.352 18.144H106.188ZM107.42 11.088L106.776 14.812H108.792L108.176 11.088C108.036 10.276 107.924 9.212 107.84 8.652H107.756C107.672 9.212 107.56 10.276 107.42 11.088ZM114.455 21V16.912H118.179V21H114.455ZM114.455 10.948V6.86H118.179V10.948H114.455Z" fill="black"/>
</svg>
