<svg width="265" height="22" viewBox="0 0 265 22" fill="none" xmlns="http://www.w3.org/2000/svg">
<path d="M7.132 0.979999H9.68L10.912 9.016C11.024 9.744 11.08 10.36 11.164 11.088H11.276C11.332 10.444 11.416 9.66 11.5 9.016L12.564 0.979999H16.008L12.564 21H9.736L8.84 14.812L8.476 12.012H8.336L7.972 14.812L7.076 21H4.248L0.944 0.979999H4.444L5.508 9.016L5.732 11.088H5.844L6.096 9.016L7.132 0.979999ZM19.4688 18.144L18.9648 21H15.3248L19.6368 0.979999H22.6328L27.0008 21H23.1368L22.6328 18.144H19.4688ZM20.7008 11.088L20.0568 14.812H22.0728L21.4568 11.088C21.3168 10.276 21.2048 9.212 21.1208 8.652H21.0368C20.9528 9.212 20.8408 10.276 20.7008 11.088ZM27.7078 21L27.7358 18.956V3.024L27.7078 0.979999H30.1998L32.9438 7.7C33.4198 8.792 33.4478 8.988 33.7558 9.772H33.8678C33.8398 9.1 33.8118 8.12 33.8118 7.42V3.024L33.7558 0.979999H37.4238L37.3678 3.024V18.956L37.4238 21H35.0158L32.0198 13.86C31.7398 13.244 31.4318 12.348 31.3198 12.096H31.2078C31.2638 12.74 31.2918 13.72 31.2918 14.448V18.956L31.3198 21H27.7078ZM47.7055 4.368H45.0455V18.956L45.0735 21H41.2095L41.2375 18.956V4.368H38.5215V0.979999H47.7055V4.368ZM57.3795 16.632L55.0555 11.284H54.9155C54.9435 12.012 54.9715 13.132 54.9715 13.916V18.956L54.9995 21H51.3875L51.4155 18.956V3.024L51.3875 0.979999H54.2155L57.5475 8.848H57.6315L60.9635 0.979999H63.8475L63.8195 3.024V18.956L63.8475 21H60.0395L60.0675 18.956V13.916C60.0675 13.132 60.0955 12.012 60.1235 11.284H59.9835L57.6315 16.632H57.3795ZM70.5069 21.336C68.9109 21.336 67.6789 20.916 66.9509 20.132C65.9709 19.096 65.4669 17.668 65.4669 13.636V8.344C65.4669 4.312 65.9709 2.884 66.9509 1.848C67.6789 1.092 68.9109 0.643998 70.5069 0.643998C72.1309 0.643998 73.3349 1.092 74.0629 1.848C75.0429 2.912 75.5749 4.312 75.5749 8.344V13.636C75.5749 17.668 75.0709 19.096 74.0629 20.132C73.3349 20.916 72.1309 21.336 70.5069 21.336ZM69.3309 7.56V14.42C69.3309 16.772 69.3869 17.92 70.5069 17.92C71.5709 17.92 71.6829 16.772 71.6829 14.42V7.56C71.6829 5.208 71.5709 4.06 70.5069 4.06C69.3869 4.06 69.3309 5.208 69.3309 7.56ZM81.036 4.256V9.464H81.344C82.772 9.464 83.136 8.456 83.136 6.916V6.832C83.136 5.376 82.772 4.256 81.372 4.256H81.036ZM81.316 12.936H81.036V18.956L81.064 21H77.2L77.228 18.956V3.024L77.2 0.979999H81.484C85.768 0.979999 86.972 3.444 86.972 6.44V6.496C86.972 10.024 85.74 10.808 84.284 11.256V11.396C85.432 11.704 86.888 12.46 86.944 15.764C86.972 17.976 87 19.096 87.392 20.58V21H83.612C83.136 19.46 83.108 18.172 83.052 15.148C83.024 13.832 82.464 12.936 81.316 12.936ZM95.6584 12.656H92.4384V17.556H96.5264V21H88.6024L88.6304 18.956V3.024L88.6024 0.979999H96.4424V4.368H92.4384V8.848H95.6584V12.656ZM100.634 0.979999H104.498L104.47 3.024V18.956L104.498 21H100.634L100.662 18.956V3.024L100.634 0.979999ZM106.403 21L106.431 18.956V3.024L106.403 0.979999H108.895L111.639 7.7C112.115 8.792 112.143 8.988 112.451 9.772H112.563C112.535 9.1 112.507 8.12 112.507 7.42V3.024L112.451 0.979999H116.119L116.063 3.024V18.956L116.119 21H113.711L110.715 13.86C110.435 13.244 110.127 12.348 110.015 12.096H109.903C109.959 12.74 109.987 13.72 109.987 14.448V18.956L110.015 21H106.403ZM117.273 15.064H121.053C121.053 16.996 121.445 17.808 122.313 17.808C122.901 17.808 123.349 17.416 123.349 16.184C123.349 15.092 123.013 13.944 121.725 12.964L120.437 11.984C118.365 10.416 117.413 8.764 117.413 6.188C117.413 2.576 119.401 0.615999 122.425 0.615999C125.337 0.615999 127.101 2.296 127.017 6.748H123.349C123.349 4.816 122.985 4.172 122.285 4.172C121.557 4.172 121.137 4.816 121.137 5.852C121.137 7.056 121.697 7.924 122.761 8.708L124.189 9.772C125.841 11.004 127.129 12.404 127.129 15.54C127.129 19.46 125.141 21.364 122.145 21.364C119.177 21.364 117.189 19.516 117.273 15.064ZM128.278 0.979999H132.142L132.114 3.024V18.956L132.142 21H128.278L128.306 18.956V3.024L128.278 0.979999ZM141.892 20.16C141.164 20.86 140.184 21.336 138.644 21.336C137.104 21.336 135.984 20.86 135.256 20.132C134.248 19.124 133.772 17.36 133.772 13.636V8.344C133.772 4.9 134.164 2.968 135.256 1.876C135.928 1.204 136.992 0.643998 138.7 0.643998C140.24 0.643998 141.36 1.092 142.116 1.876C143.068 2.744 143.6 4.144 143.6 7.532V7.644H139.848V7.476C139.848 5.068 139.848 4.06 138.784 4.06C137.636 4.06 137.636 5.236 137.636 7.56V14.42C137.636 16.856 137.72 17.92 138.784 17.92C139.904 17.92 139.904 16.8 139.904 15.036V13.776H138.616V10.556H143.656V21H143.432L141.948 20.16H141.892ZM151.36 0.979999H155.224L155.196 3.024V18.956L155.224 21H151.36L151.388 18.956V12.6H149.204V18.956L149.232 21H145.368L145.396 18.956V3.024L145.368 0.979999H149.232L149.204 3.024V8.764H151.388V3.024L151.36 0.979999ZM165.53 4.368H162.87V18.956L162.898 21H159.034L159.062 18.956V4.368H156.346V0.979999H165.53V4.368ZM166.081 15.064H169.861C169.861 16.996 170.253 17.808 171.121 17.808C171.709 17.808 172.157 17.416 172.157 16.184C172.157 15.092 171.821 13.944 170.533 12.964L169.245 11.984C167.173 10.416 166.221 8.764 166.221 6.188C166.221 2.576 168.209 0.615999 171.233 0.615999C174.145 0.615999 175.909 2.296 175.825 6.748H172.157C172.157 4.816 171.793 4.172 171.093 4.172C170.365 4.172 169.945 4.816 169.945 5.852C169.945 7.056 170.505 7.924 171.569 8.708L172.997 9.772C174.649 11.004 175.937 12.404 175.937 15.54C175.937 19.46 173.949 21.364 170.953 21.364C167.985 21.364 165.997 19.516 166.081 15.064ZM187.097 12.908H183.821V18.956L183.849 21H179.985L180.013 18.956V3.024L179.985 0.979999H187.713V4.368H183.821V9.1H187.097V12.908ZM192.599 4.256V9.464H192.907C194.335 9.464 194.699 8.456 194.699 6.916V6.832C194.699 5.376 194.335 4.256 192.935 4.256H192.599ZM192.879 12.936H192.599V18.956L192.627 21H188.763L188.791 18.956V3.024L188.763 0.979999H193.047C197.331 0.979999 198.535 3.444 198.535 6.44V6.496C198.535 10.024 197.303 10.808 195.847 11.256V11.396C196.995 11.704 198.451 12.46 198.507 15.764C198.535 17.976 198.563 19.096 198.955 20.58V21H195.175C194.699 19.46 194.671 18.172 194.615 15.148C194.587 13.832 194.027 12.936 192.879 12.936ZM205.093 21.336C203.497 21.336 202.265 20.916 201.537 20.132C200.557 19.096 200.053 17.668 200.053 13.636V8.344C200.053 4.312 200.557 2.884 201.537 1.848C202.265 1.092 203.497 0.643998 205.093 0.643998C206.717 0.643998 207.921 1.092 208.649 1.848C209.629 2.912 210.161 4.312 210.161 8.344V13.636C210.161 17.668 209.657 19.096 208.649 20.132C207.921 20.916 206.717 21.336 205.093 21.336ZM203.917 7.56V14.42C203.917 16.772 203.973 17.92 205.093 17.92C206.157 17.92 206.269 16.772 206.269 14.42V7.56C206.269 5.208 206.157 4.06 205.093 4.06C203.973 4.06 203.917 5.208 203.917 7.56ZM217.778 16.632L215.454 11.284H215.314C215.342 12.012 215.37 13.132 215.37 13.916V18.956L215.398 21H211.786L211.814 18.956V3.024L211.786 0.979999H214.614L217.946 8.848H218.03L221.362 0.979999H224.246L224.218 3.024V18.956L224.246 21H220.438L220.466 18.956V13.916C220.466 13.132 220.494 12.012 220.522 11.284H220.382L218.03 16.632H217.778ZM228.876 0.979999H232.74L232.712 3.024V18.956L232.74 21H228.876L228.904 18.956V3.024L228.876 0.979999ZM240.973 0.979999H244.781L241.841 10.108L245.145 21H241.085L238.593 12.488H238.481V18.956L238.509 21H234.645L234.673 18.956V3.024L234.645 0.979999H238.509L238.481 3.024V7.532C238.481 8.036 238.481 8.736 238.453 9.296H238.565L239.069 7.672L240.973 0.979999ZM253.022 12.656H249.802V17.556H253.89V21H245.966L245.994 18.956V3.024L245.966 0.979999H253.806V4.368H249.802V8.848H253.022V12.656ZM260.166 6.384V6.328C260.166 5.18 260.082 4.76 259.802 4.452C259.606 4.228 259.326 4.172 259.13 4.172C258.878 4.172 258.682 4.256 258.514 4.452C258.262 4.76 258.066 5.096 258.066 6.412V6.468H254.314V6.412C254.314 4.2 254.902 2.744 255.798 1.904C256.638 1.064 257.73 0.643998 259.186 0.643998C260.726 0.643998 261.762 1.12 262.546 1.904C263.526 2.884 264.03 4.144 264.03 6.272V6.328C264.03 9.856 262.938 12.152 260.67 12.572V15.176H257.702L257.534 9.772C259.354 9.716 260.166 9.352 260.166 6.384ZM257.282 21V16.912H261.006V21H257.282Z" fill="black"/>
</svg>
