<svg width="51" height="51" viewBox="0 0 51 51" fill="none" xmlns="http://www.w3.org/2000/svg">
<circle cx="25.5" cy="25.5" r="25.5" fill="#FABB14"/>
<path d="M25.6109 14.0516C25.5641 14.0797 25.2781 14.4781 24.9688 14.9375C24.6594 15.4016 24.3688 15.8 24.3172 15.8234C24.2703 15.8516 23.825 15.9875 23.3328 16.1281C22.8406 16.2687 22.3813 16.4141 22.3156 16.4609C22.1797 16.55 22.1094 16.7094 22.1094 16.9297C22.1094 17.1031 22.1891 17.2203 22.8828 18.0547C23.1219 18.3359 23.3375 18.6219 23.3703 18.6828C23.4172 18.7719 23.4219 18.9922 23.3938 19.6906C23.3703 20.1828 23.3563 20.6562 23.3563 20.7406C23.3703 21.0547 23.5813 21.2656 23.8859 21.2656C23.9609 21.2656 24.4297 21.1062 24.9219 20.9141C25.4141 20.7219 25.8641 20.5625 25.9156 20.5625C25.9672 20.5625 26.4125 20.7219 26.9 20.9141C27.3875 21.1062 27.8516 21.2656 27.9266 21.2656C28.1375 21.2656 28.3438 21.1391 28.4141 20.9656C28.4703 20.8344 28.4703 20.6422 28.4281 19.8172C28.3953 19.1281 28.3906 18.7906 28.4234 18.7203C28.4516 18.6594 28.7281 18.3078 29.0375 17.9328C29.3422 17.5578 29.6188 17.2062 29.6516 17.1547C29.75 16.9672 29.7172 16.6859 29.5766 16.5312C29.4641 16.4141 29.3188 16.3578 28.5125 16.1328C27.9969 15.9875 27.5375 15.8469 27.4859 15.8234C27.4391 15.7953 27.1578 15.4062 26.8625 14.9609C26.5672 14.5109 26.2812 14.1125 26.225 14.075C26.1078 13.9906 25.7375 13.9766 25.6109 14.0516Z" fill="black"/>
<path d="M17.3046 16.2032C16.9484 16.3485 16.7656 16.8313 16.925 17.2016C16.9625 17.286 17.689 18.0453 18.575 18.9313C20.1171 20.4594 20.1687 20.5063 20.3843 20.5391C20.7406 20.5907 21.0453 20.436 21.214 20.1078C21.2796 19.9813 21.2796 19.6719 21.2187 19.4985C21.1531 19.325 18.1437 16.3063 17.9515 16.2219C17.7875 16.1516 17.4546 16.1375 17.3046 16.2032Z" fill="black"/>
<path d="M34.0391 16.2219C33.8469 16.311 30.8469 19.3344 30.7813 19.4985C30.5703 20.075 31.011 20.6282 31.6157 20.5391C31.8313 20.5063 31.8828 20.4594 33.425 18.9313C34.311 18.0454 35.0375 17.286 35.075 17.2016C35.1125 17.1172 35.1407 16.9813 35.1407 16.8969C35.1407 16.7 34.986 16.3907 34.8266 16.2735C34.6625 16.161 34.236 16.1282 34.0391 16.2219Z" fill="black"/>
<path d="M18.228 22.85C17.7733 23.0141 17.3843 23.4219 17.253 23.8766C17.1874 24.0969 17.1827 24.3453 17.2015 25.5969C17.2249 27.1297 17.2577 27.3969 17.5108 28.3063C17.9608 29.9 19.0202 31.5266 20.2952 32.5813C20.5765 32.8156 20.764 33.0078 20.7968 33.0922C20.8249 33.1813 20.8437 34.0578 20.8437 35.4781V37.7281L20.9796 37.8641L21.1155 38H25.8499C30.5468 38 30.5843 38 30.7015 37.9063C30.7718 37.85 30.8468 37.7281 30.8749 37.6344C30.903 37.5266 30.9218 36.6266 30.9218 35.2813C30.9265 33.6406 30.9405 33.0828 30.9827 33.0266C31.0155 32.9844 31.1655 32.8531 31.3202 32.7266C32.9046 31.4609 34.0249 29.6234 34.4702 27.5703C34.5827 27.05 34.5921 26.8953 34.6108 25.5313C34.6343 24.1063 34.6296 24.0453 34.5312 23.7875C34.3999 23.4359 34.0812 23.0844 33.7437 22.9203C33.5093 22.8031 33.4249 22.7891 33.0312 22.7891C32.6608 22.7891 32.5483 22.8078 32.3702 22.8969C32.0374 23.0609 31.7983 23.2906 31.6202 23.6188L31.4608 23.9141L31.428 25.2969C31.4093 26.2906 31.3765 26.7734 31.3249 27.0078C30.903 28.8688 29.6655 30.35 27.964 31.0297C27.214 31.3344 26.7827 31.4094 25.8827 31.4094C25.1796 31.4047 25.0343 31.3906 24.6358 31.2875C22.4562 30.7016 20.9515 29.1359 20.4874 26.9609C20.4312 26.6844 20.403 26.2391 20.3796 25.25L20.3515 23.9141L20.2202 23.6516C20.0702 23.3375 19.7515 23.0328 19.4468 22.8922C19.1327 22.7563 18.5562 22.7328 18.228 22.85Z" fill="black"/>
<path d="M25.1703 23.3516C24.4766 23.5391 23.7969 24.0688 23.4781 24.6734C22.6578 26.2297 23.4078 28.0391 25.1094 28.6063C25.4985 28.7328 26.2485 28.7281 26.6891 28.5875C27.5656 28.3156 28.2969 27.5281 28.5078 26.6469C28.5969 26.2625 28.5969 25.6719 28.5078 25.3203C28.2641 24.3594 27.5 23.5953 26.5391 23.3516C26.1969 23.2625 25.4985 23.2625 25.1703 23.3516Z" fill="black"/>
</svg>
